%TF.GenerationSoftware,Altium Limited,Altium Designer,26.2.0 (7)*%
G04 Layer_Color=0*
%FSLAX45Y45*%
%MOMM*%
%TF.SameCoordinates,7E3C43A8-A274-4656-BCAB-ED4188872703*%
%TF.FilePolarity,Positive*%
%TF.FileFunction,Plated,1,4,PTH,Drill*%
%TF.Part,Single*%
G01*
G75*
%TA.AperFunction,ComponentDrill*%
%ADD220C,0.80000*%
%ADD221C,1.00000*%
%ADD222C,1.02000*%
%ADD223C,1.02000*%
%ADD224C,0.89000*%
%ADD225C,0.89000*%
%ADD226C,1.50000*%
%ADD227C,1.40000*%
%TA.AperFunction,ViaDrill,NotFilled*%
%ADD228C,0.30000*%
D220*
X1740000Y9380000D02*
D03*
X1410000Y8965000D02*
D03*
X1740000D02*
D03*
X1410000Y9380000D02*
D03*
D221*
X7065000Y4389815D02*
D03*
X9200000Y3729999D02*
D03*
Y3479999D02*
D03*
Y3979999D02*
D03*
X7380000Y3594429D02*
D03*
X7580000Y3635206D02*
D03*
X8005571Y4020000D02*
D03*
X7964794Y4220000D02*
D03*
X7380000Y4604794D02*
D03*
X7580000Y4645571D02*
D03*
X6995206Y4020000D02*
D03*
X6954429Y4220000D02*
D03*
D222*
X4892000Y5900000D02*
D03*
X400000Y7000000D02*
D03*
X5146000Y5900000D02*
D03*
X5400000Y5900000D02*
D03*
X5654000Y5900000D02*
D03*
X5908000Y5900000D02*
D03*
X6162000Y5900000D02*
D03*
X220000Y9080000D02*
D03*
X1480000Y3500000D02*
D03*
X1820000Y780000D02*
D03*
X1000000Y3080000D02*
D03*
X240000Y2580000D02*
D03*
X990000Y3880000D02*
D03*
X1500000Y6280000D02*
D03*
D223*
X3392700Y311999D02*
D03*
X3392700Y566000D02*
D03*
X3532700Y1694000D02*
D03*
Y1440000D02*
D03*
Y1186000D02*
D03*
X3392700Y820000D02*
D03*
X2572701Y311999D02*
D03*
X2572701Y566000D02*
D03*
X2572700Y820000D02*
D03*
D224*
X9710710Y9569289D02*
D03*
X9569290Y9710711D02*
D03*
X289289Y430711D02*
D03*
X430711Y289289D02*
D03*
D225*
X9569289Y289289D02*
D03*
X9710711Y430711D02*
D03*
X430711Y9710710D02*
D03*
X289289Y9569290D02*
D03*
D226*
X1895000Y8765000D02*
D03*
D227*
X6962519Y1335299D02*
D03*
X5122183Y842182D02*
D03*
X4837482Y1904701D02*
D03*
Y1335299D02*
D03*
X5615299Y557481D02*
D03*
X6677818Y842182D02*
D03*
X6184701Y557481D02*
D03*
X5122183Y2397817D02*
D03*
X6184701Y2682518D02*
D03*
X5615299D02*
D03*
X6677818Y2397817D02*
D03*
X6962519Y1904701D02*
D03*
X5617158Y1902843D02*
D03*
D228*
X1380000Y560000D02*
D03*
X1080000Y280000D02*
D03*
X7660000Y8740000D02*
D03*
X3040000Y4820000D02*
D03*
X2808246Y2104855D02*
D03*
X2720000Y9080000D02*
D03*
X980000Y8900000D02*
D03*
X9700000Y9200000D02*
D03*
Y8200000D02*
D03*
Y7200000D02*
D03*
Y6200000D02*
D03*
Y5200000D02*
D03*
Y4200000D02*
D03*
Y3200000D02*
D03*
Y1200000D02*
D03*
Y200000D02*
D03*
X9200000Y9200000D02*
D03*
X9450000Y8700000D02*
D03*
X9200000Y8200000D02*
D03*
X9450000Y7700000D02*
D03*
X9200000Y7200000D02*
D03*
X9450000Y6700000D02*
D03*
X9200000Y6200000D02*
D03*
Y4200000D02*
D03*
Y3200000D02*
D03*
Y1200000D02*
D03*
X9450000Y700000D02*
D03*
X9200000Y200000D02*
D03*
X8950000Y8700000D02*
D03*
Y7700000D02*
D03*
X8700000Y7200000D02*
D03*
X8950000Y6700000D02*
D03*
X8700000Y6200000D02*
D03*
X8950000Y5700000D02*
D03*
Y4700000D02*
D03*
Y3700000D02*
D03*
Y2700000D02*
D03*
X8700000Y200000D02*
D03*
X8450000Y9700000D02*
D03*
Y7700000D02*
D03*
X8200000Y7200000D02*
D03*
X8450000Y6700000D02*
D03*
X8200000Y4200000D02*
D03*
Y3200000D02*
D03*
X8450000Y2700000D02*
D03*
X8200000Y1200000D02*
D03*
X8450000Y700000D02*
D03*
X7700000Y9200000D02*
D03*
X7950000Y7700000D02*
D03*
X7700000Y7200000D02*
D03*
X7950000Y6700000D02*
D03*
Y3700000D02*
D03*
X7700000Y3200000D02*
D03*
X7950000Y1700000D02*
D03*
X7700000Y1200000D02*
D03*
Y200000D02*
D03*
X7450000Y9700000D02*
D03*
X7200000Y9200000D02*
D03*
Y7200000D02*
D03*
X7450000Y6700000D02*
D03*
X7200000Y6200000D02*
D03*
X7450000Y5700000D02*
D03*
X7200000Y5200000D02*
D03*
X7450000Y4700000D02*
D03*
X7200000Y3200000D02*
D03*
X7450000Y2700000D02*
D03*
X7200000Y2200000D02*
D03*
Y1200000D02*
D03*
X7450000Y700000D02*
D03*
X7200000Y200000D02*
D03*
X6950000Y9700000D02*
D03*
Y8700000D02*
D03*
Y7700000D02*
D03*
X6700000Y7200000D02*
D03*
X6950000Y6700000D02*
D03*
Y5700000D02*
D03*
X6700000Y3200000D02*
D03*
Y2200000D02*
D03*
Y1200000D02*
D03*
X6950000Y700000D02*
D03*
X6450000Y9700000D02*
D03*
Y7700000D02*
D03*
X6200000Y7200000D02*
D03*
Y6200000D02*
D03*
X6450000Y3700000D02*
D03*
X6200000Y3200000D02*
D03*
X6450000Y2700000D02*
D03*
X6200000Y2200000D02*
D03*
Y1200000D02*
D03*
X6450000Y700000D02*
D03*
X6200000Y200000D02*
D03*
X5950000Y9700000D02*
D03*
X5700000Y8200000D02*
D03*
X5950000Y7700000D02*
D03*
Y6700000D02*
D03*
X5700000Y6200000D02*
D03*
X5950000Y3700000D02*
D03*
X5700000Y2200000D02*
D03*
Y1200000D02*
D03*
X5950000Y700000D02*
D03*
X5700000Y200000D02*
D03*
X5450000Y9700000D02*
D03*
X5200000Y8200000D02*
D03*
X5450000Y7700000D02*
D03*
Y6700000D02*
D03*
X5200000Y6200000D02*
D03*
Y5200000D02*
D03*
X5450000Y3700000D02*
D03*
X5200000Y3200000D02*
D03*
X5450000Y2700000D02*
D03*
X5200000Y1200000D02*
D03*
X5450000Y700000D02*
D03*
X5200000Y200000D02*
D03*
X4950000Y9700000D02*
D03*
Y8700000D02*
D03*
X4700000Y8200000D02*
D03*
X4950000Y7700000D02*
D03*
X4700000Y7200000D02*
D03*
X4950000Y6700000D02*
D03*
Y5700000D02*
D03*
X4700000Y5200000D02*
D03*
Y4200000D02*
D03*
X4950000Y2700000D02*
D03*
Y700000D02*
D03*
X4700000Y200000D02*
D03*
X4450000Y9700000D02*
D03*
X4200000Y8200000D02*
D03*
X4450000Y7700000D02*
D03*
X4200000Y7200000D02*
D03*
Y4200000D02*
D03*
Y200000D02*
D03*
X3950000Y9700000D02*
D03*
Y8700000D02*
D03*
X3700000Y8200000D02*
D03*
X3950000Y7700000D02*
D03*
X3700000Y4200000D02*
D03*
X3950000Y3700000D02*
D03*
X3700000Y3200000D02*
D03*
X3950000Y2700000D02*
D03*
X3700000Y2200000D02*
D03*
X3950000Y1700000D02*
D03*
X3700000Y1200000D02*
D03*
X3950000Y700000D02*
D03*
X3700000Y200000D02*
D03*
X3450000Y9700000D02*
D03*
X3200000Y8200000D02*
D03*
X3450000Y7700000D02*
D03*
Y4700000D02*
D03*
X3200000Y4200000D02*
D03*
Y200000D02*
D03*
X2950000Y7700000D02*
D03*
Y6700000D02*
D03*
X2700000Y200000D02*
D03*
X2450000Y9700000D02*
D03*
Y7700000D02*
D03*
Y6700000D02*
D03*
X2200000Y6200000D02*
D03*
Y5200000D02*
D03*
X2450000Y4700000D02*
D03*
X2200000Y4200000D02*
D03*
Y3200000D02*
D03*
X2450000Y2700000D02*
D03*
X1950000Y9700000D02*
D03*
Y700000D02*
D03*
X1700000Y200000D02*
D03*
X1450000Y9700000D02*
D03*
X1200000Y9200000D02*
D03*
X1450000Y8700000D02*
D03*
Y7700000D02*
D03*
Y6700000D02*
D03*
X1200000Y6200000D02*
D03*
Y4200000D02*
D03*
X1450000Y3700000D02*
D03*
X1200000Y3200000D02*
D03*
X1450000Y2700000D02*
D03*
X950000Y9700000D02*
D03*
Y6700000D02*
D03*
Y4700000D02*
D03*
Y2700000D02*
D03*
X700000Y200000D02*
D03*
X200000Y7200000D02*
D03*
Y5200000D02*
D03*
Y4200000D02*
D03*
X450000Y3700000D02*
D03*
X200000Y3200000D02*
D03*
X450000Y2700000D02*
D03*
Y700000D02*
D03*
X200000Y200000D02*
D03*
X2000000Y9800000D02*
D03*
X3200000Y1550000D02*
D03*
X4390000Y1570000D02*
D03*
X5730000Y1450000D02*
D03*
X5930000Y1860000D02*
D03*
X5580000Y3240000D02*
D03*
X2550000Y9540000D02*
D03*
X280000Y8660000D02*
D03*
X1070000Y7550000D02*
D03*
X2230000Y7370000D02*
D03*
X2650000Y5060000D02*
D03*
X2400000Y6000000D02*
D03*
X2420000Y6100000D02*
D03*
X2300000Y5800000D02*
D03*
Y6710000D02*
D03*
X2200000Y6500000D02*
D03*
X2980000Y1730000D02*
D03*
X2790000Y1300000D02*
D03*
X610000Y1540000D02*
D03*
X590000Y1670000D02*
D03*
X550000Y1940000D02*
D03*
X1000000Y2070000D02*
D03*
X920000Y1970000D02*
D03*
Y850000D02*
D03*
X1023717Y2536283D02*
D03*
X630000Y1780000D02*
D03*
X950000Y1683651D02*
D03*
Y1756351D02*
D03*
X2190000Y3030000D02*
D03*
X2400000Y2880000D02*
D03*
X1970000Y2060000D02*
D03*
X2950000Y9500000D02*
D03*
X2770000Y9660000D02*
D03*
Y8490000D02*
D03*
X2950000Y8700000D02*
D03*
X3000000Y9050000D02*
D03*
Y8850000D02*
D03*
Y9300000D02*
D03*
X2880000Y8850000D02*
D03*
Y9300000D02*
D03*
X1350000Y5050000D02*
D03*
X2800000Y4340000D02*
D03*
X1450000Y5100000D02*
D03*
X480000Y6080000D02*
D03*
X320000Y6020000D02*
D03*
X985000Y5125000D02*
D03*
X935000Y5425000D02*
D03*
X560000Y6640000D02*
D03*
X400000D02*
D03*
X240000Y6350000D02*
D03*
X560000Y5310000D02*
D03*
X340000Y3770000D02*
D03*
X760000Y3940000D02*
D03*
X796000Y3174000D02*
D03*
X1140000Y4080000D02*
D03*
X3330000Y2100000D02*
D03*
X2822890Y1930190D02*
D03*
X1980000Y6650000D02*
D03*
X2910000Y3060000D02*
D03*
X770000Y6520000D02*
D03*
X190000D02*
D03*
X970000Y1540000D02*
D03*
X930000Y1850000D02*
D03*
X640000Y480000D02*
D03*
X530000Y620000D02*
D03*
X1180000Y810000D02*
D03*
X7740000Y8660000D02*
D03*
X4380000Y3170000D02*
D03*
X4210000Y1710000D02*
D03*
X4230000Y3290000D02*
D03*
X4120000Y1470000D02*
D03*
X3390000Y3980000D02*
D03*
X4040000Y1720000D02*
D03*
X2510000Y1700000D02*
D03*
X2580000Y1770000D02*
D03*
X3610000Y830000D02*
D03*
X2260000Y480000D02*
D03*
X1900000Y2400000D02*
D03*
X2142700Y3270000D02*
D03*
X2880000Y4180000D02*
D03*
X3120000D02*
D03*
X3000000D02*
D03*
X9310000Y1540000D02*
D03*
X2590000Y2120000D02*
D03*
X2570000Y2020000D02*
D03*
X2510000Y2080000D02*
D03*
X2810000Y1560000D02*
D03*
X2440000Y1650000D02*
D03*
X2390000Y1590000D02*
D03*
X2570000Y1400000D02*
D03*
X2410000Y9550000D02*
D03*
X2420000Y8800000D02*
D03*
X2300000Y9080000D02*
D03*
X2180000Y9520000D02*
D03*
X5450000Y3250000D02*
D03*
X5300000Y3240000D02*
D03*
X8320000Y2880000D02*
D03*
X8320000Y300000D02*
D03*
X7270000Y590000D02*
D03*
X6990000Y320000D02*
D03*
X4790000Y340000D02*
D03*
X4590000Y530000D02*
D03*
X4310000Y2170000D02*
D03*
X4390000Y2980000D02*
D03*
X4880000Y2880000D02*
D03*
X7160000Y2730000D02*
D03*
X6900000Y2840000D02*
D03*
X6940000Y3430000D02*
D03*
X6820000Y4510000D02*
D03*
X7210000Y4860000D02*
D03*
X8100000Y4660000D02*
D03*
X7980000Y3600000D02*
D03*
X8690000Y3240000D02*
D03*
Y4220000D02*
D03*
X1260000Y6050000D02*
D03*
X8120000Y730000D02*
D03*
X9250000Y1950000D02*
D03*
X5630000Y4320000D02*
D03*
X5230000Y4420000D02*
D03*
X4860000Y4770000D02*
D03*
X4960000Y4710000D02*
D03*
X620000Y2960000D02*
D03*
X560000Y3770000D02*
D03*
X700000Y4350000D02*
D03*
X3480000Y3010000D02*
D03*
Y3640000D02*
D03*
X7230000Y8260000D02*
D03*
X6320000Y6190000D02*
D03*
X4350000Y6850000D02*
D03*
X3210000Y4360000D02*
D03*
X2768602Y4498765D02*
D03*
Y4578765D02*
D03*
X2970000Y4720000D02*
D03*
X2150000Y5400000D02*
D03*
X3200000Y4520000D02*
D03*
X3620000D02*
D03*
X4100000Y5430000D02*
D03*
Y6020000D02*
D03*
X4520000Y7120000D02*
D03*
X3840000Y4620000D02*
D03*
X3800000Y6320000D02*
D03*
X3590000Y6580000D02*
D03*
X3700000Y7190000D02*
D03*
X3550000D02*
D03*
X3400000D02*
D03*
X1580000Y130000D02*
D03*
Y720000D02*
D03*
X9060000Y5340000D02*
D03*
X8470000Y5910000D02*
D03*
X8510000Y6320000D02*
D03*
X8370000Y5580000D02*
D03*
X9900000Y6110000D02*
D03*
X9050000Y5000000D02*
D03*
X7900000Y5300000D02*
D03*
X8200000D02*
D03*
X7620000Y6260000D02*
D03*
X9560000Y4640000D02*
D03*
X9660000Y4840000D02*
D03*
Y4980000D02*
D03*
X9560000Y5180000D02*
D03*
X9660000Y1330000D02*
D03*
X9770000Y1540000D02*
D03*
X9520000Y1430000D02*
D03*
X2630000Y1080000D02*
D03*
X2410000Y1090000D02*
D03*
X2980000Y1180000D02*
D03*
X3170000Y1900000D02*
D03*
X3010000D02*
D03*
X1940000Y7970000D02*
D03*
X220000Y7740000D02*
D03*
X400000Y7850000D02*
D03*
X200000Y7960000D02*
D03*
X410000Y8080000D02*
D03*
X290000Y8290000D02*
D03*
X440000Y8500000D02*
D03*
X200000Y8160000D02*
D03*
X670000Y8460000D02*
D03*
X1120000Y5670000D02*
D03*
X940000Y5570000D02*
D03*
X970000Y4870000D02*
D03*
X930000Y5040000D02*
D03*
X560000Y5470000D02*
D03*
Y5150000D02*
D03*
X680000Y8010000D02*
D03*
X420000Y9140000D02*
D03*
X550000Y8940000D02*
D03*
X460000D02*
D03*
X760000Y9140000D02*
D03*
X580000D02*
D03*
X660000Y9040000D02*
D03*
X500000D02*
D03*
X340000D02*
D03*
X660000Y8880000D02*
D03*
X740000Y8860000D02*
D03*
X3020000Y9180000D02*
D03*
X2600000Y9080000D02*
D03*
X3160000Y8660000D02*
D03*
X2600000Y8600000D02*
D03*
X7700000Y8260000D02*
D03*
X7640000Y8500000D02*
D03*
X8640000Y9380000D02*
D03*
X8480000D02*
D03*
X8320000D02*
D03*
X7920000Y9040000D02*
D03*
X7720000D02*
D03*
X7560000D02*
D03*
X3570000Y5470000D02*
D03*
Y5570000D02*
D03*
Y5669999D02*
D03*
X3570000Y5770000D02*
D03*
X3570000Y5870000D02*
D03*
X3469999Y5770000D02*
D03*
X3469999Y5669999D02*
D03*
Y5870000D02*
D03*
X3670000Y5870000D02*
D03*
Y5770000D02*
D03*
X3670001Y5670000D02*
D03*
X3670000Y5570000D02*
D03*
X3669999Y5470000D02*
D03*
X3670000Y5370000D02*
D03*
X3670000Y5270000D02*
D03*
X3670000Y5170000D02*
D03*
X3570000Y5270000D02*
D03*
X3570000Y5370000D02*
D03*
X3569999Y5170000D02*
D03*
X3369999Y5470000D02*
D03*
X3370000Y5570000D02*
D03*
X3369999Y5669999D02*
D03*
Y5770000D02*
D03*
Y5870000D02*
D03*
X3270000Y5770000D02*
D03*
X3269999Y5670000D02*
D03*
X3270000Y5870000D02*
D03*
X3470000Y5570000D02*
D03*
X3470000Y5470000D02*
D03*
X3469999Y5370000D02*
D03*
X3470000Y5269999D02*
D03*
Y5170000D02*
D03*
X3369999Y5270000D02*
D03*
X3369999Y5370000D02*
D03*
X3369999Y5169999D02*
D03*
X3170000Y5469999D02*
D03*
X3169999Y5570000D02*
D03*
X3170000Y5670000D02*
D03*
X3170000Y5770000D02*
D03*
Y5870000D02*
D03*
X3070000Y5770000D02*
D03*
X3070000Y5669999D02*
D03*
X3070000Y5870000D02*
D03*
X3270000Y5570000D02*
D03*
X3270000Y5470000D02*
D03*
Y5370000D02*
D03*
Y5270000D02*
D03*
X3270000Y5170000D02*
D03*
X3170000Y5270000D02*
D03*
X3170000Y5370000D02*
D03*
X3170000Y5170000D02*
D03*
X2970000Y5369999D02*
D03*
X2970000Y5470000D02*
D03*
X2969999Y5569999D02*
D03*
Y5670000D02*
D03*
X2970000Y5770000D02*
D03*
X2969999Y5869999D02*
D03*
X3069999Y5570000D02*
D03*
X3070000Y5469999D02*
D03*
X3069999Y5369999D02*
D03*
X3070000Y5270000D02*
D03*
Y5170000D02*
D03*
X2970000Y5270000D02*
D03*
X2970000Y5170000D02*
D03*
X1832700Y1640000D02*
D03*
X1882700Y1715001D02*
D03*
X1782700Y1715001D02*
D03*
X1782701Y1565000D02*
D03*
X1882700Y1565000D02*
D03*
X5920000Y4400000D02*
D03*
X5540000Y4100000D02*
D03*
X3600000Y3240000D02*
D03*
Y3420000D02*
D03*
X3420000Y6260000D02*
D03*
X2972700Y1580000D02*
D03*
X2900000D02*
D03*
X2120000Y1651351D02*
D03*
Y1578651D02*
D03*
X3520000Y6260000D02*
D03*
%TF.MD5,330b0b21bf74c83024c08342cc1cdab7*%
M02*
