%TF.GenerationSoftware,Altium Limited,Altium Designer,26.2.0 (7)*%
G04 Layer_Color=8388736*
%FSLAX45Y45*%
%MOMM*%
%TF.SameCoordinates,7E3C43A8-A274-4656-BCAB-ED4188872703*%
%TF.FilePolarity,Positive*%
%TF.FileFunction,Other,Top_3D_Body*%
%TF.Part,Single*%
G01*
G75*
%TA.AperFunction,NonConductor*%
%ADD147C,0.15000*%
%ADD151C,0.20000*%
D147*
X354500Y9080000D02*
G03*
X354500Y9080000I-134500J0D01*
G01*
X1954500Y780000D02*
G03*
X1954500Y780000I-134500J0D01*
G01*
X374500Y2580000D02*
G03*
X374500Y2580000I-134500J0D01*
G01*
X1124500Y3880000D02*
G03*
X1124500Y3880000I-134500J0D01*
G01*
X534500Y7000000D02*
G03*
X534500Y7000000I-134500J0D01*
G01*
X1614500Y3500000D02*
G03*
X1614500Y3500000I-134500J0D01*
G01*
X1134500Y3080000D02*
G03*
X1134500Y3080000I-134500J0D01*
G01*
X1634500Y6280000D02*
G03*
X1634500Y6280000I-134500J0D01*
G01*
D151*
X1572500Y5597499D02*
X1572501Y5772500D01*
X1667502Y5772500D01*
X1667500Y5597500D02*
X1667502Y5772500D01*
X1572500Y5597499D02*
X1667500Y5597500D01*
X1227499Y7822499D02*
X1227500Y7997499D01*
X922500Y7822500D02*
X1227499Y7822499D01*
X922500Y7997500D02*
X922500Y7822500D01*
X922500Y7997500D02*
X1227500Y7997499D01*
X2815001Y3700501D02*
X3205000Y3700501D01*
Y3200500D02*
Y3700501D01*
X2815000Y3200501D02*
X3205000Y3200500D01*
X2815000Y3200501D02*
X2815001Y3700501D01*
X2715000Y6391410D02*
Y6491410D01*
X2765000D01*
Y6391410D02*
Y6491410D01*
X2715000Y6391410D02*
X2765000D01*
X8946999Y9167500D02*
X8946999Y9932500D01*
X8033000Y9932500D02*
X8946999Y9932500D01*
X8032999Y9167500D02*
X8033000Y9932500D01*
X8032999Y9167500D02*
X8946999D01*
X7347500Y9292500D02*
X7522500D01*
X7347500D02*
Y9387501D01*
X7522500Y9387500D01*
X7522500Y9292500D02*
X7522500Y9387500D01*
X7310000Y8584951D02*
X7599999Y8584952D01*
X7600000Y8744952D01*
X7310000Y8744951D02*
X7600000Y8744952D01*
X7310000Y8584951D02*
Y8744951D01*
X8015000Y7855000D02*
X8864999D01*
X8014999Y8705000D02*
X8015000Y7855000D01*
X8014999Y8705000D02*
X8864999Y8705000D01*
Y7855000D02*
Y8705000D01*
X8495000Y8974999D02*
X8604999Y8975000D01*
X8604999Y8905000D02*
X8604999Y8975000D01*
X8495000Y8905000D02*
X8604999Y8905000D01*
X8495000Y8905000D02*
Y8974999D01*
X8275000Y8905000D02*
X8384999D01*
X8275000D02*
Y8975000D01*
X8384999D01*
Y8905000D02*
Y8975000D01*
X4157500Y3585000D02*
X4427500Y3585000D01*
X4427501Y3925000D01*
X4157499Y3924999D02*
X4427501Y3925000D01*
X4157499Y3924999D02*
X4157500Y3585000D01*
X6310561Y4425000D02*
X6310561Y4375000D01*
X6410560D01*
X6410560Y4425000D01*
X6310561D02*
X6410560D01*
X4322500Y4320000D02*
X4637501Y4319999D01*
Y4735001D01*
X4322500Y4735000D02*
X4637501Y4735001D01*
X4322500Y4320000D02*
Y4735000D01*
X6149500Y5556500D02*
X6490500Y5556500D01*
X6149500Y5083500D02*
Y5556500D01*
Y5083500D02*
X6490499D01*
X6490500Y5556500D01*
X4995001Y4505001D02*
X6005000Y4505000D01*
X4995000Y3495000D02*
X4995001Y4505001D01*
X4995000Y3495000D02*
X6005001Y3495001D01*
X6005000Y4505000D02*
X6005001Y3495001D01*
X6249999Y4830000D02*
X6390001Y4830000D01*
X6249999Y4830000D02*
X6250000Y4610000D01*
X6390000Y4610000D01*
X6390001Y4830000D01*
X347500Y4182500D02*
X347501Y4007500D01*
X252501Y4007500D02*
X347501Y4007500D01*
X252500Y4182501D02*
X252501Y4007500D01*
X252500Y4182501D02*
X347500Y4182500D01*
X1375000Y7770560D02*
Y7870560D01*
X1425000D01*
Y7770560D02*
Y7870560D01*
X1375000Y7770560D02*
X1425000Y7770560D01*
X137500Y8792500D02*
X242500D01*
X137500D02*
X137500Y8847500D01*
X242500D01*
Y8792500D02*
Y8847500D01*
X7818787Y3477678D02*
X7893033Y3551924D01*
X7931924Y3513033D01*
X7857677Y3438787D02*
X7931924Y3513033D01*
X7818787Y3477678D02*
X7857677Y3438787D01*
X8070251Y3654895D02*
X8140961Y3725606D01*
X8034895Y3690251D02*
X8070251Y3654895D01*
X8034895Y3690251D02*
X8105606Y3760961D01*
X8140961Y3725606D01*
X6938674Y3656681D02*
X7009385Y3585971D01*
X6974030Y3550615D02*
X7009385Y3585971D01*
X6903319Y3621325D02*
X6974030Y3550615D01*
X6903319Y3621325D02*
X6938674Y3656681D01*
X7392500Y4807500D02*
X7567500Y4807500D01*
X7392500Y4807500D02*
X7392501Y5112500D01*
X7567500Y5112500D01*
X7567500Y4807500D01*
X6942323Y4566967D02*
X7013033Y4637678D01*
X6906967Y4602322D02*
X6942323Y4566967D01*
X6906967Y4602322D02*
X6977678Y4673033D01*
X7013033Y4637678D01*
X1157500Y542500D02*
X1322500Y542500D01*
Y377500D02*
Y542500D01*
X1157500Y377500D02*
X1322500Y377500D01*
X1157500Y377500D02*
X1157500Y542500D01*
X1900000Y525000D02*
X2060000D01*
Y235000D02*
Y525000D01*
X1900000Y235000D02*
X2060000D01*
X1900000D02*
X1900000Y525000D01*
X8172500Y252500D02*
X8172500Y427500D01*
X7867500Y252500D02*
X8172500Y252500D01*
X7867500Y252500D02*
X7867500Y427500D01*
X8172500Y427500D01*
X7937500Y2787500D02*
X8042500Y2787500D01*
X8042500Y2732500D02*
X8042500Y2787500D01*
X7937500Y2732500D02*
X8042500D01*
X7937500D02*
Y2787500D01*
X8619644Y2735000D02*
X8719643D01*
X8619644D02*
Y2785000D01*
X8719643D01*
Y2735000D02*
Y2785000D01*
X8295000Y2658591D02*
Y2758590D01*
X8345000D01*
Y2658591D02*
Y2758590D01*
X8295000Y2658591D02*
X8345000D01*
X8624644Y595000D02*
X8724643D01*
X8624644D02*
Y645000D01*
X8724643D01*
Y595000D02*
Y645000D01*
X4352500Y1967500D02*
Y2072500D01*
X4407500D01*
Y1967500D02*
Y2072500D01*
X4352500Y1967500D02*
X4407500D01*
X7075000Y2530000D02*
Y2630000D01*
X7125000D01*
Y2530000D02*
Y2630000D01*
X7075000Y2530000D02*
X7125000D01*
X4332500Y2622500D02*
Y2797500D01*
X4637501D01*
X4637500Y2622500D02*
X4637501Y2797500D01*
X4332500Y2622500D02*
X4637500D01*
X6958755Y547500D02*
X7063755D01*
Y492500D02*
Y547500D01*
X6958755Y492500D02*
X7063755Y492500D01*
X6958755Y492500D02*
Y547500D01*
X6707500Y2967500D02*
X6812500D01*
Y2912500D02*
Y2967500D01*
X6707500Y2912500D02*
X6812500D01*
X6707500D02*
Y2967500D01*
X3666200Y1040000D02*
Y1840000D01*
X3399200Y1040000D02*
X3666200D01*
X3399200D02*
Y1840000D01*
X3666200D01*
X2570200Y1472500D02*
Y1887500D01*
X2255200Y1472500D02*
X2570200Y1472500D01*
X2255200Y1472500D02*
X2255200Y1887500D01*
X2570200D01*
X2595199Y2587500D02*
X2770199Y2587501D01*
Y2282501D02*
Y2587501D01*
X2595200Y2282500D02*
X2770199Y2282501D01*
X2595199Y2587500D02*
X2595200Y2282500D01*
X2990560Y2425000D02*
X3090560Y2425000D01*
X3090559Y2375001D02*
X3090560Y2425000D01*
X2990560Y2375000D02*
X3090559Y2375001D01*
X2990560Y2375000D02*
Y2425000D01*
X3526200Y965999D02*
X3526200Y166000D01*
X3259200Y165999D02*
X3526200Y166000D01*
X3259200Y165999D02*
Y966000D01*
X3526200Y965999D01*
X2377700Y2249440D02*
Y2349440D01*
X2327700Y2249440D02*
X2377700D01*
X2327700Y2349440D02*
X2327700Y2249440D01*
X2327700Y2349440D02*
X2377700Y2349440D01*
X1676200Y2510500D02*
X2149200D01*
Y2169500D02*
Y2510500D01*
X1676200Y2169500D02*
X2149200D01*
X1676200D02*
Y2510500D01*
X2707700Y1990560D02*
Y2090560D01*
X2757700D01*
X2757700Y1990560D01*
X2707700Y1990560D02*
X2757700Y1990560D01*
X3252499Y2592499D02*
X3252500Y2417500D01*
X3252499Y2592499D02*
X3347500Y2592500D01*
Y2417500D02*
Y2592500D01*
X3252500Y2417500D02*
X3347500Y2417500D01*
X2439201Y166000D02*
Y966000D01*
X2706201D01*
Y166000D02*
Y966000D01*
X2439201Y166000D02*
X2706201Y166000D01*
X3827500Y4775000D02*
X3947500Y4775000D01*
X3947500Y4705000D01*
X3827500D02*
X3947500D01*
X3827500D02*
Y4775000D01*
X802500Y1263001D02*
X802500Y2177000D01*
X37500Y1263001D02*
X802500Y1263001D01*
X37500Y1263001D02*
Y2177000D01*
X802500Y2177000D01*
X1135000Y1665000D02*
X1135000Y1555000D01*
X1065000D02*
X1135000D01*
X1064999Y1665000D02*
X1065000Y1555000D01*
X1064999Y1665000D02*
X1135000Y1665000D01*
X537499Y2527501D02*
X712500Y2527500D01*
X712500Y2432499D02*
X712500Y2527500D01*
X537500Y2432501D02*
X712500Y2432499D01*
X537499Y2527501D02*
X537500Y2432501D01*
X1137500Y2320000D02*
X1137501Y2520001D01*
X1262500Y2520001D01*
X1262500Y2320001D01*
X1137500Y2320000D02*
X1262500Y2320001D01*
X1065000Y1885001D02*
X1065001Y1775002D01*
X1065000Y1885001D02*
X1135001Y1885000D01*
Y1775001D02*
Y1885000D01*
X1065001Y1775002D02*
X1135001Y1775001D01*
X584999Y8825001D02*
X585000Y8615001D01*
X375000Y8825000D02*
X584999Y8825001D01*
X375000Y8825000D02*
X375001Y8615000D01*
X585000Y8615001D01*
X1412500Y8087500D02*
X1412500Y7992500D01*
X1587499Y7992499D01*
Y8087500D01*
X1412500Y8087500D02*
X1587499Y8087500D01*
X929440Y8265000D02*
X929440Y8215000D01*
X829440Y8265000D02*
X929440Y8265000D01*
X829440Y8215000D02*
Y8265000D01*
Y8215000D02*
X929440D01*
X2017499Y7722499D02*
X2017500Y8027500D01*
X1842500Y8027501D02*
X2017500Y8027500D01*
X1842500Y8027501D02*
X1842500Y7722500D01*
X2017499Y7722499D01*
X37500Y5757000D02*
X802500Y5757000D01*
X37500Y4843000D02*
Y5757000D01*
Y4843000D02*
X802500Y4843001D01*
X802500Y5757000D01*
X2332500Y8697500D02*
Y9002500D01*
Y8697500D02*
X2507500Y8697500D01*
Y9002500D01*
X2332500D02*
X2507500D01*
X852500Y3367500D02*
X947500Y3367500D01*
X947501Y3542499D01*
X852500Y3542500D02*
X947501Y3542499D01*
X852500Y3367500D02*
Y3542500D01*
X892500Y7102500D02*
X987500Y7102501D01*
X892499Y6927500D02*
X892500Y7102500D01*
X892499Y6927500D02*
X987499Y6927500D01*
X987500Y7102501D01*
X2695000Y9545000D02*
X2845000D01*
X2845000Y9775000D02*
X2845000Y9545000D01*
X2695000Y9775000D02*
X2845000D01*
X2695000Y9545000D02*
X2695000Y9775000D01*
X2332500Y9147500D02*
Y9452500D01*
Y9147500D02*
X2507500D01*
Y9452500D01*
X2332500D02*
X2507500D01*
X1637499Y3847500D02*
X1637500Y3752500D01*
X1812500Y3752499D01*
X1812500Y3847499D01*
X1637499Y3847500D02*
X1812500Y3847499D01*
X1989440Y3475000D02*
X1989440Y3525001D01*
X1889440Y3525000D02*
X1989440Y3525001D01*
X1889440Y3475000D02*
Y3525000D01*
Y3475000D02*
X1989440D01*
X1762500Y3327500D02*
X1762500Y3022500D01*
X1937499D01*
X1937500Y3327500D01*
X1762500Y3327500D02*
X1937500Y3327500D01*
X1455000Y3070560D02*
X1505000Y3070560D01*
Y3170560D01*
X1455000D02*
X1505000D01*
X1455000D02*
X1455000Y3070560D01*
X2695000Y8605000D02*
X2845000D01*
X2695000Y8375000D02*
Y8605000D01*
Y8375000D02*
X2845000D01*
Y8605000D01*
X8317500Y6312501D02*
X8402500Y6312500D01*
X8317500Y6187501D02*
Y6312501D01*
Y6187501D02*
X8402500Y6187501D01*
X8402500Y6312500D01*
X8317500Y6597501D02*
X8402500Y6597500D01*
X8402500Y6722501D02*
X8402500Y6597500D01*
X8317501Y6722500D02*
X8402500Y6722501D01*
X8317500Y6597501D02*
X8317501Y6722500D01*
X9737500Y6102500D02*
X9822500Y6102500D01*
X9737500Y6102500D02*
X9737500Y5977500D01*
X9822500D01*
X9822500Y6102500D01*
X9737499Y6407501D02*
X9822499Y6407499D01*
X9822500Y6532500D01*
X9737500Y6532500D02*
X9822500Y6532500D01*
X9737499Y6407501D02*
X9737500Y6532500D01*
X8680000Y4455000D02*
Y5105000D01*
Y4455000D02*
X9240000Y4455000D01*
Y5105000D01*
X8680000Y5105000D02*
X9240000Y5105000D01*
X9582500Y1677500D02*
X9737500Y1677500D01*
X9737500Y1882500D02*
X9737500Y1677500D01*
X9582500Y1882500D02*
X9737500Y1882500D01*
X9582500Y1677500D02*
Y1882500D01*
X2897500Y4437500D02*
X3102500Y4437500D01*
X2897500Y4282500D02*
X2897500Y4437500D01*
X2897500Y4282500D02*
X3102500Y4282500D01*
X3102500Y4437500D01*
X2802500Y7002501D02*
Y7307501D01*
Y7002501D02*
X2977500D01*
Y7307501D01*
X2802500Y7307501D02*
X2977500Y7307501D01*
X4125048Y7380000D02*
X4125048Y7090001D01*
X4285048D01*
X4285048Y7380000D02*
X4285048Y7090001D01*
X4125048Y7380000D02*
X4285048Y7380000D01*
X3235000Y7149440D02*
X3285000D01*
X3235000D02*
X3235000Y7049440D01*
X3285000Y7049440D01*
X3285000Y7149440D02*
X3285000Y7049440D01*
X2485000Y7259440D02*
X2535000D01*
X2485000D02*
X2485000Y7159440D01*
X2535000Y7159440D01*
X2535000Y7259440D02*
X2535000Y7159440D01*
X4510560Y7215000D02*
Y7265000D01*
Y7215000D02*
X4610559D01*
X4610560Y7265000D01*
X4510560D02*
X4610560D01*
X3835000Y7149440D02*
X3885000Y7149440D01*
X3835000Y7149440D02*
X3835000Y7049440D01*
X3885000D01*
Y7149440D01*
X3682499Y7427500D02*
X3682501Y7332500D01*
X3507501Y7427501D02*
X3682499Y7427500D01*
X3507501Y7427501D02*
X3507501Y7332500D01*
X3682501Y7332500D01*
X2809999Y6029999D02*
X3830000Y6030000D01*
X2809999Y5009999D02*
Y6029999D01*
Y5009999D02*
X3830000Y5009999D01*
X3830000Y6030000D01*
X2412500Y5465000D02*
Y5535000D01*
X2292500Y5535000D02*
X2412500Y5535000D01*
X2292500Y5465000D02*
X2292500Y5535000D01*
X2292500Y5465000D02*
X2412500D01*
X2355000Y5320000D02*
X2405000D01*
X2355000D02*
X2355000Y5220000D01*
X2405000Y5220000D01*
Y5320000D01*
X1972500Y4795000D02*
X2242500Y4795001D01*
Y5135000D01*
X1972499Y5135000D02*
X2242500Y5135000D01*
X1972499Y5135000D02*
X1972500Y4795000D01*
X1995000Y5247855D02*
X2044999Y5247855D01*
X2044999Y5347856D02*
X2044999Y5247855D01*
X1995001Y5347855D02*
X2044999Y5347856D01*
X1995000Y5247855D02*
X1995001Y5347855D01*
X2367856Y4835001D02*
X2367856Y4885001D01*
X2367856Y4835001D02*
X2467857Y4835001D01*
X2467856Y4885000D02*
X2467857Y4835001D01*
X2367856Y4885001D02*
X2467856Y4885000D01*
X397500Y6217500D02*
X562500D01*
X562501Y6382500D01*
X397500D02*
X562501D01*
X397500Y6217500D02*
Y6382500D01*
X1197500Y5722566D02*
X1322500Y5722565D01*
X1322499Y5922565D02*
X1322500Y5722565D01*
X1197500Y5922565D02*
X1322499D01*
X1197500Y5722566D02*
X1197500Y5922565D01*
X1065000Y5315000D02*
X1135000D01*
Y5425000D01*
X1065000D02*
X1135000D01*
X1065000Y5315000D02*
Y5425000D01*
X1064999Y5205000D02*
X1135000Y5204999D01*
X1064999Y5205000D02*
X1065000Y5095000D01*
X1135000D01*
X1135000Y5204999D02*
X1135000Y5095000D01*
X817500Y9397435D02*
X942500Y9397435D01*
X817500Y9397435D02*
X817500Y9197435D01*
X942500Y9197435D01*
X942500Y9397435D01*
X621318Y9488493D02*
X688494Y9421318D01*
X497574Y9364750D02*
X621318Y9488493D01*
X497574Y9364750D02*
X564748Y9297574D01*
X688494Y9421318D01*
X2232500Y7912500D02*
X2327500Y7912499D01*
X2327499Y8087500D02*
X2327500Y7912499D01*
X2232499Y8087499D02*
X2327499Y8087500D01*
X2232499Y8087499D02*
X2232500Y7912500D01*
%TF.MD5,91ed10eed72be57146d2cf9971310a03*%
M02*
