%TF.GenerationSoftware,Altium Limited,Altium Designer,26.2.0 (7)*%
G04 Layer_Color=16711935*
%FSLAX45Y45*%
%MOMM*%
%TF.SameCoordinates,7E3C43A8-A274-4656-BCAB-ED4188872703*%
%TF.FilePolarity,Positive*%
%TF.FileFunction,Other,Mechanical_13*%
%TF.Part,Single*%
G01*
G75*
%TA.AperFunction,NonConductor*%
%ADD150C,0.10000*%
D150*
X3037697Y1734999D02*
G03*
X3037697Y1734999I-50000J0D01*
G01*
X1817699Y1705001D02*
G03*
X1817699Y1705001I-50000J0D01*
G01*
X4101000Y4040000D02*
X4211000Y4040001D01*
X4100999Y4100000D02*
X4211001D01*
X4211000Y4040001D02*
X4211001Y4100000D01*
X4100999D02*
X4101000Y4040000D01*
X2992500Y2957501D02*
Y3062499D01*
X3047499Y2957499D02*
X3047500Y3062499D01*
X2992500Y2957501D02*
X3047499Y2957499D01*
X2992500Y3062499D02*
X3047500D01*
X3507499Y3415000D02*
X3507499Y3520000D01*
X3452500D02*
X3452500Y3415000D01*
X3452500Y3520000D02*
X3507499D01*
X3452500Y3415000D02*
X3507499Y3415000D01*
X3452499Y3140000D02*
X3452500Y3244999D01*
X3507500Y3140000D02*
X3507500Y3244999D01*
X3452499Y3140000D02*
X3507500Y3140000D01*
X3452500Y3244999D02*
X3507500D01*
X5472500Y4878500D02*
X5472500Y4773499D01*
X5527499Y4773500D02*
Y4878500D01*
X5472500Y4773499D02*
X5527499Y4773500D01*
X5472500Y4878500D02*
X5527499Y4878500D01*
X5732499Y4767500D02*
X5732500Y4872499D01*
X5787500Y4872500D02*
X5787501Y4767500D01*
X5732499Y4767500D02*
X5787501Y4767500D01*
X5732500Y4872499D02*
X5787500Y4872500D01*
X5612501Y4767499D02*
Y4872500D01*
X5667500Y4767498D02*
Y4872500D01*
X5612501Y4767499D02*
X5667500Y4767498D01*
X5612501Y4872500D02*
X5667500Y4872500D01*
X3392500Y6552500D02*
X3497500Y6552500D01*
X3392500Y6607500D02*
X3497500Y6607500D01*
Y6552500D02*
Y6607500D01*
X3392500Y6607500D02*
X3392500Y6552500D01*
X2547499Y6202500D02*
X2547500Y6097501D01*
X2492500Y6097501D02*
X2492501Y6202501D01*
X2547499Y6202500D01*
X2492500Y6097501D02*
X2547500Y6097501D01*
X2720000Y4767500D02*
X2885000Y4767500D01*
X2719999Y4672500D02*
X2884999Y4672500D01*
X2719999Y4672500D02*
X2720000Y4767500D01*
X2884999Y4672500D02*
X2885000Y4767500D01*
X2642500Y6252501D02*
X2747500D01*
X2642500Y6307500D02*
X2747500D01*
X2747500Y6252501D01*
X2642500Y6307500D02*
X2642500Y6252501D01*
X3112500Y6497501D02*
X3112500Y6392501D01*
X3167500Y6392501D02*
Y6497500D01*
X3112500Y6392501D02*
X3167500Y6392501D01*
X3112500Y6497501D02*
X3167500Y6497500D01*
X4198500Y5752501D02*
X4198500Y5807500D01*
X4093500Y5752501D02*
Y5807500D01*
Y5752501D02*
X4198500Y5752501D01*
X4093500Y5807500D02*
X4198500D01*
X7587499Y8157500D02*
X7587499Y8262500D01*
X7532499D02*
X7532500Y8157500D01*
X7532499Y8262500D02*
X7587499D01*
X7532500Y8157500D02*
X7587499D01*
X7712500Y8487500D02*
X7712500Y8592500D01*
X7767499Y8487500D02*
X7767500Y8592500D01*
X7712500Y8487500D02*
X7767499D01*
X7712500Y8592500D02*
X7767500Y8592500D01*
X7767499Y8832499D02*
X7767499Y8727500D01*
X7712499Y8727499D02*
X7712500Y8832499D01*
X7767499Y8832499D01*
X7712499Y8727499D02*
X7767499Y8727500D01*
X7332499Y9117500D02*
X7332500Y9012500D01*
X7387499Y9012500D02*
X7387500Y9117500D01*
X7332500Y9012500D02*
X7387499Y9012500D01*
X7332499Y9117500D02*
X7387500D01*
X7332499Y8161500D02*
X7387499Y8161500D01*
X7332499Y8266500D02*
X7387500Y8266500D01*
X7332499Y8161500D02*
Y8266500D01*
X7387499Y8161500D02*
X7387500Y8266500D01*
X5872500Y4773500D02*
X5872500Y4878500D01*
X5927500Y4773501D02*
X5927501Y4878501D01*
X5872500Y4773500D02*
X5927500Y4773501D01*
X5872500Y4878500D02*
X5927501Y4878501D01*
X6313499Y4267500D02*
X6418499D01*
X6313499Y4212500D02*
X6418500D01*
X6313499D02*
Y4267500D01*
X6418499D02*
X6418500Y4212500D01*
X4692500Y4872501D02*
X4692500Y4927501D01*
X4797500Y4927499D02*
X4797500Y4872500D01*
X4692500Y4927501D02*
X4797500Y4927499D01*
X4692500Y4872501D02*
X4797500Y4872500D01*
X4746009Y5775539D02*
X6308008D01*
X4746000Y6024460D02*
X6308001Y6024461D01*
X6308000Y6024501D02*
X6308008Y5775539D01*
X4745999Y6024501D02*
X4746009Y5775539D01*
X5332500Y4773499D02*
X5332500Y4878499D01*
X5387499Y4878500D02*
X5387500Y4773499D01*
X5332500D02*
X5387500D01*
X5332500Y4878499D02*
X5387499Y4878500D01*
X4630000Y3541000D02*
Y3650999D01*
X4570000Y3541000D02*
Y3651000D01*
X4630000Y3650999D01*
X4570000Y3541000D02*
X4630000Y3541000D01*
X372500Y3062500D02*
X427500D01*
X372500Y3167500D02*
X427500D01*
X372500Y3062500D02*
Y3167500D01*
X427500Y3062500D02*
Y3167500D01*
X147501Y8532501D02*
X252501Y8532500D01*
X147500Y8587500D02*
X252500Y8587501D01*
X252501Y8532500D01*
X147500Y8587500D02*
X147501Y8532501D01*
X415252Y9225858D02*
X489497Y9151612D01*
X454143Y9264750D02*
X528388Y9190503D01*
X489497Y9151612D02*
X528388Y9190503D01*
X415252Y9225858D02*
X454143Y9264750D01*
X5170000Y9100000D02*
Y9600000D01*
X5670000D01*
X5170000Y9100000D02*
X5670000D01*
Y9600000D01*
X8772499Y4117499D02*
X8772500Y4222499D01*
X8827499Y4117500D02*
X8827499Y4222499D01*
X8772499Y4117499D02*
X8827499Y4117500D01*
X8772500Y4222499D02*
X8827499Y4222499D01*
X8697499Y3452499D02*
X8802499Y3452499D01*
X8697499Y3507499D02*
X8802499Y3507499D01*
X8802499Y3452499D02*
X8802499Y3507499D01*
X8697499Y3452499D02*
X8697499Y3507499D01*
X8772499Y3691498D02*
X8827499Y3691499D01*
X8772499Y3586499D02*
X8827500Y3586499D01*
X8827499Y3691499D02*
X8827500Y3586499D01*
X8772499Y3691498D02*
X8772499Y3586499D01*
X8772500Y3768499D02*
X8827499Y3768499D01*
X8772499Y3873499D02*
X8827499Y3873499D01*
X8772499Y3873499D02*
X8772500Y3768499D01*
X8827499Y3768499D02*
Y3873499D01*
X8697498Y3952500D02*
X8802500Y3952499D01*
X8697498Y4007499D02*
X8802499Y4007500D01*
X8802500Y3952499D01*
X8697498Y3952500D02*
Y4007499D01*
X8827499Y3237498D02*
X8827499Y3342499D01*
X8772500Y3237498D02*
Y3342499D01*
X8827499Y3342499D01*
X8772500Y3237498D02*
X8827499Y3237498D01*
X8078787Y4482323D02*
X8117678Y4521213D01*
X8004541Y4556568D02*
X8043431Y4595459D01*
X8004541Y4556568D02*
X8078787Y4482323D01*
X8043431Y4595459D02*
X8117678Y4521213D01*
X7857677Y4781214D02*
X7931924Y4706966D01*
X7818787Y4742323D02*
X7893033Y4668077D01*
X7818787Y4742323D02*
X7857677Y4781214D01*
X7893033Y4668077D02*
X7931924Y4706966D01*
X840000Y379999D02*
X840000Y700000D01*
X1000000Y380000D02*
X1000001Y699999D01*
X840000Y379999D02*
X1000000Y380000D01*
X840000Y700000D02*
X1000001Y699999D01*
X1552500Y342500D02*
X1552501Y237501D01*
X1607500Y342500D02*
X1607500Y237500D01*
X1552501Y237501D02*
X1607500Y237500D01*
X1552500Y342500D02*
X1607500Y342500D01*
X1278499Y672500D02*
Y727499D01*
X1173499Y672500D02*
Y727500D01*
Y672500D02*
X1278499Y672500D01*
X1173499Y727500D02*
X1278499Y727499D01*
X1607500Y507500D02*
Y612501D01*
X1552501Y507500D02*
X1552501Y612500D01*
X1607500Y612501D01*
X1552501Y507500D02*
X1607500Y507500D01*
X8292500Y727499D02*
X8347500Y727500D01*
X8292500Y622500D02*
X8347500Y622500D01*
X8347500Y727500D02*
X8347500Y622500D01*
X8292500Y727499D02*
X8292500Y622500D01*
X7917500Y647500D02*
X8022500D01*
X7917500Y592500D02*
X8022500D01*
X7917500D02*
Y647500D01*
X8022500Y592500D02*
Y647500D01*
X4827500Y2667500D02*
Y2772500D01*
X4772500Y2667500D02*
Y2772500D01*
X4827500D01*
X4772500Y2667500D02*
X4827500D01*
X4477500Y2372500D02*
X4582500D01*
X4477500Y2427500D02*
X4582500D01*
Y2372500D02*
Y2427500D01*
X4477500Y2372500D02*
Y2427500D01*
X7027500Y2727500D02*
Y2832500D01*
X6972500Y2727500D02*
Y2832500D01*
X7027500D01*
X6972500Y2727500D02*
X7027500D01*
X6667500Y232500D02*
X6772500D01*
X6667501Y287500D02*
X6772500D01*
X6772500Y232500D01*
X6667500D02*
X6667501Y287500D01*
X4725000Y550000D02*
X4835000Y549999D01*
X4725000Y490000D02*
X4835000Y490000D01*
X4725000Y490000D02*
Y550000D01*
X4835000Y490000D02*
Y549999D01*
X5007500Y2907499D02*
X5112500D01*
X5007500Y2852500D02*
X5112500Y2852500D01*
X5007500Y2852500D02*
Y2907499D01*
X5112500Y2852500D02*
Y2907499D01*
X7112500Y682500D02*
Y787500D01*
X7167500Y682500D02*
Y787500D01*
X7112500Y682500D02*
X7167500Y682500D01*
X7112500Y787500D02*
X7167500Y787500D01*
X4612501Y807500D02*
X4667500D01*
X4612501Y702500D02*
X4667500Y702500D01*
Y807500D01*
X4612501D02*
X4612501Y702500D01*
X4937500Y407500D02*
X5042500Y407499D01*
X4937501Y352500D02*
X5042500D01*
X4937500Y407500D02*
X4937501Y352500D01*
X5042500D02*
Y407499D01*
X2667700Y1415001D02*
X2667701Y1825001D01*
X3077699Y1415001D02*
Y1825000D01*
X2667700Y1415001D02*
X3077699Y1415001D01*
X2667701Y1825001D02*
X3077699Y1825000D01*
X1677702Y1485000D02*
X1987700Y1485000D01*
X1677700Y1795002D02*
X1987701Y1795001D01*
X1987700Y1485000D02*
X1987701Y1795001D01*
X1677700Y1795002D02*
X1677702Y1485000D01*
X2534200Y1152500D02*
Y1207500D01*
X2639199Y1152500D02*
X2639200Y1207501D01*
X2534200Y1207500D02*
X2639200Y1207501D01*
X2534200Y1152500D02*
X2639199Y1152500D01*
X3265200Y1077500D02*
X3265200Y1182500D01*
X3320199Y1182500D02*
X3320200Y1077500D01*
X3265200D02*
X3320200D01*
X3265200Y1182500D02*
X3320199Y1182500D01*
X2071200Y1987501D02*
X2071201Y1932500D01*
X1966200Y1987500D02*
X1966200Y1932501D01*
X2071201Y1932500D01*
X1966200Y1987500D02*
X2071200Y1987501D01*
X3330200Y1972501D02*
X3435200Y1972502D01*
X3330200Y2027501D02*
X3435201Y2027500D01*
X3435200Y1972502D02*
X3435201Y2027500D01*
X3330200Y1972501D02*
X3330200Y2027501D01*
X2865200Y2103500D02*
X2920200Y2103500D01*
X2865200Y1998500D02*
X2920200D01*
X2920200Y2103500D01*
X2865200Y1998500D02*
Y2103500D01*
X2985000Y2610000D02*
X3095000Y2609999D01*
X2985000Y2550000D02*
X3095001D01*
X2985000D02*
Y2610000D01*
X3095000Y2609999D02*
X3095001Y2550000D01*
X3060199Y1995001D02*
X3060200Y2100001D01*
X3005200Y1995000D02*
Y2100000D01*
X3060200Y2100001D01*
X3005200Y1995000D02*
X3060199Y1995001D01*
X2533700Y1270001D02*
Y1330001D01*
X2643700Y1270001D02*
Y1330000D01*
X2533700Y1330001D02*
X2643700Y1330000D01*
X2533700Y1270001D02*
X2643700Y1270001D01*
X2385200Y1302500D02*
X2385200Y1197500D01*
X2440200Y1197500D02*
Y1302500D01*
X2385200Y1197500D02*
X2440200Y1197500D01*
X2385200Y1302500D02*
X2440200Y1302500D01*
X2722700Y1081000D02*
X2782700D01*
X2722700Y1191000D02*
X2782700D01*
X2722700Y1081000D02*
Y1191000D01*
X2782700Y1081000D02*
Y1191000D01*
X2845200Y1081500D02*
X2900200D01*
X2845200Y1186500D02*
X2900200D01*
X2845200Y1081500D02*
Y1186500D01*
X2900200Y1081500D02*
Y1186500D01*
X3200200Y1995000D02*
Y2100001D01*
X3145200D02*
X3145201Y1995001D01*
X3145200Y2100001D02*
X3200200D01*
X3145201Y1995001D02*
X3200200Y1995000D01*
X927500Y2577500D02*
X927500Y2472501D01*
X872499Y2577500D02*
X872500Y2472500D01*
X872499Y2577500D02*
X927500Y2577500D01*
X872500Y2472500D02*
X927500Y2472501D01*
X9587500Y4975000D02*
Y5080000D01*
X9532500Y4975000D02*
Y5080000D01*
X9587500D01*
X9532500Y4975000D02*
X9587500D01*
X9532500Y4739999D02*
X9532500Y4844999D01*
X9587500Y4740000D02*
X9587501Y4845000D01*
X9532500Y4739999D02*
X9587500Y4740000D01*
X9532500Y4844999D02*
X9587501Y4845000D01*
X8961500Y5202500D02*
Y5257500D01*
X9066499Y5202500D02*
X9066500Y5257500D01*
X8961500Y5257500D02*
X9066500Y5257500D01*
X8961500Y5202500D02*
X9066499Y5202500D01*
X772500Y6967500D02*
X772500Y6912500D01*
X667500Y6967500D02*
X667500Y6912500D01*
X772500Y6912500D01*
X667500Y6967500D02*
X772500Y6967500D01*
X562500Y8312500D02*
X562501Y8367499D01*
X457500Y8312500D02*
Y8367500D01*
Y8312500D02*
X562500Y8312500D01*
X457500Y8367500D02*
X562501Y8367499D01*
X1570000Y7877501D02*
X1630000Y7877500D01*
X1570000Y7767501D02*
X1630000Y7767500D01*
X1630000Y7877500D01*
X1570000Y7767501D02*
Y7877501D01*
X250000Y7602501D02*
X310000Y7602501D01*
X250000Y7492501D02*
X310001Y7492502D01*
X310000Y7602501D02*
X310001Y7492502D01*
X250000Y7492501D02*
X250000Y7602501D01*
X950000Y4215001D02*
X1010000Y4215000D01*
X950000Y4105001D02*
X1010000Y4105000D01*
Y4215000D01*
X950000Y4105001D02*
X950000Y4215001D01*
X402500Y3852501D02*
X402500Y3907501D01*
X507500Y3852500D02*
Y3907500D01*
X402500Y3907501D02*
X507500Y3907500D01*
X402500Y3852501D02*
X507500Y3852500D01*
X712501Y3537500D02*
X767501Y3537501D01*
X712500Y3432500D02*
X767500Y3432500D01*
X767501Y3537501D01*
X712500Y3432500D02*
X712501Y3537500D01*
X4670000Y9100000D02*
Y9600000D01*
X4170000Y9100000D02*
X4670000D01*
X4170000Y9600000D02*
X4670000D01*
X4170000Y9100000D02*
Y9600000D01*
X3670000Y9100000D02*
Y9600000D01*
X3170000Y9100000D02*
X3670000D01*
X3170000Y9600000D02*
X3670000D01*
X3170000Y9100000D02*
Y9600000D01*
X307500Y7242500D02*
X307500Y7347500D01*
X252500Y7347500D02*
X252500Y7242500D01*
X252500Y7347500D02*
X307500Y7347500D01*
X252500Y7242500D02*
X307500Y7242500D01*
X1950001Y3812500D02*
X2010000D01*
X1950000Y3702499D02*
X2010000Y3702501D01*
X2010000Y3812500D01*
X1950000Y3702499D02*
X1950001Y3812500D01*
X6670000Y9100000D02*
Y9600000D01*
X6170000Y9100000D02*
X6670000D01*
X6170000Y9600000D02*
X6670000D01*
X6170000Y9100000D02*
Y9600000D01*
X370000Y3402500D02*
X430000Y3402501D01*
X370000Y3292500D02*
X430001D01*
X430000Y3402501D02*
X430001Y3292500D01*
X370000D02*
X370000Y3402500D01*
X2742500Y8843500D02*
Y8948500D01*
X2797500Y8843500D02*
Y8948500D01*
X2742500Y8843500D02*
X2797500D01*
X2742500Y8948500D02*
X2797500D01*
X790000Y4102500D02*
X850000Y4102500D01*
X790000Y4212499D02*
X849999Y4212500D01*
X790000Y4102500D02*
X790000Y4212499D01*
X849999Y4212500D02*
X850000Y4102500D01*
X2797500Y9201500D02*
Y9306500D01*
X2742500Y9201500D02*
Y9306500D01*
X2797500D01*
X2742500Y9201500D02*
X2797500D01*
X8332499Y5807500D02*
X8387499D01*
X8332500Y5912502D02*
X8387500Y5912501D01*
X8332499Y5807500D02*
X8332500Y5912502D01*
X8387499Y5807500D02*
X8387500Y5912501D01*
X7852499Y6232501D02*
X7852500Y6287501D01*
X7747500Y6232501D02*
Y6287500D01*
Y6232501D02*
X7852499D01*
X7747500Y6287500D02*
X7852500Y6287501D01*
X9341500Y1672500D02*
X9446501Y1672499D01*
X9341500Y1727499D02*
X9446501Y1727499D01*
Y1672499D02*
Y1727499D01*
X9341500Y1672500D02*
X9341500Y1727499D01*
X9525000Y1512500D02*
X9525000Y1567500D01*
X9420000Y1567500D02*
X9420000Y1512500D01*
X9525000D01*
X9420000Y1567500D02*
X9525000Y1567500D01*
X9632500Y1545000D02*
X9687501Y1545001D01*
X9632500Y1440000D02*
X9687500Y1440000D01*
X9687501Y1545001D01*
X9632500Y1440000D02*
X9632500Y1545000D01*
X3357500Y7350000D02*
X3357501Y7410000D01*
X3247500Y7350001D02*
X3247502Y7410000D01*
X3247500Y7350001D02*
X3357500Y7350000D01*
X3247502Y7410000D02*
X3357501Y7410000D01*
X2852500Y6502500D02*
X2907500Y6502500D01*
X2852500Y6397500D02*
X2907500D01*
X2907500Y6502500D01*
X2852500Y6397500D02*
X2852500Y6502500D01*
X3567500Y4641500D02*
Y4746500D01*
X3512500Y4641500D02*
X3512500Y4746500D01*
X3567500Y4746500D01*
X3512500Y4641500D02*
X3567500Y4641500D01*
X3167500Y4641500D02*
X3167500Y4746501D01*
X3112500Y4641500D02*
X3112500Y4746500D01*
X3167500Y4746501D01*
X3112500Y4641500D02*
X3167500D01*
X2567500Y5401499D02*
Y5506500D01*
X2512501Y5401500D02*
X2512501Y5506500D01*
X2567500Y5506500D01*
X2512501Y5401500D02*
X2567500Y5401499D01*
X2492500Y5877501D02*
Y5982500D01*
X2547500D02*
X2547500Y5877500D01*
X2492500Y5877501D02*
X2547500Y5877500D01*
X2492500Y5982500D02*
X2547500D01*
X4093500Y5367501D02*
X4198500D01*
X4093500Y5312500D02*
X4198500Y5312500D01*
X4093500Y5367501D02*
X4093500Y5312500D01*
X4198500Y5367501D02*
X4198500Y5312500D01*
X4093499Y5927500D02*
X4198500Y5927500D01*
X4093499Y5872501D02*
X4198500Y5872500D01*
X4093499Y5927500D02*
X4093499Y5872501D01*
X4198500Y5872500D02*
Y5927500D01*
X3232500Y6502501D02*
X3287499Y6502500D01*
X3232500Y6397500D02*
X3287499Y6397500D01*
X3287499Y6502500D02*
X3287499Y6397500D01*
X3232500Y6397500D02*
X3232500Y6502501D01*
X2992500Y6502500D02*
X3047500Y6502500D01*
X2992500Y6397500D02*
X3047500Y6397500D01*
X3047500Y6502500D01*
X2992500Y6502500D02*
X2992500Y6397500D01*
X2372500Y5793501D02*
X2372500Y5898501D01*
X2427500D02*
X2427500Y5793500D01*
X2372500Y5793501D02*
X2427500Y5793500D01*
X2372500Y5898501D02*
X2427500D01*
X3672500Y6313500D02*
Y6418500D01*
X3727499Y6418500D02*
X3727500Y6313500D01*
X3672500D02*
X3727500D01*
X3672500Y6418500D02*
X3727499Y6418500D01*
X3727500Y4641500D02*
X3727500Y4746499D01*
X3672500Y4641500D02*
Y4746500D01*
X3727500Y4746499D01*
X3672500Y4641500D02*
X3727500Y4641500D01*
X2567500Y5021500D02*
X2567501Y5126501D01*
X2512500Y5021500D02*
X2512501Y5126501D01*
X2567501Y5126501D01*
X2512500Y5021500D02*
X2567500Y5021500D01*
X3512499Y6354999D02*
X3567500Y6355000D01*
X3512500Y6460000D02*
X3567500Y6460001D01*
X3512499Y6354999D02*
X3512500Y6460000D01*
X3567500Y6355000D02*
X3567500Y6460001D01*
X3372500Y6355000D02*
X3427499Y6355000D01*
X3372499Y6460000D02*
X3427500D01*
X3372499D02*
X3372500Y6355000D01*
X3427499Y6355000D02*
X3427500Y6460000D01*
X554999Y6547501D02*
X555000Y6492501D01*
X660000Y6547500D02*
X660000Y6492500D01*
X554999Y6547501D02*
X660000Y6547500D01*
X555000Y6492501D02*
X660000Y6492500D01*
X405000Y6492501D02*
X405000Y6547500D01*
X300000Y6492500D02*
X300000Y6547499D01*
X300000Y6492500D02*
X405000Y6492501D01*
X300000Y6547499D02*
X405000Y6547500D01*
X267500Y6141500D02*
Y6246500D01*
X212500Y6141500D02*
X212501Y6246500D01*
X267500Y6246500D01*
X212500Y6141500D02*
X267500D01*
X1577500Y5927501D02*
X1577501Y5872501D01*
X1472500Y5927500D02*
X1472500Y5872501D01*
X1577501D01*
X1472500Y5927500D02*
X1577500Y5927501D01*
X1077500Y6200000D02*
Y6359999D01*
X757499Y6360000D02*
X757500Y6200001D01*
X1077500Y6200000D01*
X757499Y6360000D02*
X1077500Y6359999D01*
X877500Y8652500D02*
X877500Y8707499D01*
X982500Y8652500D02*
Y8707499D01*
X877500Y8707499D02*
X982500Y8707499D01*
X877500Y8652500D02*
X982500Y8652500D01*
X672501Y8347499D02*
X727501Y8347500D01*
X672501Y8242500D02*
X727501Y8242501D01*
X727501Y8347500D02*
X727501Y8242501D01*
X672501Y8242500D02*
Y8347499D01*
X677500Y7872501D02*
Y7927500D01*
X782500Y7927500D02*
X782500Y7872500D01*
X677500Y7927500D02*
X782500Y7927500D01*
X677500Y7872501D02*
X782500Y7872500D01*
X732500Y8792500D02*
X787498Y8792498D01*
X732500Y8687500D02*
X787500D01*
X787498Y8792498D02*
X787500Y8687500D01*
X732500Y8792500D02*
X732500Y8687500D01*
X867499Y8772500D02*
X867501Y8827500D01*
X972499Y8772500D02*
X972500Y8827500D01*
X867501D02*
X972500D01*
X867499Y8772500D02*
X972499Y8772500D01*
X2077500Y8190001D02*
X2077502Y8130001D01*
X1967500D02*
Y8190000D01*
Y8130001D02*
X2077502D01*
X1967500Y8190000D02*
X2077500Y8190001D01*
%TF.MD5,c71a999d9e13806358931b9a39eb012d*%
M02*
