%TF.GenerationSoftware,Altium Limited,Altium Designer,26.2.0 (7)*%
G04 Layer_Color=2752767*
%FSLAX45Y45*%
%MOMM*%
%TF.SameCoordinates,7E3C43A8-A274-4656-BCAB-ED4188872703*%
%TF.FilePolarity,Positive*%
%TF.FileFunction,Drawing*%
%TF.Part,Single*%
G01*
G75*
%TA.AperFunction,NonConductor*%
%ADD152C,0.12700*%
%ADD212C,0.10160*%
%ADD230C,0.16933*%
D152*
X1740000Y9329200D02*
X1765400Y9354600D01*
X1790800D01*
X1765400Y9380000D01*
X1790800Y9405400D01*
X1765400D01*
X1740000Y9430800D01*
X1714600Y9405400D01*
X1689200D01*
X1714600Y9380000D01*
X1689200Y9354600D01*
X1714600D01*
X1740000Y9329200D01*
Y9349520D02*
X1755240Y9364760D01*
X1770480D01*
X1755240Y9380000D01*
X1770480Y9395240D01*
X1755240D01*
X1740000Y9410480D01*
X1724760Y9395240D01*
X1709520D01*
X1724760Y9380000D01*
X1709520Y9364760D01*
X1724760D01*
X1740000Y9349520D01*
X1410000Y8914200D02*
X1435400Y8939600D01*
X1460800D01*
X1435400Y8965000D01*
X1460800Y8990400D01*
X1435400D01*
X1410000Y9015800D01*
X1384600Y8990400D01*
X1359200D01*
X1384600Y8965000D01*
X1359200Y8939600D01*
X1384600D01*
X1410000Y8914200D01*
Y8934520D02*
X1425240Y8949760D01*
X1440480D01*
X1425240Y8965000D01*
X1440480Y8980240D01*
X1425240D01*
X1410000Y8995480D01*
X1394760Y8980240D01*
X1379520D01*
X1394760Y8965000D01*
X1379520Y8949760D01*
X1394760D01*
X1410000Y8934520D01*
X7065000Y4339015D02*
X7014200Y4440615D01*
X7115800D01*
X7065000Y4339015D01*
X4841200Y5849200D02*
X4866600Y5900000D01*
X4841200Y5950800D01*
X4892000Y5925400D01*
X4942800Y5950800D01*
X4917400Y5900000D01*
X4942800Y5849200D01*
X4892000Y5874600D01*
X4841200Y5849200D01*
X3341900Y261199D02*
X3367300Y311999D01*
X3341900Y362799D01*
X3392700Y337399D01*
X3443500Y362799D01*
X3418100Y311999D01*
X3443500Y261199D01*
X3392700Y286599D01*
X3341900Y261199D01*
X9710710Y9518489D02*
X9659910Y9620089D01*
X9761510D01*
X9710710Y9518489D01*
Y9538809D02*
X9680230Y9599769D01*
X9741190D01*
X9710710Y9538809D01*
X9569290Y9659911D02*
X9518490Y9761511D01*
X9620090D01*
X9569290Y9659911D01*
Y9680231D02*
X9538810Y9741191D01*
X9599770D01*
X9569290Y9680231D01*
X9569289Y238489D02*
X9518489Y340089D01*
X9620089D01*
X9569289Y238489D01*
Y258809D02*
X9538809Y319769D01*
X9599769D01*
X9569289Y258809D01*
X9710711Y379911D02*
X9659911Y481511D01*
X9761511D01*
X9710711Y379911D01*
Y400231D02*
X9680231Y461191D01*
X9741191D01*
X9710711Y400231D01*
X289289Y379911D02*
X238489Y481511D01*
X340089D01*
X289289Y379911D01*
Y400231D02*
X258809Y461191D01*
X319769D01*
X289289Y400231D01*
X430711Y238489D02*
X379911Y340089D01*
X481511D01*
X430711Y238489D01*
Y258809D02*
X400231Y319769D01*
X461191D01*
X430711Y258809D01*
X430711Y9659910D02*
X379911Y9761510D01*
X481511D01*
X430711Y9659910D01*
Y9680230D02*
X400231Y9741190D01*
X461191D01*
X430711Y9680230D01*
X289289Y9518490D02*
X238489Y9620090D01*
X340089D01*
X289289Y9518490D01*
Y9538810D02*
X258809Y9599770D01*
X319769D01*
X289289Y9538810D01*
X9200000Y3679199D02*
X9149200Y3780799D01*
X9250800D01*
X9200000Y3679199D01*
X349200Y6949200D02*
X374600Y7000000D01*
X349200Y7050800D01*
X400000Y7025400D01*
X450800Y7050800D01*
X425400Y7000000D01*
X450800Y6949200D01*
X400000Y6974600D01*
X349200Y6949200D01*
X3341900Y515200D02*
X3367300Y566000D01*
X3341900Y616800D01*
X3392700Y591400D01*
X3443500Y616800D01*
X3418100Y566000D01*
X3443500Y515200D01*
X3392700Y540600D01*
X3341900Y515200D01*
X5095200Y5849200D02*
X5120600Y5900000D01*
X5095200Y5950800D01*
X5146000Y5925400D01*
X5196800Y5950800D01*
X5171400Y5900000D01*
X5196800Y5849200D01*
X5146000Y5874600D01*
X5095200Y5849200D01*
X5349200Y5849200D02*
X5374600Y5900000D01*
X5349200Y5950800D01*
X5400000Y5925400D01*
X5450800Y5950800D01*
X5425400Y5900000D01*
X5450800Y5849200D01*
X5400000Y5874600D01*
X5349200Y5849200D01*
X5603200Y5849200D02*
X5628600Y5900000D01*
X5603200Y5950800D01*
X5654000Y5925400D01*
X5704800Y5950800D01*
X5679400Y5900000D01*
X5704800Y5849200D01*
X5654000Y5874600D01*
X5603200Y5849200D01*
X5857200Y5849200D02*
X5882600Y5900000D01*
X5857200Y5950800D01*
X5908000Y5925400D01*
X5958800Y5950800D01*
X5933400Y5900000D01*
X5958800Y5849200D01*
X5908000Y5874600D01*
X5857200Y5849200D01*
X6111200Y5849200D02*
X6136600Y5900000D01*
X6111200Y5950800D01*
X6162000Y5925400D01*
X6212800Y5950800D01*
X6187400Y5900000D01*
X6212800Y5849200D01*
X6162000Y5874600D01*
X6111200Y5849200D01*
X169200Y9029200D02*
X194600Y9080000D01*
X169200Y9130800D01*
X220000Y9105400D01*
X270800Y9130800D01*
X245400Y9080000D01*
X270800Y9029200D01*
X220000Y9054600D01*
X169200Y9029200D01*
X1740000Y8914200D02*
X1765400Y8939600D01*
X1790800D01*
X1765400Y8965000D01*
X1790800Y8990400D01*
X1765400D01*
X1740000Y9015800D01*
X1714600Y8990400D01*
X1689200D01*
X1714600Y8965000D01*
X1689200Y8939600D01*
X1714600D01*
X1740000Y8914200D01*
Y8934520D02*
X1755240Y8949760D01*
X1770480D01*
X1755240Y8965000D01*
X1770480Y8980240D01*
X1755240D01*
X1740000Y8995480D01*
X1724760Y8980240D01*
X1709520D01*
X1724760Y8965000D01*
X1709520Y8949760D01*
X1724760D01*
X1740000Y8934520D01*
X1410000Y9329200D02*
X1435400Y9354600D01*
X1460800D01*
X1435400Y9380000D01*
X1460800Y9405400D01*
X1435400D01*
X1410000Y9430800D01*
X1384600Y9405400D01*
X1359200D01*
X1384600Y9380000D01*
X1359200Y9354600D01*
X1384600D01*
X1410000Y9329200D01*
Y9349520D02*
X1425240Y9364760D01*
X1440480D01*
X1425240Y9380000D01*
X1440480Y9395240D01*
X1425240D01*
X1410000Y9410480D01*
X1394760Y9395240D01*
X1379520D01*
X1394760Y9380000D01*
X1379520Y9364760D01*
X1394760D01*
X1410000Y9349520D01*
X1844200Y8714200D02*
Y8815800D01*
X1945800D01*
Y8714200D01*
X1844200D01*
X1864520Y8734520D02*
Y8795480D01*
X1925480D01*
Y8734520D01*
X1864520D01*
X9200000Y3429199D02*
X9149200Y3530799D01*
X9250800D01*
X9200000Y3429199D01*
Y3929199D02*
X9149200Y4030799D01*
X9250800D01*
X9200000Y3929199D01*
X1429200Y3449200D02*
X1454600Y3500000D01*
X1429200Y3550800D01*
X1480000Y3525400D01*
X1530800Y3550800D01*
X1505400Y3500000D01*
X1530800Y3449200D01*
X1480000Y3474600D01*
X1429200Y3449200D01*
X7554600Y4394600D02*
Y4369200D01*
X7605400D01*
Y4394600D01*
X7630800D01*
Y4445400D01*
X7605400D01*
Y4470800D01*
X7554600D01*
Y4445400D01*
X7529200D01*
Y4394600D01*
X7554600D01*
X7380000Y3543629D02*
X7329200Y3645229D01*
X7430800D01*
X7380000Y3543629D01*
X7580000Y3584406D02*
X7529200Y3686006D01*
X7630800D01*
X7580000Y3584406D01*
X8005571Y3969200D02*
X7954771Y4070800D01*
X8056371D01*
X8005571Y3969200D01*
X7964794Y4169200D02*
X7913994Y4270800D01*
X8015594D01*
X7964794Y4169200D01*
X7380000Y4553994D02*
X7329200Y4655594D01*
X7430800D01*
X7380000Y4553994D01*
X7580000Y4594771D02*
X7529200Y4696371D01*
X7630800D01*
X7580000Y4594771D01*
X6995206Y3969200D02*
X6944406Y4070800D01*
X7046006D01*
X6995206Y3969200D01*
X6954429Y4169200D02*
X6903629Y4270800D01*
X7005229D01*
X6954429Y4169200D01*
X1769200Y729200D02*
X1794600Y780000D01*
X1769200Y830800D01*
X1820000Y805400D01*
X1870800Y830800D01*
X1845400Y780000D01*
X1870800Y729200D01*
X1820000Y754600D01*
X1769200Y729200D01*
X949200Y3029200D02*
X974600Y3080000D01*
X949200Y3130800D01*
X1000000Y3105400D01*
X1050800Y3130800D01*
X1025400Y3080000D01*
X1050800Y3029200D01*
X1000000Y3054600D01*
X949200Y3029200D01*
X189200Y2529200D02*
X214600Y2580000D01*
X189200Y2630800D01*
X240000Y2605400D01*
X290800Y2630800D01*
X265400Y2580000D01*
X290800Y2529200D01*
X240000Y2554600D01*
X189200Y2529200D01*
X8574200Y1329200D02*
X8599600D01*
X8625000Y1354600D01*
X8650400Y1329200D01*
X8675800D01*
Y1354600D01*
X8650400Y1380000D01*
X8675800Y1405400D01*
Y1430800D01*
X8650400D01*
X8625000Y1405400D01*
X8599600Y1430800D01*
X8574200D01*
Y1405400D01*
X8599600Y1380000D01*
X8574200Y1354600D01*
Y1329200D01*
X7964200Y1929200D02*
X7989600D01*
X8015000Y1954600D01*
X8040400Y1929200D01*
X8065800D01*
Y1954600D01*
X8040400Y1980000D01*
X8065800Y2005400D01*
Y2030800D01*
X8040400D01*
X8015000Y2005400D01*
X7989600Y2030800D01*
X7964200D01*
Y2005400D01*
X7989600Y1980000D01*
X7964200Y1954600D01*
Y1929200D01*
X6962519Y1284499D02*
X6987919Y1309899D01*
X7013319D01*
X6987919Y1335299D01*
X7013319Y1360699D01*
X6987919D01*
X6962519Y1386099D01*
X6937119Y1360699D01*
X6911719D01*
X6937119Y1335299D01*
X6911719Y1309899D01*
X6937119D01*
X6962519Y1284499D01*
X5122183Y791382D02*
X5147583Y816782D01*
X5172983D01*
X5147583Y842182D01*
X5172983Y867582D01*
X5147583D01*
X5122183Y892982D01*
X5096783Y867582D01*
X5071383D01*
X5096783Y842182D01*
X5071383Y816782D01*
X5096783D01*
X5122183Y791382D01*
X4837482Y1853901D02*
X4862882Y1879301D01*
X4888282D01*
X4862882Y1904701D01*
X4888282Y1930101D01*
X4862882D01*
X4837482Y1955501D01*
X4812082Y1930101D01*
X4786682D01*
X4812082Y1904701D01*
X4786682Y1879301D01*
X4812082D01*
X4837482Y1853901D01*
Y1284499D02*
X4862882Y1309899D01*
X4888282D01*
X4862882Y1335299D01*
X4888282Y1360699D01*
X4862882D01*
X4837482Y1386099D01*
X4812082Y1360699D01*
X4786682D01*
X4812082Y1335299D01*
X4786682Y1309899D01*
X4812082D01*
X4837482Y1284499D01*
X5615299Y506681D02*
X5640699Y532081D01*
X5666099D01*
X5640699Y557481D01*
X5666099Y582881D01*
X5640699D01*
X5615299Y608281D01*
X5589899Y582881D01*
X5564499D01*
X5589899Y557481D01*
X5564499Y532081D01*
X5589899D01*
X5615299Y506681D01*
X6677818Y791382D02*
X6703218Y816782D01*
X6728618D01*
X6703218Y842182D01*
X6728618Y867582D01*
X6703218D01*
X6677818Y892982D01*
X6652418Y867582D01*
X6627018D01*
X6652418Y842182D01*
X6627018Y816782D01*
X6652418D01*
X6677818Y791382D01*
X6184701Y506681D02*
X6210101Y532081D01*
X6235501D01*
X6210101Y557481D01*
X6235501Y582881D01*
X6210101D01*
X6184701Y608281D01*
X6159301Y582881D01*
X6133901D01*
X6159301Y557481D01*
X6133901Y532081D01*
X6159301D01*
X6184701Y506681D01*
X5122183Y2347017D02*
X5147583Y2372417D01*
X5172983D01*
X5147583Y2397817D01*
X5172983Y2423217D01*
X5147583D01*
X5122183Y2448617D01*
X5096783Y2423217D01*
X5071383D01*
X5096783Y2397817D01*
X5071383Y2372417D01*
X5096783D01*
X5122183Y2347017D01*
X6184701Y2631718D02*
X6210101Y2657118D01*
X6235501D01*
X6210101Y2682518D01*
X6235501Y2707918D01*
X6210101D01*
X6184701Y2733318D01*
X6159301Y2707918D01*
X6133901D01*
X6159301Y2682518D01*
X6133901Y2657118D01*
X6159301D01*
X6184701Y2631718D01*
X5615299D02*
X5640699Y2657118D01*
X5666099D01*
X5640699Y2682518D01*
X5666099Y2707918D01*
X5640699D01*
X5615299Y2733318D01*
X5589899Y2707918D01*
X5564499D01*
X5589899Y2682518D01*
X5564499Y2657118D01*
X5589899D01*
X5615299Y2631718D01*
X6677818Y2347017D02*
X6703218Y2372417D01*
X6728618D01*
X6703218Y2397817D01*
X6728618Y2423217D01*
X6703218D01*
X6677818Y2448617D01*
X6652418Y2423217D01*
X6627018D01*
X6652418Y2397817D01*
X6627018Y2372417D01*
X6652418D01*
X6677818Y2347017D01*
X6962519Y1853901D02*
X6987919Y1879301D01*
X7013319D01*
X6987919Y1904701D01*
X7013319Y1930101D01*
X6987919D01*
X6962519Y1955501D01*
X6937119Y1930101D01*
X6911719D01*
X6937119Y1904701D01*
X6911719Y1879301D01*
X6937119D01*
X6962519Y1853901D01*
X5617158Y1852043D02*
X5642558Y1877443D01*
X5667958D01*
X5642558Y1902843D01*
X5667958Y1928243D01*
X5642558D01*
X5617158Y1953643D01*
X5591758Y1928243D01*
X5566358D01*
X5591758Y1902843D01*
X5566358Y1877443D01*
X5591758D01*
X5617158Y1852043D01*
X3481900Y1643200D02*
X3507300Y1694000D01*
X3481900Y1744800D01*
X3532700Y1719400D01*
X3583500Y1744800D01*
X3558100Y1694000D01*
X3583500Y1643200D01*
X3532700Y1668600D01*
X3481900Y1643200D01*
Y1389200D02*
X3507300Y1440000D01*
X3481900Y1490800D01*
X3532700Y1465400D01*
X3583500Y1490800D01*
X3558100Y1440000D01*
X3583500Y1389200D01*
X3532700Y1414600D01*
X3481900Y1389200D01*
Y1135200D02*
X3507300Y1186000D01*
X3481900Y1236800D01*
X3532700Y1211400D01*
X3583500Y1236800D01*
X3558100Y1186000D01*
X3583500Y1135200D01*
X3532700Y1160600D01*
X3481900Y1135200D01*
X3341900Y769200D02*
X3367300Y820000D01*
X3341900Y870800D01*
X3392700Y845400D01*
X3443500Y870800D01*
X3418100Y820000D01*
X3443500Y769200D01*
X3392700Y794600D01*
X3341900Y769200D01*
X2521901Y261199D02*
X2547301Y311999D01*
X2521901Y362799D01*
X2572701Y337399D01*
X2623501Y362799D01*
X2598101Y311999D01*
X2623501Y261199D01*
X2572701Y286599D01*
X2521901Y261199D01*
X2521901Y515200D02*
X2547301Y566000D01*
X2521901Y616800D01*
X2572701Y591400D01*
X2623501Y616800D01*
X2598101Y566000D01*
X2623501Y515200D01*
X2572701Y540600D01*
X2521901Y515200D01*
X2521900Y769200D02*
X2547300Y820000D01*
X2521900Y870800D01*
X2572700Y845400D01*
X2623500Y870800D01*
X2598100Y820000D01*
X2623500Y769200D01*
X2572700Y794600D01*
X2521900Y769200D01*
X939200Y3829200D02*
X964600Y3880000D01*
X939200Y3930800D01*
X990000Y3905400D01*
X1040800Y3930800D01*
X1015400Y3880000D01*
X1040800Y3829200D01*
X990000Y3854600D01*
X939200Y3829200D01*
X1449200Y6229200D02*
X1474600Y6280000D01*
X1449200Y6330800D01*
X1500000Y6305400D01*
X1550800Y6330800D01*
X1525400Y6280000D01*
X1550800Y6229200D01*
X1500000Y6254600D01*
X1449200Y6229200D01*
X1329200Y509200D02*
Y610800D01*
X1430800D01*
Y509200D01*
X1329200D01*
X1029200Y229200D02*
Y330800D01*
X1130800D01*
Y229200D01*
X1029200D01*
X7609200Y8689200D02*
Y8790800D01*
X7710800D01*
Y8689200D01*
X7609200D01*
X2989200Y4769200D02*
Y4870800D01*
X3090800D01*
Y4769200D01*
X2989200D01*
X2757446Y2054055D02*
Y2155655D01*
X2859046D01*
Y2054055D01*
X2757446D01*
X2669200Y9029200D02*
Y9130800D01*
X2770800D01*
Y9029200D01*
X2669200D01*
X929200Y8849200D02*
Y8950800D01*
X1030800D01*
Y8849200D01*
X929200D01*
X9649200Y9149200D02*
Y9250800D01*
X9750800D01*
Y9149200D01*
X9649200D01*
Y8149200D02*
Y8250800D01*
X9750800D01*
Y8149200D01*
X9649200D01*
Y7149200D02*
Y7250800D01*
X9750800D01*
Y7149200D01*
X9649200D01*
Y6149200D02*
Y6250800D01*
X9750800D01*
Y6149200D01*
X9649200D01*
Y5149200D02*
Y5250800D01*
X9750800D01*
Y5149200D01*
X9649200D01*
Y4149200D02*
Y4250800D01*
X9750800D01*
Y4149200D01*
X9649200D01*
Y3149200D02*
Y3250800D01*
X9750800D01*
Y3149200D01*
X9649200D01*
Y1149200D02*
Y1250800D01*
X9750800D01*
Y1149200D01*
X9649200D01*
Y149200D02*
Y250800D01*
X9750800D01*
Y149200D01*
X9649200D01*
X9149200Y9149200D02*
Y9250800D01*
X9250800D01*
Y9149200D01*
X9149200D01*
X9399200Y8649200D02*
Y8750800D01*
X9500800D01*
Y8649200D01*
X9399200D01*
X9149200Y8149200D02*
Y8250800D01*
X9250800D01*
Y8149200D01*
X9149200D01*
X9399200Y7649200D02*
Y7750800D01*
X9500800D01*
Y7649200D01*
X9399200D01*
X9149200Y7149200D02*
Y7250800D01*
X9250800D01*
Y7149200D01*
X9149200D01*
X9399200Y6649200D02*
Y6750800D01*
X9500800D01*
Y6649200D01*
X9399200D01*
X9149200Y6149200D02*
Y6250800D01*
X9250800D01*
Y6149200D01*
X9149200D01*
Y4149200D02*
Y4250800D01*
X9250800D01*
Y4149200D01*
X9149200D01*
Y3149200D02*
Y3250800D01*
X9250800D01*
Y3149200D01*
X9149200D01*
Y1149200D02*
Y1250800D01*
X9250800D01*
Y1149200D01*
X9149200D01*
X9399200Y649200D02*
Y750800D01*
X9500800D01*
Y649200D01*
X9399200D01*
X9149200Y149200D02*
Y250800D01*
X9250800D01*
Y149200D01*
X9149200D01*
X8899200Y8649200D02*
Y8750800D01*
X9000800D01*
Y8649200D01*
X8899200D01*
Y7649200D02*
Y7750800D01*
X9000800D01*
Y7649200D01*
X8899200D01*
X8649200Y7149200D02*
Y7250800D01*
X8750800D01*
Y7149200D01*
X8649200D01*
X8899200Y6649200D02*
Y6750800D01*
X9000800D01*
Y6649200D01*
X8899200D01*
X8649200Y6149200D02*
Y6250800D01*
X8750800D01*
Y6149200D01*
X8649200D01*
X8899200Y5649200D02*
Y5750800D01*
X9000800D01*
Y5649200D01*
X8899200D01*
Y4649200D02*
Y4750800D01*
X9000800D01*
Y4649200D01*
X8899200D01*
Y3649200D02*
Y3750800D01*
X9000800D01*
Y3649200D01*
X8899200D01*
Y2649200D02*
Y2750800D01*
X9000800D01*
Y2649200D01*
X8899200D01*
X8649200Y149200D02*
Y250800D01*
X8750800D01*
Y149200D01*
X8649200D01*
X8399200Y9649200D02*
Y9750800D01*
X8500800D01*
Y9649200D01*
X8399200D01*
Y7649200D02*
Y7750800D01*
X8500800D01*
Y7649200D01*
X8399200D01*
X8149200Y7149200D02*
Y7250800D01*
X8250800D01*
Y7149200D01*
X8149200D01*
X8399200Y6649200D02*
Y6750800D01*
X8500800D01*
Y6649200D01*
X8399200D01*
X8149200Y4149200D02*
Y4250800D01*
X8250800D01*
Y4149200D01*
X8149200D01*
Y3149200D02*
Y3250800D01*
X8250800D01*
Y3149200D01*
X8149200D01*
X8399200Y2649200D02*
Y2750800D01*
X8500800D01*
Y2649200D01*
X8399200D01*
X8149200Y1149200D02*
Y1250800D01*
X8250800D01*
Y1149200D01*
X8149200D01*
X8399200Y649200D02*
Y750800D01*
X8500800D01*
Y649200D01*
X8399200D01*
X7649200Y9149200D02*
Y9250800D01*
X7750800D01*
Y9149200D01*
X7649200D01*
X7899200Y7649200D02*
Y7750800D01*
X8000800D01*
Y7649200D01*
X7899200D01*
X7649200Y7149200D02*
Y7250800D01*
X7750800D01*
Y7149200D01*
X7649200D01*
X7899200Y6649200D02*
Y6750800D01*
X8000800D01*
Y6649200D01*
X7899200D01*
Y3649200D02*
Y3750800D01*
X8000800D01*
Y3649200D01*
X7899200D01*
X7649200Y3149200D02*
Y3250800D01*
X7750800D01*
Y3149200D01*
X7649200D01*
X7899200Y1649200D02*
Y1750800D01*
X8000800D01*
Y1649200D01*
X7899200D01*
X7649200Y1149200D02*
Y1250800D01*
X7750800D01*
Y1149200D01*
X7649200D01*
Y149200D02*
Y250800D01*
X7750800D01*
Y149200D01*
X7649200D01*
X7399200Y9649200D02*
Y9750800D01*
X7500800D01*
Y9649200D01*
X7399200D01*
X7149200Y9149200D02*
Y9250800D01*
X7250800D01*
Y9149200D01*
X7149200D01*
Y7149200D02*
Y7250800D01*
X7250800D01*
Y7149200D01*
X7149200D01*
X7399200Y6649200D02*
Y6750800D01*
X7500800D01*
Y6649200D01*
X7399200D01*
X7149200Y6149200D02*
Y6250800D01*
X7250800D01*
Y6149200D01*
X7149200D01*
X7399200Y5649200D02*
Y5750800D01*
X7500800D01*
Y5649200D01*
X7399200D01*
X7149200Y5149200D02*
Y5250800D01*
X7250800D01*
Y5149200D01*
X7149200D01*
X7399200Y4649200D02*
Y4750800D01*
X7500800D01*
Y4649200D01*
X7399200D01*
X7149200Y3149200D02*
Y3250800D01*
X7250800D01*
Y3149200D01*
X7149200D01*
X7399200Y2649200D02*
Y2750800D01*
X7500800D01*
Y2649200D01*
X7399200D01*
X7149200Y2149200D02*
Y2250800D01*
X7250800D01*
Y2149200D01*
X7149200D01*
Y1149200D02*
Y1250800D01*
X7250800D01*
Y1149200D01*
X7149200D01*
X7399200Y649200D02*
Y750800D01*
X7500800D01*
Y649200D01*
X7399200D01*
X7149200Y149200D02*
Y250800D01*
X7250800D01*
Y149200D01*
X7149200D01*
X6899200Y9649200D02*
Y9750800D01*
X7000800D01*
Y9649200D01*
X6899200D01*
Y8649200D02*
Y8750800D01*
X7000800D01*
Y8649200D01*
X6899200D01*
Y7649200D02*
Y7750800D01*
X7000800D01*
Y7649200D01*
X6899200D01*
X6649200Y7149200D02*
Y7250800D01*
X6750800D01*
Y7149200D01*
X6649200D01*
X6899200Y6649200D02*
Y6750800D01*
X7000800D01*
Y6649200D01*
X6899200D01*
Y5649200D02*
Y5750800D01*
X7000800D01*
Y5649200D01*
X6899200D01*
X6649200Y3149200D02*
Y3250800D01*
X6750800D01*
Y3149200D01*
X6649200D01*
Y2149200D02*
Y2250800D01*
X6750800D01*
Y2149200D01*
X6649200D01*
Y1149200D02*
Y1250800D01*
X6750800D01*
Y1149200D01*
X6649200D01*
X6899200Y649200D02*
Y750800D01*
X7000800D01*
Y649200D01*
X6899200D01*
X6399200Y9649200D02*
Y9750800D01*
X6500800D01*
Y9649200D01*
X6399200D01*
Y7649200D02*
Y7750800D01*
X6500800D01*
Y7649200D01*
X6399200D01*
X6149200Y7149200D02*
Y7250800D01*
X6250800D01*
Y7149200D01*
X6149200D01*
Y6149200D02*
Y6250800D01*
X6250800D01*
Y6149200D01*
X6149200D01*
X6399200Y3649200D02*
Y3750800D01*
X6500800D01*
Y3649200D01*
X6399200D01*
X6149200Y3149200D02*
Y3250800D01*
X6250800D01*
Y3149200D01*
X6149200D01*
X6399200Y2649200D02*
Y2750800D01*
X6500800D01*
Y2649200D01*
X6399200D01*
X6149200Y2149200D02*
Y2250800D01*
X6250800D01*
Y2149200D01*
X6149200D01*
Y1149200D02*
Y1250800D01*
X6250800D01*
Y1149200D01*
X6149200D01*
X6399200Y649200D02*
Y750800D01*
X6500800D01*
Y649200D01*
X6399200D01*
X6149200Y149200D02*
Y250800D01*
X6250800D01*
Y149200D01*
X6149200D01*
X5899200Y9649200D02*
Y9750800D01*
X6000800D01*
Y9649200D01*
X5899200D01*
X5649200Y8149200D02*
Y8250800D01*
X5750800D01*
Y8149200D01*
X5649200D01*
X5899200Y7649200D02*
Y7750800D01*
X6000800D01*
Y7649200D01*
X5899200D01*
Y6649200D02*
Y6750800D01*
X6000800D01*
Y6649200D01*
X5899200D01*
X5649200Y6149200D02*
Y6250800D01*
X5750800D01*
Y6149200D01*
X5649200D01*
X5899200Y3649200D02*
Y3750800D01*
X6000800D01*
Y3649200D01*
X5899200D01*
X5649200Y2149200D02*
Y2250800D01*
X5750800D01*
Y2149200D01*
X5649200D01*
Y1149200D02*
Y1250800D01*
X5750800D01*
Y1149200D01*
X5649200D01*
X5899200Y649200D02*
Y750800D01*
X6000800D01*
Y649200D01*
X5899200D01*
X5649200Y149200D02*
Y250800D01*
X5750800D01*
Y149200D01*
X5649200D01*
X5399200Y9649200D02*
Y9750800D01*
X5500800D01*
Y9649200D01*
X5399200D01*
X5149200Y8149200D02*
Y8250800D01*
X5250800D01*
Y8149200D01*
X5149200D01*
X5399200Y7649200D02*
Y7750800D01*
X5500800D01*
Y7649200D01*
X5399200D01*
Y6649200D02*
Y6750800D01*
X5500800D01*
Y6649200D01*
X5399200D01*
X5149200Y6149200D02*
Y6250800D01*
X5250800D01*
Y6149200D01*
X5149200D01*
Y5149200D02*
Y5250800D01*
X5250800D01*
Y5149200D01*
X5149200D01*
X5399200Y3649200D02*
Y3750800D01*
X5500800D01*
Y3649200D01*
X5399200D01*
X5149200Y3149200D02*
Y3250800D01*
X5250800D01*
Y3149200D01*
X5149200D01*
X5399200Y2649200D02*
Y2750800D01*
X5500800D01*
Y2649200D01*
X5399200D01*
X5149200Y1149200D02*
Y1250800D01*
X5250800D01*
Y1149200D01*
X5149200D01*
X5399200Y649200D02*
Y750800D01*
X5500800D01*
Y649200D01*
X5399200D01*
X5149200Y149200D02*
Y250800D01*
X5250800D01*
Y149200D01*
X5149200D01*
X4899200Y9649200D02*
Y9750800D01*
X5000800D01*
Y9649200D01*
X4899200D01*
Y8649200D02*
Y8750800D01*
X5000800D01*
Y8649200D01*
X4899200D01*
X4649200Y8149200D02*
Y8250800D01*
X4750800D01*
Y8149200D01*
X4649200D01*
X4899200Y7649200D02*
Y7750800D01*
X5000800D01*
Y7649200D01*
X4899200D01*
X4649200Y7149200D02*
Y7250800D01*
X4750800D01*
Y7149200D01*
X4649200D01*
X4899200Y6649200D02*
Y6750800D01*
X5000800D01*
Y6649200D01*
X4899200D01*
Y5649200D02*
Y5750800D01*
X5000800D01*
Y5649200D01*
X4899200D01*
X4649200Y5149200D02*
Y5250800D01*
X4750800D01*
Y5149200D01*
X4649200D01*
Y4149200D02*
Y4250800D01*
X4750800D01*
Y4149200D01*
X4649200D01*
X4899200Y2649200D02*
Y2750800D01*
X5000800D01*
Y2649200D01*
X4899200D01*
Y649200D02*
Y750800D01*
X5000800D01*
Y649200D01*
X4899200D01*
X4649200Y149200D02*
Y250800D01*
X4750800D01*
Y149200D01*
X4649200D01*
X4399200Y9649200D02*
Y9750800D01*
X4500800D01*
Y9649200D01*
X4399200D01*
X4149200Y8149200D02*
Y8250800D01*
X4250800D01*
Y8149200D01*
X4149200D01*
X4399200Y7649200D02*
Y7750800D01*
X4500800D01*
Y7649200D01*
X4399200D01*
X4149200Y7149200D02*
Y7250800D01*
X4250800D01*
Y7149200D01*
X4149200D01*
Y4149200D02*
Y4250800D01*
X4250800D01*
Y4149200D01*
X4149200D01*
Y149200D02*
Y250800D01*
X4250800D01*
Y149200D01*
X4149200D01*
X3899200Y9649200D02*
Y9750800D01*
X4000800D01*
Y9649200D01*
X3899200D01*
Y8649200D02*
Y8750800D01*
X4000800D01*
Y8649200D01*
X3899200D01*
X3649200Y8149200D02*
Y8250800D01*
X3750800D01*
Y8149200D01*
X3649200D01*
X3899200Y7649200D02*
Y7750800D01*
X4000800D01*
Y7649200D01*
X3899200D01*
X3649200Y4149200D02*
Y4250800D01*
X3750800D01*
Y4149200D01*
X3649200D01*
X3899200Y3649200D02*
Y3750800D01*
X4000800D01*
Y3649200D01*
X3899200D01*
X3649200Y3149200D02*
Y3250800D01*
X3750800D01*
Y3149200D01*
X3649200D01*
X3899200Y2649200D02*
Y2750800D01*
X4000800D01*
Y2649200D01*
X3899200D01*
X3649200Y2149200D02*
Y2250800D01*
X3750800D01*
Y2149200D01*
X3649200D01*
X3899200Y1649200D02*
Y1750800D01*
X4000800D01*
Y1649200D01*
X3899200D01*
X3649200Y1149200D02*
Y1250800D01*
X3750800D01*
Y1149200D01*
X3649200D01*
X3899200Y649200D02*
Y750800D01*
X4000800D01*
Y649200D01*
X3899200D01*
X3649200Y149200D02*
Y250800D01*
X3750800D01*
Y149200D01*
X3649200D01*
X3399200Y9649200D02*
Y9750800D01*
X3500800D01*
Y9649200D01*
X3399200D01*
X3149200Y8149200D02*
Y8250800D01*
X3250800D01*
Y8149200D01*
X3149200D01*
X3399200Y7649200D02*
Y7750800D01*
X3500800D01*
Y7649200D01*
X3399200D01*
Y4649200D02*
Y4750800D01*
X3500800D01*
Y4649200D01*
X3399200D01*
X3149200Y4149200D02*
Y4250800D01*
X3250800D01*
Y4149200D01*
X3149200D01*
Y149200D02*
Y250800D01*
X3250800D01*
Y149200D01*
X3149200D01*
X2899200Y7649200D02*
Y7750800D01*
X3000800D01*
Y7649200D01*
X2899200D01*
Y6649200D02*
Y6750800D01*
X3000800D01*
Y6649200D01*
X2899200D01*
X2649200Y149200D02*
Y250800D01*
X2750800D01*
Y149200D01*
X2649200D01*
X2399200Y9649200D02*
Y9750800D01*
X2500800D01*
Y9649200D01*
X2399200D01*
Y7649200D02*
Y7750800D01*
X2500800D01*
Y7649200D01*
X2399200D01*
Y6649200D02*
Y6750800D01*
X2500800D01*
Y6649200D01*
X2399200D01*
X2149200Y6149200D02*
Y6250800D01*
X2250800D01*
Y6149200D01*
X2149200D01*
Y5149200D02*
Y5250800D01*
X2250800D01*
Y5149200D01*
X2149200D01*
X2399200Y4649200D02*
Y4750800D01*
X2500800D01*
Y4649200D01*
X2399200D01*
X2149200Y4149200D02*
Y4250800D01*
X2250800D01*
Y4149200D01*
X2149200D01*
Y3149200D02*
Y3250800D01*
X2250800D01*
Y3149200D01*
X2149200D01*
X2399200Y2649200D02*
Y2750800D01*
X2500800D01*
Y2649200D01*
X2399200D01*
X1899200Y9649200D02*
Y9750800D01*
X2000800D01*
Y9649200D01*
X1899200D01*
Y649200D02*
Y750800D01*
X2000800D01*
Y649200D01*
X1899200D01*
X1649200Y149200D02*
Y250800D01*
X1750800D01*
Y149200D01*
X1649200D01*
X1399200Y9649200D02*
Y9750800D01*
X1500800D01*
Y9649200D01*
X1399200D01*
X1149200Y9149200D02*
Y9250800D01*
X1250800D01*
Y9149200D01*
X1149200D01*
X1399200Y8649200D02*
Y8750800D01*
X1500800D01*
Y8649200D01*
X1399200D01*
Y7649200D02*
Y7750800D01*
X1500800D01*
Y7649200D01*
X1399200D01*
Y6649200D02*
Y6750800D01*
X1500800D01*
Y6649200D01*
X1399200D01*
X1149200Y6149200D02*
Y6250800D01*
X1250800D01*
Y6149200D01*
X1149200D01*
Y4149200D02*
Y4250800D01*
X1250800D01*
Y4149200D01*
X1149200D01*
X1399200Y3649200D02*
Y3750800D01*
X1500800D01*
Y3649200D01*
X1399200D01*
X1149200Y3149200D02*
Y3250800D01*
X1250800D01*
Y3149200D01*
X1149200D01*
X1399200Y2649200D02*
Y2750800D01*
X1500800D01*
Y2649200D01*
X1399200D01*
X899200Y9649200D02*
Y9750800D01*
X1000800D01*
Y9649200D01*
X899200D01*
Y6649200D02*
Y6750800D01*
X1000800D01*
Y6649200D01*
X899200D01*
Y4649200D02*
Y4750800D01*
X1000800D01*
Y4649200D01*
X899200D01*
Y2649200D02*
Y2750800D01*
X1000800D01*
Y2649200D01*
X899200D01*
X649200Y149200D02*
Y250800D01*
X750800D01*
Y149200D01*
X649200D01*
X149200Y7149200D02*
Y7250800D01*
X250800D01*
Y7149200D01*
X149200D01*
Y5149200D02*
Y5250800D01*
X250800D01*
Y5149200D01*
X149200D01*
Y4149200D02*
Y4250800D01*
X250800D01*
Y4149200D01*
X149200D01*
X399200Y3649200D02*
Y3750800D01*
X500800D01*
Y3649200D01*
X399200D01*
X149200Y3149200D02*
Y3250800D01*
X250800D01*
Y3149200D01*
X149200D01*
X399200Y2649200D02*
Y2750800D01*
X500800D01*
Y2649200D01*
X399200D01*
Y649200D02*
Y750800D01*
X500800D01*
Y649200D01*
X399200D01*
X149200Y149200D02*
Y250800D01*
X250800D01*
Y149200D01*
X149200D01*
X1949200Y9749200D02*
Y9850800D01*
X2050800D01*
Y9749200D01*
X1949200D01*
X3149200Y1499200D02*
Y1600800D01*
X3250800D01*
Y1499200D01*
X3149200D01*
X4339200Y1519200D02*
Y1620800D01*
X4440800D01*
Y1519200D01*
X4339200D01*
X5679200Y1399200D02*
Y1500800D01*
X5780800D01*
Y1399200D01*
X5679200D01*
X5879200Y1809200D02*
Y1910800D01*
X5980800D01*
Y1809200D01*
X5879200D01*
X5529200Y3189200D02*
Y3290800D01*
X5630800D01*
Y3189200D01*
X5529200D01*
X2499200Y9489200D02*
Y9590800D01*
X2600800D01*
Y9489200D01*
X2499200D01*
X229200Y8609200D02*
Y8710800D01*
X330800D01*
Y8609200D01*
X229200D01*
X1019200Y7499200D02*
Y7600800D01*
X1120800D01*
Y7499200D01*
X1019200D01*
X2179200Y7319200D02*
Y7420800D01*
X2280800D01*
Y7319200D01*
X2179200D01*
X2599200Y5009200D02*
Y5110800D01*
X2700800D01*
Y5009200D01*
X2599200D01*
X2349200Y5949200D02*
Y6050800D01*
X2450800D01*
Y5949200D01*
X2349200D01*
X2369200Y6049200D02*
Y6150800D01*
X2470800D01*
Y6049200D01*
X2369200D01*
X2249200Y5749200D02*
Y5850800D01*
X2350800D01*
Y5749200D01*
X2249200D01*
Y6659200D02*
Y6760800D01*
X2350800D01*
Y6659200D01*
X2249200D01*
X2149200Y6449200D02*
Y6550800D01*
X2250800D01*
Y6449200D01*
X2149200D01*
X2929200Y1679200D02*
Y1780800D01*
X3030800D01*
Y1679200D01*
X2929200D01*
X2739200Y1249200D02*
Y1350800D01*
X2840800D01*
Y1249200D01*
X2739200D01*
X559200Y1489200D02*
Y1590800D01*
X660800D01*
Y1489200D01*
X559200D01*
X539200Y1619200D02*
Y1720800D01*
X640800D01*
Y1619200D01*
X539200D01*
X499200Y1889200D02*
Y1990800D01*
X600800D01*
Y1889200D01*
X499200D01*
X949200Y2019200D02*
Y2120800D01*
X1050800D01*
Y2019200D01*
X949200D01*
X869200Y1919200D02*
Y2020800D01*
X970800D01*
Y1919200D01*
X869200D01*
Y799200D02*
Y900800D01*
X970800D01*
Y799200D01*
X869200D01*
X972917Y2485483D02*
Y2587083D01*
X1074517D01*
Y2485483D01*
X972917D01*
X579200Y1729200D02*
Y1830800D01*
X680800D01*
Y1729200D01*
X579200D01*
X899200Y1632851D02*
Y1734451D01*
X1000800D01*
Y1632851D01*
X899200D01*
Y1705551D02*
Y1807151D01*
X1000800D01*
Y1705551D01*
X899200D01*
X2139200Y2979200D02*
Y3080800D01*
X2240800D01*
Y2979200D01*
X2139200D01*
X2349200Y2829200D02*
Y2930800D01*
X2450800D01*
Y2829200D01*
X2349200D01*
X1919200Y2009200D02*
Y2110800D01*
X2020800D01*
Y2009200D01*
X1919200D01*
X2899200Y9449200D02*
Y9550800D01*
X3000800D01*
Y9449200D01*
X2899200D01*
X2719200Y9609200D02*
Y9710800D01*
X2820800D01*
Y9609200D01*
X2719200D01*
Y8439200D02*
Y8540800D01*
X2820800D01*
Y8439200D01*
X2719200D01*
X2899200Y8649200D02*
Y8750800D01*
X3000800D01*
Y8649200D01*
X2899200D01*
X2949200Y8999200D02*
Y9100800D01*
X3050800D01*
Y8999200D01*
X2949200D01*
Y8799200D02*
Y8900800D01*
X3050800D01*
Y8799200D01*
X2949200D01*
Y9249200D02*
Y9350800D01*
X3050800D01*
Y9249200D01*
X2949200D01*
X2829200Y8799200D02*
Y8900800D01*
X2930800D01*
Y8799200D01*
X2829200D01*
Y9249200D02*
Y9350800D01*
X2930800D01*
Y9249200D01*
X2829200D01*
X1299200Y4999200D02*
Y5100800D01*
X1400800D01*
Y4999200D01*
X1299200D01*
X2749200Y4289200D02*
Y4390800D01*
X2850800D01*
Y4289200D01*
X2749200D01*
X1399200Y5049200D02*
Y5150800D01*
X1500800D01*
Y5049200D01*
X1399200D01*
X429200Y6029200D02*
Y6130800D01*
X530800D01*
Y6029200D01*
X429200D01*
X269200Y5969200D02*
Y6070800D01*
X370800D01*
Y5969200D01*
X269200D01*
X934200Y5074200D02*
Y5175800D01*
X1035800D01*
Y5074200D01*
X934200D01*
X884200Y5374200D02*
Y5475800D01*
X985800D01*
Y5374200D01*
X884200D01*
X509200Y6589200D02*
Y6690800D01*
X610800D01*
Y6589200D01*
X509200D01*
X349200D02*
Y6690800D01*
X450800D01*
Y6589200D01*
X349200D01*
X189200Y6299200D02*
Y6400800D01*
X290800D01*
Y6299200D01*
X189200D01*
X509200Y5259200D02*
Y5360800D01*
X610800D01*
Y5259200D01*
X509200D01*
X289200Y3719200D02*
Y3820800D01*
X390800D01*
Y3719200D01*
X289200D01*
X709200Y3889200D02*
Y3990800D01*
X810800D01*
Y3889200D01*
X709200D01*
X745200Y3123200D02*
Y3224800D01*
X846800D01*
Y3123200D01*
X745200D01*
X1089200Y4029200D02*
Y4130800D01*
X1190800D01*
Y4029200D01*
X1089200D01*
X3279200Y2049200D02*
Y2150800D01*
X3380800D01*
Y2049200D01*
X3279200D01*
X2772090Y1879390D02*
Y1980990D01*
X2873690D01*
Y1879390D01*
X2772090D01*
X1929200Y6599200D02*
Y6700800D01*
X2030800D01*
Y6599200D01*
X1929200D01*
X2859200Y3009200D02*
Y3110800D01*
X2960800D01*
Y3009200D01*
X2859200D01*
X719200Y6469200D02*
Y6570800D01*
X820800D01*
Y6469200D01*
X719200D01*
X139200D02*
Y6570800D01*
X240800D01*
Y6469200D01*
X139200D01*
X919200Y1489200D02*
Y1590800D01*
X1020800D01*
Y1489200D01*
X919200D01*
X879200Y1799200D02*
Y1900800D01*
X980800D01*
Y1799200D01*
X879200D01*
X589200Y429200D02*
Y530800D01*
X690800D01*
Y429200D01*
X589200D01*
X479200Y569200D02*
Y670800D01*
X580800D01*
Y569200D01*
X479200D01*
X1129200Y759200D02*
Y860800D01*
X1230800D01*
Y759200D01*
X1129200D01*
X7689200Y8609200D02*
Y8710800D01*
X7790800D01*
Y8609200D01*
X7689200D01*
X4329200Y3119200D02*
Y3220800D01*
X4430800D01*
Y3119200D01*
X4329200D01*
X4159200Y1659200D02*
Y1760800D01*
X4260800D01*
Y1659200D01*
X4159200D01*
X4179200Y3239200D02*
Y3340800D01*
X4280800D01*
Y3239200D01*
X4179200D01*
X4069200Y1419200D02*
Y1520800D01*
X4170800D01*
Y1419200D01*
X4069200D01*
X3339200Y3929200D02*
Y4030800D01*
X3440800D01*
Y3929200D01*
X3339200D01*
X3989200Y1669200D02*
Y1770800D01*
X4090800D01*
Y1669200D01*
X3989200D01*
X2459200Y1649200D02*
Y1750800D01*
X2560800D01*
Y1649200D01*
X2459200D01*
X2529200Y1719200D02*
Y1820800D01*
X2630800D01*
Y1719200D01*
X2529200D01*
X3559200Y779200D02*
Y880800D01*
X3660800D01*
Y779200D01*
X3559200D01*
X2209200Y429200D02*
Y530800D01*
X2310800D01*
Y429200D01*
X2209200D01*
X1849200Y2349200D02*
Y2450800D01*
X1950800D01*
Y2349200D01*
X1849200D01*
X2091900Y3219200D02*
Y3320800D01*
X2193500D01*
Y3219200D01*
X2091900D01*
X2829200Y4129200D02*
Y4230800D01*
X2930800D01*
Y4129200D01*
X2829200D01*
X3069200D02*
Y4230800D01*
X3170800D01*
Y4129200D01*
X3069200D01*
X2949200D02*
Y4230800D01*
X3050800D01*
Y4129200D01*
X2949200D01*
X9259200Y1489200D02*
Y1590800D01*
X9360800D01*
Y1489200D01*
X9259200D01*
X2539200Y2069200D02*
Y2170800D01*
X2640800D01*
Y2069200D01*
X2539200D01*
X2519200Y1969200D02*
Y2070800D01*
X2620800D01*
Y1969200D01*
X2519200D01*
X2459200Y2029200D02*
Y2130800D01*
X2560800D01*
Y2029200D01*
X2459200D01*
X2759200Y1509200D02*
Y1610800D01*
X2860800D01*
Y1509200D01*
X2759200D01*
X2389200Y1599200D02*
Y1700800D01*
X2490800D01*
Y1599200D01*
X2389200D01*
X2339200Y1539200D02*
Y1640800D01*
X2440800D01*
Y1539200D01*
X2339200D01*
X2519200Y1349200D02*
Y1450800D01*
X2620800D01*
Y1349200D01*
X2519200D01*
X2359200Y9499200D02*
Y9600800D01*
X2460800D01*
Y9499200D01*
X2359200D01*
X2369200Y8749200D02*
Y8850800D01*
X2470800D01*
Y8749200D01*
X2369200D01*
X2249200Y9029200D02*
Y9130800D01*
X2350800D01*
Y9029200D01*
X2249200D01*
X2129200Y9469200D02*
Y9570800D01*
X2230800D01*
Y9469200D01*
X2129200D01*
X5399200Y3199200D02*
Y3300800D01*
X5500800D01*
Y3199200D01*
X5399200D01*
X5249200Y3189200D02*
Y3290800D01*
X5350800D01*
Y3189200D01*
X5249200D01*
X8269200Y2829200D02*
Y2930800D01*
X8370800D01*
Y2829200D01*
X8269200D01*
X8269200Y249200D02*
Y350800D01*
X8370800D01*
Y249200D01*
X8269200D01*
X7219200Y539200D02*
Y640800D01*
X7320800D01*
Y539200D01*
X7219200D01*
X6939200Y269200D02*
Y370800D01*
X7040800D01*
Y269200D01*
X6939200D01*
X4739200Y289200D02*
Y390800D01*
X4840800D01*
Y289200D01*
X4739200D01*
X4539200Y479200D02*
Y580800D01*
X4640800D01*
Y479200D01*
X4539200D01*
X4259200Y2119200D02*
Y2220800D01*
X4360800D01*
Y2119200D01*
X4259200D01*
X4339200Y2929200D02*
Y3030800D01*
X4440800D01*
Y2929200D01*
X4339200D01*
X4829200Y2829200D02*
Y2930800D01*
X4930800D01*
Y2829200D01*
X4829200D01*
X7109200Y2679200D02*
Y2780800D01*
X7210800D01*
Y2679200D01*
X7109200D01*
X6849200Y2789200D02*
Y2890800D01*
X6950800D01*
Y2789200D01*
X6849200D01*
X6889200Y3379200D02*
Y3480800D01*
X6990800D01*
Y3379200D01*
X6889200D01*
X6769200Y4459200D02*
Y4560800D01*
X6870800D01*
Y4459200D01*
X6769200D01*
X7159200Y4809200D02*
Y4910800D01*
X7260800D01*
Y4809200D01*
X7159200D01*
X8049200Y4609200D02*
Y4710800D01*
X8150800D01*
Y4609200D01*
X8049200D01*
X7929200Y3549200D02*
Y3650800D01*
X8030800D01*
Y3549200D01*
X7929200D01*
X8639200Y3189200D02*
Y3290800D01*
X8740800D01*
Y3189200D01*
X8639200D01*
Y4169200D02*
Y4270800D01*
X8740800D01*
Y4169200D01*
X8639200D01*
X1209200Y5999200D02*
Y6100800D01*
X1310800D01*
Y5999200D01*
X1209200D01*
X8069200Y679200D02*
Y780800D01*
X8170800D01*
Y679200D01*
X8069200D01*
X9199200Y1899200D02*
Y2000800D01*
X9300800D01*
Y1899200D01*
X9199200D01*
X5579200Y4269200D02*
Y4370800D01*
X5680800D01*
Y4269200D01*
X5579200D01*
X5179200Y4369200D02*
Y4470800D01*
X5280800D01*
Y4369200D01*
X5179200D01*
X4809200Y4719200D02*
Y4820800D01*
X4910800D01*
Y4719200D01*
X4809200D01*
X4909200Y4659200D02*
Y4760800D01*
X5010800D01*
Y4659200D01*
X4909200D01*
X569200Y2909200D02*
Y3010800D01*
X670800D01*
Y2909200D01*
X569200D01*
X509200Y3719200D02*
Y3820800D01*
X610800D01*
Y3719200D01*
X509200D01*
X649200Y4299200D02*
Y4400800D01*
X750800D01*
Y4299200D01*
X649200D01*
X3429200Y2959200D02*
Y3060800D01*
X3530800D01*
Y2959200D01*
X3429200D01*
Y3589200D02*
Y3690800D01*
X3530800D01*
Y3589200D01*
X3429200D01*
X7179200Y8209200D02*
Y8310800D01*
X7280800D01*
Y8209200D01*
X7179200D01*
X6269200Y6139200D02*
Y6240800D01*
X6370800D01*
Y6139200D01*
X6269200D01*
X4299200Y6799200D02*
Y6900800D01*
X4400800D01*
Y6799200D01*
X4299200D01*
X3159200Y4309200D02*
Y4410800D01*
X3260800D01*
Y4309200D01*
X3159200D01*
X2717802Y4447965D02*
Y4549565D01*
X2819402D01*
Y4447965D01*
X2717802D01*
Y4527965D02*
Y4629565D01*
X2819402D01*
Y4527965D01*
X2717802D01*
X2919200Y4669200D02*
Y4770800D01*
X3020800D01*
Y4669200D01*
X2919200D01*
X2099200Y5349200D02*
Y5450800D01*
X2200800D01*
Y5349200D01*
X2099200D01*
X3149200Y4469200D02*
Y4570800D01*
X3250800D01*
Y4469200D01*
X3149200D01*
X3569200D02*
Y4570800D01*
X3670800D01*
Y4469200D01*
X3569200D01*
X4049200Y5379200D02*
Y5480800D01*
X4150800D01*
Y5379200D01*
X4049200D01*
Y5969200D02*
Y6070800D01*
X4150800D01*
Y5969200D01*
X4049200D01*
X4469200Y7069200D02*
Y7170800D01*
X4570800D01*
Y7069200D01*
X4469200D01*
X3789200Y4569200D02*
Y4670800D01*
X3890800D01*
Y4569200D01*
X3789200D01*
X3749200Y6269200D02*
Y6370800D01*
X3850800D01*
Y6269200D01*
X3749200D01*
X3539200Y6529200D02*
Y6630800D01*
X3640800D01*
Y6529200D01*
X3539200D01*
X3649200Y7139200D02*
Y7240800D01*
X3750800D01*
Y7139200D01*
X3649200D01*
X3499200D02*
Y7240800D01*
X3600800D01*
Y7139200D01*
X3499200D01*
X3349200D02*
Y7240800D01*
X3450800D01*
Y7139200D01*
X3349200D01*
X1529200Y79200D02*
Y180800D01*
X1630800D01*
Y79200D01*
X1529200D01*
Y669200D02*
Y770800D01*
X1630800D01*
Y669200D01*
X1529200D01*
X9009200Y5289200D02*
Y5390800D01*
X9110800D01*
Y5289200D01*
X9009200D01*
X8419200Y5859200D02*
Y5960800D01*
X8520800D01*
Y5859200D01*
X8419200D01*
X8459200Y6269200D02*
Y6370800D01*
X8560800D01*
Y6269200D01*
X8459200D01*
X8319200Y5529200D02*
Y5630800D01*
X8420800D01*
Y5529200D01*
X8319200D01*
X9849200Y6059200D02*
Y6160800D01*
X9950800D01*
Y6059200D01*
X9849200D01*
X8999200Y4949200D02*
Y5050800D01*
X9100800D01*
Y4949200D01*
X8999200D01*
X7849200Y5249200D02*
Y5350800D01*
X7950800D01*
Y5249200D01*
X7849200D01*
X8149200D02*
Y5350800D01*
X8250800D01*
Y5249200D01*
X8149200D01*
X7569200Y6209200D02*
Y6310800D01*
X7670800D01*
Y6209200D01*
X7569200D01*
X9509200Y4589200D02*
Y4690800D01*
X9610800D01*
Y4589200D01*
X9509200D01*
X9609200Y4789200D02*
Y4890800D01*
X9710800D01*
Y4789200D01*
X9609200D01*
Y4929200D02*
Y5030800D01*
X9710800D01*
Y4929200D01*
X9609200D01*
X9509200Y5129200D02*
Y5230800D01*
X9610800D01*
Y5129200D01*
X9509200D01*
X9609200Y1279200D02*
Y1380800D01*
X9710800D01*
Y1279200D01*
X9609200D01*
X9719200Y1489200D02*
Y1590800D01*
X9820800D01*
Y1489200D01*
X9719200D01*
X9469200Y1379200D02*
Y1480800D01*
X9570800D01*
Y1379200D01*
X9469200D01*
X2579200Y1029200D02*
Y1130800D01*
X2680800D01*
Y1029200D01*
X2579200D01*
X2359200Y1039200D02*
Y1140800D01*
X2460800D01*
Y1039200D01*
X2359200D01*
X2929200Y1129200D02*
Y1230800D01*
X3030800D01*
Y1129200D01*
X2929200D01*
X3119200Y1849200D02*
Y1950800D01*
X3220800D01*
Y1849200D01*
X3119200D01*
X2959200D02*
Y1950800D01*
X3060800D01*
Y1849200D01*
X2959200D01*
X1889200Y7919200D02*
Y8020800D01*
X1990800D01*
Y7919200D01*
X1889200D01*
X169200Y7689200D02*
Y7790800D01*
X270800D01*
Y7689200D01*
X169200D01*
X349200Y7799200D02*
Y7900800D01*
X450800D01*
Y7799200D01*
X349200D01*
X149200Y7909200D02*
Y8010800D01*
X250800D01*
Y7909200D01*
X149200D01*
X359200Y8029200D02*
Y8130800D01*
X460800D01*
Y8029200D01*
X359200D01*
X239200Y8239200D02*
Y8340800D01*
X340800D01*
Y8239200D01*
X239200D01*
X389200Y8449200D02*
Y8550800D01*
X490800D01*
Y8449200D01*
X389200D01*
X149200Y8109200D02*
Y8210800D01*
X250800D01*
Y8109200D01*
X149200D01*
X619200Y8409200D02*
Y8510800D01*
X720800D01*
Y8409200D01*
X619200D01*
X1069200Y5619200D02*
Y5720800D01*
X1170800D01*
Y5619200D01*
X1069200D01*
X889200Y5519200D02*
Y5620800D01*
X990800D01*
Y5519200D01*
X889200D01*
X919200Y4819200D02*
Y4920800D01*
X1020800D01*
Y4819200D01*
X919200D01*
X879200Y4989200D02*
Y5090800D01*
X980800D01*
Y4989200D01*
X879200D01*
X509200Y5419200D02*
Y5520800D01*
X610800D01*
Y5419200D01*
X509200D01*
Y5099200D02*
Y5200800D01*
X610800D01*
Y5099200D01*
X509200D01*
X629200Y7959200D02*
Y8060800D01*
X730800D01*
Y7959200D01*
X629200D01*
X369200Y9089200D02*
Y9190800D01*
X470800D01*
Y9089200D01*
X369200D01*
X499200Y8889200D02*
Y8990800D01*
X600800D01*
Y8889200D01*
X499200D01*
X409200D02*
Y8990800D01*
X510800D01*
Y8889200D01*
X409200D01*
X709200Y9089200D02*
Y9190800D01*
X810800D01*
Y9089200D01*
X709200D01*
X529200D02*
Y9190800D01*
X630800D01*
Y9089200D01*
X529200D01*
X609200Y8989200D02*
Y9090800D01*
X710800D01*
Y8989200D01*
X609200D01*
X449200D02*
Y9090800D01*
X550800D01*
Y8989200D01*
X449200D01*
X289200D02*
Y9090800D01*
X390800D01*
Y8989200D01*
X289200D01*
X609200Y8829200D02*
Y8930800D01*
X710800D01*
Y8829200D01*
X609200D01*
X689200Y8809200D02*
Y8910800D01*
X790800D01*
Y8809200D01*
X689200D01*
X2969200Y9129200D02*
Y9230800D01*
X3070800D01*
Y9129200D01*
X2969200D01*
X2549200Y9029200D02*
Y9130800D01*
X2650800D01*
Y9029200D01*
X2549200D01*
X3109200Y8609200D02*
Y8710800D01*
X3210800D01*
Y8609200D01*
X3109200D01*
X2549200Y8549200D02*
Y8650800D01*
X2650800D01*
Y8549200D01*
X2549200D01*
X7649200Y8209200D02*
Y8310800D01*
X7750800D01*
Y8209200D01*
X7649200D01*
X7589200Y8449200D02*
Y8550800D01*
X7690800D01*
Y8449200D01*
X7589200D01*
X8589200Y9329200D02*
Y9430800D01*
X8690800D01*
Y9329200D01*
X8589200D01*
X8429200D02*
Y9430800D01*
X8530800D01*
Y9329200D01*
X8429200D01*
X8269200D02*
Y9430800D01*
X8370800D01*
Y9329200D01*
X8269200D01*
X7869200Y8989200D02*
Y9090800D01*
X7970800D01*
Y8989200D01*
X7869200D01*
X7669200D02*
Y9090800D01*
X7770800D01*
Y8989200D01*
X7669200D01*
X7509200D02*
Y9090800D01*
X7610800D01*
Y8989200D01*
X7509200D01*
X3519200Y5419200D02*
Y5520800D01*
X3620800D01*
Y5419200D01*
X3519200D01*
Y5519200D02*
Y5620800D01*
X3620800D01*
Y5519200D01*
X3519200D01*
Y5619199D02*
Y5720799D01*
X3620800D01*
Y5619199D01*
X3519200D01*
X3519200Y5719200D02*
Y5820800D01*
X3620800D01*
Y5719200D01*
X3519200D01*
X3519200Y5819200D02*
Y5920800D01*
X3620800D01*
Y5819200D01*
X3519200D01*
X3419199Y5719200D02*
Y5820800D01*
X3520799D01*
Y5719200D01*
X3419199D01*
X3419199Y5619199D02*
Y5720799D01*
X3520799D01*
Y5619199D01*
X3419199D01*
Y5819200D02*
Y5920800D01*
X3520799D01*
Y5819200D01*
X3419199D01*
X3619200Y5819200D02*
Y5920800D01*
X3720800D01*
Y5819200D01*
X3619200D01*
Y5719200D02*
Y5820800D01*
X3720800D01*
Y5719200D01*
X3619200D01*
X3619201Y5619200D02*
Y5720800D01*
X3720801D01*
Y5619200D01*
X3619201D01*
X3619200Y5519200D02*
Y5620800D01*
X3720800D01*
Y5519200D01*
X3619200D01*
X3619199Y5419200D02*
Y5520800D01*
X3720799D01*
Y5419200D01*
X3619199D01*
X3619200Y5319200D02*
Y5420800D01*
X3720800D01*
Y5319200D01*
X3619200D01*
X3619200Y5219200D02*
Y5320800D01*
X3720800D01*
Y5219200D01*
X3619200D01*
X3619200Y5119200D02*
Y5220800D01*
X3720800D01*
Y5119200D01*
X3619200D01*
X3519200Y5219200D02*
Y5320800D01*
X3620800D01*
Y5219200D01*
X3519200D01*
X3519200Y5319200D02*
Y5420800D01*
X3620800D01*
Y5319200D01*
X3519200D01*
X3519199Y5119200D02*
Y5220800D01*
X3620799D01*
Y5119200D01*
X3519199D01*
X3319199Y5419200D02*
Y5520800D01*
X3420799D01*
Y5419200D01*
X3319199D01*
X3319200Y5519200D02*
Y5620800D01*
X3420800D01*
Y5519200D01*
X3319200D01*
X3319199Y5619199D02*
Y5720799D01*
X3420799D01*
Y5619199D01*
X3319199D01*
Y5719200D02*
Y5820800D01*
X3420799D01*
Y5719200D01*
X3319199D01*
Y5819200D02*
Y5920800D01*
X3420799D01*
Y5819200D01*
X3319199D01*
X3219200Y5719200D02*
Y5820800D01*
X3320800D01*
Y5719200D01*
X3219200D01*
X3219199Y5619200D02*
Y5720800D01*
X3320799D01*
Y5619200D01*
X3219199D01*
X3219200Y5819200D02*
Y5920800D01*
X3320800D01*
Y5819200D01*
X3219200D01*
X3419200Y5519200D02*
Y5620800D01*
X3520800D01*
Y5519200D01*
X3419200D01*
X3419200Y5419200D02*
Y5520800D01*
X3520800D01*
Y5419200D01*
X3419200D01*
X3419199Y5319200D02*
Y5420800D01*
X3520799D01*
Y5319200D01*
X3419199D01*
X3419200Y5219199D02*
Y5320799D01*
X3520800D01*
Y5219199D01*
X3419200D01*
Y5119200D02*
Y5220800D01*
X3520800D01*
Y5119200D01*
X3419200D01*
X3319199Y5219200D02*
Y5320800D01*
X3420799D01*
Y5219200D01*
X3319199D01*
X3319199Y5319200D02*
Y5420800D01*
X3420799D01*
Y5319200D01*
X3319199D01*
X3319199Y5119199D02*
Y5220799D01*
X3420799D01*
Y5119199D01*
X3319199D01*
X3119200Y5419199D02*
Y5520799D01*
X3220800D01*
Y5419199D01*
X3119200D01*
X3119199Y5519200D02*
Y5620800D01*
X3220799D01*
Y5519200D01*
X3119199D01*
X3119200Y5619200D02*
Y5720800D01*
X3220800D01*
Y5619200D01*
X3119200D01*
X3119200Y5719200D02*
Y5820800D01*
X3220800D01*
Y5719200D01*
X3119200D01*
Y5819200D02*
Y5920800D01*
X3220800D01*
Y5819200D01*
X3119200D01*
X3019200Y5719200D02*
Y5820800D01*
X3120800D01*
Y5719200D01*
X3019200D01*
X3019200Y5619199D02*
Y5720799D01*
X3120800D01*
Y5619199D01*
X3019200D01*
X3019200Y5819200D02*
Y5920800D01*
X3120800D01*
Y5819200D01*
X3019200D01*
X3219200Y5519200D02*
Y5620800D01*
X3320800D01*
Y5519200D01*
X3219200D01*
X3219200Y5419200D02*
Y5520800D01*
X3320800D01*
Y5419200D01*
X3219200D01*
Y5319200D02*
Y5420800D01*
X3320800D01*
Y5319200D01*
X3219200D01*
Y5219200D02*
Y5320800D01*
X3320800D01*
Y5219200D01*
X3219200D01*
X3219200Y5119200D02*
Y5220800D01*
X3320800D01*
Y5119200D01*
X3219200D01*
X3119200Y5219200D02*
Y5320800D01*
X3220800D01*
Y5219200D01*
X3119200D01*
X3119200Y5319200D02*
Y5420800D01*
X3220800D01*
Y5319200D01*
X3119200D01*
X3119200Y5119200D02*
Y5220800D01*
X3220800D01*
Y5119200D01*
X3119200D01*
X2919200Y5319199D02*
Y5420799D01*
X3020800D01*
Y5319199D01*
X2919200D01*
X2919200Y5419200D02*
Y5520800D01*
X3020800D01*
Y5419200D01*
X2919200D01*
X2919199Y5519199D02*
Y5620799D01*
X3020799D01*
Y5519199D01*
X2919199D01*
Y5619200D02*
Y5720800D01*
X3020799D01*
Y5619200D01*
X2919199D01*
X2919200Y5719200D02*
Y5820800D01*
X3020800D01*
Y5719200D01*
X2919200D01*
X2919199Y5819199D02*
Y5920799D01*
X3020799D01*
Y5819199D01*
X2919199D01*
X3019199Y5519200D02*
Y5620800D01*
X3120799D01*
Y5519200D01*
X3019199D01*
X3019200Y5419199D02*
Y5520799D01*
X3120800D01*
Y5419199D01*
X3019200D01*
X3019199Y5319199D02*
Y5420799D01*
X3120799D01*
Y5319199D01*
X3019199D01*
X3019200Y5219200D02*
Y5320800D01*
X3120800D01*
Y5219200D01*
X3019200D01*
Y5119200D02*
Y5220800D01*
X3120800D01*
Y5119200D01*
X3019200D01*
X2919200Y5219200D02*
Y5320800D01*
X3020800D01*
Y5219200D01*
X2919200D01*
X2919200Y5119200D02*
Y5220800D01*
X3020800D01*
Y5119200D01*
X2919200D01*
X1781900Y1589200D02*
Y1690800D01*
X1883500D01*
Y1589200D01*
X1781900D01*
X1831900Y1664201D02*
Y1765801D01*
X1933500D01*
Y1664201D01*
X1831900D01*
X1731900Y1664201D02*
Y1765801D01*
X1833500D01*
Y1664201D01*
X1731900D01*
X1731901Y1514200D02*
Y1615800D01*
X1833501D01*
Y1514200D01*
X1731901D01*
X1831900Y1514200D02*
Y1615800D01*
X1933500D01*
Y1514200D01*
X1831900D01*
X5869200Y4349200D02*
Y4450800D01*
X5970800D01*
Y4349200D01*
X5869200D01*
X5489200Y4049200D02*
Y4150800D01*
X5590800D01*
Y4049200D01*
X5489200D01*
X3549200Y3189200D02*
Y3290800D01*
X3650800D01*
Y3189200D01*
X3549200D01*
Y3369200D02*
Y3470800D01*
X3650800D01*
Y3369200D01*
X3549200D01*
X3369200Y6209200D02*
Y6310800D01*
X3470800D01*
Y6209200D01*
X3369200D01*
X2921900Y1529200D02*
Y1630800D01*
X3023500D01*
Y1529200D01*
X2921900D01*
X2849200D02*
Y1630800D01*
X2950800D01*
Y1529200D01*
X2849200D01*
X2069200Y1600551D02*
Y1702151D01*
X2170800D01*
Y1600551D01*
X2069200D01*
Y1527851D02*
Y1629451D01*
X2170800D01*
Y1527851D01*
X2069200D01*
X3469200Y6209200D02*
Y6310800D01*
X3570800D01*
Y6209200D01*
X3469200D01*
D212*
X8950480Y2030000D02*
G03*
X8950480Y2030000I-30480J0D01*
G01*
Y1330000D02*
G03*
X8950480Y1330000I-30480J0D01*
G01*
X7750480Y1680000D02*
G03*
X7750480Y1680000I-30480J0D01*
G01*
D230*
X8251800Y9289500D02*
G03*
X8251800Y9289500I-50800J0D01*
G01*
X8829799Y9289500D02*
G03*
X8829799Y9289500I-50800J0D01*
G01*
X8970800Y2030000D02*
G03*
X8970800Y2030000I-50800J0D01*
G01*
Y1330000D02*
G03*
X8970800Y1330000I-50800J0D01*
G01*
X7770800Y1680000D02*
G03*
X7770800Y1680000I-50800J0D01*
G01*
X731300Y2009001D02*
G03*
X731300Y2009001I-50800J0D01*
G01*
Y1431000D02*
G03*
X731300Y1431000I-50800J0D01*
G01*
Y5011000D02*
G03*
X731300Y5011000I-50800J0D01*
G01*
Y5589000D02*
G03*
X731300Y5589000I-50800J0D01*
G01*
%TF.MD5,5a148f29278edcd0845f99e2628f1070*%
M02*
