%TF.GenerationSoftware,Altium Limited,Altium Designer,26.2.0 (7)*%
G04 Layer_Color=255*
%FSLAX45Y45*%
%MOMM*%
%TF.SameCoordinates,7E3C43A8-A274-4656-BCAB-ED4188872703*%
%TF.FilePolarity,Positive*%
%TF.FileFunction,Pads,Top*%
%TF.Part,Single*%
G01*
G75*
%TA.AperFunction,SMDPad,CuDef*%
%ADD12R,0.80000X0.70000*%
G04:AMPARAMS|DCode=13|XSize=1.1mm|YSize=0.6mm|CornerRadius=0.051mm|HoleSize=0mm|Usage=FLASHONLY|Rotation=270.000|XOffset=0mm|YOffset=0mm|HoleType=Round|Shape=RoundedRectangle|*
%AMROUNDEDRECTD13*
21,1,1.10000,0.49800,0,0,270.0*
21,1,0.99800,0.60000,0,0,270.0*
1,1,0.10200,-0.24900,-0.49900*
1,1,0.10200,-0.24900,0.49900*
1,1,0.10200,0.24900,0.49900*
1,1,0.10200,0.24900,-0.49900*
%
%ADD13ROUNDEDRECTD13*%
%ADD14R,0.68000X0.64000*%
%ADD15R,0.62000X0.62000*%
G04:AMPARAMS|DCode=16|XSize=1.80524mm|YSize=0.61213mm|CornerRadius=0.30606mm|HoleSize=0mm|Usage=FLASHONLY|Rotation=0.000|XOffset=0mm|YOffset=0mm|HoleType=Round|Shape=RoundedRectangle|*
%AMROUNDEDRECTD16*
21,1,1.80524,0.00000,0,0,0.0*
21,1,1.19311,0.61213,0,0,0.0*
1,1,0.61213,0.59655,0.00000*
1,1,0.61213,-0.59655,0.00000*
1,1,0.61213,-0.59655,0.00000*
1,1,0.61213,0.59655,0.00000*
%
%ADD16ROUNDEDRECTD16*%
%TA.AperFunction,ConnectorPad*%
%ADD17R,1.15000X0.60000*%
%ADD18R,2.00000X2.18000*%
%TA.AperFunction,SMDPad,CuDef*%
%ADD19R,0.25000X0.28000*%
G04:AMPARAMS|DCode=20|XSize=0.6mm|YSize=0.25mm|CornerRadius=0.05mm|HoleSize=0mm|Usage=FLASHONLY|Rotation=180.000|XOffset=0mm|YOffset=0mm|HoleType=Round|Shape=RoundedRectangle|*
%AMROUNDEDRECTD20*
21,1,0.60000,0.15000,0,0,180.0*
21,1,0.50000,0.25000,0,0,180.0*
1,1,0.10000,-0.25000,0.07500*
1,1,0.10000,0.25000,0.07500*
1,1,0.10000,0.25000,-0.07500*
1,1,0.10000,-0.25000,-0.07500*
%
%ADD20ROUNDEDRECTD20*%
%ADD21R,0.70000X0.80000*%
%ADD22R,0.57247X0.66127*%
%ADD23R,0.66127X0.57247*%
%ADD24R,1.05000X1.30000*%
%ADD25R,1.50000X0.90000*%
%ADD26R,0.57500X0.25000*%
%ADD27R,0.57500X0.30000*%
G04:AMPARAMS|DCode=28|XSize=1.85mm|YSize=0.45mm|CornerRadius=0.0495mm|HoleSize=0mm|Usage=FLASHONLY|Rotation=0.000|XOffset=0mm|YOffset=0mm|HoleType=Round|Shape=RoundedRectangle|*
%AMROUNDEDRECTD28*
21,1,1.85000,0.35100,0,0,0.0*
21,1,1.75100,0.45000,0,0,0.0*
1,1,0.09900,0.87550,-0.17550*
1,1,0.09900,-0.87550,-0.17550*
1,1,0.09900,-0.87550,0.17550*
1,1,0.09900,0.87550,0.17550*
%
%ADD28ROUNDEDRECTD28*%
G04:AMPARAMS|DCode=29|XSize=1.1mm|YSize=0.6mm|CornerRadius=0.051mm|HoleSize=0mm|Usage=FLASHONLY|Rotation=180.000|XOffset=0mm|YOffset=0mm|HoleType=Round|Shape=RoundedRectangle|*
%AMROUNDEDRECTD29*
21,1,1.10000,0.49800,0,0,180.0*
21,1,0.99800,0.60000,0,0,180.0*
1,1,0.10200,-0.49900,0.24900*
1,1,0.10200,0.49900,0.24900*
1,1,0.10200,0.49900,-0.24900*
1,1,0.10200,-0.49900,-0.24900*
%
%ADD29ROUNDEDRECTD29*%
G04:AMPARAMS|DCode=30|XSize=0.67mm|YSize=0.3mm|CornerRadius=0.0375mm|HoleSize=0mm|Usage=FLASHONLY|Rotation=270.000|XOffset=0mm|YOffset=0mm|HoleType=Round|Shape=RoundedRectangle|*
%AMROUNDEDRECTD30*
21,1,0.67000,0.22500,0,0,270.0*
21,1,0.59500,0.30000,0,0,270.0*
1,1,0.07500,-0.11250,-0.29750*
1,1,0.07500,-0.11250,0.29750*
1,1,0.07500,0.11250,0.29750*
1,1,0.07500,0.11250,-0.29750*
%
%ADD30ROUNDEDRECTD30*%
G04:AMPARAMS|DCode=31|XSize=0.5mm|YSize=0.2mm|CornerRadius=0.05mm|HoleSize=0mm|Usage=FLASHONLY|Rotation=90.000|XOffset=0mm|YOffset=0mm|HoleType=Round|Shape=RoundedRectangle|*
%AMROUNDEDRECTD31*
21,1,0.50000,0.10000,0,0,90.0*
21,1,0.40000,0.20000,0,0,90.0*
1,1,0.10000,0.05000,0.20000*
1,1,0.10000,0.05000,-0.20000*
1,1,0.10000,-0.05000,-0.20000*
1,1,0.10000,-0.05000,0.20000*
%
%ADD31ROUNDEDRECTD31*%
G04:AMPARAMS|DCode=32|XSize=1.65mm|YSize=2.4mm|CornerRadius=0.0495mm|HoleSize=0mm|Usage=FLASHONLY|Rotation=0.000|XOffset=0mm|YOffset=0mm|HoleType=Round|Shape=RoundedRectangle|*
%AMROUNDEDRECTD32*
21,1,1.65000,2.30100,0,0,0.0*
21,1,1.55100,2.40000,0,0,0.0*
1,1,0.09900,0.77550,-1.15050*
1,1,0.09900,-0.77550,-1.15050*
1,1,0.09900,-0.77550,1.15050*
1,1,0.09900,0.77550,1.15050*
%
%ADD32ROUNDEDRECTD32*%
G04:AMPARAMS|DCode=33|XSize=0.28mm|YSize=0.85mm|CornerRadius=0.0504mm|HoleSize=0mm|Usage=FLASHONLY|Rotation=90.000|XOffset=0mm|YOffset=0mm|HoleType=Round|Shape=RoundedRectangle|*
%AMROUNDEDRECTD33*
21,1,0.28000,0.74920,0,0,90.0*
21,1,0.17920,0.85000,0,0,90.0*
1,1,0.10080,0.37460,0.08960*
1,1,0.10080,0.37460,-0.08960*
1,1,0.10080,-0.37460,-0.08960*
1,1,0.10080,-0.37460,0.08960*
%
%ADD33ROUNDEDRECTD33*%
G04:AMPARAMS|DCode=34|XSize=1.20524mm|YSize=0.53213mm|CornerRadius=0.26606mm|HoleSize=0mm|Usage=FLASHONLY|Rotation=0.000|XOffset=0mm|YOffset=0mm|HoleType=Round|Shape=RoundedRectangle|*
%AMROUNDEDRECTD34*
21,1,1.20524,0.00000,0,0,0.0*
21,1,0.67311,0.53213,0,0,0.0*
1,1,0.53213,0.33655,0.00000*
1,1,0.53213,-0.33655,0.00000*
1,1,0.53213,-0.33655,0.00000*
1,1,0.53213,0.33655,0.00000*
%
%ADD34ROUNDEDRECTD34*%
%ADD35R,0.30000X0.55000*%
%ADD36R,1.50000X0.55000*%
%ADD37R,0.55000X1.50000*%
%ADD38R,1.55000X0.60000*%
G04:AMPARAMS|DCode=39|XSize=0.3mm|YSize=0.6mm|CornerRadius=0.0495mm|HoleSize=0mm|Usage=FLASHONLY|Rotation=270.000|XOffset=0mm|YOffset=0mm|HoleType=Round|Shape=RoundedRectangle|*
%AMROUNDEDRECTD39*
21,1,0.30000,0.50100,0,0,270.0*
21,1,0.20100,0.60000,0,0,270.0*
1,1,0.09900,-0.25050,-0.10050*
1,1,0.09900,-0.25050,0.10050*
1,1,0.09900,0.25050,0.10050*
1,1,0.09900,0.25050,-0.10050*
%
%ADD39ROUNDEDRECTD39*%
%TA.AperFunction,SMDPad,SMDef*%
%ADD40R,8.00000X8.00000*%
%TA.AperFunction,SMDPad,CuDef*%
G04:AMPARAMS|DCode=41|XSize=0.5mm|YSize=0.2mm|CornerRadius=0.05mm|HoleSize=0mm|Usage=FLASHONLY|Rotation=180.000|XOffset=0mm|YOffset=0mm|HoleType=Round|Shape=RoundedRectangle|*
%AMROUNDEDRECTD41*
21,1,0.50000,0.10000,0,0,180.0*
21,1,0.40000,0.20000,0,0,180.0*
1,1,0.10000,-0.20000,0.05000*
1,1,0.10000,0.20000,0.05000*
1,1,0.10000,0.20000,-0.05000*
1,1,0.10000,-0.20000,-0.05000*
%
%ADD41ROUNDEDRECTD41*%
G04:AMPARAMS|DCode=42|XSize=1.80524mm|YSize=0.60981mm|CornerRadius=0.3049mm|HoleSize=0mm|Usage=FLASHONLY|Rotation=90.000|XOffset=0mm|YOffset=0mm|HoleType=Round|Shape=RoundedRectangle|*
%AMROUNDEDRECTD42*
21,1,1.80524,0.00000,0,0,90.0*
21,1,1.19543,0.60981,0,0,90.0*
1,1,0.60980,0.00000,0.59772*
1,1,0.60980,0.00000,-0.59772*
1,1,0.60980,0.00000,-0.59772*
1,1,0.60980,0.00000,0.59772*
%
%ADD42ROUNDEDRECTD42*%
%ADD43R,0.65000X0.65000*%
%ADD44P,0.91924X4X270.0*%
%ADD45R,0.65000X0.65000*%
%ADD46R,0.55000X0.55000*%
%ADD47R,0.45000X0.45000*%
%ADD48R,0.55000X0.55000*%
%ADD49R,0.80000X0.95000*%
%ADD50R,0.45000X0.45000*%
%ADD51R,0.60000X1.15000*%
%ADD52R,2.18000X2.00000*%
%ADD53R,0.50000X0.60000*%
%ADD54R,0.28000X0.25000*%
%ADD55R,0.70000X0.70000*%
%ADD56R,0.60000X0.50000*%
G04:AMPARAMS|DCode=57|XSize=0.7mm|YSize=0.8mm|CornerRadius=0mm|HoleSize=0mm|Usage=FLASHONLY|Rotation=225.000|XOffset=0mm|YOffset=0mm|HoleType=Round|Shape=Rectangle|*
%AMROTATEDRECTD57*
4,1,4,-0.03535,0.53033,0.53033,-0.03535,0.03535,-0.53033,-0.53033,0.03535,-0.03535,0.53033,0.0*
%
%ADD57ROTATEDRECTD57*%

%ADD58R,0.62000X0.62000*%
%ADD59R,0.64000X0.68000*%
%ADD60R,0.72000X0.72000*%
%ADD61R,0.47247X0.51535*%
%ADD62R,0.51535X0.47247*%
%ADD63R,0.45000X0.60000*%
%ADD64R,4.15000X1.90000*%
%ADD65R,0.50000X0.50000*%
%ADD66R,0.60000X0.65000*%
%ADD67R,0.52000X0.56000*%
%ADD68R,0.65000X0.70000*%
%ADD69R,0.25000X0.30000*%
G04:AMPARAMS|DCode=70|XSize=0.55mm|YSize=0.25mm|CornerRadius=0.05mm|HoleSize=0mm|Usage=FLASHONLY|Rotation=270.000|XOffset=0mm|YOffset=0mm|HoleType=Round|Shape=RoundedRectangle|*
%AMROUNDEDRECTD70*
21,1,0.55000,0.15000,0,0,270.0*
21,1,0.45000,0.25000,0,0,270.0*
1,1,0.10000,-0.07500,-0.22500*
1,1,0.10000,-0.07500,0.22500*
1,1,0.10000,0.07500,0.22500*
1,1,0.10000,0.07500,-0.22500*
%
%ADD70ROUNDEDRECTD70*%
%ADD71R,1.20524X0.53213*%
%ADD72R,0.30000X1.50000*%
%ADD73R,1.50000X0.30000*%
%ADD74R,0.65000X0.60000*%
%ADD75R,0.47247X0.48764*%
%ADD76R,0.60981X1.80524*%
%ADD77R,3.20000X1.50000*%
%ADD78R,1.50000X3.20000*%
%ADD79R,0.30000X0.25000*%
%ADD80R,0.30000X1.15000*%
%ADD81R,0.55000X0.30000*%
%ADD82R,1.40000X0.95000*%
%ADD83R,1.00000X1.00000*%
%ADD84R,1.45620X1.25490*%
%ADD85P,0.77782X4X90.0*%
G04:AMPARAMS|DCode=86|XSize=0.3mm|YSize=2.4mm|CornerRadius=0.0495mm|HoleSize=0mm|Usage=FLASHONLY|Rotation=180.000|XOffset=0mm|YOffset=0mm|HoleType=Round|Shape=RoundedRectangle|*
%AMROUNDEDRECTD86*
21,1,0.30000,2.30100,0,0,180.0*
21,1,0.20100,2.40000,0,0,180.0*
1,1,0.09900,-0.10050,1.15050*
1,1,0.09900,0.10050,1.15050*
1,1,0.09900,0.10050,-1.15050*
1,1,0.09900,-0.10050,-1.15050*
%
%ADD86ROUNDEDRECTD86*%
%ADD87R,1.50000X1.00000*%
%ADD88R,0.70000X0.65000*%
G04:AMPARAMS|DCode=89|XSize=0.75mm|YSize=0.65mm|CornerRadius=0mm|HoleSize=0mm|Usage=FLASHONLY|Rotation=225.000|XOffset=0mm|YOffset=0mm|HoleType=Round|Shape=Rectangle|*
%AMROTATEDRECTD89*
4,1,4,0.03535,0.49497,0.49497,0.03535,-0.03535,-0.49497,-0.49497,-0.03535,0.03535,0.49497,0.0*
%
%ADD89ROTATEDRECTD89*%

G04:AMPARAMS|DCode=90|XSize=0.56535mm|YSize=0.57247mm|CornerRadius=0mm|HoleSize=0mm|Usage=FLASHONLY|Rotation=225.000|XOffset=0mm|YOffset=0mm|HoleType=Round|Shape=Rectangle|*
%AMROTATEDRECTD90*
4,1,4,-0.00252,0.40228,0.40228,-0.00252,0.00252,-0.40228,-0.40228,0.00252,-0.00252,0.40228,0.0*
%
%ADD90ROTATEDRECTD90*%

G04:AMPARAMS|DCode=91|XSize=0.68764mm|YSize=0.67248mm|CornerRadius=0mm|HoleSize=0mm|Usage=FLASHONLY|Rotation=315.000|XOffset=0mm|YOffset=0mm|HoleType=Round|Shape=Rectangle|*
%AMROTATEDRECTD91*
4,1,4,-0.48087,0.00536,-0.00536,0.48087,0.48087,-0.00536,0.00536,-0.48087,-0.48087,0.00536,0.0*
%
%ADD91ROTATEDRECTD91*%

G04:AMPARAMS|DCode=92|XSize=0.66535mm|YSize=0.67248mm|CornerRadius=0mm|HoleSize=0mm|Usage=FLASHONLY|Rotation=225.000|XOffset=0mm|YOffset=0mm|HoleType=Round|Shape=Rectangle|*
%AMROTATEDRECTD92*
4,1,4,-0.00252,0.47299,0.47299,-0.00252,0.00252,-0.47299,-0.47299,0.00252,-0.00252,0.47299,0.0*
%
%ADD92ROTATEDRECTD92*%

G04:AMPARAMS|DCode=93|XSize=0.5mm|YSize=0.6mm|CornerRadius=0mm|HoleSize=0mm|Usage=FLASHONLY|Rotation=45.000|XOffset=0mm|YOffset=0mm|HoleType=Round|Shape=Rectangle|*
%AMROTATEDRECTD93*
4,1,4,0.03535,-0.38891,-0.38891,0.03535,-0.03535,0.38891,0.38891,-0.03535,0.03535,-0.38891,0.0*
%
%ADD93ROTATEDRECTD93*%

%ADD94R,0.75000X0.65000*%
%ADD95R,0.56535X0.57247*%
%ADD96R,0.67248X0.68764*%
%ADD97R,0.66535X0.67248*%
%ADD98R,0.50000X0.60000*%
%ADD99R,0.55000X0.50000*%
%ADD100R,0.47500X0.50000*%
%ADD101R,0.47247X0.46818*%
%ADD102R,0.50000X0.47500*%
%ADD103R,0.35000X0.63000*%
G04:AMPARAMS|DCode=104|XSize=0.2mm|YSize=0.7mm|CornerRadius=0.05mm|HoleSize=0mm|Usage=FLASHONLY|Rotation=90.000|XOffset=0mm|YOffset=0mm|HoleType=Round|Shape=RoundedRectangle|*
%AMROUNDEDRECTD104*
21,1,0.20000,0.60000,0,0,90.0*
21,1,0.10000,0.70000,0,0,90.0*
1,1,0.10000,0.30000,0.05000*
1,1,0.10000,0.30000,-0.05000*
1,1,0.10000,-0.30000,-0.05000*
1,1,0.10000,-0.30000,0.05000*
%
%ADD104ROUNDEDRECTD104*%
%ADD105R,2.00000X1.25000*%
%ADD106R,1.80524X0.61213*%
%TA.AperFunction,ConnectorPad*%
%ADD107R,1.15000X0.30000*%
%TA.AperFunction,SMDPad,CuDef*%
%ADD108R,1.90000X2.00000*%
%ADD109R,3.10000X1.00000*%
%ADD110R,0.70000X0.60000*%
%ADD111C,0.27000*%
%ADD112C,0.25456*%
%ADD113C,0.27000*%
%ADD114R,0.70000X0.75000*%
G04:AMPARAMS|DCode=115|XSize=0.55mm|YSize=0.2mm|CornerRadius=0.05mm|HoleSize=0mm|Usage=FLASHONLY|Rotation=270.000|XOffset=0mm|YOffset=0mm|HoleType=Round|Shape=RoundedRectangle|*
%AMROUNDEDRECTD115*
21,1,0.55000,0.10000,0,0,270.0*
21,1,0.45000,0.20000,0,0,270.0*
1,1,0.10000,-0.05000,-0.22500*
1,1,0.10000,-0.05000,0.22500*
1,1,0.10000,0.05000,0.22500*
1,1,0.10000,0.05000,-0.22500*
%
%ADD115ROUNDEDRECTD115*%
%ADD116R,0.57247X0.65964*%
G04:AMPARAMS|DCode=117|XSize=0.2mm|YSize=0.7mm|CornerRadius=0.05mm|HoleSize=0mm|Usage=FLASHONLY|Rotation=180.000|XOffset=0mm|YOffset=0mm|HoleType=Round|Shape=RoundedRectangle|*
%AMROUNDEDRECTD117*
21,1,0.20000,0.60000,0,0,180.0*
21,1,0.10000,0.70000,0,0,180.0*
1,1,0.10000,-0.05000,0.30000*
1,1,0.10000,0.05000,0.30000*
1,1,0.10000,0.05000,-0.30000*
1,1,0.10000,-0.05000,-0.30000*
%
%ADD117ROUNDEDRECTD117*%
%ADD118R,1.25000X2.00000*%
%TA.AperFunction,ComponentPad*%
%ADD131C,1.20000*%
%ADD132C,1.30000*%
%ADD133C,1.52000*%
%ADD134C,1.57000*%
%ADD135C,1.39000*%
%ADD136P,1.96576X4X360.0*%
%ADD137P,1.96576X4X270.0*%
%ADD138C,0.65000*%
%ADD139R,1.52000X1.52000*%
%ADD140C,1.80000*%
%ADD141C,1.40000*%
%ADD142R,1.45000X3.20000*%
%ADD143C,2.00000*%
%ADD144R,1.57000X1.57000*%
D12*
X1620000Y5760000D02*
D03*
Y5610000D02*
D03*
X300000Y4170001D02*
D03*
X900000Y3380000D02*
D03*
X940000Y7090001D02*
D03*
X3300000Y2429999D02*
D03*
X2280000Y7925000D02*
D03*
X300000Y4020000D02*
D03*
X3300000Y2580000D02*
D03*
X900000Y3530000D02*
D03*
X940000Y6940000D02*
D03*
X2280000Y8075000D02*
D03*
D13*
X1170000Y8040000D02*
D03*
X980000Y8040000D02*
D03*
X980000Y7780000D02*
D03*
X1170000Y7780000D02*
D03*
X1075000Y8039999D02*
D03*
X8020000Y470000D02*
D03*
X4485000Y2580000D02*
D03*
X8115000Y210000D02*
D03*
X4390000Y2840000D02*
D03*
X8115000Y470000D02*
D03*
X7925000D02*
D03*
Y210000D02*
D03*
X4390000Y2580000D02*
D03*
X4580000D02*
D03*
X4580000Y2840000D02*
D03*
D14*
X4200000Y4070000D02*
D03*
X4112001Y4070001D02*
D03*
X2544700Y1300001D02*
D03*
X2632700Y1300000D02*
D03*
D15*
X5500000Y4871999D02*
D03*
X2872700Y1088000D02*
D03*
X5360000Y4871999D02*
D03*
X5900000Y4872000D02*
D03*
X2770000Y9208000D02*
D03*
X2770000Y8942000D02*
D03*
X2400001Y5892000D02*
D03*
X3700000Y6412000D02*
D03*
X3699999Y4648000D02*
D03*
X2539999Y5028000D02*
D03*
X3540000Y4648000D02*
D03*
X3140000Y4648001D02*
D03*
X2540000Y5408000D02*
D03*
X2519999Y5976000D02*
D03*
X240000Y6148000D02*
D03*
X7359999Y8168000D02*
D03*
X2400000Y5800000D02*
D03*
X3700000Y6320000D02*
D03*
X3700000Y4740000D02*
D03*
X2540000Y5120000D02*
D03*
X5500000Y4780000D02*
D03*
X7359999Y8259999D02*
D03*
X5900000Y4780000D02*
D03*
X5360000D02*
D03*
X240000Y6240000D02*
D03*
X2872700Y1180000D02*
D03*
X2770000Y9300000D02*
D03*
Y8850000D02*
D03*
X3540000Y4740000D02*
D03*
X3140000D02*
D03*
X2540000Y5500000D02*
D03*
X2519999Y5883999D02*
D03*
D16*
X1864952Y285000D02*
D03*
X1864952Y380000D02*
D03*
X2095048Y285000D02*
D03*
X2095048Y475000D02*
D03*
D17*
X788000Y2040000D02*
D03*
Y5620000D02*
D03*
X788000Y1400000D02*
D03*
X788000Y1960001D02*
D03*
X788000Y1480001D02*
D03*
Y5060000D02*
D03*
X788000Y5540000D02*
D03*
X788000Y4980000D02*
D03*
D18*
X730500Y1209000D02*
D03*
Y2231000D02*
D03*
X337499Y1209000D02*
D03*
X337500Y2231000D02*
D03*
X337499Y4789000D02*
D03*
X337500Y5811000D02*
D03*
X730500Y4789000D02*
D03*
Y5811000D02*
D03*
D19*
X880001Y9603999D02*
D03*
X1100000Y1416000D02*
D03*
X1100000Y2024000D02*
D03*
X960000Y2204000D02*
D03*
X1000001Y5744000D02*
D03*
X8079999Y8896000D02*
D03*
X8079999Y8940000D02*
D03*
X1100000Y1460000D02*
D03*
Y1980001D02*
D03*
X960000Y2160000D02*
D03*
X880000Y9560000D02*
D03*
X1000000Y5700000D02*
D03*
D20*
X389999Y8742501D02*
D03*
X389999Y8697500D02*
D03*
X570000Y8742501D02*
D03*
Y8697500D02*
D03*
D21*
X1425000Y8040000D02*
D03*
X550000Y2480000D02*
D03*
X1649999Y3800000D02*
D03*
X3670001Y7380000D02*
D03*
X7510000Y9340000D02*
D03*
X7360000Y9340000D02*
D03*
X700000Y2480000D02*
D03*
X1575000Y8040000D02*
D03*
X1800000Y3800000D02*
D03*
X3520000Y7380000D02*
D03*
D22*
X1400000Y7861120D02*
D03*
X2352700Y2258880D02*
D03*
X2732700Y2081120D02*
D03*
X1480000Y3161120D02*
D03*
X3860000Y7058879D02*
D03*
X3260000Y7058880D02*
D03*
X2510000Y7168880D02*
D03*
X3860000Y7140000D02*
D03*
X3260000D02*
D03*
X2510000Y7250000D02*
D03*
X1400000Y7780000D02*
D03*
X1480000Y3080000D02*
D03*
X2352700Y2340000D02*
D03*
X2732700Y2000000D02*
D03*
D23*
X838880Y8240000D02*
D03*
X1898880Y3500000D02*
D03*
X6401121Y4400000D02*
D03*
X3081120Y2400000D02*
D03*
X4601120Y7240000D02*
D03*
X6320000Y4400000D02*
D03*
X920000Y8240000D02*
D03*
X1980000Y3500000D02*
D03*
X3000000Y2400000D02*
D03*
X4520000Y7240000D02*
D03*
D24*
X4205000Y3639999D02*
D03*
X4380000Y3870000D02*
D03*
X2020000Y4850000D02*
D03*
X2195000Y5080001D02*
D03*
X4205000Y3870000D02*
D03*
X4380000Y3640000D02*
D03*
X2020000Y5080000D02*
D03*
X2195000Y4850000D02*
D03*
D25*
X6175000Y9515000D02*
D03*
X5175000D02*
D03*
X4175000D02*
D03*
X3175000D02*
D03*
X5175000Y9185000D02*
D03*
X5665000Y9515000D02*
D03*
Y9185000D02*
D03*
X6665000D02*
D03*
X3665001D02*
D03*
X4665001D02*
D03*
X6175000D02*
D03*
X4665001Y9515000D02*
D03*
X4175000Y9185000D02*
D03*
X3665001Y9515000D02*
D03*
X3175000Y9185000D02*
D03*
X6665000Y9515000D02*
D03*
D26*
X9723749Y1805000D02*
D03*
X9596250Y1755000D02*
D03*
X9596250Y1805000D02*
D03*
X9723750Y1755000D02*
D03*
D27*
X9723750Y1705000D02*
D03*
X9596250Y1855000D02*
D03*
X9596251Y1705000D02*
D03*
X9723750Y1855000D02*
D03*
D28*
X8610000Y4552500D02*
D03*
X8610000Y4877500D02*
D03*
X8610000Y4942500D02*
D03*
X8610001Y5007500D02*
D03*
X9310000Y4552500D02*
D03*
Y4617500D02*
D03*
Y5007500D02*
D03*
X8610000Y4617500D02*
D03*
X9310000Y4942500D02*
D03*
X9310000Y4877500D02*
D03*
X9310000Y4812500D02*
D03*
X9310000Y4747500D02*
D03*
X9310000Y4682500D02*
D03*
X8610000D02*
D03*
X8610000Y4747500D02*
D03*
X8610000Y4812501D02*
D03*
D29*
X7610000Y4960001D02*
D03*
X1719999Y3175000D02*
D03*
X2552700Y2435001D02*
D03*
X2760000Y7155001D02*
D03*
X2290000Y8850000D02*
D03*
Y9300000D02*
D03*
X2060000Y7875000D02*
D03*
X3020000Y7250001D02*
D03*
X2760000Y7060000D02*
D03*
X2760000Y7250000D02*
D03*
X2290000Y8945000D02*
D03*
Y9395000D02*
D03*
X1800000Y7780000D02*
D03*
X7350000Y4865000D02*
D03*
X1980000Y3270000D02*
D03*
X7610000Y4865000D02*
D03*
Y5055000D02*
D03*
X7350000D02*
D03*
X1720000Y3270000D02*
D03*
Y3080000D02*
D03*
X2552700Y2530000D02*
D03*
Y2340000D02*
D03*
X2812700Y2340001D02*
D03*
X2812699Y2530001D02*
D03*
X2550000Y8850000D02*
D03*
X2550000Y9300000D02*
D03*
X1799999Y7970000D02*
D03*
X2060000Y7970000D02*
D03*
Y7780000D02*
D03*
X2550000Y8945000D02*
D03*
Y8755000D02*
D03*
X2290000Y8755000D02*
D03*
X2550000Y9395000D02*
D03*
Y9205000D02*
D03*
X2290000D02*
D03*
X1980000Y3080000D02*
D03*
X3020000Y7060000D02*
D03*
D30*
X720000Y3248000D02*
D03*
X595000Y7413999D02*
D03*
X505000Y4046000D02*
D03*
X545001Y7265999D02*
D03*
X545001Y7413999D02*
D03*
X670000Y3248000D02*
D03*
X670000Y3099999D02*
D03*
X655000Y4046000D02*
D03*
X620000Y3100000D02*
D03*
X605000Y4046000D02*
D03*
X445000Y7266000D02*
D03*
X495000Y7414000D02*
D03*
X655000Y4194000D02*
D03*
X505000D02*
D03*
X555000Y4194000D02*
D03*
X605000Y4194000D02*
D03*
X555000Y4046000D02*
D03*
X595000Y7266000D02*
D03*
X495001Y7266000D02*
D03*
X445000Y7414000D02*
D03*
X720000Y3100000D02*
D03*
X570000D02*
D03*
X620000Y3248000D02*
D03*
X570000D02*
D03*
D31*
X1220000Y535000D02*
D03*
X1260000Y535000D02*
D03*
X1180000Y385000D02*
D03*
X1220000Y385000D02*
D03*
X1260000Y385000D02*
D03*
X1300000Y385000D02*
D03*
X1300000Y535001D02*
D03*
X1180000Y535000D02*
D03*
D32*
X1832700Y1640000D02*
D03*
D33*
X1980200Y1540000D02*
D03*
X1685199Y1540001D02*
D03*
X1980201Y1690000D02*
D03*
X1980198Y1740000D02*
D03*
X1980199Y1640000D02*
D03*
X1980201Y1590002D02*
D03*
X1685201Y1590000D02*
D03*
X1685200Y1640002D02*
D03*
X1685201Y1690000D02*
D03*
X1685201Y1740002D02*
D03*
D34*
X4100000Y7235001D02*
D03*
X4100000Y7140000D02*
D03*
X4310097Y7330000D02*
D03*
X4310096Y7140001D02*
D03*
D35*
X2772699Y1432501D02*
D03*
X2972699Y1432502D02*
D03*
X2922699Y1432501D02*
D03*
X2872700Y1432499D02*
D03*
X2822698Y1432502D02*
D03*
X2772698Y1807500D02*
D03*
X2822699D02*
D03*
X2872699D02*
D03*
X2922699Y1807501D02*
D03*
X2972697D02*
D03*
D36*
X6070000Y4320001D02*
D03*
Y3680001D02*
D03*
X4930001Y4160000D02*
D03*
X4930000Y4080000D02*
D03*
X6070000Y4400000D02*
D03*
X6070001Y4239999D02*
D03*
X6070000Y4160001D02*
D03*
Y4080000D02*
D03*
X6070000Y4000000D02*
D03*
X6069999Y3919999D02*
D03*
Y3840000D02*
D03*
X6070000Y3760000D02*
D03*
X6070001Y3600000D02*
D03*
X4929999Y3600000D02*
D03*
X4930001Y3680000D02*
D03*
X4930000Y3760000D02*
D03*
X4930001Y3840000D02*
D03*
X4930001Y3919999D02*
D03*
X4929999Y4000000D02*
D03*
X4930000Y4240000D02*
D03*
X4930001Y4319999D02*
D03*
X4930000Y4400000D02*
D03*
D37*
X5100000Y3430001D02*
D03*
X5579999Y4569999D02*
D03*
X5900000Y3430000D02*
D03*
X5820001Y3430000D02*
D03*
X5740000Y3430001D02*
D03*
X5660000Y3430000D02*
D03*
X5580000Y3429999D02*
D03*
X5500001Y3430000D02*
D03*
X5420001D02*
D03*
X5340001Y3430001D02*
D03*
X5260000Y3430001D02*
D03*
X5180001Y3430001D02*
D03*
X5100001Y4570000D02*
D03*
X5180000Y4570000D02*
D03*
X5260000Y4569999D02*
D03*
X5340000D02*
D03*
X5420001D02*
D03*
X5499999Y4570001D02*
D03*
X5660001Y4570000D02*
D03*
X5740000Y4569998D02*
D03*
X5820000D02*
D03*
X5900001Y4570001D02*
D03*
D38*
X2740000Y3260002D02*
D03*
Y3387001D02*
D03*
X2740000Y3514002D02*
D03*
X2740000Y3641001D02*
D03*
X3280000Y3514001D02*
D03*
X3280000Y3387000D02*
D03*
Y3260000D02*
D03*
X3279999Y3641001D02*
D03*
D39*
X2910000Y4360000D02*
D03*
X3090000Y4359999D02*
D03*
D40*
X3320000Y5520000D02*
D03*
D41*
X405000Y6280000D02*
D03*
Y6320000D02*
D03*
X555000D02*
D03*
Y6240000D02*
D03*
X405000D02*
D03*
Y6360000D02*
D03*
X555000D02*
D03*
Y6280000D02*
D03*
D42*
X7455000Y8549904D02*
D03*
X7360000Y8780000D02*
D03*
X7455000Y8780000D02*
D03*
X7550000Y8780000D02*
D03*
X7549999Y8549903D02*
D03*
D43*
X3292700Y1180000D02*
D03*
X3020000Y2960001D02*
D03*
X7560000Y8160000D02*
D03*
X2520000Y6200001D02*
D03*
X3020000Y6500000D02*
D03*
X3260000D02*
D03*
X2880000D02*
D03*
X3020001Y3060001D02*
D03*
X2520000Y6100000D02*
D03*
X7559999Y8260000D02*
D03*
X8800000Y4119999D02*
D03*
X8799999Y4219999D02*
D03*
X8800000Y3339999D02*
D03*
X8800000Y3239999D02*
D03*
X8359999Y5910001D02*
D03*
X1580000Y240000D02*
D03*
X1580000Y340000D02*
D03*
Y610001D02*
D03*
Y510000D02*
D03*
X3292700Y1080000D02*
D03*
X2412700Y1200000D02*
D03*
X2412700Y1300000D02*
D03*
X8360000Y5810000D02*
D03*
X2880000Y6400000D02*
D03*
X3260000D02*
D03*
X3020000D02*
D03*
D44*
X7910711Y4689290D02*
D03*
X7840001Y4760000D02*
D03*
D45*
X8020000Y620000D02*
D03*
X4480000Y2400000D02*
D03*
X780000Y7900000D02*
D03*
X980000Y8680000D02*
D03*
X8800000Y3479999D02*
D03*
X8700000Y3479999D02*
D03*
X8800000Y3979999D02*
D03*
X8699999D02*
D03*
X4940000Y380000D02*
D03*
X7749999Y6260001D02*
D03*
X7920000Y620000D02*
D03*
X4580000Y2400000D02*
D03*
X5040000Y380000D02*
D03*
X3432700Y2000001D02*
D03*
X3332700Y2000000D02*
D03*
X560000Y8340000D02*
D03*
X460000D02*
D03*
X7849999Y6260000D02*
D03*
X880000Y8680000D02*
D03*
X680000Y7900000D02*
D03*
D46*
X400000Y3070000D02*
D03*
X280000Y7250000D02*
D03*
X3140000Y6490000D02*
D03*
X700000Y8250000D02*
D03*
X5760000Y4775000D02*
D03*
X5759999Y4865000D02*
D03*
X5640000Y4775000D02*
D03*
X5640000Y4865000D02*
D03*
X3140000Y6400000D02*
D03*
X7360000Y9020000D02*
D03*
X7360000Y9110001D02*
D03*
X400000Y3160000D02*
D03*
X4640000Y710000D02*
D03*
X7140000Y690000D02*
D03*
X740000Y3440000D02*
D03*
X900000Y2570000D02*
D03*
X7140000Y780000D02*
D03*
X4640000Y800000D02*
D03*
X900000Y2480000D02*
D03*
X740000Y3530000D02*
D03*
X280000Y7340000D02*
D03*
X700000Y8340000D02*
D03*
D47*
X7740000Y8740000D02*
D03*
X7740000Y8500000D02*
D03*
X7739999Y8580000D02*
D03*
Y8820000D02*
D03*
X7000000Y2820000D02*
D03*
X4800000Y2760000D02*
D03*
Y2680000D02*
D03*
X7000000Y2740000D02*
D03*
X760000Y8780000D02*
D03*
X760000Y8700000D02*
D03*
D48*
X2650000Y6280001D02*
D03*
X3490000Y6580000D02*
D03*
X3400000Y6580000D02*
D03*
X2740000Y6280000D02*
D03*
X675000Y6940000D02*
D03*
X4700000Y4900000D02*
D03*
X4790001Y4900000D02*
D03*
X765000Y6940000D02*
D03*
X410000Y3880000D02*
D03*
X500000Y3880000D02*
D03*
X1570000Y5900000D02*
D03*
X1480000D02*
D03*
D49*
X2865000Y4720000D02*
D03*
X2740000Y4720000D02*
D03*
D50*
X160001Y8560000D02*
D03*
X960000Y8800000D02*
D03*
X240001Y8560000D02*
D03*
X6760001Y260000D02*
D03*
X5020000Y2880000D02*
D03*
X6680000Y260000D02*
D03*
X5100000Y2880000D02*
D03*
X880000Y8800000D02*
D03*
D51*
X8169999Y9182000D02*
D03*
X8810000Y9182000D02*
D03*
X8249999D02*
D03*
X8729999D02*
D03*
D52*
X7979000Y9632501D02*
D03*
X9000999Y9632500D02*
D03*
X7979000Y9239500D02*
D03*
X9000999Y9239500D02*
D03*
D53*
X1100000Y1560000D02*
D03*
X1100000Y1880001D02*
D03*
Y5420000D02*
D03*
X1100000Y5100000D02*
D03*
X1100000Y1660000D02*
D03*
Y1780000D02*
D03*
Y5320000D02*
D03*
Y5200000D02*
D03*
D54*
X1120000Y4980000D02*
D03*
X1122000Y5540000D02*
D03*
X1076000Y4980000D02*
D03*
X1078000Y5540000D02*
D03*
D55*
X6511500Y8655000D02*
D03*
X5511500D02*
D03*
X4511500D02*
D03*
X3511500D02*
D03*
X5328500Y8545000D02*
D03*
Y8655000D02*
D03*
X5511500Y8545000D02*
D03*
X3328500D02*
D03*
Y8655000D02*
D03*
X3511500Y8545000D02*
D03*
X6328500D02*
D03*
Y8655000D02*
D03*
X6511500Y8545000D02*
D03*
X4328500D02*
D03*
Y8655000D02*
D03*
X4511500Y8545000D02*
D03*
D56*
X8599999Y8940000D02*
D03*
X8279999Y8940000D02*
D03*
X8500000Y8939999D02*
D03*
X8379999Y8940000D02*
D03*
D57*
X646066Y9446066D02*
D03*
X540000Y9340000D02*
D03*
D58*
X9348001Y1700000D02*
D03*
X8968000Y5230000D02*
D03*
X6412000Y4240000D02*
D03*
X2540700Y1180001D02*
D03*
X1271999Y699999D02*
D03*
X2064700Y1960001D02*
D03*
X4191999Y5340000D02*
D03*
X4191999Y5780000D02*
D03*
X4191999Y5900000D02*
D03*
X4100000Y5780000D02*
D03*
X6320000Y4240000D02*
D03*
X9440000Y1700000D02*
D03*
X9060000Y5230000D02*
D03*
X1180000Y700000D02*
D03*
X2632700Y1180000D02*
D03*
X1972700Y1960000D02*
D03*
X4100000Y5340000D02*
D03*
X4100000Y5900000D02*
D03*
D59*
X4600000Y3552001D02*
D03*
X2752700Y1092000D02*
D03*
X4600000Y3640000D02*
D03*
X2752700Y1180000D02*
D03*
D60*
X2892700Y2102001D02*
D03*
Y2000000D02*
D03*
D61*
X2020000Y5335712D02*
D03*
X2020000Y5260000D02*
D03*
D62*
X2455713Y4860001D02*
D03*
X2380000Y4860000D02*
D03*
D63*
X3935000Y4740000D02*
D03*
X2305000Y5500000D02*
D03*
X3840000Y4740000D02*
D03*
X2400000Y5500000D02*
D03*
D64*
X8787499Y8280000D02*
D03*
X8092499D02*
D03*
D65*
X140000Y8820000D02*
D03*
X240000Y8820000D02*
D03*
D66*
X819999Y4114999D02*
D03*
X1600000Y7780000D02*
D03*
X1980000Y3714999D02*
D03*
X980000Y4117500D02*
D03*
X1600000Y7865000D02*
D03*
X820000Y4200000D02*
D03*
X980000Y4202500D02*
D03*
X1980000Y3800000D02*
D03*
D67*
X8800000Y3781999D02*
D03*
Y3678000D02*
D03*
X8800000Y3599999D02*
D03*
X8800000Y3859999D02*
D03*
D68*
X3480000Y3420000D02*
D03*
X3480000Y3515001D02*
D03*
Y3240000D02*
D03*
X3480000Y3144999D02*
D03*
X3540001Y6455001D02*
D03*
X3400000Y6455001D02*
D03*
X9660000Y1444999D02*
D03*
X9560000Y5075000D02*
D03*
Y4744999D02*
D03*
X3032700Y2095001D02*
D03*
X3032700Y2000000D02*
D03*
X3172700Y2095001D02*
D03*
X3172700Y2000000D02*
D03*
X9560000Y4980000D02*
D03*
Y4840000D02*
D03*
X9660000Y1540000D02*
D03*
X3540000Y6360000D02*
D03*
X3400000D02*
D03*
D69*
X2722700Y1815002D02*
D03*
X3022699Y1815000D02*
D03*
X2722699Y1425001D02*
D03*
X3022699Y1424999D02*
D03*
D70*
X3075000Y4292500D02*
D03*
X2924999Y4292499D02*
D03*
X2925000Y4427500D02*
D03*
X3075000Y4427500D02*
D03*
D71*
X4100000Y7330000D02*
D03*
D72*
X3695000Y4950000D02*
D03*
X3645000Y6090000D02*
D03*
X3394999Y6090000D02*
D03*
X2944999D02*
D03*
X3295000Y6089999D02*
D03*
X3645000Y4950000D02*
D03*
X3594999Y4950000D02*
D03*
X3545000Y4950000D02*
D03*
X3494999D02*
D03*
X3445000Y4950000D02*
D03*
X3395000Y4949999D02*
D03*
X3345000Y4950000D02*
D03*
X3295000Y4949999D02*
D03*
X3245000Y4949999D02*
D03*
X3195000Y4949999D02*
D03*
X3145000Y4949999D02*
D03*
X3094999D02*
D03*
X3045000Y4950000D02*
D03*
X2995000Y4950000D02*
D03*
X2945000Y4950000D02*
D03*
X2995000Y6089999D02*
D03*
X3045001Y6090000D02*
D03*
X3095001D02*
D03*
X3145001Y6090000D02*
D03*
X3194999Y6089999D02*
D03*
X3245000D02*
D03*
X3345000D02*
D03*
X3445000Y6089999D02*
D03*
X3495000Y6089999D02*
D03*
X3545000D02*
D03*
X3595000Y6090000D02*
D03*
X3695000D02*
D03*
D73*
X2750000Y5195000D02*
D03*
X2750000Y5744999D02*
D03*
X2750000Y5144999D02*
D03*
X2750001Y5844998D02*
D03*
X3889999Y5545000D02*
D03*
X3890000Y5495000D02*
D03*
X3889999Y5194999D02*
D03*
X3889999Y5144999D02*
D03*
X3889999Y5894999D02*
D03*
X3890000Y5845000D02*
D03*
X3890000Y5795000D02*
D03*
X3890000Y5745000D02*
D03*
X3890000Y5695000D02*
D03*
X3889999Y5645000D02*
D03*
X3890000Y5595000D02*
D03*
X3889999Y5445000D02*
D03*
X3889999Y5395000D02*
D03*
Y5344999D02*
D03*
X3890000Y5295000D02*
D03*
X3889999Y5244999D02*
D03*
X2749999Y5245000D02*
D03*
X2750001Y5295000D02*
D03*
Y5345000D02*
D03*
X2750000Y5395000D02*
D03*
X2750000Y5445000D02*
D03*
X2750000Y5495000D02*
D03*
Y5545000D02*
D03*
X2750000Y5594999D02*
D03*
X2750000Y5644999D02*
D03*
X2750000Y5694999D02*
D03*
Y5795000D02*
D03*
Y5895000D02*
D03*
D74*
X3260000Y7380000D02*
D03*
X2997500Y2580000D02*
D03*
X3082500D02*
D03*
X3345001Y7380000D02*
D03*
X2065001Y8160000D02*
D03*
X1980000D02*
D03*
D75*
X2740000Y6400000D02*
D03*
Y6482819D02*
D03*
D76*
X7360000Y8549903D02*
D03*
D77*
X6320000Y5530000D02*
D03*
X6320000Y5110000D02*
D03*
D78*
X1702700Y2340000D02*
D03*
X2122700D02*
D03*
D79*
X2677697Y1769999D02*
D03*
X3067697Y1470000D02*
D03*
X3067698Y1770000D02*
D03*
X2677697Y1470000D02*
D03*
D80*
X8314999Y9182000D02*
D03*
X8365000D02*
D03*
X8414999Y9182000D02*
D03*
X8464999Y9182000D02*
D03*
X8514999Y9182000D02*
D03*
X8565000D02*
D03*
X8614999D02*
D03*
X8664999Y9182000D02*
D03*
D81*
X2685199Y1520001D02*
D03*
X2685200Y1569999D02*
D03*
Y1670000D02*
D03*
X3060198Y1720000D02*
D03*
X3060199Y1670000D02*
D03*
X3060199Y1620000D02*
D03*
X3060199Y1570001D02*
D03*
X3060197Y1520000D02*
D03*
X2685199Y1620000D02*
D03*
X2685197Y1720000D02*
D03*
D82*
X4480000Y4735000D02*
D03*
X4480000Y4320000D02*
D03*
X2412700Y1887500D02*
D03*
Y1472500D02*
D03*
D83*
X6320000Y4620000D02*
D03*
X6320001Y4820000D02*
D03*
D84*
X880000Y9214870D02*
D03*
X1200000Y2502566D02*
D03*
X1200000Y2337436D02*
D03*
X880000Y9380000D02*
D03*
X1260000Y5905129D02*
D03*
Y5740000D02*
D03*
D85*
X503640Y9176361D02*
D03*
X440000Y9240000D02*
D03*
D86*
X505000Y8720001D02*
D03*
X455000D02*
D03*
D87*
X2770000Y9770000D02*
D03*
Y8600000D02*
D03*
Y9550000D02*
D03*
Y8380000D02*
D03*
D88*
X304999Y6520000D02*
D03*
X655000D02*
D03*
X9424999Y1540000D02*
D03*
X9520000Y1540000D02*
D03*
X560000Y6520000D02*
D03*
X400000D02*
D03*
D89*
X8022219Y4577782D02*
D03*
X8100000Y4500000D02*
D03*
D90*
X8055857Y3675857D02*
D03*
X8120000Y3740000D02*
D03*
D91*
X6992704Y3567296D02*
D03*
X6920000Y3640000D02*
D03*
D92*
X6924393Y4584393D02*
D03*
X6995608Y4655607D02*
D03*
D93*
X7910711Y3530711D02*
D03*
X7840000Y3460000D02*
D03*
D94*
X8320000Y620000D02*
D03*
X8320000Y730000D02*
D03*
D95*
X8629288Y620000D02*
D03*
X8720000D02*
D03*
D96*
X8320000Y2760000D02*
D03*
Y2657181D02*
D03*
D97*
X8619287Y2760000D02*
D03*
X8720000D02*
D03*
D98*
X8040000D02*
D03*
X7940000D02*
D03*
D99*
X4742500Y519999D02*
D03*
X4817500Y520000D02*
D03*
D100*
X7062510Y519999D02*
D03*
X6811250Y2940000D02*
D03*
X6960000Y520000D02*
D03*
X6708750Y2940000D02*
D03*
D101*
X7100000Y2620215D02*
D03*
Y2539785D02*
D03*
D102*
X4380000Y2071250D02*
D03*
Y1968750D02*
D03*
D103*
X9660000Y1866000D02*
D03*
X9660000Y1694000D02*
D03*
D104*
X1175000Y480000D02*
D03*
X1175000Y440000D02*
D03*
X1305000Y439999D02*
D03*
X1305000Y480000D02*
D03*
D105*
X920001Y402501D02*
D03*
X920000Y677499D02*
D03*
D106*
X1864952Y475000D02*
D03*
D107*
X788000Y1545000D02*
D03*
X788000Y1845000D02*
D03*
X788000Y1895001D02*
D03*
X788000Y1795000D02*
D03*
Y1745001D02*
D03*
X788000Y1695001D02*
D03*
X788000Y1645000D02*
D03*
Y1595000D02*
D03*
X788000Y5125000D02*
D03*
X788000Y5175000D02*
D03*
Y5225000D02*
D03*
X788000Y5275001D02*
D03*
X788000Y5325000D02*
D03*
Y5375000D02*
D03*
Y5425000D02*
D03*
X788000Y5475000D02*
D03*
D108*
X8715000Y930000D02*
D03*
X7925000D02*
D03*
X8320000D02*
D03*
X8715000Y2430000D02*
D03*
X7925000D02*
D03*
X8320000D02*
D03*
D109*
X7215000Y5660000D02*
D03*
X8105000D02*
D03*
X7214999Y6060000D02*
D03*
X8105000Y6060002D02*
D03*
X9505000Y5660000D02*
D03*
X8615000Y5660000D02*
D03*
X8615000Y6060000D02*
D03*
X9505000D02*
D03*
X8105000Y6860001D02*
D03*
X7214999Y6860001D02*
D03*
X8105000Y6460000D02*
D03*
X7214999Y6460000D02*
D03*
X9505000Y6860001D02*
D03*
X8615000D02*
D03*
X9504999Y6460001D02*
D03*
X8614999Y6460000D02*
D03*
D110*
X8360000Y6180000D02*
D03*
X9779999Y5970001D02*
D03*
X8360001Y6320001D02*
D03*
X8360000Y6730000D02*
D03*
X8360000Y6590000D02*
D03*
X9780000Y6109999D02*
D03*
X9780000Y6540000D02*
D03*
X9779999Y6400001D02*
D03*
D111*
X405000Y8650000D02*
D03*
D112*
X405001Y8795000D02*
D03*
X555000Y8795000D02*
D03*
D113*
X585000Y8650000D02*
D03*
D114*
X280000Y7595001D02*
D03*
X280000Y7500000D02*
D03*
X400000Y3395000D02*
D03*
X400000Y3300000D02*
D03*
D115*
X3025000Y4292499D02*
D03*
X2975000Y4292500D02*
D03*
Y4427500D02*
D03*
X3025000D02*
D03*
D116*
X2380000Y5227375D02*
D03*
Y5312625D02*
D03*
D117*
X460000Y6365000D02*
D03*
X500000Y6365000D02*
D03*
Y6235000D02*
D03*
X460000Y6235000D02*
D03*
D118*
X1055000Y6280000D02*
D03*
X780000Y6280000D02*
D03*
D131*
X1740000Y9380000D02*
D03*
X1410000Y8965000D02*
D03*
X1740000D02*
D03*
X1410000Y9380000D02*
D03*
D132*
X7065000Y4389815D02*
D03*
X9200000Y3729999D02*
D03*
Y3479999D02*
D03*
Y3979999D02*
D03*
X7380000Y3594429D02*
D03*
X7580000Y3635206D02*
D03*
X8005571Y4020000D02*
D03*
X7964794Y4220000D02*
D03*
X7380000Y4604794D02*
D03*
X7580000Y4645571D02*
D03*
X6995206Y4020000D02*
D03*
X6954429Y4220000D02*
D03*
D133*
X4892000Y5900000D02*
D03*
X5146000D02*
D03*
X5400000Y5900000D02*
D03*
X5654000Y5900000D02*
D03*
X5908000Y5900000D02*
D03*
D134*
X3392700Y311999D02*
D03*
X400000Y7000000D02*
D03*
X3392700Y566000D02*
D03*
X220000Y9080000D02*
D03*
X1480000Y3500000D02*
D03*
X1820000Y780000D02*
D03*
X1000000Y3080000D02*
D03*
X240000Y2580000D02*
D03*
X3532700Y1440000D02*
D03*
Y1186000D02*
D03*
X2572701Y566000D02*
D03*
X2572700Y820000D02*
D03*
X990000Y3880000D02*
D03*
X1500000Y6280000D02*
D03*
D135*
X9710710Y9569289D02*
D03*
X9569289Y289289D02*
D03*
X289289Y430711D02*
D03*
X430711Y9710710D02*
D03*
D136*
X9569290Y9710711D02*
D03*
X430711Y289289D02*
D03*
D137*
X9710711Y430711D02*
D03*
X289289Y9569290D02*
D03*
D138*
X8201000Y9289500D02*
D03*
X8778999Y9289500D02*
D03*
X680500Y2009001D02*
D03*
Y1431000D02*
D03*
Y5011000D02*
D03*
Y5589000D02*
D03*
D139*
X6162000Y5900000D02*
D03*
D140*
X1895000Y8765000D02*
D03*
D141*
X7580000Y4420000D02*
D03*
D142*
X8920000Y2030000D02*
D03*
Y1330000D02*
D03*
X7720000Y1680000D02*
D03*
D143*
X8625000Y1380000D02*
D03*
X8015000Y1980000D02*
D03*
X6962519Y1335299D02*
D03*
X5122183Y842182D02*
D03*
X4837482Y1904701D02*
D03*
Y1335299D02*
D03*
X5615299Y557481D02*
D03*
X6677818Y842182D02*
D03*
X6184701Y557481D02*
D03*
X5122183Y2397817D02*
D03*
X6184701Y2682518D02*
D03*
X5615299D02*
D03*
X6677818Y2397817D02*
D03*
X6962519Y1904701D02*
D03*
X5617158Y1902843D02*
D03*
D144*
X3532700Y1694000D02*
D03*
X3392700Y820000D02*
D03*
X2572701Y311999D02*
D03*
%TF.MD5,e58f9cc41575a2a0fef9d36de2c7607b*%
M02*
