%TF.GenerationSoftware,Altium Limited,Altium Designer,26.2.0 (7)*%
G04 Layer_Color=0*
%FSLAX45Y45*%
%MOMM*%
%TF.SameCoordinates,7E3C43A8-A274-4656-BCAB-ED4188872703*%
%TF.FilePolarity,Positive*%
%TF.FileFunction,Other,Top_Component_Center*%
%TF.Part,Single*%
G01*
G75*
%TA.AperFunction,NonConductor*%
%ADD150C,0.10000*%
D150*
X1620000Y5635000D02*
X1620001Y5735000D01*
X1570001Y5685001D02*
X1669999D01*
X1075000Y7860000D02*
Y7960000D01*
X1025000Y7910000D02*
X1125000Y7909999D01*
X3010000Y3400501D02*
X3010000Y3500500D01*
X2960000Y3450501D02*
X3060000Y3450500D01*
X2740000Y6391410D02*
Y6491410D01*
X2690000Y6441410D02*
X2790000D01*
X8489999Y9500000D02*
X8489999Y9600000D01*
X8440000Y9550000D02*
X8539999D01*
X7385000Y9340001D02*
X7485000Y9340000D01*
X7435000Y9290001D02*
X7435000Y9390000D01*
X7404999Y8664952D02*
X7505000Y8664952D01*
X7454999Y8714952D02*
X7455000Y8614952D01*
X8389999Y8280000D02*
X8489999D01*
X8439999Y8230000D02*
Y8330000D01*
X8500000Y8939999D02*
X8599999Y8940000D01*
X8549999Y8889999D02*
X8550000Y8989999D01*
X8079999Y8868000D02*
Y8968000D01*
X8029999Y8918000D02*
X8129999Y8918000D01*
X8279999Y8940000D02*
X8379999Y8940000D01*
X8329999Y8990000D02*
X8330000Y8890001D01*
X4242501Y3755000D02*
X4342500Y3755000D01*
X4292500Y3705000D02*
X4292500Y3805000D01*
X6360560Y4350000D02*
X6360561Y4450000D01*
X6310560Y4400001D02*
X6410561Y4399999D01*
X4430001Y4527500D02*
X4530000Y4527500D01*
X4480000Y4477500D02*
X4480000Y4577500D01*
X6270000Y5320000D02*
X6370000Y5320001D01*
X6320000Y5270000D02*
X6320000Y5370000D01*
X5450000Y4000000D02*
X5550000D01*
X5500000Y4050000D02*
X5500000Y3950000D01*
X6270000Y4719999D02*
X6370000Y4720000D01*
X6320000Y4670000D02*
X6320000Y4770000D01*
X300000Y4045000D02*
Y4145000D01*
X250000Y4095000D02*
X350000Y4095000D01*
X1400000Y7870560D02*
X1400000Y7770560D01*
X1350000Y7820560D02*
X1450000D01*
X140000Y8820000D02*
X240000Y8820000D01*
X190000Y8770000D02*
X190000Y8870000D01*
X170000Y9080000D02*
X270000D01*
X220000Y9030000D02*
Y9130000D01*
X7840000Y3460000D02*
X7910711Y3530711D01*
X7840000D02*
X7910711Y3460000D01*
X8052573Y3672573D02*
X8123283Y3743284D01*
X8052572Y3743284D02*
X8123283Y3672573D01*
X6920997Y3639003D02*
X6991708Y3568293D01*
X6920997Y3568293D02*
X6991707Y3639003D01*
X7430000Y4960000D02*
X7529999Y4960000D01*
X7480000Y5010000D02*
X7480000Y4910000D01*
X6924645Y4584645D02*
X6995356Y4655355D01*
X6924645Y4655355D02*
X6995356Y4584644D01*
X1770000Y780000D02*
X1870000D01*
X1820000Y730000D02*
Y830000D01*
X1190000Y460000D02*
X1290000D01*
X1240000Y410000D02*
X1240000Y510000D01*
X1930000Y380000D02*
X2030000D01*
X1980000Y430000D02*
X1980000Y330000D01*
X8020000Y290000D02*
Y390000D01*
X7970000Y340000D02*
X8070000D01*
X7940000Y2760000D02*
X8040000D01*
X7990000Y2710000D02*
Y2810000D01*
X8619644Y2760000D02*
X8719643Y2760000D01*
X8669644Y2710000D02*
Y2810000D01*
X8320000Y2658591D02*
Y2758590D01*
X8270000Y2708590D02*
X8370000D01*
X8624644Y620000D02*
X8724643D01*
X8674644Y570000D02*
Y670000D01*
X4380000Y1970000D02*
Y2070000D01*
X4330000Y2020000D02*
X4430000D01*
X7100000Y2530000D02*
Y2630000D01*
X7050000Y2580000D02*
X7150000D01*
X4485000Y2660000D02*
Y2760000D01*
X4435000Y2710000D02*
X4535000D01*
X6961255Y520000D02*
X7061255Y519999D01*
X7011255Y470000D02*
X7011255Y570000D01*
X6710000Y2940000D02*
X6810000D01*
X6760000Y2890000D02*
Y2990000D01*
X3532700Y1390000D02*
X3532700Y1490000D01*
X3482700Y1440000D02*
X3582699Y1440000D01*
X2412700Y1730000D02*
X2412700Y1630000D01*
X2362700Y1680000D02*
X2462700D01*
X2632700Y2435000D02*
X2732700D01*
X2682699Y2385001D02*
X2682699Y2485001D01*
X2990559Y2400000D02*
X3090559D01*
X3040559Y2350000D02*
X3040560Y2450000D01*
X3392700Y516000D02*
X3392700Y615999D01*
X3342700Y566000D02*
X3442699Y566000D01*
X2352700Y2249440D02*
X2352700Y2349440D01*
X2302700Y2299440D02*
X2402700Y2299441D01*
X1862700Y2340000D02*
X1962700D01*
X1912700Y2290000D02*
Y2390000D01*
X2732700Y1990560D02*
X2732700Y2090560D01*
X2682700Y2040560D02*
X2782700Y2040560D01*
X3300000Y2455000D02*
X3300001Y2555000D01*
X3250000Y2505000D02*
X3349999Y2505000D01*
X2572700Y616000D02*
X2572701Y516000D01*
X2522701Y566000D02*
X2622700Y566000D01*
X3837500Y4740000D02*
X3937500Y4740000D01*
X3887499Y4690000D02*
X3887500Y4790000D01*
X190000Y2580000D02*
X290000D01*
X240000Y2530000D02*
Y2630000D01*
X420000Y1670001D02*
X420000Y1770000D01*
X370000Y1720001D02*
X470000Y1720000D01*
X1099999Y1488000D02*
X1100000Y1388000D01*
X1050000Y1438000D02*
X1149999Y1437999D01*
X1100000Y1560000D02*
X1100000Y1660000D01*
X1050000Y1610000D02*
X1150000D01*
X1100000Y1952001D02*
X1100000Y2052000D01*
X1050000Y2002000D02*
X1150000Y2002000D01*
X960000Y2132000D02*
Y2232000D01*
X910000Y2182000D02*
X1010000D01*
X575000Y2480000D02*
X675000D01*
X625000Y2430000D02*
X625001Y2530000D01*
X1200000Y2370001D02*
Y2470000D01*
X1150000Y2420000D02*
X1250000Y2420000D01*
X1100000Y1780000D02*
Y1880001D01*
X1050001Y1830001D02*
X1150000Y1830000D01*
X830000Y9582000D02*
X930000Y9581999D01*
X880000Y9532000D02*
X880001Y9632000D01*
X480000Y8670001D02*
X480000Y8770000D01*
X430000Y8720001D02*
X530000Y8720000D01*
X1500000Y7990000D02*
X1500001Y8089999D01*
X1450000Y8040000D02*
X1550000D01*
X879440Y8190000D02*
X879440Y8290000D01*
X829440Y8240000D02*
X929441Y8240000D01*
X1930000Y7925000D02*
X1930000Y7825000D01*
X1880000Y7875000D02*
X1980000Y7875000D01*
X370000Y5300000D02*
X470000Y5300000D01*
X420000Y5250000D02*
X420000Y5350000D01*
X2420000Y8800000D02*
Y8900000D01*
X2370000Y8850000D02*
X2470000D01*
X850001Y3455000D02*
X950000Y3455000D01*
X900000Y3405000D02*
X900000Y3505000D01*
X890000Y7015000D02*
X990000Y7015000D01*
X939999Y6965000D02*
X940000Y7065000D01*
X2720000Y9660000D02*
X2820000Y9660000D01*
X2770000Y9610000D02*
X2770000Y9710000D01*
X2420000Y9250000D02*
Y9350000D01*
X2370000Y9300000D02*
X2470000D01*
X1725000Y3750000D02*
X1725001Y3850000D01*
X1675000Y3800000D02*
X1775000Y3800000D01*
X990000Y3830000D02*
Y3930000D01*
X940000Y3880000D02*
X1040000D01*
X1939440Y3550000D02*
X1939440Y3450000D01*
X1889440Y3500000D02*
X1989441Y3500000D01*
X1850000Y3225000D02*
X1850000Y3125000D01*
X1800000Y3175000D02*
X1900000Y3175000D01*
X400000Y6950000D02*
Y7050000D01*
X350000Y7000000D02*
X450000D01*
X1480000Y3450000D02*
Y3550000D01*
X1430000Y3500000D02*
X1530000D01*
X1430000Y3120559D02*
X1530000Y3120560D01*
X1480000Y3070559D02*
Y3170560D01*
X2720000Y8490000D02*
X2820000D01*
X2770000Y8540000D02*
X2770000Y8440000D01*
X1000000Y3030000D02*
Y3130000D01*
X950000Y3080000D02*
X1050000D01*
X8310000Y6250001D02*
X8410000D01*
X8360000Y6200001D02*
X8360001Y6300001D01*
X8309999Y6659999D02*
X8410000Y6660000D01*
X8360000Y6610000D02*
X8360000Y6710000D01*
X9730000Y6040001D02*
X9830001Y6040000D01*
X9779999Y5990000D02*
X9779999Y6090000D01*
X9729999Y6470000D02*
X9829999D01*
X9779999Y6520000D02*
X9779999Y6419999D01*
X8960000Y4730000D02*
Y4829999D01*
X8910000Y4780000D02*
X9010000D01*
X9610000Y1779999D02*
X9710000Y1780000D01*
X9660000Y1730000D02*
Y1830000D01*
X2950000Y4360000D02*
X3050000Y4360000D01*
X3000000Y4310001D02*
X3000001Y4410000D01*
X2890000Y7105001D02*
X2890000Y7205001D01*
X2840000Y7155001D02*
X2940000D01*
X4205048Y7185000D02*
Y7285000D01*
X4155048Y7235001D02*
X4255048Y7234999D01*
X3210001Y7099440D02*
X3310000Y7099440D01*
X3260000Y7049440D02*
Y7149440D01*
X2460001Y7209440D02*
X2560000Y7209440D01*
X2510000Y7159440D02*
Y7259440D01*
X4560559Y7190000D02*
X4560560Y7290000D01*
X4510559Y7239999D02*
X4610560Y7240000D01*
X3810001Y7099440D02*
X3910000Y7099440D01*
X3860000Y7049440D02*
X3860000Y7149440D01*
X3595000Y7330000D02*
X3595000Y7430000D01*
X3545001Y7380000D02*
X3645000D01*
X3270000Y5519999D02*
X3370000D01*
X3319999Y5469999D02*
X3320000Y5569999D01*
X2352500Y5550000D02*
X2352501Y5450000D01*
X2302500Y5500000D02*
X2402500Y5500000D01*
X2330000Y5270000D02*
X2429999Y5270000D01*
X2380000Y5320000D02*
X2380000Y5220000D01*
X2057499Y4965000D02*
X2157500D01*
X2107499Y4915001D02*
X2107500Y5015001D01*
X1969999Y5297855D02*
X2070000Y5297856D01*
X2020000Y5247856D02*
X2020001Y5347856D01*
X2417856Y4810000D02*
Y4910000D01*
X2367856Y4860000D02*
X2467856Y4860000D01*
X1500000Y6230000D02*
Y6330000D01*
X1450000Y6280000D02*
X1550000D01*
X430000Y6300000D02*
X530000Y6300000D01*
X480000Y6250000D02*
X480000Y6350000D01*
X1210000Y5822565D02*
X1310000Y5822565D01*
X1260000Y5772565D02*
X1260000Y5872565D01*
X1098000Y4930000D02*
X1098001Y5030001D01*
X1048001Y4980000D02*
X1148000Y4980000D01*
X1100000Y5490000D02*
X1100000Y5590000D01*
X1050000Y5540000D02*
X1150000Y5540000D01*
X950001Y5722000D02*
X1050001Y5722000D01*
X1000001Y5772000D02*
X1000001Y5672000D01*
X1050000Y5370000D02*
X1150000D01*
X1100000Y5320000D02*
Y5420000D01*
X1050000Y5150000D02*
X1150000D01*
X1100000Y5100000D02*
X1100000Y5200000D01*
X830000Y9297435D02*
X929999Y9297435D01*
X880000Y9247435D02*
Y9347435D01*
X557678Y9428388D02*
X628388Y9357678D01*
X557678Y9357678D02*
X628388Y9428388D01*
X2230001Y8000001D02*
X2330000Y8000001D01*
X2280000Y7950000D02*
X2280001Y8050000D01*
%TF.MD5,3a0ec435574d76b454856e8be7bf78ed*%
M02*
