%TF.GenerationSoftware,Altium Limited,Altium Designer,26.2.0 (7)*%
G04 Layer_Physical_Order=3*
G04 Layer_Color=16440176*
%FSLAX45Y45*%
%MOMM*%
%TF.SameCoordinates,7E3C43A8-A274-4656-BCAB-ED4188872703*%
%TF.FilePolarity,Positive*%
%TF.FileFunction,Copper,L3,Inr,Signal*%
%TF.Part,Single*%
G01*
G75*
%TA.AperFunction,Conductor*%
%ADD10C,0.21984*%
%ADD119C,0.50000*%
%ADD121C,0.25000*%
%ADD122C,0.60000*%
%ADD123C,0.40000*%
%ADD124C,0.30000*%
%TA.AperFunction,ComponentPad*%
%ADD131C,1.20000*%
%ADD132C,1.30000*%
%ADD133C,1.52000*%
%ADD134C,1.57000*%
%ADD135C,1.39000*%
%ADD136P,1.96576X4X360.0*%
%ADD137P,1.96576X4X270.0*%
%ADD138C,0.65000*%
%ADD139R,1.52000X1.52000*%
%ADD140C,1.80000*%
%ADD141C,1.40000*%
%ADD142R,1.45000X3.20000*%
%ADD143C,2.00000*%
%ADD144R,1.57000X1.57000*%
%TA.AperFunction,ViaPad*%
%ADD145C,0.60000*%
G36*
X9500000Y9979609D02*
X9531435Y9979609D01*
X9593768Y9971403D01*
X9654496Y9955130D01*
X9712581Y9931071D01*
X9767027Y9899636D01*
X9816907Y9861362D01*
X9861363Y9816905D01*
X9899636Y9767027D01*
X9931070Y9712581D01*
X9955130Y9654496D01*
X9971402Y9593766D01*
X9979608Y9531434D01*
X9979609Y9499999D01*
X9979609Y500000D01*
X9979609Y468564D01*
X9971403Y406231D01*
X9955131Y345503D01*
X9931071Y287418D01*
X9899637Y232972D01*
X9861364Y183093D01*
X9816906Y138636D01*
X9767027Y100363D01*
X9712582Y68929D01*
X9654496Y44869D01*
X9593766Y28597D01*
X9531435Y20390D01*
X500000D01*
X468564Y20390D01*
X406232Y28596D01*
X345503Y44869D01*
X287418Y68929D01*
X232972Y100363D01*
X183092Y138637D01*
X138636Y183093D01*
X100363Y232972D01*
X68928Y287419D01*
X44868Y345505D01*
X28596Y406232D01*
X20390Y468565D01*
Y500000D01*
X20390Y9500000D01*
Y9531435D01*
X28596Y9593768D01*
X44869Y9654496D01*
X68929Y9712582D01*
X100363Y9767027D01*
X138636Y9816906D01*
X183092Y9861363D01*
X232972Y9899637D01*
X287418Y9931071D01*
X345504Y9955131D01*
X406231Y9971403D01*
X468564Y9979609D01*
X500000D01*
X9500000Y9979609D01*
D02*
G37*
%LPC*%
G36*
X2418494Y9592700D02*
X2401506D01*
X2385813Y9586199D01*
X2373801Y9574187D01*
X2367300Y9558493D01*
Y9541506D01*
X2373801Y9525813D01*
X2385813Y9513801D01*
X2401506Y9507300D01*
X2418494D01*
X2434187Y9513801D01*
X2446199Y9525813D01*
X2452700Y9541506D01*
Y9558493D01*
X2446199Y9574187D01*
X2434187Y9586199D01*
X2418494Y9592700D01*
D02*
G37*
G36*
X2558493Y9582700D02*
X2541506D01*
X2525813Y9576199D01*
X2513801Y9564187D01*
X2507300Y9548493D01*
Y9531506D01*
X2513801Y9515813D01*
X2525813Y9503801D01*
X2541506Y9497300D01*
X2558493D01*
X2574187Y9503801D01*
X2586199Y9515813D01*
X2592700Y9531506D01*
Y9548493D01*
X2586199Y9564187D01*
X2574187Y9576199D01*
X2558493Y9582700D01*
D02*
G37*
G36*
X2188493Y9562700D02*
X2171506D01*
X2155813Y9556199D01*
X2143801Y9544187D01*
X2137300Y9528494D01*
Y9511507D01*
X2143801Y9495813D01*
X2155813Y9483801D01*
X2171506Y9477300D01*
X2188493D01*
X2204187Y9483801D01*
X2216199Y9495813D01*
X2222700Y9511507D01*
Y9528494D01*
X2216199Y9544187D01*
X2204187Y9556199D01*
X2188493Y9562700D01*
D02*
G37*
G36*
X1419571Y9452700D02*
X1400429D01*
X1381939Y9447746D01*
X1365362Y9438174D01*
X1351826Y9424639D01*
X1342255Y9408061D01*
X1337300Y9389571D01*
Y9370429D01*
X1342255Y9351939D01*
X1351826Y9335361D01*
X1365362Y9321826D01*
X1381939Y9312254D01*
X1400429Y9307300D01*
X1419571D01*
X1438061Y9312254D01*
X1454639Y9321826D01*
X1468175Y9335361D01*
X1477746Y9351939D01*
X1482700Y9370429D01*
Y9389571D01*
X1477746Y9408061D01*
X1468175Y9424639D01*
X1454639Y9438174D01*
X1438061Y9447746D01*
X1419571Y9452700D01*
D02*
G37*
G36*
X3070000Y9713746D02*
X2680000D01*
X2670280Y9709720D01*
X2666253Y9700000D01*
Y9117357D01*
X2667300Y9114831D01*
Y9112097D01*
X2669233Y9110163D01*
X2670280Y9107637D01*
X2672806Y9106590D01*
X2674739Y9104657D01*
X2686739Y9099686D01*
X2689474D01*
X2692000Y9098640D01*
X2694526Y9099686D01*
X2697260D01*
X2699194Y9101620D01*
X2701720Y9102666D01*
X2703599Y9104545D01*
X2714241Y9108953D01*
X2725759D01*
X2736400Y9104545D01*
X2744545Y9096400D01*
X2748953Y9085759D01*
Y9074241D01*
X2744545Y9063600D01*
X2736400Y9055454D01*
X2725759Y9051046D01*
X2714241D01*
X2703599Y9055454D01*
X2701720Y9057334D01*
X2699194Y9058380D01*
X2697260Y9060314D01*
X2694526D01*
X2692000Y9061360D01*
X2689473Y9060313D01*
X2686739D01*
X2674739Y9055343D01*
X2672806Y9053409D01*
X2670280Y9052363D01*
X2669233Y9049836D01*
X2667300Y9047903D01*
Y9045169D01*
X2666253Y9042643D01*
Y8503747D01*
X716065D01*
X714495Y8503096D01*
X712815Y8503357D01*
X709798Y8501151D01*
X706345Y8499721D01*
X695549Y8496095D01*
X694427Y8495960D01*
X694187Y8496199D01*
X678493Y8502700D01*
X661506D01*
X645813Y8496199D01*
X645574Y8495960D01*
X644451Y8496095D01*
X633655Y8499720D01*
X630201Y8501151D01*
X627184Y8503357D01*
X625505Y8503096D01*
X623934Y8503747D01*
X543746D01*
Y8560000D01*
X539720Y8569720D01*
X539720Y8569721D01*
X489720Y8619720D01*
X480000Y8623747D01*
X480000Y8623746D01*
X321103D01*
X316133Y8635746D01*
X316199Y8635813D01*
X322700Y8651506D01*
Y8668493D01*
X316199Y8684187D01*
X304187Y8696199D01*
X288493Y8702700D01*
X271506D01*
X255813Y8696199D01*
X243801Y8684187D01*
X237300Y8668493D01*
Y8651506D01*
X243801Y8635813D01*
X255813Y8623801D01*
X263999Y8620410D01*
X266815Y8606255D01*
X90280Y8429720D01*
X86253Y8420000D01*
X86254Y8419999D01*
Y7630000D01*
X90280Y7620280D01*
X170280Y7540280D01*
X180000Y7536253D01*
X180001Y7536253D01*
X400000D01*
X409720Y7540280D01*
X409720Y7540280D01*
X539720Y7670280D01*
X543747Y7680000D01*
X543746Y7680001D01*
Y7916253D01*
X1902643D01*
X1905169Y7917300D01*
X1907903D01*
X1909837Y7919233D01*
X1912363Y7920280D01*
X1913222Y7922354D01*
X1913735Y7923131D01*
X1915343Y7924739D01*
X1916269Y7926976D01*
X1919706Y7932188D01*
X1931506Y7927300D01*
X1948493D01*
X1960294Y7932188D01*
X1963730Y7926976D01*
X1964657Y7924739D01*
X1966265Y7923131D01*
X1966777Y7922354D01*
X1967637Y7920280D01*
X1970163Y7919233D01*
X1972097Y7917300D01*
X1974831D01*
X1977357Y7916253D01*
X2880000D01*
X2880000Y7916253D01*
X2889720Y7920280D01*
X3079720Y8110279D01*
X3083747Y8120000D01*
X3083746Y8120000D01*
Y9157773D01*
X3082212Y9161477D01*
X3081430Y9165410D01*
X3080259Y9166192D01*
X3079720Y9167493D01*
X3076016Y9169028D01*
X3072682Y9171255D01*
X3062700Y9173241D01*
Y9186759D01*
X3072682Y9188745D01*
X3076016Y9190972D01*
X3079720Y9192507D01*
X3080259Y9193808D01*
X3081430Y9194590D01*
X3082212Y9198523D01*
X3083746Y9202227D01*
Y9700000D01*
X3079720Y9709720D01*
X3070000Y9713746D01*
D02*
G37*
G36*
X2608493Y9122700D02*
X2591506D01*
X2575812Y9116199D01*
X2563801Y9104187D01*
X2557300Y9088493D01*
Y9071506D01*
X2563801Y9055812D01*
X2575812Y9043801D01*
X2591506Y9037300D01*
X2608493D01*
X2624187Y9043801D01*
X2636199Y9055812D01*
X2642700Y9071506D01*
Y9088493D01*
X2636199Y9104187D01*
X2624187Y9116199D01*
X2608493Y9122700D01*
D02*
G37*
G36*
X2308493D02*
X2291506D01*
X2275813Y9116199D01*
X2263801Y9104187D01*
X2257300Y9088493D01*
Y9071506D01*
X2263801Y9055812D01*
X2275813Y9043801D01*
X2291506Y9037300D01*
X2308493D01*
X2324187Y9043801D01*
X2336199Y9055812D01*
X2342700Y9071506D01*
Y9088493D01*
X2336199Y9104187D01*
X2324187Y9116199D01*
X2308493Y9122700D01*
D02*
G37*
G36*
X8200000Y9473747D02*
X8190280Y9469720D01*
X7834306Y9113747D01*
X7400000D01*
X7390280Y9109720D01*
X7386253Y9100000D01*
Y8960000D01*
X7390280Y8950280D01*
X7400000Y8946254D01*
X8860000D01*
X8869720Y8950280D01*
X8873747Y8960000D01*
Y9267378D01*
X8872212Y9271083D01*
X8871430Y9275015D01*
X8870259Y9275798D01*
X8869720Y9277099D01*
X8866015Y9278633D01*
X8862682Y9280861D01*
X8850007Y9283382D01*
Y9295617D01*
X8862682Y9298138D01*
X8866016Y9300366D01*
X8869720Y9301900D01*
X8870259Y9303201D01*
X8871430Y9303984D01*
X8872212Y9307916D01*
X8873747Y9311621D01*
Y9460000D01*
X8869720Y9469720D01*
X8860000Y9473746D01*
X8200001D01*
X8200000Y9473747D01*
D02*
G37*
G36*
X1749571Y9037700D02*
X1730429D01*
X1711939Y9032746D01*
X1695361Y9023174D01*
X1681826Y9009639D01*
X1672254Y8993061D01*
X1667300Y8974571D01*
Y8955429D01*
X1672254Y8936939D01*
X1681826Y8920361D01*
X1695361Y8906826D01*
X1711939Y8897254D01*
X1730429Y8892300D01*
X1749571D01*
X1768061Y8897254D01*
X1784639Y8906826D01*
X1798174Y8920361D01*
X1807746Y8936939D01*
X1812700Y8955429D01*
Y8974571D01*
X1807746Y8993061D01*
X1798174Y9009639D01*
X1784639Y9023174D01*
X1768061Y9032746D01*
X1749571Y9037700D01*
D02*
G37*
G36*
X960000Y9313746D02*
X60000D01*
X50280Y9309720D01*
X46253Y9300000D01*
Y8940000D01*
X50280Y8930280D01*
X60000Y8926253D01*
X374306D01*
X470280Y8830280D01*
X480000Y8826253D01*
X480001Y8826254D01*
X540000D01*
X540000Y8826253D01*
X549721Y8830280D01*
X605300Y8885859D01*
X617300Y8880889D01*
Y8871507D01*
X623801Y8855813D01*
X635813Y8843801D01*
X651506Y8837300D01*
X668493D01*
X684187Y8843801D01*
X686532Y8846146D01*
X700687Y8843330D01*
X703801Y8835813D01*
X715813Y8823801D01*
X731507Y8817300D01*
X748494D01*
X764187Y8823801D01*
X776199Y8835813D01*
X782700Y8851507D01*
Y8868494D01*
X776199Y8884187D01*
X764187Y8896199D01*
X748494Y8902700D01*
X731507D01*
X715813Y8896199D01*
X713468Y8893854D01*
X699313Y8896670D01*
X696199Y8904187D01*
X686133Y8914253D01*
X688241Y8923444D01*
X689812Y8926253D01*
X780000D01*
X789720Y8930280D01*
X789721Y8930280D01*
X969720Y9110280D01*
X973747Y9120000D01*
X973747Y9120001D01*
Y9300000D01*
X969720Y9309720D01*
X960000Y9313746D01*
D02*
G37*
G36*
X2428493Y8842700D02*
X2411506D01*
X2395813Y8836199D01*
X2383801Y8824187D01*
X2377300Y8808493D01*
Y8791506D01*
X2383801Y8775813D01*
X2395813Y8763801D01*
X2411506Y8757300D01*
X2428493D01*
X2444187Y8763801D01*
X2456199Y8775813D01*
X2462700Y8791506D01*
Y8808493D01*
X2456199Y8824187D01*
X2444187Y8836199D01*
X2428493Y8842700D01*
D02*
G37*
G36*
X7748494Y8702700D02*
X7731507D01*
X7715813Y8696199D01*
X7703801Y8684187D01*
X7697300Y8668493D01*
Y8651506D01*
X7703801Y8635813D01*
X7715813Y8623801D01*
X7731507Y8617300D01*
X7748494D01*
X7764187Y8623801D01*
X7776199Y8635813D01*
X7782700Y8651506D01*
Y8668493D01*
X7776199Y8684187D01*
X7764187Y8696199D01*
X7748494Y8702700D01*
D02*
G37*
G36*
X3168494D02*
X3151507D01*
X3135813Y8696199D01*
X3123801Y8684187D01*
X3117300Y8668493D01*
Y8651506D01*
X3123801Y8635813D01*
X3135813Y8623801D01*
X3151507Y8617300D01*
X3168494D01*
X3184187Y8623801D01*
X3196199Y8635813D01*
X3202700Y8651506D01*
Y8668493D01*
X3196199Y8684187D01*
X3184187Y8696199D01*
X3168494Y8702700D01*
D02*
G37*
G36*
X2608493Y8642700D02*
X2591506D01*
X2575812Y8636199D01*
X2563801Y8624187D01*
X2557300Y8608494D01*
Y8591507D01*
X2563801Y8575813D01*
X2575812Y8563801D01*
X2591506Y8557300D01*
X2608493D01*
X2624187Y8563801D01*
X2636199Y8575813D01*
X2642700Y8591507D01*
Y8608494D01*
X2636199Y8624187D01*
X2624187Y8636199D01*
X2608493Y8642700D01*
D02*
G37*
G36*
X7648493Y8542700D02*
X7631506D01*
X7615813Y8536199D01*
X7603801Y8524187D01*
X7597300Y8508494D01*
Y8491507D01*
X7603801Y8475813D01*
X7615813Y8463801D01*
X7631506Y8457300D01*
X7648493D01*
X7664187Y8463801D01*
X7676199Y8475813D01*
X7682700Y8491507D01*
Y8508494D01*
X7676199Y8524187D01*
X7664187Y8536199D01*
X7648493Y8542700D01*
D02*
G37*
G36*
X7708494Y8302700D02*
X7691507D01*
X7675813Y8296199D01*
X7663801Y8284187D01*
X7657300Y8268493D01*
Y8251506D01*
X7663801Y8235813D01*
X7675813Y8223801D01*
X7691507Y8217300D01*
X7708494D01*
X7724187Y8223801D01*
X7736199Y8235813D01*
X7742700Y8251506D01*
Y8268493D01*
X7736199Y8284187D01*
X7724187Y8296199D01*
X7708494Y8302700D01*
D02*
G37*
G36*
X7238494D02*
X7221507D01*
X7211219Y8298439D01*
X6300000D01*
X6285290Y8295512D01*
X6272820Y8287180D01*
X6272819Y8287180D01*
X5142820Y7157180D01*
X5134488Y7144710D01*
X5131561Y7130000D01*
X5131561Y7129999D01*
Y6888439D01*
X4368781D01*
X4358493Y6892700D01*
X4341506D01*
X4325813Y6886199D01*
X4313801Y6874187D01*
X4307300Y6858494D01*
Y6841507D01*
X4313801Y6825813D01*
X4325813Y6813801D01*
X4341506Y6807300D01*
X4358493D01*
X4368781Y6811561D01*
X5644078D01*
X6279540Y6176100D01*
X6283801Y6165813D01*
X6295813Y6153801D01*
X6311507Y6147300D01*
X6328494D01*
X6344187Y6153801D01*
X6356199Y6165813D01*
X6362700Y6181507D01*
Y6198494D01*
X6356199Y6214187D01*
X6344187Y6226199D01*
X6333900Y6230460D01*
X5687180Y6877180D01*
X5674710Y6885513D01*
X5660000Y6888439D01*
X5659999Y6888439D01*
X5208439D01*
Y7114078D01*
X6315922Y8221561D01*
X7211219D01*
X7221507Y8217300D01*
X7238494D01*
X7254187Y8223801D01*
X7266199Y8235813D01*
X7272700Y8251506D01*
Y8268493D01*
X7266199Y8284187D01*
X7254187Y8296199D01*
X7238494Y8302700D01*
D02*
G37*
G36*
X1078493Y7592700D02*
X1061506D01*
X1045812Y7586199D01*
X1033801Y7574187D01*
X1027300Y7558493D01*
Y7541506D01*
X1033801Y7525812D01*
X1045812Y7513801D01*
X1061506Y7507300D01*
X1078493D01*
X1094187Y7513801D01*
X1106199Y7525812D01*
X1112700Y7541506D01*
Y7558493D01*
X1106199Y7574187D01*
X1094187Y7586199D01*
X1078493Y7592700D01*
D02*
G37*
G36*
X2238494Y7412700D02*
X2221507D01*
X2205813Y7406199D01*
X2193801Y7394187D01*
X2187300Y7378493D01*
Y7361506D01*
X2193801Y7345813D01*
X2205813Y7333801D01*
X2221507Y7327300D01*
X2238494D01*
X2254188Y7333801D01*
X2266199Y7345813D01*
X2272700Y7361506D01*
Y7378493D01*
X2266199Y7394187D01*
X2254188Y7406199D01*
X2238494Y7412700D01*
D02*
G37*
G36*
X4528494Y7162700D02*
X4511507D01*
X4495813Y7156199D01*
X4483801Y7144187D01*
X4477300Y7128493D01*
Y7111506D01*
X4483801Y7095813D01*
X4495813Y7083801D01*
X4511507Y7077300D01*
X4528494D01*
X4544188Y7083801D01*
X4556199Y7095813D01*
X4562700Y7111506D01*
Y7128493D01*
X4556199Y7144187D01*
X4544188Y7156199D01*
X4528494Y7162700D01*
D02*
G37*
G36*
X412007Y7091200D02*
X387993D01*
X364798Y7084985D01*
X344002Y7072978D01*
X327022Y7055998D01*
X315015Y7035202D01*
X308800Y7012007D01*
Y6987993D01*
X315015Y6964798D01*
X327022Y6944002D01*
X344002Y6927022D01*
X364798Y6915015D01*
X387993Y6908800D01*
X412007D01*
X435202Y6915015D01*
X455998Y6927022D01*
X472978Y6944002D01*
X484985Y6964798D01*
X491200Y6987993D01*
Y7012007D01*
X484985Y7035202D01*
X472978Y7055998D01*
X455998Y7072978D01*
X435202Y7084985D01*
X412007Y7091200D01*
D02*
G37*
G36*
X1988494Y6692700D02*
X1971507D01*
X1955813Y6686199D01*
X1943801Y6674187D01*
X1937300Y6658493D01*
Y6641506D01*
X1943801Y6625813D01*
X1955813Y6613801D01*
X1971507Y6607300D01*
X1988494D01*
X2004188Y6613801D01*
X2016199Y6625813D01*
X2022700Y6641506D01*
Y6658493D01*
X2016199Y6674187D01*
X2004188Y6686199D01*
X1988494Y6692700D01*
D02*
G37*
G36*
X568493Y6682700D02*
X551506D01*
X535812Y6676199D01*
X523801Y6664187D01*
X517300Y6648493D01*
Y6631506D01*
X523801Y6615813D01*
X535812Y6603801D01*
X551506Y6597300D01*
X568493D01*
X584187Y6603801D01*
X596199Y6615813D01*
X602700Y6631506D01*
Y6648493D01*
X596199Y6664187D01*
X584187Y6676199D01*
X568493Y6682700D01*
D02*
G37*
G36*
X408493D02*
X391506D01*
X375813Y6676199D01*
X363801Y6664187D01*
X357300Y6648493D01*
Y6631506D01*
X363801Y6615813D01*
X375813Y6603801D01*
X391506Y6597300D01*
X408493D01*
X424187Y6603801D01*
X436199Y6615813D01*
X442700Y6631506D01*
Y6648493D01*
X436199Y6664187D01*
X424187Y6676199D01*
X408493Y6682700D01*
D02*
G37*
G36*
X778493Y6562700D02*
X761506D01*
X751219Y6558438D01*
X208781D01*
X198493Y6562700D01*
X181506D01*
X165812Y6556199D01*
X153801Y6544187D01*
X147300Y6528493D01*
Y6511506D01*
X153801Y6495813D01*
X165812Y6483801D01*
X181506Y6477300D01*
X198493D01*
X208781Y6481561D01*
X751219D01*
X761506Y6477300D01*
X778493D01*
X788781Y6481561D01*
X1654078D01*
X1721561Y6414078D01*
Y3795922D01*
X1511592Y3585952D01*
X1492007Y3591200D01*
X1467994D01*
X1444798Y3584985D01*
X1424002Y3572978D01*
X1407022Y3555998D01*
X1395015Y3535202D01*
X1388800Y3512007D01*
Y3487994D01*
X1395015Y3464798D01*
X1407022Y3444002D01*
X1424002Y3427022D01*
X1444798Y3415015D01*
X1467994Y3408800D01*
X1492007D01*
X1515202Y3415015D01*
X1535998Y3427022D01*
X1552978Y3444002D01*
X1564985Y3464798D01*
X1571200Y3487994D01*
Y3512007D01*
X1565952Y3531592D01*
X1787180Y3752819D01*
X1787180Y3752820D01*
X1795513Y3765290D01*
X1798439Y3780000D01*
Y6430000D01*
X1795513Y6444710D01*
X1787180Y6457180D01*
X1787180Y6457181D01*
X1697181Y6547180D01*
X1684710Y6555512D01*
X1670000Y6558439D01*
X1669999Y6558438D01*
X788781D01*
X778493Y6562700D01*
D02*
G37*
G36*
X2308493Y6752700D02*
X2291506D01*
X2275813Y6746199D01*
X2263801Y6734187D01*
X2259540Y6723900D01*
X1872820Y6337180D01*
X1864488Y6324710D01*
X1861561Y6310000D01*
X1861561Y6309999D01*
Y2418781D01*
X1859540Y2413900D01*
X1372820Y1927180D01*
X1364487Y1914710D01*
X1361561Y1900000D01*
X1361561Y1899999D01*
Y650001D01*
X1361561Y650000D01*
X1364487Y635290D01*
X1372820Y622820D01*
X1452820Y542820D01*
X1465290Y534487D01*
X1480000Y531561D01*
X2241542D01*
X2243929Y519561D01*
X2235813Y516199D01*
X2223801Y504187D01*
X2217300Y488494D01*
Y471507D01*
X2223801Y455813D01*
X2226660Y452954D01*
Y293810D01*
X2096190Y163341D01*
X1607046D01*
X1604187Y166199D01*
X1588493Y172700D01*
X1571506D01*
X1555812Y166199D01*
X1543801Y154187D01*
X1537300Y138493D01*
Y121506D01*
X1543801Y105813D01*
X1555812Y93801D01*
X1571506Y87300D01*
X1588493D01*
X1604187Y93801D01*
X1607046Y96659D01*
X2110000D01*
X2122759Y99197D01*
X2133575Y106425D01*
X2283575Y256425D01*
X2290803Y267241D01*
X2293341Y280000D01*
Y452954D01*
X2296199Y455813D01*
X2302700Y471507D01*
Y488494D01*
X2296199Y504187D01*
X2284187Y516199D01*
X2276071Y519561D01*
X2278458Y531561D01*
X2319999D01*
X2320000Y531561D01*
X2334710Y534487D01*
X2347180Y542820D01*
X2455922Y651561D01*
X2514497D01*
X2517713Y639561D01*
X2516703Y638978D01*
X2499723Y621998D01*
X2487716Y601202D01*
X2481501Y578007D01*
Y553994D01*
X2487716Y530798D01*
X2499723Y510002D01*
X2516703Y493022D01*
X2537499Y481015D01*
X2560694Y474800D01*
X2584708D01*
X2607903Y481015D01*
X2628699Y493022D01*
X2645679Y510002D01*
X2657686Y530798D01*
X2663901Y553994D01*
Y578007D01*
X2657686Y601202D01*
X2645679Y621998D01*
X2628699Y638978D01*
X2627689Y639561D01*
X2630905Y651561D01*
X3252778D01*
X3306748Y597591D01*
X3301500Y578006D01*
Y553993D01*
X3307715Y530798D01*
X3319722Y510002D01*
X3336702Y493022D01*
X3357498Y481015D01*
X3380694Y474800D01*
X3404707D01*
X3427902Y481015D01*
X3448698Y493022D01*
X3465678Y510002D01*
X3477685Y530798D01*
X3483900Y553993D01*
Y578006D01*
X3477685Y601201D01*
X3465678Y621998D01*
X3448698Y638978D01*
X3427902Y650984D01*
X3404707Y657200D01*
X3380694D01*
X3361109Y651952D01*
X3295880Y717180D01*
X3283410Y725512D01*
X3268700Y728439D01*
X3268699Y728438D01*
X2620511D01*
X2617296Y740438D01*
X2628698Y747022D01*
X2645678Y764002D01*
X2657685Y784798D01*
X2663900Y807993D01*
Y832006D01*
X2657685Y855202D01*
X2645678Y875998D01*
X2628698Y892978D01*
X2607902Y904985D01*
X2584707Y911200D01*
X2560693D01*
X2537498Y904985D01*
X2516702Y892978D01*
X2499722Y875998D01*
X2487715Y855202D01*
X2481500Y832006D01*
Y807993D01*
X2487715Y784798D01*
X2499722Y764002D01*
X2516702Y747022D01*
X2528104Y740438D01*
X2524889Y728438D01*
X2440000D01*
X2425290Y725512D01*
X2412820Y717180D01*
X2412819Y717179D01*
X2304078Y608438D01*
X1495922D01*
X1438439Y665922D01*
Y1884078D01*
X1913900Y2359540D01*
X1924187Y2363801D01*
X1936199Y2375813D01*
X1942700Y2391507D01*
Y2408494D01*
X1938439Y2418781D01*
Y6294078D01*
X2145300Y6500939D01*
X2157300Y6495969D01*
Y6491506D01*
X2163801Y6475813D01*
X2175813Y6463801D01*
X2191506Y6457300D01*
X2208493D01*
X2224187Y6463801D01*
X2236199Y6475813D01*
X2242700Y6491506D01*
Y6508493D01*
X2236199Y6524187D01*
X2224187Y6536199D01*
X2208493Y6542700D01*
X2204031D01*
X2199060Y6554700D01*
X2313900Y6669540D01*
X2324187Y6673801D01*
X2336199Y6685813D01*
X2342700Y6701507D01*
Y6718494D01*
X2336199Y6734187D01*
X2324187Y6746199D01*
X2308493Y6752700D01*
D02*
G37*
G36*
X8518494Y6362700D02*
X8501506D01*
X8485813Y6356199D01*
X8473801Y6344187D01*
X8467300Y6328494D01*
Y6311507D01*
X8473801Y6295813D01*
X8485813Y6283801D01*
X8501506Y6277300D01*
X8518494D01*
X8534187Y6283801D01*
X8546199Y6295813D01*
X8552700Y6311507D01*
Y6328494D01*
X8546199Y6344187D01*
X8534187Y6356199D01*
X8518494Y6362700D01*
D02*
G37*
G36*
X3528493Y6302700D02*
X3511506D01*
X3495812Y6296199D01*
X3483801Y6284188D01*
X3477300Y6268494D01*
Y6251507D01*
X3483801Y6235813D01*
X3495812Y6223801D01*
X3511506Y6217300D01*
X3528493D01*
X3544187Y6223801D01*
X3556199Y6235813D01*
X3562700Y6251507D01*
Y6268494D01*
X3556199Y6284188D01*
X3544187Y6296199D01*
X3528493Y6302700D01*
D02*
G37*
G36*
X3428494D02*
X3411507D01*
X3395813Y6296199D01*
X3383801Y6284188D01*
X3377300Y6268494D01*
Y6251507D01*
X3383801Y6235813D01*
X3395813Y6223801D01*
X3411507Y6217300D01*
X3428494D01*
X3444187Y6223801D01*
X3456199Y6235813D01*
X3462700Y6251507D01*
Y6268494D01*
X3456199Y6284188D01*
X3444187Y6296199D01*
X3428494Y6302700D01*
D02*
G37*
G36*
X1512007Y6371200D02*
X1487993D01*
X1464798Y6364985D01*
X1444002Y6352978D01*
X1427022Y6335998D01*
X1415015Y6315202D01*
X1408800Y6292007D01*
Y6267994D01*
X1415015Y6244798D01*
X1427022Y6224002D01*
X1444002Y6207022D01*
X1464798Y6195015D01*
X1487993Y6188800D01*
X1512007D01*
X1535202Y6195015D01*
X1555998Y6207022D01*
X1572978Y6224002D01*
X1584985Y6244798D01*
X1591200Y6267994D01*
Y6292007D01*
X1584985Y6315202D01*
X1572978Y6335998D01*
X1555998Y6352978D01*
X1535202Y6364985D01*
X1512007Y6371200D01*
D02*
G37*
G36*
X9908494Y6152700D02*
X9891507D01*
X9875813Y6146199D01*
X9863801Y6134187D01*
X9857300Y6118493D01*
Y6101506D01*
X9863801Y6085813D01*
X9875813Y6073801D01*
X9891507Y6067300D01*
X9908494D01*
X9924187Y6073801D01*
X9936199Y6085813D01*
X9942700Y6101506D01*
Y6118493D01*
X9936199Y6134187D01*
X9924187Y6146199D01*
X9908494Y6152700D01*
D02*
G37*
G36*
X2428493Y6142700D02*
X2411506D01*
X2395813Y6136199D01*
X2383801Y6124187D01*
X2377300Y6108493D01*
Y6091506D01*
X2383801Y6075813D01*
X2395813Y6063801D01*
X2411506Y6057300D01*
X2428493D01*
X2444187Y6063801D01*
X2456199Y6075813D01*
X2462700Y6091506D01*
Y6108493D01*
X2456199Y6124187D01*
X2444187Y6136199D01*
X2428493Y6142700D01*
D02*
G37*
G36*
X488494Y6122700D02*
X471507D01*
X455813Y6116199D01*
X443801Y6104187D01*
X437300Y6088494D01*
Y6071507D01*
X443801Y6055813D01*
X455813Y6043801D01*
X471507Y6037300D01*
X488494D01*
X504187Y6043801D01*
X516199Y6055813D01*
X522700Y6071507D01*
Y6088494D01*
X516199Y6104187D01*
X504187Y6116199D01*
X488494Y6122700D01*
D02*
G37*
G36*
X328494Y6062700D02*
X311507D01*
X295813Y6056199D01*
X283801Y6044187D01*
X277300Y6028493D01*
Y6011506D01*
X283801Y5995812D01*
X295813Y5983801D01*
X311507Y5977300D01*
X328494D01*
X344188Y5983801D01*
X356199Y5995812D01*
X362700Y6011506D01*
Y6028493D01*
X356199Y6044187D01*
X344188Y6056199D01*
X328494Y6062700D01*
D02*
G37*
G36*
X4108493D02*
X4091506D01*
X4075813Y6056199D01*
X4063801Y6044187D01*
X4057300Y6028493D01*
Y6011506D01*
X4061561Y6001219D01*
Y5448781D01*
X4057300Y5438494D01*
Y5421507D01*
X4061561Y5411219D01*
Y4625922D01*
X3994078Y4558439D01*
X3638781D01*
X3628494Y4562700D01*
X3611507D01*
X3601219Y4558439D01*
X3218781D01*
X3208493Y4562700D01*
X3191506D01*
X3181219Y4558439D01*
X3045922D01*
X2190460Y5413900D01*
X2188439Y5418781D01*
Y5904078D01*
X2245922Y5961561D01*
X2381219D01*
X2391507Y5957300D01*
X2408494D01*
X2424187Y5963801D01*
X2436199Y5975813D01*
X2442700Y5991506D01*
Y6008493D01*
X2436199Y6024187D01*
X2424187Y6036199D01*
X2408494Y6042700D01*
X2391507D01*
X2381219Y6038439D01*
X2230000D01*
X2215290Y6035512D01*
X2202820Y6027180D01*
X2122820Y5947180D01*
X2114488Y5934710D01*
X2111561Y5920000D01*
X2111561Y5919999D01*
Y5418781D01*
X2107300Y5408494D01*
Y5391507D01*
X2113801Y5375813D01*
X2125813Y5363801D01*
X2136100Y5359540D01*
X3002819Y4492821D01*
X3002820Y4492820D01*
X3015290Y4484487D01*
X3030000Y4481561D01*
X3030001Y4481562D01*
X3181219D01*
X3191506Y4477300D01*
X3208493D01*
X3218781Y4481562D01*
X3601219D01*
X3611507Y4477300D01*
X3628494D01*
X3638781Y4481562D01*
X4009999D01*
X4010000Y4481561D01*
X4024710Y4484488D01*
X4037180Y4492820D01*
X4127179Y4582819D01*
X4127180Y4582820D01*
X4135512Y4595290D01*
X4138439Y4610000D01*
Y5411219D01*
X4142700Y5421507D01*
Y5438494D01*
X4138439Y5448781D01*
Y6001219D01*
X4142700Y6011506D01*
Y6028493D01*
X4136199Y6044187D01*
X4124187Y6056199D01*
X4108493Y6062700D01*
D02*
G37*
G36*
X5919677Y5988700D02*
X5896322D01*
X5873763Y5982655D01*
X5853537Y5970977D01*
X5837022Y5954463D01*
X5825345Y5934237D01*
X5819300Y5911678D01*
Y5888322D01*
X5825345Y5865763D01*
X5837022Y5845537D01*
X5853537Y5829022D01*
X5873763Y5817345D01*
X5896322Y5811300D01*
X5919677D01*
X5942237Y5817345D01*
X5962463Y5829022D01*
X5978977Y5845537D01*
X5990655Y5865763D01*
X5996699Y5888322D01*
Y5911678D01*
X5990655Y5934237D01*
X5978977Y5954463D01*
X5962463Y5970977D01*
X5942237Y5982655D01*
X5919677Y5988700D01*
D02*
G37*
G36*
X5411678D02*
X5388322D01*
X5365763Y5982655D01*
X5345537Y5970977D01*
X5329023Y5954463D01*
X5317345Y5934237D01*
X5311300Y5911678D01*
Y5888322D01*
X5317345Y5865763D01*
X5329023Y5845537D01*
X5345537Y5829022D01*
X5365763Y5817345D01*
X5388322Y5811300D01*
X5411678D01*
X5434237Y5817345D01*
X5454463Y5829022D01*
X5470978Y5845537D01*
X5482655Y5865763D01*
X5488700Y5888322D01*
Y5911678D01*
X5482655Y5934237D01*
X5470978Y5954463D01*
X5454463Y5970977D01*
X5434237Y5982655D01*
X5411678Y5988700D01*
D02*
G37*
G36*
X6250700Y5988699D02*
X6073301D01*
Y5811300D01*
X6250700D01*
Y5988699D01*
D02*
G37*
G36*
X5665677D02*
X5642322D01*
X5619763Y5982655D01*
X5599537Y5970977D01*
X5583022Y5954463D01*
X5571345Y5934237D01*
X5565300Y5911677D01*
Y5888322D01*
X5571345Y5865763D01*
X5583022Y5845537D01*
X5599537Y5829022D01*
X5619763Y5817345D01*
X5642322Y5811300D01*
X5665677D01*
X5688237Y5817345D01*
X5708463Y5829022D01*
X5724977Y5845537D01*
X5736655Y5865763D01*
X5742699Y5888322D01*
Y5911677D01*
X5736655Y5934237D01*
X5724977Y5954463D01*
X5708463Y5970977D01*
X5688237Y5982655D01*
X5665677Y5988699D01*
D02*
G37*
G36*
X5157677D02*
X5134322D01*
X5111763Y5982655D01*
X5091537Y5970977D01*
X5075022Y5954463D01*
X5063345Y5934237D01*
X5057300Y5911677D01*
Y5888322D01*
X5063345Y5865763D01*
X5075022Y5845537D01*
X5091537Y5829022D01*
X5111763Y5817345D01*
X5134322Y5811300D01*
X5157677D01*
X5180237Y5817345D01*
X5200463Y5829022D01*
X5216977Y5845537D01*
X5228655Y5865763D01*
X5234699Y5888322D01*
Y5911677D01*
X5228655Y5934237D01*
X5216977Y5954463D01*
X5200463Y5970977D01*
X5180237Y5982655D01*
X5157677Y5988699D01*
D02*
G37*
G36*
X1180000Y5833747D02*
X830000D01*
X820280Y5829720D01*
X820280Y5829720D01*
X672580Y5682021D01*
X671603Y5679661D01*
X669749Y5677906D01*
X669669Y5674993D01*
X668554Y5672300D01*
X669531Y5669940D01*
X669462Y5667389D01*
X674328Y5654668D01*
X668983Y5646900D01*
X647702Y5638085D01*
X631415Y5621798D01*
X622600Y5600518D01*
X614832Y5595172D01*
X602112Y5600039D01*
X599559Y5599969D01*
X597200Y5600946D01*
X594508Y5599831D01*
X591594Y5599751D01*
X589839Y5597897D01*
X587480Y5596920D01*
X470280Y5479720D01*
X466253Y5470000D01*
X466254Y5469999D01*
Y5130000D01*
X470280Y5120280D01*
X470280Y5120279D01*
X587480Y5003080D01*
X589839Y5002103D01*
X591594Y5000248D01*
X594507Y5000169D01*
X597200Y4999053D01*
X599560Y5000031D01*
X602112Y4999961D01*
X614832Y5004828D01*
X622600Y4999483D01*
X631415Y4978202D01*
X647702Y4961915D01*
X668983Y4953100D01*
X674328Y4945333D01*
X669461Y4932612D01*
X669531Y4930059D01*
X668553Y4927700D01*
X669668Y4925008D01*
X669748Y4922095D01*
X671603Y4920339D01*
X672580Y4917980D01*
X800280Y4790280D01*
X810000Y4786253D01*
X810000Y4786254D01*
X1180000D01*
X1189720Y4790280D01*
X1193746Y4800000D01*
Y5820000D01*
X1189720Y5829720D01*
X1180000Y5833747D01*
D02*
G37*
G36*
X8378494Y5622700D02*
X8361507D01*
X8345813Y5616199D01*
X8333801Y5604187D01*
X8327300Y5588494D01*
Y5571507D01*
X8333801Y5555813D01*
X8345813Y5543801D01*
X8361507Y5537300D01*
X8378494D01*
X8394187Y5543801D01*
X8406199Y5555813D01*
X8412700Y5571507D01*
Y5588494D01*
X8406199Y5604187D01*
X8394187Y5616199D01*
X8378494Y5622700D01*
D02*
G37*
G36*
X8208494Y5342700D02*
X8191507D01*
X8175813Y5336199D01*
X8163801Y5324187D01*
X8157300Y5308494D01*
Y5291507D01*
X8163801Y5275813D01*
X8175813Y5263801D01*
X8191507Y5257300D01*
X8208494D01*
X8224188Y5263801D01*
X8236199Y5275813D01*
X8242700Y5291507D01*
Y5308494D01*
X8236199Y5324187D01*
X8224188Y5336199D01*
X8208494Y5342700D01*
D02*
G37*
G36*
X7908493D02*
X7891506D01*
X7875813Y5336199D01*
X7863801Y5324187D01*
X7857300Y5308494D01*
Y5291507D01*
X7863801Y5275813D01*
X7875813Y5263801D01*
X7891506Y5257300D01*
X7908493D01*
X7924187Y5263801D01*
X7936199Y5275813D01*
X7942700Y5291507D01*
Y5308494D01*
X7936199Y5324187D01*
X7924187Y5336199D01*
X7908493Y5342700D01*
D02*
G37*
G36*
X1458493Y5142700D02*
X1441506D01*
X1425812Y5136199D01*
X1413801Y5124187D01*
X1407300Y5108493D01*
Y5091506D01*
X1413801Y5075813D01*
X1425812Y5063801D01*
X1441506Y5057300D01*
X1458493D01*
X1474187Y5063801D01*
X1486199Y5075813D01*
X1492700Y5091506D01*
Y5108493D01*
X1486199Y5124187D01*
X1474187Y5136199D01*
X1458493Y5142700D01*
D02*
G37*
G36*
X1358494Y5092700D02*
X1341507D01*
X1325813Y5086199D01*
X1313801Y5074187D01*
X1307300Y5058494D01*
Y5041507D01*
X1313801Y5025813D01*
X1325813Y5013801D01*
X1341507Y5007300D01*
X1358494D01*
X1374187Y5013801D01*
X1386199Y5025813D01*
X1392700Y5041507D01*
Y5058494D01*
X1386199Y5074187D01*
X1374187Y5086199D01*
X1358494Y5092700D01*
D02*
G37*
G36*
X3700000Y7233536D02*
X3400000D01*
X3395795Y7232700D01*
X3391507D01*
X3387545Y7231059D01*
X3383339Y7230223D01*
X3379774Y7227840D01*
X3375813Y7226199D01*
X3372781Y7223167D01*
X3369215Y7220785D01*
X3366833Y7217219D01*
X3363801Y7214188D01*
X3362160Y7210226D01*
X3359778Y7206661D01*
X3358941Y7202455D01*
X3357300Y7198494D01*
Y7194205D01*
X3356464Y7190000D01*
X3357300Y7185795D01*
Y7181507D01*
X3358941Y7177545D01*
X3359778Y7173339D01*
X3362160Y7169774D01*
X3363801Y7165813D01*
X3366833Y7162781D01*
X3369215Y7159215D01*
X3372781Y7156833D01*
X3375813Y7153801D01*
X3379774Y7152160D01*
X3383339Y7149778D01*
X3387545Y7148941D01*
X3391507Y7147300D01*
X3395795D01*
X3400000Y7146464D01*
X3506464D01*
Y6620000D01*
X3509778Y6603339D01*
X3519215Y6589215D01*
X3559215Y6549215D01*
X3562781Y6546832D01*
X3565813Y6543801D01*
X3569773Y6542160D01*
X3573339Y6539778D01*
X3577545Y6538941D01*
X3581506Y6537300D01*
X3585795D01*
X3590000Y6536464D01*
X3701967D01*
X3756464Y6481967D01*
Y6320000D01*
Y5058033D01*
X3655742Y4957312D01*
X3522269Y5090785D01*
X3508145Y5100222D01*
X3491485Y5103536D01*
X2668033D01*
X2343536Y5428033D01*
Y5800000D01*
X2342700Y5804205D01*
Y5808494D01*
X2341059Y5812455D01*
X2340222Y5816661D01*
X2337840Y5820226D01*
X2336199Y5824187D01*
X2333167Y5827219D01*
X2330785Y5830785D01*
X2327219Y5833167D01*
X2324187Y5836199D01*
X2320226Y5837840D01*
X2316661Y5840223D01*
X2312455Y5841059D01*
X2308493Y5842700D01*
X2304205D01*
X2300000Y5843536D01*
X2295795Y5842700D01*
X2291506D01*
X2287545Y5841059D01*
X2283339Y5840223D01*
X2279774Y5837840D01*
X2275813Y5836199D01*
X2272781Y5833167D01*
X2269215Y5830785D01*
X2266833Y5827219D01*
X2263801Y5824187D01*
X2262160Y5820226D01*
X2259778Y5816661D01*
X2258941Y5812455D01*
X2257300Y5808494D01*
Y5804205D01*
X2256464Y5800000D01*
Y5410000D01*
X2259778Y5393339D01*
X2269215Y5379215D01*
X2619215Y5029215D01*
X2622781Y5026833D01*
X2625813Y5023801D01*
X2629774Y5022160D01*
X2633339Y5019778D01*
X2637545Y5018941D01*
X2641507Y5017300D01*
X2645795D01*
X2650000Y5016464D01*
X3473451D01*
X3612206Y4877709D01*
Y4804258D01*
X3615520Y4787597D01*
X3624957Y4773473D01*
X3809215Y4589215D01*
X3812781Y4586832D01*
X3815813Y4583801D01*
X3819773Y4582160D01*
X3823339Y4579777D01*
X3827545Y4578941D01*
X3831506Y4577300D01*
X3835796D01*
X3840000Y4576464D01*
X3844204Y4577300D01*
X3848493D01*
X3852455Y4578941D01*
X3856661Y4579777D01*
X3860226Y4582160D01*
X3864187Y4583801D01*
X3867219Y4586833D01*
X3870785Y4589215D01*
X3873167Y4592781D01*
X3876199Y4595813D01*
X3877840Y4599774D01*
X3880222Y4603339D01*
X3881059Y4607545D01*
X3882700Y4611506D01*
Y4615796D01*
X3883536Y4620000D01*
X3882700Y4624204D01*
Y4628493D01*
X3881059Y4632455D01*
X3880222Y4636661D01*
X3877840Y4640227D01*
X3876199Y4644187D01*
X3873168Y4647219D01*
X3870785Y4650785D01*
X3699279Y4822291D01*
Y4877709D01*
X3830785Y5009215D01*
X3840222Y5023339D01*
X3843536Y5040000D01*
Y6320000D01*
Y6500000D01*
X3840222Y6516661D01*
X3830785Y6530785D01*
X3750785Y6610785D01*
X3736661Y6620222D01*
X3720000Y6623536D01*
X3608033D01*
X3593536Y6638033D01*
Y7146464D01*
X3700000D01*
X3704205Y7147300D01*
X3708493D01*
X3712455Y7148941D01*
X3716661Y7149778D01*
X3720226Y7152160D01*
X3724187Y7153801D01*
X3727219Y7156833D01*
X3730785Y7159215D01*
X3733167Y7162781D01*
X3736199Y7165813D01*
X3737840Y7169774D01*
X3740222Y7173339D01*
X3741059Y7177545D01*
X3742700Y7181507D01*
Y7185795D01*
X3743536Y7190000D01*
X3742700Y7194205D01*
Y7198494D01*
X3741059Y7202455D01*
X3740222Y7206661D01*
X3737840Y7210226D01*
X3736199Y7214188D01*
X3733167Y7217219D01*
X3730785Y7220785D01*
X3727219Y7223167D01*
X3724187Y7226199D01*
X3720226Y7227840D01*
X3716661Y7230223D01*
X3712455Y7231059D01*
X3708493Y7232700D01*
X3704205D01*
X3700000Y7233536D01*
D02*
G37*
G36*
X9058493Y5042700D02*
X9041506D01*
X9025813Y5036199D01*
X9013801Y5024187D01*
X9007300Y5008493D01*
Y4991506D01*
X9013801Y4975813D01*
X9025813Y4963801D01*
X9041506Y4957300D01*
X9058493D01*
X9074187Y4963801D01*
X9086199Y4975813D01*
X9092700Y4991506D01*
Y5008493D01*
X9086199Y5024187D01*
X9074187Y5036199D01*
X9058493Y5042700D01*
D02*
G37*
G36*
X9668493Y5022700D02*
X9651506D01*
X9635813Y5016199D01*
X9623801Y5004187D01*
X9617300Y4988493D01*
Y4971506D01*
X9623801Y4955813D01*
X9635813Y4943801D01*
X9651506Y4937300D01*
X9668493D01*
X9684187Y4943801D01*
X9696199Y4955813D01*
X9702700Y4971506D01*
Y4988493D01*
X9696199Y5004187D01*
X9684187Y5016199D01*
X9668493Y5022700D01*
D02*
G37*
G36*
Y4882700D02*
X9651506D01*
X9635813Y4876199D01*
X9623801Y4864187D01*
X9617300Y4848493D01*
Y4831506D01*
X9623801Y4815813D01*
X9635813Y4803801D01*
X9651506Y4797300D01*
X9668493D01*
X9684187Y4803801D01*
X9696199Y4815813D01*
X9702700Y4831506D01*
Y4848493D01*
X9696199Y4864187D01*
X9684187Y4876199D01*
X9668493Y4882700D01*
D02*
G37*
G36*
X3048494Y4862700D02*
X3031507D01*
X3015813Y4856199D01*
X3003801Y4844187D01*
X2997300Y4828494D01*
Y4811507D01*
X3003801Y4795813D01*
X3015813Y4783801D01*
X3031507Y4777300D01*
X3048494D01*
X3064187Y4783801D01*
X3076199Y4795813D01*
X3082700Y4811507D01*
Y4828494D01*
X3076199Y4844187D01*
X3064187Y4856199D01*
X3048494Y4862700D01*
D02*
G37*
G36*
X4868493Y4812700D02*
X4851506D01*
X4835813Y4806199D01*
X4823801Y4794188D01*
X4817300Y4778494D01*
Y4761507D01*
X4823801Y4745813D01*
X4835813Y4733801D01*
X4851506Y4727300D01*
X4868493D01*
X4884187Y4733801D01*
X4896199Y4745813D01*
X4902700Y4761507D01*
Y4778494D01*
X4896199Y4794188D01*
X4884187Y4806199D01*
X4868493Y4812700D01*
D02*
G37*
G36*
X2978493Y4762700D02*
X2961506D01*
X2945812Y4756199D01*
X2933801Y4744187D01*
X2927300Y4728493D01*
Y4711506D01*
X2933801Y4695813D01*
X2945812Y4683801D01*
X2961506Y4677300D01*
X2978493D01*
X2994187Y4683801D01*
X3006199Y4695813D01*
X3012700Y4711506D01*
Y4728493D01*
X3006199Y4744187D01*
X2994187Y4756199D01*
X2978493Y4762700D01*
D02*
G37*
G36*
X4968493Y4752700D02*
X4951506D01*
X4935813Y4746199D01*
X4923801Y4734187D01*
X4917300Y4718493D01*
Y4701506D01*
X4923801Y4685813D01*
X4935813Y4673801D01*
X4951506Y4667300D01*
X4968493D01*
X4984187Y4673801D01*
X4996199Y4685813D01*
X5002700Y4701506D01*
Y4718493D01*
X4996199Y4734187D01*
X4984187Y4746199D01*
X4968493Y4752700D01*
D02*
G37*
G36*
X7590229Y4723271D02*
X7569771D01*
X7550009Y4717976D01*
X7532291Y4707746D01*
X7517825Y4693280D01*
X7507595Y4675562D01*
X7502300Y4655800D01*
Y4635342D01*
X7507595Y4615580D01*
X7517825Y4597862D01*
X7532291Y4583396D01*
X7550009Y4573166D01*
X7569771Y4567871D01*
X7590229D01*
X7609991Y4573166D01*
X7627709Y4583396D01*
X7642175Y4597862D01*
X7652405Y4615580D01*
X7657700Y4635342D01*
Y4655800D01*
X7652405Y4675562D01*
X7642175Y4693280D01*
X7627709Y4707746D01*
X7609991Y4717976D01*
X7590229Y4723271D01*
D02*
G37*
G36*
X7390229Y4682494D02*
X7369771D01*
X7350009Y4677199D01*
X7332291Y4666969D01*
X7317825Y4652503D01*
X7307595Y4634785D01*
X7302300Y4615023D01*
Y4594565D01*
X7307595Y4574803D01*
X7317825Y4557085D01*
X7332291Y4542619D01*
X7350009Y4532389D01*
X7369771Y4527094D01*
X7390229D01*
X7409991Y4532389D01*
X7427709Y4542619D01*
X7442175Y4557085D01*
X7452405Y4574803D01*
X7457700Y4594565D01*
Y4615023D01*
X7452405Y4634785D01*
X7442175Y4652503D01*
X7427709Y4666969D01*
X7409991Y4677199D01*
X7390229Y4682494D01*
D02*
G37*
G36*
X2777095Y4621465D02*
X2760108D01*
X2744414Y4614964D01*
X2732402Y4602952D01*
X2725902Y4587258D01*
Y4570271D01*
X2732402Y4554577D01*
X2740605Y4546375D01*
X2743145Y4538765D01*
X2740605Y4531155D01*
X2732402Y4522952D01*
X2725902Y4507258D01*
Y4490271D01*
X2732402Y4474578D01*
X2744414Y4462566D01*
X2760108Y4456065D01*
X2777095D01*
X2792789Y4462566D01*
X2804801Y4474578D01*
X2811301Y4490271D01*
Y4507258D01*
X2804801Y4522952D01*
X2796598Y4531155D01*
X2794058Y4538765D01*
X2796598Y4546375D01*
X2804801Y4554577D01*
X2811301Y4570271D01*
Y4587258D01*
X2804801Y4602952D01*
X2792789Y4614964D01*
X2777095Y4621465D01*
D02*
G37*
G36*
X5238493Y4462700D02*
X5221506D01*
X5205813Y4456199D01*
X5193801Y4444187D01*
X5187300Y4428494D01*
Y4411507D01*
X5193801Y4395813D01*
X5205813Y4383801D01*
X5221506Y4377300D01*
X5238493D01*
X5254187Y4383801D01*
X5266199Y4395813D01*
X5272700Y4411507D01*
Y4428494D01*
X5266199Y4444187D01*
X5254187Y4456199D01*
X5238493Y4462700D01*
D02*
G37*
G36*
X5928494Y4442700D02*
X5911507D01*
X5895813Y4436199D01*
X5883801Y4424187D01*
X5877300Y4408494D01*
Y4391507D01*
X5883801Y4375813D01*
X5895813Y4363801D01*
X5911507Y4357300D01*
X5928494D01*
X5944188Y4363801D01*
X5956199Y4375813D01*
X5962700Y4391507D01*
Y4408494D01*
X5956199Y4424187D01*
X5944188Y4436199D01*
X5928494Y4442700D01*
D02*
G37*
G36*
X7590888Y4502700D02*
X7569112D01*
X7548079Y4497064D01*
X7529221Y4486176D01*
X7513824Y4470779D01*
X7502936Y4451921D01*
X7497300Y4430888D01*
Y4409112D01*
X7502936Y4388079D01*
X7513824Y4369221D01*
X7529221Y4353824D01*
X7548079Y4342936D01*
X7569112Y4337300D01*
X7590888D01*
X7611921Y4342936D01*
X7630779Y4353824D01*
X7646176Y4369221D01*
X7657064Y4388079D01*
X7662700Y4409112D01*
Y4430888D01*
X7657064Y4451921D01*
X7646176Y4470779D01*
X7630779Y4486176D01*
X7611921Y4497064D01*
X7590888Y4502700D01*
D02*
G37*
G36*
X2808493Y4382700D02*
X2791506D01*
X2775813Y4376199D01*
X2763801Y4364187D01*
X2757300Y4348493D01*
Y4331506D01*
X2763801Y4315813D01*
X2775813Y4303801D01*
X2791506Y4297300D01*
X2808493D01*
X2824187Y4303801D01*
X2836199Y4315813D01*
X2842700Y4331506D01*
Y4348493D01*
X2836199Y4364187D01*
X2824187Y4376199D01*
X2808493Y4382700D01*
D02*
G37*
G36*
X5638493Y4362700D02*
X5621506D01*
X5605813Y4356199D01*
X5593801Y4344187D01*
X5587300Y4328494D01*
Y4311506D01*
X5593801Y4295813D01*
X5605813Y4283801D01*
X5621506Y4277300D01*
X5638493D01*
X5654187Y4283801D01*
X5666199Y4295813D01*
X5672700Y4311506D01*
Y4328494D01*
X5666199Y4344187D01*
X5654187Y4356199D01*
X5638493Y4362700D01*
D02*
G37*
G36*
X7975023Y4297700D02*
X7954564D01*
X7934803Y4292405D01*
X7917085Y4282176D01*
X7902618Y4267709D01*
X7892389Y4249991D01*
X7887094Y4230230D01*
Y4209771D01*
X7892389Y4190009D01*
X7902618Y4172291D01*
X7917085Y4157825D01*
X7934803Y4147595D01*
X7954564Y4142300D01*
X7975023D01*
X7994785Y4147595D01*
X8012503Y4157825D01*
X8026969Y4172291D01*
X8037199Y4190009D01*
X8042494Y4209771D01*
Y4230230D01*
X8037199Y4249991D01*
X8026969Y4267709D01*
X8012503Y4282176D01*
X7994785Y4292405D01*
X7975023Y4297700D01*
D02*
G37*
G36*
X6964658D02*
X6944200D01*
X6924438Y4292405D01*
X6906720Y4282176D01*
X6892254Y4267709D01*
X6882024Y4249991D01*
X6876729Y4230230D01*
Y4209771D01*
X6882024Y4190009D01*
X6892254Y4172291D01*
X6906720Y4157825D01*
X6924438Y4147595D01*
X6944200Y4142300D01*
X6964658D01*
X6984420Y4147595D01*
X7002138Y4157825D01*
X7016604Y4172291D01*
X7026834Y4190009D01*
X7032129Y4209771D01*
Y4230230D01*
X7026834Y4249991D01*
X7016604Y4267709D01*
X7002138Y4282176D01*
X6984420Y4292405D01*
X6964658Y4297700D01*
D02*
G37*
G36*
X3128494Y4222700D02*
X3111507D01*
X3095813Y4216199D01*
X3083801Y4204187D01*
X3077300Y4188494D01*
Y4171507D01*
X3083801Y4155813D01*
X3095813Y4143801D01*
X3111507Y4137300D01*
X3128494D01*
X3144188Y4143801D01*
X3156199Y4155813D01*
X3162700Y4171507D01*
Y4188494D01*
X3156199Y4204187D01*
X3144188Y4216199D01*
X3128494Y4222700D01*
D02*
G37*
G36*
X3008494D02*
X2991507D01*
X2975813Y4216199D01*
X2963801Y4204187D01*
X2957300Y4188494D01*
Y4171507D01*
X2963801Y4155813D01*
X2975813Y4143801D01*
X2991507Y4137300D01*
X3008494D01*
X3024188Y4143801D01*
X3036199Y4155813D01*
X3042700Y4171507D01*
Y4188494D01*
X3036199Y4204187D01*
X3024188Y4216199D01*
X3008494Y4222700D01*
D02*
G37*
G36*
X2888494D02*
X2871507D01*
X2855813Y4216199D01*
X2843801Y4204187D01*
X2837300Y4188494D01*
Y4171507D01*
X2843801Y4155813D01*
X2855813Y4143801D01*
X2871507Y4137300D01*
X2888494D01*
X2904187Y4143801D01*
X2916199Y4155813D01*
X2922700Y4171507D01*
Y4188494D01*
X2916199Y4204187D01*
X2904187Y4216199D01*
X2888494Y4222700D01*
D02*
G37*
G36*
X5548494Y4142700D02*
X5531507D01*
X5515813Y4136199D01*
X5503801Y4124187D01*
X5497300Y4108493D01*
Y4091506D01*
X5503801Y4075813D01*
X5515813Y4063801D01*
X5531507Y4057300D01*
X5548494D01*
X5564187Y4063801D01*
X5576199Y4075813D01*
X5582700Y4091506D01*
Y4108493D01*
X5576199Y4124187D01*
X5564187Y4136199D01*
X5548494Y4142700D01*
D02*
G37*
G36*
X3210000Y4403536D02*
X3205795Y4402700D01*
X3201506D01*
X3197545Y4401059D01*
X3193339Y4400222D01*
X3189774Y4397840D01*
X3185813Y4396199D01*
X3182781Y4393167D01*
X3179215Y4390785D01*
X3176833Y4387219D01*
X3173801Y4384187D01*
X3172160Y4380226D01*
X3169778Y4376661D01*
X3168941Y4372455D01*
X3167300Y4368493D01*
Y4364205D01*
X3166464Y4360000D01*
X3167300Y4355795D01*
Y4351506D01*
X3168941Y4347545D01*
X3169778Y4343339D01*
X3172160Y4339774D01*
X3173801Y4335813D01*
X3176833Y4332781D01*
X3179215Y4329215D01*
X3436464Y4071967D01*
Y4009602D01*
X3432672Y4007602D01*
X3424464Y4005923D01*
X3414187Y4016199D01*
X3398494Y4022700D01*
X3381507D01*
X3365813Y4016199D01*
X3353801Y4004187D01*
X3347300Y3988493D01*
Y3971506D01*
X3353801Y3955813D01*
X3365813Y3943801D01*
X3381507Y3937300D01*
X3398494D01*
X3414187Y3943801D01*
X3424464Y3954077D01*
X3432672Y3952398D01*
X3436464Y3950398D01*
Y3640000D01*
Y3010000D01*
X3437300Y3005795D01*
Y3001507D01*
X3438941Y2997545D01*
X3439777Y2993339D01*
X3442160Y2989774D01*
X3443801Y2985813D01*
X3446833Y2982781D01*
X3449215Y2979215D01*
X3452781Y2976833D01*
X3455812Y2973801D01*
X3459774Y2972160D01*
X3463339Y2969778D01*
X3467545Y2968941D01*
X3471506Y2967300D01*
X3475795D01*
X3480000Y2966464D01*
X3484205Y2967300D01*
X3488493D01*
X3492455Y2968941D01*
X3496661Y2969778D01*
X3500226Y2972160D01*
X3504187Y2973801D01*
X3507219Y2976833D01*
X3510785Y2979215D01*
X3513167Y2982781D01*
X3516199Y2985813D01*
X3517840Y2989774D01*
X3520222Y2993339D01*
X3521059Y2997545D01*
X3522700Y3001507D01*
Y3005795D01*
X3523536Y3010000D01*
Y3640000D01*
Y4090000D01*
X3520222Y4106661D01*
X3510785Y4120785D01*
X3240785Y4390785D01*
X3237219Y4393167D01*
X3234187Y4396199D01*
X3230226Y4397840D01*
X3226661Y4400222D01*
X3222455Y4401059D01*
X3218493Y4402700D01*
X3214205D01*
X3210000Y4403536D01*
D02*
G37*
G36*
X8015800Y4097700D02*
X7995342D01*
X7975580Y4092405D01*
X7957862Y4082175D01*
X7943396Y4067709D01*
X7933166Y4049991D01*
X7927871Y4030229D01*
Y4009771D01*
X7933166Y3990009D01*
X7943396Y3972291D01*
X7957862Y3957825D01*
X7975580Y3947595D01*
X7995342Y3942300D01*
X8015800D01*
X8035562Y3947595D01*
X8053280Y3957825D01*
X8067746Y3972291D01*
X8077976Y3990009D01*
X8083271Y4009771D01*
Y4030229D01*
X8077976Y4049991D01*
X8067746Y4067709D01*
X8053280Y4082175D01*
X8035562Y4092405D01*
X8015800Y4097700D01*
D02*
G37*
G36*
X7005436D02*
X6984977D01*
X6965215Y4092405D01*
X6947497Y4082175D01*
X6933031Y4067709D01*
X6922801Y4049991D01*
X6917506Y4030229D01*
Y4009771D01*
X6922801Y3990009D01*
X6933031Y3972291D01*
X6947497Y3957825D01*
X6965215Y3947595D01*
X6984977Y3942300D01*
X7005436D01*
X7025197Y3947595D01*
X7042915Y3957825D01*
X7057382Y3972291D01*
X7067611Y3990009D01*
X7072906Y4009771D01*
Y4030229D01*
X7067611Y4049991D01*
X7057382Y4067709D01*
X7042915Y4082175D01*
X7025197Y4092405D01*
X7005436Y4097700D01*
D02*
G37*
G36*
X9210229Y4057699D02*
X9189771D01*
X9170009Y4052404D01*
X9152291Y4042174D01*
X9137824Y4027708D01*
X9127595Y4009990D01*
X9122300Y3990228D01*
Y3969770D01*
X9127595Y3950008D01*
X9137824Y3932290D01*
X9152291Y3917824D01*
X9170009Y3907594D01*
X9189771Y3902299D01*
X9210229D01*
X9229991Y3907594D01*
X9247709Y3917824D01*
X9262175Y3932290D01*
X9272405Y3950008D01*
X9277700Y3969770D01*
Y3990228D01*
X9272405Y4009990D01*
X9262175Y4027708D01*
X9247709Y4042174D01*
X9229991Y4052404D01*
X9210229Y4057699D01*
D02*
G37*
G36*
X1260000Y6093536D02*
X620000D01*
X603339Y6090223D01*
X589215Y6080785D01*
X279215Y5770785D01*
X269777Y5756661D01*
X266464Y5740000D01*
Y4740000D01*
X269777Y4723340D01*
X279215Y4709215D01*
X669215Y4319215D01*
X672781Y4316832D01*
X675813Y4313801D01*
X679774Y4312160D01*
X683340Y4309778D01*
X687545Y4308941D01*
X691507Y4307300D01*
X695795D01*
X700000Y4306464D01*
X702999Y4307060D01*
X731757Y4278302D01*
Y3972144D01*
X723801Y3964187D01*
X717300Y3948494D01*
Y3931506D01*
X723801Y3915813D01*
X735813Y3903801D01*
X751506Y3897300D01*
X768494D01*
X784187Y3903801D01*
X796199Y3915813D01*
X802700Y3931506D01*
Y3948494D01*
X796199Y3964187D01*
X788243Y3972144D01*
Y4289999D01*
X788243Y4290000D01*
X786093Y4300808D01*
X779971Y4309971D01*
X779970Y4309971D01*
X742940Y4347001D01*
X743536Y4350000D01*
X742700Y4354205D01*
Y4358493D01*
X741059Y4362455D01*
X740223Y4366661D01*
X737840Y4370226D01*
X736199Y4374187D01*
X733168Y4377219D01*
X730785Y4380785D01*
X353536Y4758033D01*
Y5721967D01*
X638034Y6006464D01*
X1260000D01*
X1264205Y6007300D01*
X1268494D01*
X1272455Y6008941D01*
X1276661Y6009778D01*
X1280226Y6012160D01*
X1284187Y6013801D01*
X1287219Y6016833D01*
X1290785Y6019215D01*
X1293167Y6022781D01*
X1296199Y6025813D01*
X1297840Y6029774D01*
X1300222Y6033339D01*
X1301059Y6037545D01*
X1302700Y6041507D01*
Y6045795D01*
X1303536Y6050000D01*
X1302700Y6054205D01*
Y6058494D01*
X1301059Y6062455D01*
X1300222Y6066661D01*
X1297840Y6070226D01*
X1296199Y6074187D01*
X1293167Y6077219D01*
X1290785Y6080785D01*
X1287219Y6083167D01*
X1284187Y6086199D01*
X1280226Y6087840D01*
X1276661Y6090223D01*
X1272455Y6091059D01*
X1268494Y6092700D01*
X1264205D01*
X1260000Y6093536D01*
D02*
G37*
G36*
X1002007Y3971200D02*
X977993D01*
X954798Y3964985D01*
X934002Y3952978D01*
X917022Y3935998D01*
X905015Y3915202D01*
X898800Y3892007D01*
Y3867994D01*
X902218Y3855237D01*
X870322Y3823341D01*
X753810D01*
X653575Y3923575D01*
X642759Y3930803D01*
X630000Y3933341D01*
X470000D01*
X457241Y3930803D01*
X446425Y3923575D01*
X335549Y3812700D01*
X331507D01*
X315813Y3806199D01*
X303801Y3794187D01*
X297300Y3778494D01*
Y3761507D01*
X303801Y3745813D01*
X315813Y3733801D01*
X331507Y3727300D01*
X348494D01*
X364187Y3733801D01*
X376199Y3745813D01*
X382700Y3761507D01*
Y3765549D01*
X483810Y3866660D01*
X616190D01*
X716425Y3766425D01*
X727241Y3759197D01*
X740000Y3756659D01*
X884132D01*
X896891Y3759197D01*
X907707Y3766425D01*
X943069Y3801787D01*
X954798Y3795015D01*
X977993Y3788800D01*
X1002007D01*
X1025202Y3795015D01*
X1045998Y3807022D01*
X1062978Y3824002D01*
X1074985Y3844798D01*
X1081200Y3867994D01*
Y3892007D01*
X1074985Y3915202D01*
X1062978Y3935998D01*
X1045998Y3952978D01*
X1025202Y3964985D01*
X1002007Y3971200D01*
D02*
G37*
G36*
X7590229Y3712906D02*
X7569771D01*
X7550009Y3707611D01*
X7532291Y3697382D01*
X7517825Y3682915D01*
X7507595Y3665197D01*
X7502300Y3645436D01*
Y3624977D01*
X7507595Y3605215D01*
X7517825Y3587498D01*
X7532291Y3573031D01*
X7550009Y3562802D01*
X7569771Y3557506D01*
X7590229D01*
X7609991Y3562802D01*
X7627709Y3573031D01*
X7642175Y3587498D01*
X7652405Y3605215D01*
X7657700Y3624977D01*
Y3645436D01*
X7652405Y3665197D01*
X7642175Y3682915D01*
X7627709Y3697382D01*
X7609991Y3707611D01*
X7590229Y3712906D01*
D02*
G37*
G36*
X7390229Y3672129D02*
X7369771D01*
X7350009Y3666834D01*
X7332291Y3656605D01*
X7317825Y3642138D01*
X7307595Y3624420D01*
X7302300Y3604659D01*
Y3584200D01*
X7307595Y3564438D01*
X7317825Y3546720D01*
X7332291Y3532254D01*
X7350009Y3522024D01*
X7369771Y3516729D01*
X7390229D01*
X7409991Y3522024D01*
X7427709Y3532254D01*
X7442175Y3546720D01*
X7452405Y3564438D01*
X7457700Y3584200D01*
Y3604659D01*
X7452405Y3624420D01*
X7442175Y3642138D01*
X7427709Y3656605D01*
X7409991Y3666834D01*
X7390229Y3672129D01*
D02*
G37*
G36*
X9210229Y3557699D02*
X9189771D01*
X9170009Y3552404D01*
X9152291Y3542174D01*
X9137824Y3527708D01*
X9127595Y3509990D01*
X9122300Y3490228D01*
Y3469770D01*
X9127595Y3450008D01*
X9137824Y3432290D01*
X9152291Y3417823D01*
X9170009Y3407594D01*
X9189771Y3402299D01*
X9210229D01*
X9229991Y3407594D01*
X9247709Y3417823D01*
X9262175Y3432290D01*
X9272405Y3450008D01*
X9277700Y3469770D01*
Y3490228D01*
X9272405Y3509990D01*
X9262175Y3527708D01*
X9247709Y3542174D01*
X9229991Y3552404D01*
X9210229Y3557699D01*
D02*
G37*
G36*
X3608493Y3462700D02*
X3591506D01*
X3575813Y3456199D01*
X3563801Y3444187D01*
X3557300Y3428494D01*
Y3411507D01*
X3563801Y3395813D01*
X3575813Y3383801D01*
X3591506Y3377300D01*
X3608493D01*
X3624187Y3383801D01*
X3636199Y3395813D01*
X3642700Y3411507D01*
Y3428494D01*
X3636199Y3444187D01*
X3624187Y3456199D01*
X3608493Y3462700D01*
D02*
G37*
G36*
X4238493Y3332700D02*
X4221506D01*
X4205813Y3326199D01*
X4193801Y3314187D01*
X4187300Y3298494D01*
Y3281507D01*
X4193801Y3265813D01*
X4205813Y3253801D01*
X4221506Y3247300D01*
X4238493D01*
X4254187Y3253801D01*
X4266199Y3265813D01*
X4272700Y3281507D01*
Y3298494D01*
X4266199Y3314187D01*
X4254187Y3326199D01*
X4238493Y3332700D01*
D02*
G37*
G36*
X5458494Y3292700D02*
X5441507D01*
X5425813Y3286199D01*
X5413801Y3274188D01*
X5407300Y3258494D01*
Y3241507D01*
X5413801Y3225813D01*
X5425813Y3213801D01*
X5441507Y3207300D01*
X5458494D01*
X5474187Y3213801D01*
X5486199Y3225813D01*
X5492700Y3241507D01*
Y3258494D01*
X5486199Y3274188D01*
X5474187Y3286199D01*
X5458494Y3292700D01*
D02*
G37*
G36*
X5588494Y3282700D02*
X5571507D01*
X5555813Y3276199D01*
X5543801Y3264188D01*
X5537300Y3248494D01*
Y3231507D01*
X5543801Y3215813D01*
X5555813Y3203801D01*
X5571507Y3197300D01*
X5588494D01*
X5604187Y3203801D01*
X5616199Y3215813D01*
X5622700Y3231507D01*
Y3248494D01*
X5616199Y3264188D01*
X5604187Y3276199D01*
X5588494Y3282700D01*
D02*
G37*
G36*
X5308494D02*
X5291507D01*
X5275813Y3276199D01*
X5263801Y3264188D01*
X5257300Y3248494D01*
Y3231507D01*
X5263801Y3215813D01*
X5275813Y3203801D01*
X5291507Y3197300D01*
X5308494D01*
X5324187Y3203801D01*
X5336199Y3215813D01*
X5342700Y3231507D01*
Y3248494D01*
X5336199Y3264188D01*
X5324187Y3276199D01*
X5308494Y3282700D01*
D02*
G37*
G36*
X3608493D02*
X3591506D01*
X3575813Y3276199D01*
X3563801Y3264188D01*
X3557300Y3248494D01*
Y3231507D01*
X3563801Y3215813D01*
X3575813Y3203801D01*
X3591506Y3197300D01*
X3608493D01*
X3624187Y3203801D01*
X3636199Y3215813D01*
X3642700Y3231507D01*
Y3248494D01*
X3636199Y3264188D01*
X3624187Y3276199D01*
X3608493Y3282700D01*
D02*
G37*
G36*
X248494Y6392700D02*
X231507D01*
X215813Y6386199D01*
X203801Y6374187D01*
X197300Y6358494D01*
Y6341506D01*
X203801Y6325813D01*
X215813Y6313801D01*
X231507Y6307300D01*
X248494D01*
X264187Y6313801D01*
X267046Y6316659D01*
X1156190D01*
X1426659Y6046190D01*
Y6003810D01*
X1366190Y5943341D01*
X700000D01*
X687241Y5940803D01*
X676425Y5933575D01*
X386425Y5643575D01*
X379197Y5632759D01*
X376659Y5620000D01*
Y4810000D01*
X379197Y4797241D01*
X386425Y4786425D01*
X1097300Y4075549D01*
Y4071506D01*
X1103801Y4055813D01*
X1115813Y4043801D01*
X1131506Y4037300D01*
X1135549D01*
X1196660Y3976190D01*
Y3773810D01*
X772425Y3349575D01*
X765198Y3338759D01*
X762660Y3326000D01*
Y3201046D01*
X759801Y3198187D01*
X753300Y3182493D01*
Y3165506D01*
X759801Y3149812D01*
X771813Y3137801D01*
X787507Y3131300D01*
X804494D01*
X820188Y3137801D01*
X832199Y3149812D01*
X838700Y3165506D01*
Y3182493D01*
X832199Y3198187D01*
X829341Y3201046D01*
Y3312190D01*
X1253576Y3736425D01*
X1260803Y3747241D01*
X1263341Y3760000D01*
Y3990000D01*
X1260803Y4002759D01*
X1253575Y4013575D01*
X1182700Y4084451D01*
Y4088493D01*
X1176199Y4104187D01*
X1164187Y4116199D01*
X1148494Y4122700D01*
X1144451D01*
X443340Y4823810D01*
Y5606190D01*
X713810Y5876660D01*
X1380000D01*
X1392759Y5879198D01*
X1403575Y5886425D01*
X1483575Y5966425D01*
X1490802Y5977241D01*
X1493340Y5990000D01*
Y6060000D01*
X1490802Y6072759D01*
X1483575Y6083575D01*
X1193575Y6373575D01*
X1182759Y6380803D01*
X1170000Y6383341D01*
X267046D01*
X264187Y6386199D01*
X248494Y6392700D01*
D02*
G37*
G36*
X4388493Y3212700D02*
X4371506D01*
X4355812Y3206199D01*
X4343801Y3194187D01*
X4337300Y3178494D01*
Y3161507D01*
X4343801Y3145813D01*
X4355812Y3133801D01*
X4371506Y3127300D01*
X4388493D01*
X4404187Y3133801D01*
X4416199Y3145813D01*
X4422700Y3161507D01*
Y3178494D01*
X4416199Y3194187D01*
X4404187Y3206199D01*
X4388493Y3212700D01*
D02*
G37*
G36*
X2918494Y3102700D02*
X2901507D01*
X2885813Y3096199D01*
X2873801Y3084187D01*
X2867300Y3068493D01*
Y3051506D01*
X2873801Y3035813D01*
X2885813Y3023801D01*
X2901507Y3017300D01*
X2918494D01*
X2934187Y3023801D01*
X2946199Y3035813D01*
X2952700Y3051506D01*
Y3068493D01*
X2946199Y3084187D01*
X2934187Y3096199D01*
X2918494Y3102700D01*
D02*
G37*
G36*
X2198493Y3072700D02*
X2181506D01*
X2165813Y3066199D01*
X2153801Y3054187D01*
X2147300Y3038494D01*
Y3021507D01*
X2153801Y3005813D01*
X2165813Y2993801D01*
X2181506Y2987300D01*
X2198493D01*
X2214187Y2993801D01*
X2226199Y3005813D01*
X2232700Y3021507D01*
Y3038494D01*
X2226199Y3054187D01*
X2214187Y3066199D01*
X2198493Y3072700D01*
D02*
G37*
G36*
X7628494Y6302700D02*
X7611506D01*
X7595813Y6296199D01*
X7583801Y6284187D01*
X7577300Y6268493D01*
Y6251506D01*
X7583801Y6235813D01*
X7595813Y6223801D01*
X7611506Y6217300D01*
X7628494D01*
X7638781Y6221561D01*
X8294078D01*
X8431561Y6084078D01*
Y5928781D01*
X8427300Y5918494D01*
Y5901507D01*
X8431561Y5891219D01*
Y5610001D01*
X8431561Y5610000D01*
X8434488Y5595290D01*
X8442820Y5582820D01*
X8685640Y5340000D01*
X8662820Y5317180D01*
X8654487Y5304710D01*
X8651561Y5290000D01*
X8651561Y5289999D01*
Y4258439D01*
X8555922D01*
X8140460Y4673900D01*
X8136199Y4684187D01*
X8124187Y4696199D01*
X8113900Y4700460D01*
X7927180Y4887180D01*
X7914710Y4895512D01*
X7900000Y4898439D01*
X7899999Y4898439D01*
X7228781D01*
X7218494Y4902700D01*
X7201507D01*
X7186601Y4896525D01*
X7168088D01*
X7168087Y4896526D01*
X7153377Y4893600D01*
X7140906Y4885267D01*
X7140906Y4885266D01*
X6806100Y4550461D01*
X6795813Y4546199D01*
X6783801Y4534188D01*
X6777300Y4518494D01*
Y4501507D01*
X6783801Y4485813D01*
X6795813Y4473801D01*
X6811507Y4467300D01*
X6828494D01*
X6844187Y4473801D01*
X6856199Y4485813D01*
X6860460Y4496100D01*
X7184008Y4819648D01*
X7195838D01*
X7201507Y4817300D01*
X7218494D01*
X7228781Y4821561D01*
X7884078D01*
X8059540Y4646100D01*
X8063801Y4635813D01*
X8075813Y4623801D01*
X8086100Y4619540D01*
X8512819Y4192820D01*
X8512820Y4192820D01*
X8525291Y4184487D01*
X8540000Y4181561D01*
X8540001Y4181561D01*
X8651561D01*
Y3975922D01*
X8314078Y3638438D01*
X7998781D01*
X7988494Y3642700D01*
X7971507D01*
X7955813Y3636199D01*
X7943801Y3624187D01*
X7939540Y3613900D01*
X7794078Y3468439D01*
X6958781D01*
X6948494Y3472700D01*
X6931507D01*
X6915813Y3466199D01*
X6903801Y3454187D01*
X6897300Y3438494D01*
Y3421506D01*
X6901562Y3411219D01*
Y2895922D01*
X6886100Y2880460D01*
X6875813Y2876199D01*
X6863801Y2864187D01*
X6857300Y2848493D01*
Y2831506D01*
X6863801Y2815813D01*
X6875813Y2803801D01*
X6886100Y2799539D01*
X6982820Y2702820D01*
X6995290Y2694487D01*
X7010000Y2691561D01*
X7010001Y2691561D01*
X7141219D01*
X7151506Y2687300D01*
X7168493D01*
X7184187Y2693801D01*
X7196199Y2705812D01*
X7202700Y2721506D01*
Y2738493D01*
X7196199Y2754187D01*
X7184187Y2766199D01*
X7168493Y2772700D01*
X7151506D01*
X7141219Y2768438D01*
X7025922D01*
X6954360Y2840000D01*
X6967180Y2852819D01*
X6967180Y2852820D01*
X6975513Y2865290D01*
X6978439Y2880000D01*
X6978439Y2880001D01*
Y3391561D01*
X7809999D01*
X7810000Y3391561D01*
X7824710Y3394487D01*
X7837180Y3402820D01*
X7993900Y3559539D01*
X7998781Y3561561D01*
X8314078D01*
X8635639Y3240000D01*
X8318339Y2922700D01*
X8311507D01*
X8295813Y2916199D01*
X8283801Y2904187D01*
X8277300Y2888494D01*
Y2871507D01*
X8283801Y2855813D01*
X8295813Y2843801D01*
X8311507Y2837300D01*
X8328494D01*
X8344188Y2843801D01*
X8347118Y2846732D01*
X8359093Y2854733D01*
X8703900Y3199540D01*
X8714187Y3203801D01*
X8726199Y3215813D01*
X8732700Y3231507D01*
Y3248494D01*
X8726199Y3264188D01*
X8714187Y3276199D01*
X8703900Y3280461D01*
X8384361Y3600000D01*
X8717180Y3932819D01*
X8725512Y3945290D01*
X8728439Y3960000D01*
X8728438Y3960001D01*
Y4201219D01*
X8732700Y4211506D01*
Y4228493D01*
X8728438Y4238781D01*
Y5274078D01*
X8755922Y5301561D01*
X9041219D01*
X9051506Y5297300D01*
X9068493D01*
X9078781Y5301561D01*
X9384078D01*
X9519540Y5166100D01*
X9521561Y5161219D01*
Y4658781D01*
X9517300Y4648494D01*
Y4631507D01*
X9521561Y4621219D01*
Y1898439D01*
X9450001D01*
X9450000Y1898439D01*
X9435290Y1895513D01*
X9422820Y1887180D01*
X9282820Y1747180D01*
X9274487Y1734710D01*
X9271561Y1720000D01*
X9271561Y1719999D01*
Y1558781D01*
X9267300Y1548493D01*
Y1531506D01*
X9273801Y1515813D01*
X9285813Y1503801D01*
X9301506Y1497300D01*
X9318493D01*
X9334187Y1503801D01*
X9346199Y1515813D01*
X9352700Y1531506D01*
Y1548493D01*
X9348439Y1558781D01*
Y1704078D01*
X9465922Y1821562D01*
X9521561D01*
Y1485743D01*
X9521561Y1485742D01*
X9521768Y1484700D01*
X9511921Y1472700D01*
X9511507D01*
X9495813Y1466199D01*
X9483801Y1454187D01*
X9477300Y1438493D01*
Y1421506D01*
X9483801Y1405813D01*
X9495813Y1393801D01*
X9511507Y1387300D01*
X9528494D01*
X9544187Y1393801D01*
X9556199Y1405813D01*
X9559831Y1414580D01*
X9573787Y1417595D01*
X9621561Y1369820D01*
Y1348781D01*
X9619540Y1343900D01*
X8614078Y338438D01*
X8338781D01*
X8333900Y340460D01*
X8057180Y617180D01*
X8044710Y625513D01*
X8030000Y628439D01*
X8029998Y628439D01*
X7288781D01*
X7278493Y632700D01*
X7261506D01*
X7245813Y626199D01*
X7233801Y614187D01*
X7229540Y603900D01*
X6988339Y362700D01*
X6981506D01*
X6971219Y358439D01*
X4828628D01*
X4828547Y358520D01*
X4826199Y364187D01*
X4814187Y376199D01*
X4798494Y382700D01*
X4791660D01*
X4630460Y543900D01*
X4626199Y554187D01*
X4614187Y566199D01*
X4603900Y570460D01*
X4348439Y825922D01*
Y1534204D01*
X4360439Y1539175D01*
X4365813Y1533801D01*
X4381507Y1527300D01*
X4398494D01*
X4414188Y1533801D01*
X4426199Y1545813D01*
X4432700Y1561506D01*
Y1578493D01*
X4426199Y1594187D01*
X4414188Y1606199D01*
X4398494Y1612700D01*
X4381507D01*
X4365813Y1606199D01*
X4360439Y1600825D01*
X4348439Y1605796D01*
Y2151219D01*
X4350460Y2156100D01*
X4417180Y2222820D01*
X4425513Y2235290D01*
X4428439Y2250000D01*
Y2941561D01*
X4764078D01*
X4839539Y2866100D01*
X4843801Y2855813D01*
X4855812Y2843801D01*
X4871506Y2837300D01*
X4888493D01*
X4904187Y2843801D01*
X4916199Y2855813D01*
X4922700Y2871507D01*
Y2888494D01*
X4916199Y2904187D01*
X4904187Y2916199D01*
X4893900Y2920461D01*
X4807180Y3007180D01*
X4794710Y3015512D01*
X4780000Y3018439D01*
X4779999Y3018438D01*
X4408781D01*
X4398494Y3022700D01*
X4381507D01*
X4371219Y3018438D01*
X4020001D01*
X4020000Y3018439D01*
X4005290Y3015513D01*
X3992820Y3007180D01*
X3992819Y3007179D01*
X3754078Y2768438D01*
X2935922D01*
X2407180Y3297180D01*
X2394710Y3305513D01*
X2380000Y3308439D01*
X2379999Y3308439D01*
X2161481D01*
X2151193Y3312700D01*
X2134206D01*
X2118512Y3306199D01*
X2106501Y3294187D01*
X2100000Y3278494D01*
Y3261507D01*
X2106501Y3245813D01*
X2118512Y3233801D01*
X2134206Y3227300D01*
X2151193D01*
X2161481Y3231561D01*
X2364078D01*
X2892819Y2702820D01*
X2892820Y2702820D01*
X2905290Y2694487D01*
X2920000Y2691561D01*
X2920001Y2691561D01*
X3769999D01*
X3770000Y2691561D01*
X3784710Y2694487D01*
X3797180Y2702820D01*
X4035922Y2941561D01*
X4351562D01*
Y2265922D01*
X4296100Y2210460D01*
X4285813Y2206199D01*
X4273801Y2194187D01*
X4267300Y2178493D01*
Y2161506D01*
X4271561Y2151219D01*
Y810001D01*
X4271561Y810000D01*
X4274488Y795290D01*
X4282820Y782820D01*
X4549540Y516100D01*
X4553801Y505813D01*
X4565813Y493801D01*
X4576100Y489540D01*
X4750906Y314734D01*
X4750906Y314733D01*
X4762883Y306730D01*
X4765813Y303801D01*
X4780720Y297626D01*
X4785525Y292821D01*
X4785526Y292820D01*
X4797996Y284488D01*
X4812706Y281562D01*
X6971219D01*
X6981506Y277300D01*
X6998493D01*
X7014187Y283801D01*
X7017118Y286731D01*
X7029093Y294733D01*
X7283900Y549540D01*
X7288781Y551562D01*
X8014078D01*
X8279539Y286100D01*
X8283801Y275813D01*
X8295812Y263801D01*
X8311506Y257300D01*
X8328493D01*
X8338781Y261561D01*
X8629999D01*
X8630000Y261561D01*
X8644710Y264487D01*
X8657180Y272820D01*
X9673900Y1289539D01*
X9684187Y1293801D01*
X9696199Y1305812D01*
X9702700Y1321506D01*
Y1338493D01*
X9698439Y1348781D01*
Y1385742D01*
X9695512Y1400452D01*
X9687180Y1412922D01*
X9687180Y1412923D01*
X9598439Y1501664D01*
Y1860000D01*
Y4621219D01*
X9602700Y4631507D01*
Y4648494D01*
X9598439Y4658781D01*
Y5161219D01*
X9602700Y5171507D01*
Y5188494D01*
X9596199Y5204187D01*
X9584187Y5216199D01*
X9573900Y5220460D01*
X9427180Y5367180D01*
X9414710Y5375512D01*
X9400000Y5378439D01*
X9399999Y5378439D01*
X9078781D01*
X9068493Y5382700D01*
X9051506D01*
X9041219Y5378439D01*
X8755922D01*
X8508439Y5625922D01*
Y5891219D01*
X8512700Y5901507D01*
Y5918494D01*
X8508439Y5928781D01*
Y6099999D01*
X8508439Y6100000D01*
X8505513Y6114710D01*
X8497180Y6127180D01*
X8497180Y6127181D01*
X8337180Y6287180D01*
X8324710Y6295512D01*
X8310000Y6298439D01*
X8309999Y6298439D01*
X7638781D01*
X7628494Y6302700D01*
D02*
G37*
G36*
X2408494Y2922700D02*
X2391507D01*
X2375813Y2916199D01*
X2363801Y2904187D01*
X2357300Y2888494D01*
Y2871507D01*
X2363801Y2855813D01*
X2375813Y2843801D01*
X2391507Y2837300D01*
X2408494D01*
X2424187Y2843801D01*
X2436199Y2855813D01*
X2442700Y2871507D01*
Y2888494D01*
X2436199Y2904187D01*
X2424187Y2916199D01*
X2408494Y2922700D01*
D02*
G37*
G36*
X6199539Y2795218D02*
X6169864D01*
X6141201Y2787538D01*
X6115502Y2772701D01*
X6094519Y2751718D01*
X6079682Y2726019D01*
X6072001Y2697356D01*
Y2667681D01*
X6079682Y2639018D01*
X6094519Y2613319D01*
X6115502Y2592336D01*
X6141201Y2577499D01*
X6169864Y2569818D01*
X6199539D01*
X6228202Y2577499D01*
X6253901Y2592336D01*
X6274884Y2613319D01*
X6289721Y2639018D01*
X6297401Y2667681D01*
Y2697356D01*
X6289721Y2726019D01*
X6274884Y2751718D01*
X6253901Y2772701D01*
X6228202Y2787538D01*
X6199539Y2795218D01*
D02*
G37*
G36*
X5630137D02*
X5600462D01*
X5571799Y2787538D01*
X5546100Y2772701D01*
X5525117Y2751718D01*
X5510280Y2726019D01*
X5502599Y2697356D01*
Y2667681D01*
X5510280Y2639018D01*
X5525117Y2613319D01*
X5546100Y2592336D01*
X5571799Y2577499D01*
X5600462Y2569818D01*
X5630137D01*
X5658800Y2577499D01*
X5684499Y2592336D01*
X5705482Y2613319D01*
X5720319Y2639018D01*
X5727999Y2667681D01*
Y2697356D01*
X5720319Y2726019D01*
X5705482Y2751718D01*
X5684499Y2772701D01*
X5658800Y2787538D01*
X5630137Y2795218D01*
D02*
G37*
G36*
X252007Y2671200D02*
X227993D01*
X204798Y2664985D01*
X184002Y2652978D01*
X167022Y2635998D01*
X155015Y2615202D01*
X148800Y2592007D01*
Y2567994D01*
X155015Y2544798D01*
X167022Y2524002D01*
X184002Y2507022D01*
X204798Y2495015D01*
X227993Y2488800D01*
X252007D01*
X275202Y2495015D01*
X295998Y2507022D01*
X312978Y2524002D01*
X324985Y2544798D01*
X331200Y2567994D01*
Y2592007D01*
X324985Y2615202D01*
X312978Y2635998D01*
X295998Y2652978D01*
X275202Y2664985D01*
X252007Y2671200D01*
D02*
G37*
G36*
X6692655Y2510517D02*
X6662981D01*
X6634317Y2502837D01*
X6608618Y2488000D01*
X6587636Y2467017D01*
X6572798Y2441318D01*
X6565118Y2412655D01*
Y2382980D01*
X6572798Y2354317D01*
X6587636Y2328618D01*
X6608618Y2307635D01*
X6634317Y2292798D01*
X6662981Y2285117D01*
X6692655D01*
X6721319Y2292798D01*
X6747017Y2307635D01*
X6768000Y2328618D01*
X6782838Y2354317D01*
X6790518Y2382980D01*
Y2412655D01*
X6782838Y2441318D01*
X6768000Y2467017D01*
X6747017Y2488000D01*
X6721319Y2502837D01*
X6692655Y2510517D01*
D02*
G37*
G36*
X5137020D02*
X5107346D01*
X5078682Y2502837D01*
X5052983Y2488000D01*
X5032000Y2467017D01*
X5017163Y2441318D01*
X5009483Y2412655D01*
Y2382980D01*
X5017163Y2354317D01*
X5032000Y2328618D01*
X5052983Y2307635D01*
X5078682Y2292798D01*
X5107346Y2285117D01*
X5137020D01*
X5165683Y2292798D01*
X5191382Y2307635D01*
X5212365Y2328618D01*
X5227203Y2354317D01*
X5234883Y2382980D01*
Y2412655D01*
X5227203Y2441318D01*
X5212365Y2467017D01*
X5191382Y2488000D01*
X5165683Y2502837D01*
X5137020Y2510517D01*
D02*
G37*
G36*
X2598493Y2162700D02*
X2581506D01*
X2565812Y2156199D01*
X2553801Y2144187D01*
X2547300Y2128494D01*
Y2120057D01*
X2535300Y2115086D01*
X2534187Y2116199D01*
X2518494Y2122700D01*
X2501507D01*
X2485813Y2116199D01*
X2473801Y2104187D01*
X2467300Y2088493D01*
Y2071506D01*
X2473801Y2055813D01*
X2485813Y2043801D01*
X2501507Y2037300D01*
X2518494D01*
X2519042Y2037527D01*
X2527527Y2029042D01*
X2527300Y2028494D01*
Y2011507D01*
X2533801Y1995813D01*
X2545813Y1983801D01*
X2553470Y1980629D01*
X2551083Y1968629D01*
X2115731D01*
X2010461Y2073900D01*
X2006199Y2084187D01*
X1994188Y2096199D01*
X1978494Y2102700D01*
X1961507D01*
X1945813Y2096199D01*
X1933801Y2084187D01*
X1927300Y2068493D01*
Y2051506D01*
X1933801Y2035813D01*
X1945813Y2023801D01*
X1956100Y2019540D01*
X2072629Y1903011D01*
X2072629Y1903010D01*
X2085100Y1894678D01*
X2099810Y1891752D01*
X2714412D01*
X2719004Y1880665D01*
X2672820Y1834480D01*
X2664487Y1822010D01*
X2661561Y1807300D01*
X2661561Y1807299D01*
Y1390001D01*
X2661561Y1390000D01*
X2664487Y1375290D01*
X2672820Y1362820D01*
X2749540Y1286100D01*
X2753801Y1275813D01*
X2765813Y1263801D01*
X2781507Y1257300D01*
X2798494D01*
X2814187Y1263801D01*
X2826199Y1275813D01*
X2832700Y1291506D01*
Y1308493D01*
X2826199Y1324187D01*
X2814187Y1336199D01*
X2803900Y1340460D01*
X2738439Y1405922D01*
Y1791378D01*
X2836790Y1889730D01*
X2847078Y1893991D01*
X2859089Y1906003D01*
X2863351Y1916290D01*
X3008622Y2061562D01*
X3311219D01*
X3321506Y2057300D01*
X3338493D01*
X3354187Y2063801D01*
X3366199Y2075813D01*
X3372700Y2091507D01*
Y2108494D01*
X3366199Y2124188D01*
X3354187Y2136199D01*
X3338493Y2142700D01*
X3321506D01*
X3311219Y2138439D01*
X2992700D01*
X2977990Y2135513D01*
X2965520Y2127180D01*
X2965519Y2127180D01*
X2808990Y1970651D01*
X2804109Y1968629D01*
X2588917D01*
X2586530Y1980629D01*
X2594187Y1983801D01*
X2606199Y1995813D01*
X2612700Y2011507D01*
Y2028494D01*
X2606199Y2044187D01*
X2594187Y2056199D01*
X2578493Y2062700D01*
X2563822D01*
X2555595Y2071362D01*
X2555016Y2072210D01*
X2555727Y2077606D01*
X2558683Y2079422D01*
X2567218Y2083219D01*
X2581506Y2077300D01*
X2598493D01*
X2614187Y2083801D01*
X2626199Y2095813D01*
X2632700Y2111507D01*
Y2128494D01*
X2626199Y2144187D01*
X2614187Y2156199D01*
X2598493Y2162700D01*
D02*
G37*
G36*
X9258494Y1992700D02*
X9241507D01*
X9225813Y1986199D01*
X9213801Y1974187D01*
X9207300Y1958493D01*
Y1941506D01*
X9213801Y1925813D01*
X9225813Y1913801D01*
X9241507Y1907300D01*
X9258494D01*
X9274187Y1913801D01*
X9286199Y1925813D01*
X9292700Y1941506D01*
Y1958493D01*
X9286199Y1974187D01*
X9274187Y1986199D01*
X9258494Y1992700D01*
D02*
G37*
G36*
X3178494Y1942700D02*
X3161507D01*
X3145813Y1936199D01*
X3133801Y1924187D01*
X3127300Y1908494D01*
Y1891507D01*
X3133801Y1875813D01*
X3145813Y1863801D01*
X3161507Y1857300D01*
X3178494D01*
X3194187Y1863801D01*
X3206199Y1875813D01*
X3212700Y1891507D01*
Y1908494D01*
X3206199Y1924187D01*
X3194187Y1936199D01*
X3178494Y1942700D01*
D02*
G37*
G36*
X3018494D02*
X3001507D01*
X2985813Y1936199D01*
X2973801Y1924187D01*
X2967300Y1908494D01*
Y1891507D01*
X2973801Y1875813D01*
X2985813Y1863801D01*
X3001507Y1857300D01*
X3018494D01*
X3034187Y1863801D01*
X3046199Y1875813D01*
X3052700Y1891507D01*
Y1908494D01*
X3046199Y1924187D01*
X3034187Y1936199D01*
X3018494Y1942700D01*
D02*
G37*
G36*
X8031509Y2105400D02*
X7998491D01*
X7966597Y2096854D01*
X7938003Y2080345D01*
X7914655Y2056997D01*
X7898146Y2028402D01*
X7889600Y1996509D01*
Y1963491D01*
X7898146Y1931597D01*
X7914655Y1903003D01*
X7938003Y1879655D01*
X7966597Y1863146D01*
X7998491Y1854600D01*
X8031509D01*
X8063402Y1863146D01*
X8091997Y1879655D01*
X8115345Y1903003D01*
X8131854Y1931597D01*
X8140400Y1963491D01*
Y1996509D01*
X8131854Y2028402D01*
X8115345Y2056997D01*
X8091997Y2080345D01*
X8063402Y2096854D01*
X8031509Y2105400D01*
D02*
G37*
G36*
X9017900Y2215400D02*
X8822100D01*
Y1844600D01*
X9017900D01*
Y2215400D01*
D02*
G37*
G36*
X6977356Y2017401D02*
X6947682D01*
X6919018Y2009721D01*
X6893319Y1994883D01*
X6872337Y1973900D01*
X6857499Y1948201D01*
X6849819Y1919538D01*
Y1889864D01*
X6857499Y1861200D01*
X6872337Y1835501D01*
X6893319Y1814518D01*
X6919018Y1799681D01*
X6947682Y1792001D01*
X6977356D01*
X7006020Y1799681D01*
X7031718Y1814518D01*
X7052701Y1835501D01*
X7067539Y1861200D01*
X7075219Y1889864D01*
Y1919538D01*
X7067539Y1948201D01*
X7052701Y1973900D01*
X7031718Y1994883D01*
X7006020Y2009721D01*
X6977356Y2017401D01*
D02*
G37*
G36*
X4852319D02*
X4822645D01*
X4793981Y2009721D01*
X4768282Y1994883D01*
X4747299Y1973900D01*
X4732462Y1948201D01*
X4724782Y1919538D01*
Y1889864D01*
X4732462Y1861200D01*
X4747299Y1835501D01*
X4768282Y1814518D01*
X4793981Y1799681D01*
X4822645Y1792001D01*
X4852319D01*
X4880982Y1799681D01*
X4906681Y1814518D01*
X4927664Y1835501D01*
X4942502Y1861200D01*
X4950182Y1889864D01*
Y1919538D01*
X4942502Y1948201D01*
X4927664Y1973900D01*
X4906681Y1994883D01*
X4880982Y2009721D01*
X4852319Y2017401D01*
D02*
G37*
G36*
X5631995Y2015543D02*
X5602321D01*
X5573657Y2007862D01*
X5547958Y1993025D01*
X5526975Y1972042D01*
X5512138Y1946343D01*
X5504458Y1917680D01*
Y1888005D01*
X5512138Y1859342D01*
X5526975Y1833643D01*
X5547958Y1812660D01*
X5573657Y1797823D01*
X5602321Y1790142D01*
X5631995D01*
X5660658Y1797823D01*
X5686357Y1812660D01*
X5707340Y1833643D01*
X5722178Y1859342D01*
X5729858Y1888005D01*
Y1917680D01*
X5722178Y1946343D01*
X5707340Y1972042D01*
X5686357Y1993025D01*
X5660658Y2007862D01*
X5631995Y2015543D01*
D02*
G37*
G36*
X2588493Y1812700D02*
X2571506D01*
X2555813Y1806199D01*
X2543801Y1794187D01*
X2537300Y1778494D01*
Y1761507D01*
X2543801Y1745813D01*
X2555813Y1733801D01*
X2571506Y1727300D01*
X2588493D01*
X2604187Y1733801D01*
X2616199Y1745813D01*
X2622700Y1761507D01*
Y1778494D01*
X2616199Y1794187D01*
X2604187Y1806199D01*
X2588493Y1812700D01*
D02*
G37*
G36*
X2518494Y1742700D02*
X2501507D01*
X2485813Y1736199D01*
X2473801Y1724187D01*
X2467300Y1708493D01*
Y1697899D01*
X2456113Y1689544D01*
X2448493Y1692700D01*
X2431506D01*
X2415813Y1686199D01*
X2403801Y1674187D01*
X2397300Y1658494D01*
Y1641507D01*
X2387959Y1632700D01*
X2381507D01*
X2365813Y1626199D01*
X2353801Y1614188D01*
X2347300Y1598494D01*
Y1581507D01*
X2353801Y1565813D01*
X2365813Y1553801D01*
X2381507Y1547300D01*
X2398494D01*
X2414187Y1553801D01*
X2426199Y1565813D01*
X2432700Y1581507D01*
Y1598493D01*
X2442041Y1607300D01*
X2448493D01*
X2464187Y1613801D01*
X2476199Y1625813D01*
X2482700Y1641506D01*
Y1652101D01*
X2493887Y1660456D01*
X2501507Y1657300D01*
X2518494D01*
X2534187Y1663801D01*
X2546199Y1675812D01*
X2552700Y1691506D01*
Y1708493D01*
X2546199Y1724187D01*
X2534187Y1736199D01*
X2518494Y1742700D01*
D02*
G37*
G36*
X2988493Y1772700D02*
X2971506D01*
X2955812Y1766199D01*
X2943801Y1754188D01*
X2937300Y1738494D01*
Y1721507D01*
X2943801Y1705813D01*
X2955812Y1693801D01*
X2971506Y1687300D01*
X2988493D01*
X3004187Y1693801D01*
X3016199Y1705813D01*
X3022700Y1721507D01*
Y1738494D01*
X3016199Y1754188D01*
X3004187Y1766199D01*
X2988493Y1772700D01*
D02*
G37*
G36*
X4048494Y1762700D02*
X4031507D01*
X4015813Y1756199D01*
X4003801Y1744188D01*
X3997300Y1728494D01*
Y1711507D01*
X4003801Y1695813D01*
X4015813Y1683801D01*
X4031507Y1677300D01*
X4048494D01*
X4064187Y1683801D01*
X4076199Y1695813D01*
X4082700Y1711507D01*
Y1728494D01*
X4076199Y1744188D01*
X4064187Y1756199D01*
X4048494Y1762700D01*
D02*
G37*
G36*
X4218493Y1752700D02*
X4201506D01*
X4185813Y1746199D01*
X4173801Y1734187D01*
X4167300Y1718493D01*
Y1701506D01*
X4173801Y1685812D01*
X4185813Y1673801D01*
X4201506Y1667300D01*
X4218493D01*
X4234187Y1673801D01*
X4246199Y1685812D01*
X4252700Y1701506D01*
Y1718493D01*
X4246199Y1734187D01*
X4234187Y1746199D01*
X4218493Y1752700D01*
D02*
G37*
G36*
X620000Y2153748D02*
X610279Y2149721D01*
Y2149720D01*
X470280Y2009720D01*
X466253Y2000000D01*
X466254Y2000000D01*
Y1490000D01*
X470280Y1480280D01*
X470280Y1480279D01*
X520280Y1430280D01*
X530000Y1426253D01*
X530001Y1426253D01*
X622600D01*
Y1419483D01*
X631415Y1398203D01*
X647702Y1381915D01*
X668983Y1373100D01*
X692017D01*
X713298Y1381915D01*
X729585Y1398203D01*
X738400Y1419483D01*
Y1426253D01*
X850000D01*
X859720Y1430280D01*
X863747Y1440000D01*
Y1810000D01*
X863746Y1884306D01*
X875694Y1896254D01*
X900188D01*
X901759Y1893445D01*
X903867Y1884254D01*
X893801Y1874188D01*
X887300Y1858494D01*
Y1841507D01*
X893801Y1825813D01*
X905813Y1813801D01*
X921506Y1807300D01*
X930065D01*
X932452Y1795300D01*
X925813Y1792550D01*
X913801Y1780538D01*
X907300Y1764844D01*
Y1747857D01*
X913801Y1732163D01*
X918124Y1727840D01*
X925667Y1720001D01*
X918124Y1712161D01*
X913801Y1707838D01*
X907300Y1692144D01*
Y1675157D01*
X913801Y1659464D01*
X925813Y1647452D01*
X941507Y1640951D01*
X958494D01*
X974188Y1647452D01*
X986199Y1659464D01*
X992700Y1675157D01*
Y1692144D01*
X986199Y1707838D01*
X981876Y1712161D01*
X974333Y1720001D01*
X981876Y1727840D01*
X986199Y1732163D01*
X992700Y1747857D01*
Y1764844D01*
X986199Y1780538D01*
X974188Y1792550D01*
X958494Y1799051D01*
X949935D01*
X947548Y1811051D01*
X954187Y1813801D01*
X966199Y1825813D01*
X972700Y1841507D01*
Y1858494D01*
X966199Y1874188D01*
X956133Y1884254D01*
X958241Y1893445D01*
X959812Y1896254D01*
X1060000D01*
X1069720Y1900280D01*
X1073746Y1910000D01*
Y2140000D01*
X1069720Y2149720D01*
X1060000Y2153747D01*
X620001D01*
X620000Y2153748D01*
D02*
G37*
G36*
X2981194Y1622700D02*
X2964207D01*
X2948513Y1616199D01*
X2944190Y1611876D01*
X2936350Y1604333D01*
X2928511Y1611876D01*
X2924188Y1616199D01*
X2908494Y1622700D01*
X2891507D01*
X2875813Y1616199D01*
X2863801Y1604187D01*
X2857352Y1588619D01*
X2849707Y1585553D01*
X2845300Y1585086D01*
X2834187Y1596199D01*
X2818493Y1602700D01*
X2801506D01*
X2785813Y1596199D01*
X2773801Y1584187D01*
X2767300Y1568493D01*
Y1551506D01*
X2773801Y1535813D01*
X2785813Y1523801D01*
X2801506Y1517300D01*
X2818493D01*
X2834187Y1523801D01*
X2846199Y1535813D01*
X2852648Y1551381D01*
X2860293Y1554447D01*
X2864700Y1554914D01*
X2875813Y1543801D01*
X2891507Y1537300D01*
X2908494D01*
X2924188Y1543801D01*
X2928511Y1548124D01*
X2936350Y1555667D01*
X2944190Y1548124D01*
X2948513Y1543801D01*
X2964207Y1537300D01*
X2981194D01*
X2996888Y1543801D01*
X3008899Y1555812D01*
X3015400Y1571506D01*
Y1588493D01*
X3008899Y1604187D01*
X2996888Y1616199D01*
X2981194Y1622700D01*
D02*
G37*
G36*
X3623900Y1785200D02*
X3441500D01*
Y1602800D01*
X3623900D01*
Y1785200D01*
D02*
G37*
G36*
X2128494Y1694050D02*
X2111507D01*
X2095813Y1687550D01*
X2083801Y1675538D01*
X2077300Y1659844D01*
Y1642857D01*
X2083801Y1627163D01*
X2088124Y1622840D01*
X2095667Y1615001D01*
X2088124Y1607161D01*
X2083801Y1602838D01*
X2077300Y1587144D01*
Y1570157D01*
X2083801Y1554463D01*
X2095813Y1542452D01*
X2111507Y1535951D01*
X2128494D01*
X2144188Y1542452D01*
X2156199Y1554463D01*
X2162700Y1570157D01*
Y1587144D01*
X2156199Y1602838D01*
X2151876Y1607161D01*
X2144333Y1615001D01*
X2151876Y1622840D01*
X2156199Y1627163D01*
X2162700Y1642857D01*
Y1659844D01*
X2156199Y1675538D01*
X2144188Y1687550D01*
X2128494Y1694050D01*
D02*
G37*
G36*
X3208493Y1592700D02*
X3191506D01*
X3175813Y1586199D01*
X3163801Y1574187D01*
X3157300Y1558493D01*
Y1541506D01*
X3163801Y1525813D01*
X3175813Y1513801D01*
X3191506Y1507300D01*
X3208493D01*
X3224187Y1513801D01*
X3236199Y1525813D01*
X3242700Y1541506D01*
Y1558493D01*
X3236199Y1574187D01*
X3224187Y1586199D01*
X3208493Y1592700D01*
D02*
G37*
G36*
X9778494Y1582700D02*
X9761507D01*
X9745813Y1576199D01*
X9733801Y1564187D01*
X9727300Y1548493D01*
Y1531506D01*
X9733801Y1515813D01*
X9745813Y1503801D01*
X9761507Y1497300D01*
X9778494D01*
X9794187Y1503801D01*
X9806199Y1515813D01*
X9812700Y1531506D01*
Y1548493D01*
X9806199Y1564187D01*
X9794187Y1576199D01*
X9778494Y1582700D01*
D02*
G37*
G36*
X978494D02*
X961507D01*
X945813Y1576199D01*
X933801Y1564187D01*
X927300Y1548493D01*
Y1531506D01*
X933801Y1515813D01*
X945813Y1503801D01*
X961507Y1497300D01*
X978494D01*
X994187Y1503801D01*
X1006199Y1515813D01*
X1012700Y1531506D01*
Y1548493D01*
X1006199Y1564187D01*
X994187Y1576199D01*
X978494Y1582700D01*
D02*
G37*
G36*
X7817900Y1865400D02*
X7622100D01*
Y1494600D01*
X7817900D01*
Y1865400D01*
D02*
G37*
G36*
X4128493Y1512700D02*
X4111506D01*
X4095812Y1506199D01*
X4083801Y1494188D01*
X4077300Y1478494D01*
Y1461507D01*
X4083801Y1445813D01*
X4095812Y1433801D01*
X4111506Y1427300D01*
X4128493D01*
X4144187Y1433801D01*
X4156199Y1445813D01*
X4162700Y1461507D01*
Y1478494D01*
X4156199Y1494188D01*
X4144187Y1506199D01*
X4128493Y1512700D01*
D02*
G37*
G36*
X5938494Y1902700D02*
X5921507D01*
X5905813Y1896199D01*
X5893801Y1884187D01*
X5887300Y1868494D01*
Y1851507D01*
X5893801Y1835813D01*
X5904306Y1825307D01*
Y1660643D01*
X5736364Y1492700D01*
X5721506D01*
X5705813Y1486199D01*
X5693801Y1474187D01*
X5687300Y1458493D01*
Y1441506D01*
X5693801Y1425812D01*
X5705813Y1413801D01*
X5721506Y1407300D01*
X5738493D01*
X5754187Y1413801D01*
X5766199Y1425812D01*
X5772700Y1441506D01*
Y1456364D01*
X5948168Y1631832D01*
X5953738Y1640167D01*
X5955694Y1650000D01*
Y1825307D01*
X5966199Y1835813D01*
X5972700Y1851507D01*
Y1868494D01*
X5966199Y1884187D01*
X5954187Y1896199D01*
X5938494Y1902700D01*
D02*
G37*
G36*
X2578493Y1442700D02*
X2561506D01*
X2545813Y1436199D01*
X2533801Y1424187D01*
X2527300Y1408493D01*
Y1391506D01*
X2533801Y1375813D01*
X2545813Y1363801D01*
X2561506Y1357300D01*
X2578493D01*
X2594187Y1363801D01*
X2606199Y1375813D01*
X2612700Y1391506D01*
Y1408493D01*
X2606199Y1424187D01*
X2594187Y1436199D01*
X2578493Y1442700D01*
D02*
G37*
G36*
X3544706Y1531200D02*
X3520693D01*
X3497498Y1524985D01*
X3476702Y1512978D01*
X3459722Y1495998D01*
X3447715Y1475202D01*
X3441500Y1452006D01*
Y1427993D01*
X3447715Y1404798D01*
X3459722Y1384002D01*
X3476702Y1367022D01*
X3497498Y1355015D01*
X3520693Y1348800D01*
X3544706D01*
X3567902Y1355015D01*
X3588698Y1367022D01*
X3605678Y1384002D01*
X3617685Y1404798D01*
X3623900Y1427993D01*
Y1452006D01*
X3617685Y1475202D01*
X3605678Y1495998D01*
X3588698Y1512978D01*
X3567902Y1524985D01*
X3544706Y1531200D01*
D02*
G37*
G36*
X8641509Y1505400D02*
X8608491D01*
X8576597Y1496854D01*
X8548002Y1480345D01*
X8524655Y1456997D01*
X8508146Y1428403D01*
X8499600Y1396509D01*
Y1363491D01*
X8508146Y1331598D01*
X8524655Y1303003D01*
X8548002Y1279655D01*
X8576597Y1263146D01*
X8608491Y1254600D01*
X8641509D01*
X8673402Y1263146D01*
X8701997Y1279655D01*
X8725345Y1303003D01*
X8741854Y1331598D01*
X8750400Y1363491D01*
Y1396509D01*
X8741854Y1428403D01*
X8725345Y1456997D01*
X8701997Y1480345D01*
X8673402Y1496854D01*
X8641509Y1505400D01*
D02*
G37*
G36*
X6977356Y1447999D02*
X6947682D01*
X6919018Y1440319D01*
X6893319Y1425481D01*
X6872337Y1404498D01*
X6857499Y1378799D01*
X6849819Y1350136D01*
Y1320462D01*
X6857499Y1291798D01*
X6872337Y1266099D01*
X6893319Y1245116D01*
X6919018Y1230279D01*
X6947682Y1222599D01*
X6977356D01*
X7006020Y1230279D01*
X7031718Y1245116D01*
X7052701Y1266099D01*
X7067539Y1291798D01*
X7075219Y1320462D01*
Y1350136D01*
X7067539Y1378799D01*
X7052701Y1404498D01*
X7031718Y1425481D01*
X7006020Y1440319D01*
X6977356Y1447999D01*
D02*
G37*
G36*
X4852319D02*
X4822645D01*
X4793981Y1440319D01*
X4768282Y1425481D01*
X4747299Y1404498D01*
X4732462Y1378799D01*
X4724782Y1350136D01*
Y1320462D01*
X4732462Y1291798D01*
X4747299Y1266099D01*
X4768282Y1245116D01*
X4793981Y1230279D01*
X4822645Y1222599D01*
X4852319D01*
X4880982Y1230279D01*
X4906681Y1245116D01*
X4927664Y1266099D01*
X4942502Y1291798D01*
X4950182Y1320462D01*
Y1350136D01*
X4942502Y1378799D01*
X4927664Y1404498D01*
X4906681Y1425481D01*
X4880982Y1440319D01*
X4852319Y1447999D01*
D02*
G37*
G36*
X2988493Y1222700D02*
X2971506D01*
X2961219Y1218439D01*
X2730001D01*
X2730000Y1218439D01*
X2715290Y1215512D01*
X2702820Y1207180D01*
X2616100Y1120461D01*
X2611219Y1118439D01*
X2441948D01*
X2434187Y1126199D01*
X2418494Y1132700D01*
X2401506D01*
X2385813Y1126199D01*
X2373801Y1114188D01*
X2367300Y1098494D01*
Y1081507D01*
X2373801Y1065813D01*
X2385813Y1053801D01*
X2401506Y1047300D01*
X2403787D01*
X2407996Y1044487D01*
X2422706Y1041561D01*
X2422707Y1041562D01*
X2611219D01*
X2621507Y1037300D01*
X2638494D01*
X2654187Y1043801D01*
X2666199Y1055813D01*
X2670460Y1066100D01*
X2745922Y1141561D01*
X2961219D01*
X2971506Y1137300D01*
X2988493D01*
X2998781Y1141561D01*
X3244078D01*
X3463353Y922286D01*
X3458761Y911200D01*
X3301500D01*
Y728800D01*
X3483900D01*
Y781561D01*
X3597292D01*
X3597294Y781561D01*
X3612003Y784487D01*
X3616213Y787300D01*
X3618493D01*
X3634187Y793801D01*
X3646199Y805813D01*
X3652700Y821507D01*
Y838494D01*
X3646199Y854188D01*
X3634187Y866199D01*
X3623900Y870461D01*
X3287180Y1207180D01*
X3274710Y1215512D01*
X3260000Y1218439D01*
X3259999Y1218439D01*
X2998781D01*
X2988493Y1222700D01*
D02*
G37*
G36*
X9017900Y1515400D02*
X8822100D01*
Y1144600D01*
X9017900D01*
Y1515400D01*
D02*
G37*
G36*
X3544706Y1277200D02*
X3520693D01*
X3497498Y1270985D01*
X3476702Y1258978D01*
X3459722Y1241998D01*
X3447715Y1221202D01*
X3441500Y1198006D01*
Y1173993D01*
X3447715Y1150798D01*
X3459722Y1130002D01*
X3476702Y1113022D01*
X3497498Y1101015D01*
X3520693Y1094800D01*
X3544706D01*
X3567902Y1101015D01*
X3588698Y1113022D01*
X3605678Y1130002D01*
X3617685Y1150798D01*
X3623900Y1173993D01*
Y1198006D01*
X3617685Y1221202D01*
X3605678Y1241998D01*
X3588698Y1258978D01*
X3567902Y1270985D01*
X3544706Y1277200D01*
D02*
G37*
G36*
X568493Y3812700D02*
X551506D01*
X535812Y3806199D01*
X523801Y3794187D01*
X517300Y3778494D01*
Y3761507D01*
X523801Y3745813D01*
X535812Y3733801D01*
X535844Y3733788D01*
Y3020000D01*
X537683Y3010756D01*
X542919Y3002919D01*
X577313Y2968525D01*
X577300Y2968493D01*
Y2951506D01*
X583801Y2935813D01*
X595813Y2923801D01*
X611507Y2917300D01*
X628494D01*
X638781Y2921561D01*
X794078D01*
X985278Y2730361D01*
Y2555064D01*
X981017Y2544776D01*
Y2527789D01*
X987518Y2512096D01*
X999530Y2500084D01*
X1009817Y2495823D01*
X1091561Y2414078D01*
Y1075922D01*
X906100Y890461D01*
X895813Y886199D01*
X883801Y874187D01*
X877300Y858494D01*
Y841507D01*
X883801Y825813D01*
X895813Y813801D01*
X911506Y807300D01*
X928493D01*
X944187Y813801D01*
X956199Y825813D01*
X960460Y836100D01*
X1157180Y1032819D01*
X1157180Y1032820D01*
X1165513Y1045290D01*
X1168439Y1060000D01*
Y2430000D01*
X1165513Y2444710D01*
X1157180Y2457180D01*
X1157180Y2457181D01*
X1064177Y2550183D01*
X1062156Y2555064D01*
Y2746283D01*
X1059230Y2760993D01*
X1050897Y2773463D01*
X1050897Y2773464D01*
X837180Y2987180D01*
X824710Y2995512D01*
X810000Y2998439D01*
X809999Y2998439D01*
X638781D01*
X628494Y3002700D01*
X611507D01*
X611475Y3002687D01*
X584156Y3030006D01*
Y3733788D01*
X584187Y3733801D01*
X596199Y3745813D01*
X602700Y3761507D01*
Y3778494D01*
X596199Y3794187D01*
X584187Y3806199D01*
X568493Y3812700D01*
D02*
G37*
G36*
X1012007Y3171200D02*
X987993D01*
X964798Y3164985D01*
X944002Y3152978D01*
X927022Y3135998D01*
X915015Y3115202D01*
X908800Y3092007D01*
Y3067993D01*
X915015Y3044798D01*
X927022Y3024002D01*
X944002Y3007022D01*
X964798Y2995015D01*
X987993Y2988800D01*
X1012007D01*
X1035202Y2995015D01*
X1036871Y2995979D01*
X1226659Y2806190D01*
Y903810D01*
X1175549Y852700D01*
X1171506D01*
X1155813Y846199D01*
X1143801Y834187D01*
X1137300Y818493D01*
Y801506D01*
X1143801Y785813D01*
X1155813Y773801D01*
X1171506Y767300D01*
X1188493D01*
X1204187Y773801D01*
X1216199Y785813D01*
X1222700Y801506D01*
Y805549D01*
X1283575Y866425D01*
X1290803Y877241D01*
X1293341Y890000D01*
Y2820000D01*
X1290803Y2832759D01*
X1283575Y2843575D01*
X1084021Y3043129D01*
X1084985Y3044798D01*
X1091200Y3067993D01*
Y3092007D01*
X1084985Y3115202D01*
X1072978Y3135998D01*
X1055998Y3152978D01*
X1035202Y3164985D01*
X1012007Y3171200D01*
D02*
G37*
G36*
X6692655Y954882D02*
X6662981D01*
X6634317Y947202D01*
X6608618Y932365D01*
X6587636Y911382D01*
X6572798Y885683D01*
X6565118Y857019D01*
Y827345D01*
X6572798Y798682D01*
X6587636Y772983D01*
X6608618Y752000D01*
X6634317Y737162D01*
X6662981Y729482D01*
X6692655D01*
X6721319Y737162D01*
X6747017Y752000D01*
X6768000Y772983D01*
X6782838Y798682D01*
X6790518Y827345D01*
Y857019D01*
X6782838Y885683D01*
X6768000Y911382D01*
X6747017Y932365D01*
X6721319Y947202D01*
X6692655Y954882D01*
D02*
G37*
G36*
X5137020D02*
X5107346D01*
X5078682Y947202D01*
X5052983Y932365D01*
X5032000Y911382D01*
X5017163Y885683D01*
X5009483Y857019D01*
Y827345D01*
X5017163Y798682D01*
X5032000Y772983D01*
X5052983Y752000D01*
X5078682Y737162D01*
X5107346Y729482D01*
X5137020D01*
X5165683Y737162D01*
X5191382Y752000D01*
X5212365Y772983D01*
X5227203Y798682D01*
X5234883Y827345D01*
Y857019D01*
X5227203Y885683D01*
X5212365Y911382D01*
X5191382Y932365D01*
X5165683Y947202D01*
X5137020Y954882D01*
D02*
G37*
G36*
X1832007Y871200D02*
X1807994D01*
X1784798Y864985D01*
X1764002Y852978D01*
X1747022Y835998D01*
X1735015Y815202D01*
X1728800Y792007D01*
Y767994D01*
X1735015Y744798D01*
X1747022Y724002D01*
X1764002Y707022D01*
X1784798Y695015D01*
X1807994Y688800D01*
X1832007D01*
X1855202Y695015D01*
X1875998Y707022D01*
X1892978Y724002D01*
X1904985Y744798D01*
X1911200Y767994D01*
Y792007D01*
X1904985Y815202D01*
X1892978Y835998D01*
X1875998Y852978D01*
X1855202Y864985D01*
X1832007Y871200D01*
D02*
G37*
G36*
X8128494Y772700D02*
X8111507D01*
X8095813Y766199D01*
X8083801Y754187D01*
X8077300Y738494D01*
Y721507D01*
X8083801Y705813D01*
X8095813Y693801D01*
X8111507Y687300D01*
X8128494D01*
X8144187Y693801D01*
X8156199Y705813D01*
X8162700Y721507D01*
Y738494D01*
X8156199Y754187D01*
X8144187Y766199D01*
X8128494Y772700D01*
D02*
G37*
G36*
X1588493Y762700D02*
X1571506D01*
X1555812Y756199D01*
X1543801Y744187D01*
X1537300Y728494D01*
Y711507D01*
X1543801Y695813D01*
X1555812Y683801D01*
X1571506Y677300D01*
X1588493D01*
X1604187Y683801D01*
X1616199Y695813D01*
X1622700Y711507D01*
Y728494D01*
X1616199Y744187D01*
X1604187Y756199D01*
X1588493Y762700D01*
D02*
G37*
G36*
X538493Y662700D02*
X521506D01*
X505813Y656199D01*
X493801Y644187D01*
X487300Y628494D01*
Y611507D01*
X493801Y595813D01*
X505813Y583801D01*
X521506Y577300D01*
X538493D01*
X554187Y583801D01*
X566199Y595813D01*
X572700Y611507D01*
Y628494D01*
X566199Y644187D01*
X554187Y656199D01*
X538493Y662700D01*
D02*
G37*
G36*
X6199539Y670181D02*
X6169864D01*
X6141201Y662501D01*
X6115502Y647664D01*
X6094519Y626681D01*
X6079682Y600982D01*
X6072001Y572318D01*
Y542644D01*
X6079682Y513981D01*
X6094519Y488282D01*
X6115502Y467299D01*
X6141201Y452461D01*
X6169864Y444781D01*
X6199539D01*
X6228202Y452461D01*
X6253901Y467299D01*
X6274884Y488282D01*
X6289721Y513981D01*
X6297401Y542644D01*
Y572318D01*
X6289721Y600982D01*
X6274884Y626681D01*
X6253901Y647664D01*
X6228202Y662501D01*
X6199539Y670181D01*
D02*
G37*
G36*
X5630137D02*
X5600462D01*
X5571799Y662501D01*
X5546100Y647664D01*
X5525117Y626681D01*
X5510280Y600982D01*
X5502599Y572318D01*
Y542644D01*
X5510280Y513981D01*
X5525117Y488282D01*
X5546100Y467299D01*
X5571799Y452461D01*
X5600462Y444781D01*
X5630137D01*
X5658800Y452461D01*
X5684499Y467299D01*
X5705482Y488282D01*
X5720319Y513981D01*
X5727999Y542644D01*
Y572318D01*
X5720319Y600982D01*
X5705482Y626681D01*
X5684499Y647664D01*
X5658800Y662501D01*
X5630137Y670181D01*
D02*
G37*
G36*
X648493Y522700D02*
X631506D01*
X615813Y516199D01*
X603801Y504187D01*
X597300Y488494D01*
Y471507D01*
X603801Y455813D01*
X615813Y443801D01*
X631506Y437300D01*
X648493D01*
X664187Y443801D01*
X676199Y455813D01*
X682700Y471507D01*
Y488494D01*
X676199Y504187D01*
X664187Y516199D01*
X648493Y522700D01*
D02*
G37*
G36*
X2663901Y403199D02*
X2481501D01*
Y220799D01*
X2663901D01*
Y403199D01*
D02*
G37*
%LPD*%
G36*
X3070000Y9202227D02*
X3058000Y9199840D01*
X3056199Y9204187D01*
X3044187Y9216199D01*
X3028494Y9222700D01*
X3011507D01*
X2995813Y9216199D01*
X2983801Y9204187D01*
X2977300Y9188493D01*
Y9171506D01*
X2983801Y9155813D01*
X2995813Y9143801D01*
X3011507Y9137300D01*
X3028494D01*
X3044187Y9143801D01*
X3056199Y9155813D01*
X3058000Y9160160D01*
X3070000Y9157773D01*
Y8120000D01*
X2880000Y7930000D01*
X1977357D01*
X1972386Y7942000D01*
X1976199Y7945813D01*
X1982700Y7961507D01*
Y7978494D01*
X1976199Y7994187D01*
X1964187Y8006199D01*
X1948493Y8012700D01*
X1931506D01*
X1915813Y8006199D01*
X1903801Y7994187D01*
X1897300Y7978494D01*
Y7961507D01*
X1903801Y7945813D01*
X1907614Y7942000D01*
X1902643Y7930000D01*
X530000D01*
Y7680000D01*
X400000Y7550000D01*
X180000D01*
X100000Y7630000D01*
Y8420000D01*
X290000Y8610000D01*
X480000D01*
X530000Y8560000D01*
Y8490000D01*
X623934D01*
X631238Y8478000D01*
X627300Y8468494D01*
Y8451507D01*
X633801Y8435813D01*
X645813Y8423801D01*
X661506Y8417300D01*
X678493D01*
X694187Y8423801D01*
X706199Y8435813D01*
X712700Y8451507D01*
Y8468494D01*
X708762Y8478000D01*
X716065Y8490000D01*
X2680000D01*
Y9042643D01*
X2692000Y9047613D01*
X2695812Y9043801D01*
X2711506Y9037300D01*
X2728493D01*
X2744187Y9043801D01*
X2756199Y9055812D01*
X2762700Y9071506D01*
Y9088493D01*
X2756199Y9104187D01*
X2744187Y9116199D01*
X2728493Y9122700D01*
X2711506D01*
X2695812Y9116199D01*
X2692000Y9112386D01*
X2680000Y9117357D01*
Y9700000D01*
X3070000D01*
Y9202227D01*
D02*
G37*
%LPC*%
G36*
X688493Y8052700D02*
X671506D01*
X655813Y8046199D01*
X643801Y8034187D01*
X637300Y8018493D01*
Y8001506D01*
X643801Y7985813D01*
X655813Y7973801D01*
X671506Y7967300D01*
X688493D01*
X704187Y7973801D01*
X716199Y7985813D01*
X722700Y8001506D01*
Y8018493D01*
X716199Y8034187D01*
X704187Y8046199D01*
X688493Y8052700D01*
D02*
G37*
%LPD*%
G36*
X8860000Y9311621D02*
X8834600Y9306568D01*
X8828085Y9322297D01*
X8811797Y9338585D01*
X8790517Y9347400D01*
X8767482D01*
X8746202Y9338585D01*
X8729914Y9322297D01*
X8721099Y9301017D01*
Y9277982D01*
X8729914Y9256702D01*
X8746202Y9240414D01*
X8767482Y9231600D01*
X8790517D01*
X8811797Y9240414D01*
X8828085Y9256702D01*
X8834600Y9272431D01*
X8860000Y9267378D01*
Y8960000D01*
X7400000D01*
Y9100000D01*
X7840000D01*
X8200000Y9460000D01*
X8860000D01*
Y9311621D01*
D02*
G37*
%LPC*%
G36*
X8212517Y9347400D02*
X8189483D01*
X8168202Y9338585D01*
X8151915Y9322298D01*
X8143100Y9301017D01*
Y9277983D01*
X8151915Y9256702D01*
X8168202Y9240415D01*
X8189483Y9231600D01*
X8212517D01*
X8233798Y9240415D01*
X8250085Y9256702D01*
X8258900Y9277983D01*
Y9301017D01*
X8250085Y9322298D01*
X8233798Y9338585D01*
X8212517Y9347400D01*
D02*
G37*
%LPD*%
G36*
X960000Y9120000D02*
X780000Y8940000D01*
X640000D01*
X540000Y8840000D01*
X480000D01*
X380000Y8940000D01*
X60000D01*
Y9300000D01*
X960000D01*
Y9120000D01*
D02*
G37*
G36*
X1180000Y4800000D02*
X810000D01*
X682300Y4927700D01*
X692017Y4953100D01*
X713298Y4961915D01*
X729585Y4978202D01*
X738400Y4999483D01*
Y5022517D01*
X729585Y5043798D01*
X713298Y5060085D01*
X692017Y5068900D01*
X668983D01*
X647702Y5060085D01*
X631415Y5043798D01*
X622600Y5022518D01*
X597200Y5012800D01*
X480000Y5130000D01*
Y5470000D01*
X597200Y5587200D01*
X622600Y5577483D01*
X631415Y5556203D01*
X647702Y5539915D01*
X668983Y5531100D01*
X692017D01*
X713298Y5539915D01*
X729585Y5556203D01*
X738400Y5577483D01*
Y5600517D01*
X729585Y5621798D01*
X713298Y5638085D01*
X692017Y5646900D01*
X682301Y5672300D01*
X830000Y5820000D01*
X1180000D01*
Y4800000D01*
D02*
G37*
%LPC*%
G36*
X943494Y5467700D02*
X926507D01*
X910813Y5461199D01*
X898801Y5449187D01*
X892300Y5433494D01*
Y5416507D01*
X898801Y5400813D01*
X910813Y5388801D01*
X926507Y5382300D01*
X943494D01*
X959188Y5388801D01*
X971199Y5400813D01*
X977700Y5416507D01*
Y5433494D01*
X971199Y5449187D01*
X959188Y5461199D01*
X943494Y5467700D01*
D02*
G37*
G36*
X993494Y5167700D02*
X976507D01*
X960813Y5161199D01*
X948801Y5149187D01*
X942300Y5133493D01*
Y5116506D01*
X948801Y5100813D01*
X960813Y5088801D01*
X976507Y5082300D01*
X993494D01*
X1009187Y5088801D01*
X1021199Y5100813D01*
X1027700Y5116506D01*
Y5133493D01*
X1021199Y5149187D01*
X1009187Y5161199D01*
X993494Y5167700D01*
D02*
G37*
%LPD*%
G36*
X1060000Y1910000D02*
X870000D01*
X850000Y1890000D01*
X850000Y1810000D01*
Y1440000D01*
X738400D01*
Y1442518D01*
X729585Y1463798D01*
X713298Y1480086D01*
X692017Y1488901D01*
X668983D01*
X647702Y1480086D01*
X631415Y1463798D01*
X622600Y1442518D01*
Y1440000D01*
X530000D01*
X480000Y1490000D01*
Y2000000D01*
X620000Y2140000D01*
X1060000D01*
Y1910000D01*
D02*
G37*
%LPC*%
G36*
X692017Y2066901D02*
X668983D01*
X647702Y2058086D01*
X631415Y2041798D01*
X622600Y2020518D01*
Y1997483D01*
X631415Y1976203D01*
X647702Y1959915D01*
X668983Y1951100D01*
X692017D01*
X713298Y1959915D01*
X729585Y1976203D01*
X738400Y1997483D01*
Y2020518D01*
X729585Y2041798D01*
X713298Y2058086D01*
X692017Y2066901D01*
D02*
G37*
G36*
X638494Y1822700D02*
X621507D01*
X605813Y1816199D01*
X593801Y1804187D01*
X587300Y1788494D01*
Y1771506D01*
X593801Y1755813D01*
X605813Y1743801D01*
X621507Y1737300D01*
X638494D01*
X654187Y1743801D01*
X666199Y1755813D01*
X672700Y1771506D01*
Y1788494D01*
X666199Y1804187D01*
X654187Y1816199D01*
X638494Y1822700D01*
D02*
G37*
%LPD*%
D10*
X560000Y3020000D02*
X620000Y2960000D01*
X560000Y3020000D02*
Y3770000D01*
D119*
X2150000Y5920000D02*
X2230000Y6000000D01*
X2400000D01*
X1900000Y6310000D02*
X2300000Y6710000D01*
X1900000Y2400000D02*
Y6310000D01*
X3200000Y4520000D02*
X3620000D01*
X3030000D02*
X3200000D01*
X2150000Y5400000D02*
X3030000Y4520000D01*
X2700000Y1390000D02*
X2790000Y1300000D01*
X2700000Y1390000D02*
Y1807300D01*
X2822890Y1930190D01*
X620000Y2960000D02*
X810000D01*
X1023717Y2746283D01*
Y2536283D02*
Y2746283D01*
X920000Y850000D02*
X1130000Y1060000D01*
Y2430000D01*
X1023717Y2536283D02*
X1130000Y2430000D01*
X1970000Y2060000D02*
X2099810Y1930190D01*
X2822890D01*
X2992700Y2100000D01*
X3330000D01*
X1480000Y3500000D02*
X1760000Y3780000D01*
Y6430000D01*
X1670000Y6520000D02*
X1760000Y6430000D01*
X770000Y6520000D02*
X1670000D01*
X190000D02*
X770000D01*
X4310000Y810000D02*
Y2170000D01*
Y810000D02*
X4590000Y530000D01*
X2410000Y1090000D02*
X2412706D01*
X2422706Y1080000D01*
X2630000D01*
X2730000Y1180000D01*
X2980000D01*
X3607294Y830000D02*
X3610000D01*
X3597294Y820000D02*
X3607294Y830000D01*
X3392700Y820000D02*
X3597294D01*
X3260000Y1180000D02*
X3610000Y830000D01*
X2980000Y1180000D02*
X3260000D01*
X3268700Y690000D02*
X3392700Y566000D01*
X2440000Y690000D02*
X3268700D01*
X2320000Y570000D02*
X2440000Y690000D01*
X1480000Y570000D02*
X2320000D01*
X1400000Y650000D02*
X1480000Y570000D01*
X1400000Y650000D02*
Y1900000D01*
X1900000Y2400000D01*
X2142700Y3270000D02*
X2380000D01*
X9310000Y1540000D02*
Y1720000D01*
X2920000Y2730000D02*
X3770000D01*
X4020000Y2980000D01*
X2380000Y3270000D02*
X2920000Y2730000D01*
X4020000Y2980000D02*
X4390000D01*
X8690000Y5290000D02*
X8740000Y5340000D01*
X8690000Y4220000D02*
Y5290000D01*
X7208087Y4858087D02*
X7210000Y4860000D01*
X7168087Y4858087D02*
X7208087D01*
X6820000Y4510000D02*
X7168087Y4858087D01*
X7210000Y4860000D02*
X7900000D01*
X8100000Y4660000D01*
X8540000Y4220000D02*
X8690000D01*
X8100000Y4660000D02*
X8540000Y4220000D01*
X8330000Y3600000D02*
X8690000Y3960000D01*
Y4220000D01*
X8330000Y3600000D02*
X8690000Y3240000D01*
X7980000Y3600000D02*
X8330000D01*
X8320000Y2880000D02*
X8321913Y2881913D01*
X8331913D01*
X8690000Y3240000D01*
X7810000Y3430000D02*
X7980000Y3600000D01*
X6940000Y3430000D02*
X7810000D01*
X7010000Y2730000D02*
X7160000D01*
X6900000Y2840000D02*
X7010000Y2730000D01*
X6900000Y2840000D02*
X6940000Y2880000D01*
Y3430000D01*
X4780000Y2980000D02*
X4880000Y2880000D01*
X4390000Y2980000D02*
X4780000D01*
X4310000Y2170000D02*
X4390000Y2250000D01*
Y2980000D01*
X4812706Y320000D02*
X6990000D01*
X4792706Y340000D02*
X4812706Y320000D01*
X4790000Y340000D02*
X4792706D01*
X4788087Y341913D02*
X4790000Y340000D01*
X4778087Y341913D02*
X4788087D01*
X4590000Y530000D02*
X4778087Y341913D01*
X6990000Y320000D02*
X6991913Y321913D01*
X7001913D01*
X7270000Y590000D01*
X8030000D02*
X8320000Y300000D01*
X7270000Y590000D02*
X8030000D01*
X8320000Y300000D02*
X8630000D01*
X9660000Y1330000D01*
X9310000Y1720000D02*
X9450000Y1860000D01*
X9560000D01*
Y4640000D01*
X9660000Y1330000D02*
Y1385742D01*
X9560000Y1485742D02*
X9660000Y1385742D01*
X9560000Y1485742D02*
Y1860000D01*
Y4640000D02*
Y5180000D01*
X9400000Y5340000D02*
X9560000Y5180000D01*
X9060000Y5340000D02*
X9400000D01*
X8740000D02*
X9060000D01*
X8470000Y5610000D02*
X8740000Y5340000D01*
X8470000Y5610000D02*
Y5910000D01*
Y6100000D01*
X8310000Y6260000D02*
X8470000Y6100000D01*
X7620000Y6260000D02*
X8310000D01*
X6300000Y8260000D02*
X7230000D01*
X5170000Y7130000D02*
X6300000Y8260000D01*
X5170000Y6850000D02*
Y7130000D01*
Y6850000D02*
X5660000D01*
X6320000Y6190000D01*
X4350000Y6850000D02*
X5170000D01*
X2150000Y5400000D02*
Y5920000D01*
X3620000Y4520000D02*
X4010000D01*
X4100000Y4610000D01*
Y5430000D01*
Y6020000D01*
D121*
X5730000Y1450000D02*
X5930000Y1650000D01*
Y1860000D01*
D122*
X3491485Y5060000D02*
X3655742Y4895742D01*
X2650000Y5060000D02*
X3491485D01*
X3655742Y4895742D02*
X3800000Y5040000D01*
X2300000Y5410000D02*
X2650000Y5060000D01*
X3655742Y4804258D02*
Y4895742D01*
X3800000Y5040000D02*
Y6320000D01*
X2300000Y5410000D02*
Y5800000D01*
X310000Y4740000D02*
X700000Y4350000D01*
X310000Y4740000D02*
Y5740000D01*
X620000Y6050000D01*
X1260000D01*
X3480000Y3010000D02*
Y3640000D01*
Y4090000D01*
X3210000Y4360000D02*
X3480000Y4090000D01*
X3550000Y6620000D02*
X3590000Y6580000D01*
X3550000Y6620000D02*
Y7190000D01*
X3700000D01*
X3400000D02*
X3550000D01*
X3655742Y4804258D02*
X3840000Y4620000D01*
X3800000Y6320000D02*
Y6500000D01*
X3720000Y6580000D02*
X3800000Y6500000D01*
X3590000Y6580000D02*
X3720000D01*
D123*
X240000Y6350000D02*
X1170000D01*
X1460000Y6060000D01*
Y5990000D02*
Y6060000D01*
X1380000Y5910000D02*
X1460000Y5990000D01*
X700000Y5910000D02*
X1380000D01*
X410000Y5620000D02*
X700000Y5910000D01*
X410000Y4810000D02*
Y5620000D01*
Y4810000D02*
X1140000Y4080000D01*
X340000Y3770000D02*
X470000Y3900000D01*
X630000D01*
X740000Y3790000D01*
X884132D01*
X974132Y3880000D01*
X990000D01*
X796000Y3326000D02*
X1230000Y3760000D01*
Y3990000D01*
X796000Y3174000D02*
Y3326000D01*
X1140000Y4080000D02*
X1230000Y3990000D01*
X1000000Y3080000D02*
X1260000Y2820000D01*
Y890000D02*
Y2820000D01*
X1180000Y810000D02*
X1260000Y890000D01*
X1580000Y130000D02*
X2110000D01*
X2260000Y280000D01*
Y480000D01*
D124*
X760000Y3940000D02*
Y4290000D01*
X700000Y4350000D02*
X760000Y4290000D01*
D131*
X1740000Y9380000D02*
D03*
X1410000Y8965000D02*
D03*
X1740000D02*
D03*
X1410000Y9380000D02*
D03*
D132*
X7065000Y4389815D02*
D03*
X9200000Y3729999D02*
D03*
Y3479999D02*
D03*
Y3979999D02*
D03*
X7380000Y3594429D02*
D03*
X7580000Y3635206D02*
D03*
X8005571Y4020000D02*
D03*
X7964794Y4220000D02*
D03*
X7380000Y4604794D02*
D03*
X7580000Y4645571D02*
D03*
X6995206Y4020000D02*
D03*
X6954429Y4220000D02*
D03*
D133*
X4892000Y5900000D02*
D03*
X5146000D02*
D03*
X5400000Y5900000D02*
D03*
X5654000Y5900000D02*
D03*
X5908000Y5900000D02*
D03*
D134*
X3392700Y311999D02*
D03*
X400000Y7000000D02*
D03*
X3392700Y566000D02*
D03*
X220000Y9080000D02*
D03*
X1480000Y3500000D02*
D03*
X1820000Y780000D02*
D03*
X1000000Y3080000D02*
D03*
X240000Y2580000D02*
D03*
X3532700Y1440000D02*
D03*
Y1186000D02*
D03*
X2572701Y566000D02*
D03*
X2572700Y820000D02*
D03*
X990000Y3880000D02*
D03*
X1500000Y6280000D02*
D03*
D135*
X9710710Y9569289D02*
D03*
X9569289Y289289D02*
D03*
X289289Y430711D02*
D03*
X430711Y9710710D02*
D03*
D136*
X9569290Y9710711D02*
D03*
X430711Y289289D02*
D03*
D137*
X9710711Y430711D02*
D03*
X289289Y9569290D02*
D03*
D138*
X8201000Y9289500D02*
D03*
X8778999Y9289500D02*
D03*
X680500Y2009001D02*
D03*
Y1431000D02*
D03*
Y5011000D02*
D03*
Y5589000D02*
D03*
D139*
X6162000Y5900000D02*
D03*
D140*
X1895000Y8765000D02*
D03*
D141*
X7580000Y4420000D02*
D03*
D142*
X8920000Y2030000D02*
D03*
Y1330000D02*
D03*
X7720000Y1680000D02*
D03*
D143*
X8625000Y1380000D02*
D03*
X8015000Y1980000D02*
D03*
X6962519Y1335299D02*
D03*
X5122183Y842182D02*
D03*
X4837482Y1904701D02*
D03*
Y1335299D02*
D03*
X5615299Y557481D02*
D03*
X6677818Y842182D02*
D03*
X6184701Y557481D02*
D03*
X5122183Y2397817D02*
D03*
X6184701Y2682518D02*
D03*
X5615299D02*
D03*
X6677818Y2397817D02*
D03*
X6962519Y1904701D02*
D03*
X5617158Y1902843D02*
D03*
D144*
X3532700Y1694000D02*
D03*
X3392700Y820000D02*
D03*
X2572701Y311999D02*
D03*
D145*
X1380000Y560000D02*
D03*
X1080000Y280000D02*
D03*
X7660000Y8740000D02*
D03*
X3040000Y4820000D02*
D03*
X2808246Y2104855D02*
D03*
X2720000Y9080000D02*
D03*
X980000Y8900000D02*
D03*
X9700000Y9200000D02*
D03*
Y8200000D02*
D03*
Y7200000D02*
D03*
Y6200000D02*
D03*
Y5200000D02*
D03*
Y4200000D02*
D03*
Y3200000D02*
D03*
Y1200000D02*
D03*
Y200000D02*
D03*
X9200000Y9200000D02*
D03*
X9450000Y8700000D02*
D03*
X9200000Y8200000D02*
D03*
X9450000Y7700000D02*
D03*
X9200000Y7200000D02*
D03*
X9450000Y6700000D02*
D03*
X9200000Y6200000D02*
D03*
Y4200000D02*
D03*
Y3200000D02*
D03*
Y1200000D02*
D03*
X9450000Y700000D02*
D03*
X9200000Y200000D02*
D03*
X8950000Y8700000D02*
D03*
Y7700000D02*
D03*
X8700000Y7200000D02*
D03*
X8950000Y6700000D02*
D03*
X8700000Y6200000D02*
D03*
X8950000Y5700000D02*
D03*
Y4700000D02*
D03*
Y3700000D02*
D03*
Y2700000D02*
D03*
X8700000Y200000D02*
D03*
X8450000Y9700000D02*
D03*
Y7700000D02*
D03*
X8200000Y7200000D02*
D03*
X8450000Y6700000D02*
D03*
X8200000Y4200000D02*
D03*
Y3200000D02*
D03*
X8450000Y2700000D02*
D03*
X8200000Y1200000D02*
D03*
X8450000Y700000D02*
D03*
X7700000Y9200000D02*
D03*
X7950000Y7700000D02*
D03*
X7700000Y7200000D02*
D03*
X7950000Y6700000D02*
D03*
Y3700000D02*
D03*
X7700000Y3200000D02*
D03*
X7950000Y1700000D02*
D03*
X7700000Y1200000D02*
D03*
Y200000D02*
D03*
X7450000Y9700000D02*
D03*
X7200000Y9200000D02*
D03*
Y7200000D02*
D03*
X7450000Y6700000D02*
D03*
X7200000Y6200000D02*
D03*
X7450000Y5700000D02*
D03*
X7200000Y5200000D02*
D03*
X7450000Y4700000D02*
D03*
X7200000Y3200000D02*
D03*
X7450000Y2700000D02*
D03*
X7200000Y2200000D02*
D03*
Y1200000D02*
D03*
X7450000Y700000D02*
D03*
X7200000Y200000D02*
D03*
X6950000Y9700000D02*
D03*
Y8700000D02*
D03*
Y7700000D02*
D03*
X6700000Y7200000D02*
D03*
X6950000Y6700000D02*
D03*
Y5700000D02*
D03*
X6700000Y3200000D02*
D03*
Y2200000D02*
D03*
Y1200000D02*
D03*
X6950000Y700000D02*
D03*
X6450000Y9700000D02*
D03*
Y7700000D02*
D03*
X6200000Y7200000D02*
D03*
Y6200000D02*
D03*
X6450000Y3700000D02*
D03*
X6200000Y3200000D02*
D03*
X6450000Y2700000D02*
D03*
X6200000Y2200000D02*
D03*
Y1200000D02*
D03*
X6450000Y700000D02*
D03*
X6200000Y200000D02*
D03*
X5950000Y9700000D02*
D03*
X5700000Y8200000D02*
D03*
X5950000Y7700000D02*
D03*
Y6700000D02*
D03*
X5700000Y6200000D02*
D03*
X5950000Y3700000D02*
D03*
X5700000Y2200000D02*
D03*
Y1200000D02*
D03*
X5950000Y700000D02*
D03*
X5700000Y200000D02*
D03*
X5450000Y9700000D02*
D03*
X5200000Y8200000D02*
D03*
X5450000Y7700000D02*
D03*
Y6700000D02*
D03*
X5200000Y6200000D02*
D03*
Y5200000D02*
D03*
X5450000Y3700000D02*
D03*
X5200000Y3200000D02*
D03*
X5450000Y2700000D02*
D03*
X5200000Y1200000D02*
D03*
X5450000Y700000D02*
D03*
X5200000Y200000D02*
D03*
X4950000Y9700000D02*
D03*
Y8700000D02*
D03*
X4700000Y8200000D02*
D03*
X4950000Y7700000D02*
D03*
X4700000Y7200000D02*
D03*
X4950000Y6700000D02*
D03*
Y5700000D02*
D03*
X4700000Y5200000D02*
D03*
Y4200000D02*
D03*
X4950000Y2700000D02*
D03*
Y700000D02*
D03*
X4700000Y200000D02*
D03*
X4450000Y9700000D02*
D03*
X4200000Y8200000D02*
D03*
X4450000Y7700000D02*
D03*
X4200000Y7200000D02*
D03*
Y4200000D02*
D03*
Y200000D02*
D03*
X3950000Y9700000D02*
D03*
Y8700000D02*
D03*
X3700000Y8200000D02*
D03*
X3950000Y7700000D02*
D03*
X3700000Y4200000D02*
D03*
X3950000Y3700000D02*
D03*
X3700000Y3200000D02*
D03*
X3950000Y2700000D02*
D03*
X3700000Y2200000D02*
D03*
X3950000Y1700000D02*
D03*
X3700000Y1200000D02*
D03*
X3950000Y700000D02*
D03*
X3700000Y200000D02*
D03*
X3450000Y9700000D02*
D03*
X3200000Y8200000D02*
D03*
X3450000Y7700000D02*
D03*
Y4700000D02*
D03*
X3200000Y4200000D02*
D03*
Y200000D02*
D03*
X2950000Y7700000D02*
D03*
Y6700000D02*
D03*
X2700000Y200000D02*
D03*
X2450000Y9700000D02*
D03*
Y7700000D02*
D03*
Y6700000D02*
D03*
X2200000Y6200000D02*
D03*
Y5200000D02*
D03*
X2450000Y4700000D02*
D03*
X2200000Y4200000D02*
D03*
Y3200000D02*
D03*
X2450000Y2700000D02*
D03*
X1950000Y9700000D02*
D03*
Y700000D02*
D03*
X1700000Y200000D02*
D03*
X1450000Y9700000D02*
D03*
X1200000Y9200000D02*
D03*
X1450000Y8700000D02*
D03*
Y7700000D02*
D03*
Y6700000D02*
D03*
X1200000Y6200000D02*
D03*
Y4200000D02*
D03*
X1450000Y3700000D02*
D03*
X1200000Y3200000D02*
D03*
X1450000Y2700000D02*
D03*
X950000Y9700000D02*
D03*
Y6700000D02*
D03*
Y4700000D02*
D03*
Y2700000D02*
D03*
X700000Y200000D02*
D03*
X200000Y7200000D02*
D03*
Y5200000D02*
D03*
Y4200000D02*
D03*
X450000Y3700000D02*
D03*
X200000Y3200000D02*
D03*
X450000Y2700000D02*
D03*
Y700000D02*
D03*
X200000Y200000D02*
D03*
X2000000Y9800000D02*
D03*
X3200000Y1550000D02*
D03*
X4390000Y1570000D02*
D03*
X5730000Y1450000D02*
D03*
X5930000Y1860000D02*
D03*
X5580000Y3240000D02*
D03*
X2550000Y9540000D02*
D03*
X280000Y8660000D02*
D03*
X1070000Y7550000D02*
D03*
X2230000Y7370000D02*
D03*
X2650000Y5060000D02*
D03*
X2400000Y6000000D02*
D03*
X2420000Y6100000D02*
D03*
X2300000Y5800000D02*
D03*
Y6710000D02*
D03*
X2200000Y6500000D02*
D03*
X2980000Y1730000D02*
D03*
X2790000Y1300000D02*
D03*
X610000Y1540000D02*
D03*
X590000Y1670000D02*
D03*
X550000Y1940000D02*
D03*
X1000000Y2070000D02*
D03*
X920000Y1970000D02*
D03*
Y850000D02*
D03*
X1023717Y2536283D02*
D03*
X630000Y1780000D02*
D03*
X950000Y1683651D02*
D03*
Y1756351D02*
D03*
X2190000Y3030000D02*
D03*
X2400000Y2880000D02*
D03*
X1970000Y2060000D02*
D03*
X2950000Y9500000D02*
D03*
X2770000Y9660000D02*
D03*
Y8490000D02*
D03*
X2950000Y8700000D02*
D03*
X3000000Y9050000D02*
D03*
Y8850000D02*
D03*
Y9300000D02*
D03*
X2880000Y8850000D02*
D03*
Y9300000D02*
D03*
X1350000Y5050000D02*
D03*
X2800000Y4340000D02*
D03*
X1450000Y5100000D02*
D03*
X480000Y6080000D02*
D03*
X320000Y6020000D02*
D03*
X985000Y5125000D02*
D03*
X935000Y5425000D02*
D03*
X560000Y6640000D02*
D03*
X400000D02*
D03*
X240000Y6350000D02*
D03*
X560000Y5310000D02*
D03*
X340000Y3770000D02*
D03*
X760000Y3940000D02*
D03*
X796000Y3174000D02*
D03*
X1140000Y4080000D02*
D03*
X3330000Y2100000D02*
D03*
X2822890Y1930190D02*
D03*
X1980000Y6650000D02*
D03*
X2910000Y3060000D02*
D03*
X770000Y6520000D02*
D03*
X190000D02*
D03*
X970000Y1540000D02*
D03*
X930000Y1850000D02*
D03*
X640000Y480000D02*
D03*
X530000Y620000D02*
D03*
X1180000Y810000D02*
D03*
X7740000Y8660000D02*
D03*
X4380000Y3170000D02*
D03*
X4210000Y1710000D02*
D03*
X4230000Y3290000D02*
D03*
X4120000Y1470000D02*
D03*
X3390000Y3980000D02*
D03*
X4040000Y1720000D02*
D03*
X2510000Y1700000D02*
D03*
X2580000Y1770000D02*
D03*
X3610000Y830000D02*
D03*
X2260000Y480000D02*
D03*
X1900000Y2400000D02*
D03*
X2142700Y3270000D02*
D03*
X2880000Y4180000D02*
D03*
X3120000D02*
D03*
X3000000D02*
D03*
X9310000Y1540000D02*
D03*
X2590000Y2120000D02*
D03*
X2570000Y2020000D02*
D03*
X2510000Y2080000D02*
D03*
X2810000Y1560000D02*
D03*
X2440000Y1650000D02*
D03*
X2390000Y1590000D02*
D03*
X2570000Y1400000D02*
D03*
X2410000Y9550000D02*
D03*
X2420000Y8800000D02*
D03*
X2300000Y9080000D02*
D03*
X2180000Y9520000D02*
D03*
X5450000Y3250000D02*
D03*
X5300000Y3240000D02*
D03*
X8320000Y2880000D02*
D03*
X8320000Y300000D02*
D03*
X7270000Y590000D02*
D03*
X6990000Y320000D02*
D03*
X4790000Y340000D02*
D03*
X4590000Y530000D02*
D03*
X4310000Y2170000D02*
D03*
X4390000Y2980000D02*
D03*
X4880000Y2880000D02*
D03*
X7160000Y2730000D02*
D03*
X6900000Y2840000D02*
D03*
X6940000Y3430000D02*
D03*
X6820000Y4510000D02*
D03*
X7210000Y4860000D02*
D03*
X8100000Y4660000D02*
D03*
X7980000Y3600000D02*
D03*
X8690000Y3240000D02*
D03*
Y4220000D02*
D03*
X1260000Y6050000D02*
D03*
X8120000Y730000D02*
D03*
X9250000Y1950000D02*
D03*
X5630000Y4320000D02*
D03*
X5230000Y4420000D02*
D03*
X4860000Y4770000D02*
D03*
X4960000Y4710000D02*
D03*
X620000Y2960000D02*
D03*
X560000Y3770000D02*
D03*
X700000Y4350000D02*
D03*
X3480000Y3010000D02*
D03*
Y3640000D02*
D03*
X7230000Y8260000D02*
D03*
X6320000Y6190000D02*
D03*
X4350000Y6850000D02*
D03*
X3210000Y4360000D02*
D03*
X2768602Y4498765D02*
D03*
Y4578765D02*
D03*
X2970000Y4720000D02*
D03*
X2150000Y5400000D02*
D03*
X3200000Y4520000D02*
D03*
X3620000D02*
D03*
X4100000Y5430000D02*
D03*
Y6020000D02*
D03*
X4520000Y7120000D02*
D03*
X3840000Y4620000D02*
D03*
X3800000Y6320000D02*
D03*
X3590000Y6580000D02*
D03*
X3700000Y7190000D02*
D03*
X3550000D02*
D03*
X3400000D02*
D03*
X1580000Y130000D02*
D03*
Y720000D02*
D03*
X9060000Y5340000D02*
D03*
X8470000Y5910000D02*
D03*
X8510000Y6320000D02*
D03*
X8370000Y5580000D02*
D03*
X9900000Y6110000D02*
D03*
X9050000Y5000000D02*
D03*
X7900000Y5300000D02*
D03*
X8200000D02*
D03*
X7620000Y6260000D02*
D03*
X9560000Y4640000D02*
D03*
X9660000Y4840000D02*
D03*
Y4980000D02*
D03*
X9560000Y5180000D02*
D03*
X9660000Y1330000D02*
D03*
X9770000Y1540000D02*
D03*
X9520000Y1430000D02*
D03*
X2630000Y1080000D02*
D03*
X2410000Y1090000D02*
D03*
X2980000Y1180000D02*
D03*
X3170000Y1900000D02*
D03*
X3010000D02*
D03*
X1940000Y7970000D02*
D03*
X220000Y7740000D02*
D03*
X400000Y7850000D02*
D03*
X200000Y7960000D02*
D03*
X410000Y8080000D02*
D03*
X290000Y8290000D02*
D03*
X440000Y8500000D02*
D03*
X200000Y8160000D02*
D03*
X670000Y8460000D02*
D03*
X1120000Y5670000D02*
D03*
X940000Y5570000D02*
D03*
X970000Y4870000D02*
D03*
X930000Y5040000D02*
D03*
X560000Y5470000D02*
D03*
Y5150000D02*
D03*
X680000Y8010000D02*
D03*
X420000Y9140000D02*
D03*
X550000Y8940000D02*
D03*
X460000D02*
D03*
X760000Y9140000D02*
D03*
X580000D02*
D03*
X660000Y9040000D02*
D03*
X500000D02*
D03*
X340000D02*
D03*
X660000Y8880000D02*
D03*
X740000Y8860000D02*
D03*
X3020000Y9180000D02*
D03*
X2600000Y9080000D02*
D03*
X3160000Y8660000D02*
D03*
X2600000Y8600000D02*
D03*
X7700000Y8260000D02*
D03*
X7640000Y8500000D02*
D03*
X8640000Y9380000D02*
D03*
X8480000D02*
D03*
X8320000D02*
D03*
X7920000Y9040000D02*
D03*
X7720000D02*
D03*
X7560000D02*
D03*
X3570000Y5470000D02*
D03*
Y5570000D02*
D03*
Y5669999D02*
D03*
X3570000Y5770000D02*
D03*
X3570000Y5870000D02*
D03*
X3469999Y5770000D02*
D03*
X3469999Y5669999D02*
D03*
Y5870000D02*
D03*
X3670000Y5870000D02*
D03*
Y5770000D02*
D03*
X3670001Y5670000D02*
D03*
X3670000Y5570000D02*
D03*
X3669999Y5470000D02*
D03*
X3670000Y5370000D02*
D03*
X3670000Y5270000D02*
D03*
X3670000Y5170000D02*
D03*
X3570000Y5270000D02*
D03*
X3570000Y5370000D02*
D03*
X3569999Y5170000D02*
D03*
X3369999Y5470000D02*
D03*
X3370000Y5570000D02*
D03*
X3369999Y5669999D02*
D03*
Y5770000D02*
D03*
Y5870000D02*
D03*
X3270000Y5770000D02*
D03*
X3269999Y5670000D02*
D03*
X3270000Y5870000D02*
D03*
X3470000Y5570000D02*
D03*
X3470000Y5470000D02*
D03*
X3469999Y5370000D02*
D03*
X3470000Y5269999D02*
D03*
Y5170000D02*
D03*
X3369999Y5270000D02*
D03*
X3369999Y5370000D02*
D03*
X3369999Y5169999D02*
D03*
X3170000Y5469999D02*
D03*
X3169999Y5570000D02*
D03*
X3170000Y5670000D02*
D03*
X3170000Y5770000D02*
D03*
Y5870000D02*
D03*
X3070000Y5770000D02*
D03*
X3070000Y5669999D02*
D03*
X3070000Y5870000D02*
D03*
X3270000Y5570000D02*
D03*
X3270000Y5470000D02*
D03*
Y5370000D02*
D03*
Y5270000D02*
D03*
X3270000Y5170000D02*
D03*
X3170000Y5270000D02*
D03*
X3170000Y5370000D02*
D03*
X3170000Y5170000D02*
D03*
X2970000Y5369999D02*
D03*
X2970000Y5470000D02*
D03*
X2969999Y5569999D02*
D03*
Y5670000D02*
D03*
X2970000Y5770000D02*
D03*
X2969999Y5869999D02*
D03*
X3069999Y5570000D02*
D03*
X3070000Y5469999D02*
D03*
X3069999Y5369999D02*
D03*
X3070000Y5270000D02*
D03*
Y5170000D02*
D03*
X2970000Y5270000D02*
D03*
X2970000Y5170000D02*
D03*
X1832700Y1640000D02*
D03*
X1882700Y1715001D02*
D03*
X1782700Y1715001D02*
D03*
X1782701Y1565000D02*
D03*
X1882700Y1565000D02*
D03*
X5920000Y4400000D02*
D03*
X5540000Y4100000D02*
D03*
X3600000Y3240000D02*
D03*
Y3420000D02*
D03*
X3420000Y6260000D02*
D03*
X2972700Y1580000D02*
D03*
X2900000D02*
D03*
X2120000Y1651351D02*
D03*
Y1578651D02*
D03*
X3520000Y6260000D02*
D03*
%TF.MD5,dc080c8307352666c1ee8b594f3cf741*%
M02*
