%TF.GenerationSoftware,Altium Limited,Altium Designer,26.2.0 (7)*%
G04 Layer_Color=32768*
%FSLAX45Y45*%
%MOMM*%
%TF.SameCoordinates,7E3C43A8-A274-4656-BCAB-ED4188872703*%
%TF.FilePolarity,Positive*%
%TF.FileFunction,Other,Top_Courtyard*%
%TF.Part,Single*%
G01*
G75*
%TA.AperFunction,NonConductor*%
%ADD151C,0.20000*%
%ADD213C,0.05000*%
D151*
X364500Y9080000D02*
G03*
X75500Y9080000I-144500J0D01*
G01*
D02*
G03*
X364500Y9080000I144500J0D01*
G01*
X1964500Y780000D02*
G03*
X1675500Y780000I-144500J0D01*
G01*
D02*
G03*
X1964500Y780000I144500J0D01*
G01*
X384500Y2580000D02*
G03*
X95500Y2580000I-144500J0D01*
G01*
D02*
G03*
X384500Y2580000I144500J0D01*
G01*
X845500Y3880000D02*
G03*
X1134500Y3880000I144500J0D01*
G01*
D02*
G03*
X845500Y3880000I-144500J0D01*
G01*
X255500Y7000000D02*
G03*
X544500Y7000000I144500J0D01*
G01*
D02*
G03*
X255500Y7000000I-144500J0D01*
G01*
X1335500Y3500000D02*
G03*
X1624500Y3500000I144500J0D01*
G01*
D02*
G03*
X1335500Y3500000I-144500J0D01*
G01*
X855500Y3080000D02*
G03*
X1144500Y3080000I144500J0D01*
G01*
D02*
G03*
X855500Y3080000I-144500J0D01*
G01*
X1355500Y6280000D02*
G03*
X1644500Y6280000I144500J0D01*
G01*
D02*
G03*
X1355500Y6280000I-144500J0D01*
G01*
X1562499Y5565000D02*
X1562500Y5805000D01*
X1677500D01*
X1677501Y5565000D01*
X1562499Y5565000D02*
X1677501Y5565000D01*
X1252500Y7714999D02*
Y8105000D01*
X897500Y7714999D02*
X1252500Y7714999D01*
X897500Y7714999D02*
Y8105000D01*
X1252500D01*
X2652500Y3725501D02*
X3367500Y3725500D01*
X3367500Y3175500D01*
X2652500D02*
X3367500D01*
X2652500Y3725501D02*
X2652500Y3175500D01*
X2702500Y6365618D02*
Y6517201D01*
X2777500D01*
Y6365618D02*
Y6517201D01*
X2702500Y6365618D02*
X2777500D01*
X9119999Y9942500D02*
X9120001Y9114500D01*
X7859999Y9942500D02*
X9119999Y9942500D01*
X7859999Y9942500D02*
X7860000Y9114500D01*
X9120001Y9114500D01*
X7315000Y9282500D02*
X7555000Y9282501D01*
X7315000Y9282500D02*
X7315000Y9397501D01*
X7555000Y9397501D01*
X7555000Y9282501D01*
X7260000Y8409642D02*
X7650000Y8409642D01*
X7650000Y8920262D01*
X7259999Y8920262D02*
X7650000Y8920262D01*
X7259999Y8920262D02*
X7260000Y8409642D01*
X7860000Y7830000D02*
X9019999D01*
X7860000D02*
X7860000Y8730000D01*
X9019999D01*
X9019999Y7830000D02*
X9019999Y8730000D01*
X8459999Y8985000D02*
X8639999D01*
X8639999Y8895000D02*
X8639999Y8985000D01*
X8459999Y8895000D02*
X8639999Y8895000D01*
X8459999Y8895000D02*
Y8985000D01*
X8239999Y8895000D02*
X8420000D01*
X8239999D02*
X8240000Y8985000D01*
X8420000Y8985000D01*
X8420000Y8895000D02*
X8420000Y8985000D01*
X4142499Y3565001D02*
X4442501Y3565000D01*
X4442499Y3945000D02*
X4442501Y3565000D01*
X4142500Y3945000D02*
X4442499Y3945000D01*
X4142499Y3565001D02*
X4142500Y3945000D01*
X6271936Y4356376D02*
Y4443623D01*
Y4356376D02*
X6449185D01*
X6449185Y4443623D02*
X6449185Y4356376D01*
X6271936Y4443623D02*
X6449185D01*
X4312501Y4262500D02*
X4647500Y4262500D01*
X4647499Y4792500D02*
X4647500Y4262500D01*
X4312499Y4792500D02*
X4647499Y4792500D01*
X4312499Y4792500D02*
X4312501Y4262500D01*
X6139500Y5615001D02*
X6500500Y5615000D01*
X6139500Y5025000D02*
X6139500Y5615001D01*
X6139500Y5025000D02*
X6500500Y5025000D01*
X6500500Y5615000D01*
X4845000Y4655000D02*
X6155000D01*
X4845000Y3345001D02*
X4845000Y4655000D01*
X4845000Y3345001D02*
X6155001Y3344999D01*
X6155000Y4655000D02*
X6155001Y3344999D01*
X6240000Y4879999D02*
X6400000Y4880000D01*
X6240000Y4879999D02*
X6240000Y4560001D01*
X6399999Y4559999D01*
X6400000Y4880000D01*
X357500Y4215000D02*
X357500Y3975000D01*
X242500D02*
X357500D01*
X242499Y4215000D02*
X242500Y3975000D01*
X242499Y4215000D02*
X357500Y4215000D01*
X1356375Y7909183D02*
X1356377Y7731936D01*
X1356375Y7909183D02*
X1443623Y7909184D01*
X1443624Y7731936D01*
X1356377D02*
X1443624D01*
X102500Y8772499D02*
X277500Y8772500D01*
X102500Y8772499D02*
X102501Y8867501D01*
X277501Y8867500D01*
X277500Y8772500D02*
X277501Y8867500D01*
X7786967Y3463536D02*
X7907175Y3583744D01*
X7963744Y3527175D01*
X7843535Y3406967D02*
X7963744Y3527175D01*
X7786967Y3463536D02*
X7843535Y3406967D01*
X8056108Y3614415D02*
X8181441Y3739748D01*
X7994415Y3676108D02*
X8056108Y3614415D01*
X7994415Y3676108D02*
X8119748Y3801442D01*
X8181441Y3739748D01*
X6919464Y3716372D02*
X7069076Y3566760D01*
X6993240Y3490924D02*
X7069076Y3566760D01*
X6843628Y3640536D02*
X6993240Y3490924D01*
X6843628Y3640536D02*
X6919464Y3716372D01*
X7284999Y4782500D02*
X7675000Y4782499D01*
X7284999Y4782500D02*
X7284999Y5137500D01*
X7675000Y5137500D01*
X7675000Y4782499D02*
X7675000Y5137500D01*
X6924645Y4508809D02*
X7071191Y4655355D01*
X6848810Y4584645D02*
X6924645Y4508809D01*
X6848810Y4584645D02*
X6995356Y4731191D01*
X7071191Y4655355D01*
X1130000Y570000D02*
X1130001Y350000D01*
X1130000Y570000D02*
X1350001D01*
X1350000Y350000D02*
X1350001Y570000D01*
X1130001Y350000D02*
X1350000D01*
X1724690Y575001D02*
X2235311Y575000D01*
Y185000D02*
Y575000D01*
X1724690Y185000D02*
X2235311D01*
X1724690D02*
Y575001D01*
X8197500Y145000D02*
Y535000D01*
X7842500Y145000D02*
X8197500D01*
X7842500D02*
Y535000D01*
X8197500D01*
X7905000Y2800000D02*
X8075000D01*
Y2720000D02*
Y2800000D01*
X7905000Y2720000D02*
X8075000D01*
X7905000D02*
Y2800000D01*
X8566020Y2706376D02*
X8773267D01*
X8566020D02*
Y2813624D01*
X8773267D01*
X8773267Y2706376D02*
X8773267Y2813624D01*
X8266376Y2602799D02*
Y2814382D01*
X8373624D01*
Y2602799D02*
Y2814382D01*
X8266376Y2602799D02*
X8373624D01*
X8586020Y576377D02*
X8763267Y576376D01*
X8586020Y576377D02*
Y663624D01*
X8763267Y663624D01*
Y576376D02*
Y663624D01*
X4342500Y1935000D02*
Y2105000D01*
X4417500D01*
Y1935000D02*
Y2105000D01*
X4342500Y1935000D02*
X4417500D01*
X7062500Y2506376D02*
Y2653624D01*
X7137500D01*
Y2506376D02*
Y2653624D01*
X7062500Y2506376D02*
X7137500D01*
X4307500Y2515000D02*
Y2905000D01*
X4662500D01*
X4662500Y2515000D01*
X4307500D02*
X4662500D01*
X6926255Y557500D02*
X7096255D01*
X7096255Y482500D01*
X6926255D02*
X7096255D01*
X6926255D02*
Y557500D01*
X6675000Y2977500D02*
X6845000D01*
Y2902500D02*
Y2977500D01*
X6675000Y2902500D02*
X6845000D01*
X6675000D02*
Y2977500D01*
X3676200Y1849999D02*
X3676200Y1030000D01*
X3389200Y1030000D02*
X3676200Y1030000D01*
X3389200Y1850000D02*
X3389200Y1030000D01*
X3389200Y1850000D02*
X3676200Y1849999D01*
X2580200Y1415000D02*
Y1945000D01*
X2245200Y1415000D02*
X2580200Y1415000D01*
X2245200Y1415000D02*
X2245200Y1945000D01*
X2580200Y1945000D01*
X2487699Y2612500D02*
X2877701D01*
Y2257501D02*
Y2612500D01*
X2487699Y2257500D02*
X2877701Y2257501D01*
X2487699Y2612500D02*
X2487699Y2257500D01*
X2951936Y2443624D02*
X3129183Y2443625D01*
Y2356377D02*
Y2443625D01*
X2951936Y2356376D02*
X3129183Y2356377D01*
X2951936Y2443624D02*
X2951936Y2356376D01*
X3536200Y156000D02*
X3536200Y976000D01*
X3249200Y156000D02*
X3536200D01*
X3249200D02*
Y975999D01*
X3536200Y976000D01*
X2396323Y2210817D02*
X2396323Y2388064D01*
X2309076Y2210817D02*
X2396323D01*
X2309076D02*
X2309076Y2388064D01*
X2396323D01*
X1617700Y2520500D02*
X2207700D01*
Y2159500D02*
Y2520500D01*
X1617700Y2159500D02*
X2207700D01*
X1617700D02*
Y2520500D01*
X2689077Y1951936D02*
Y2129184D01*
X2776324Y2129184D01*
X2776324Y1951936D02*
X2776324Y2129184D01*
X2689077Y1951936D02*
X2776324D01*
X3242499Y2385000D02*
X3242500Y2625000D01*
X3357500D01*
Y2385000D02*
Y2625000D01*
X3242499Y2385000D02*
X3357500Y2385000D01*
X2429201Y156000D02*
X2429201Y976000D01*
X2716201Y976000D01*
X2716200Y156000D02*
X2716201Y976000D01*
X2429201Y156000D02*
X2716200Y156000D01*
X3807500Y4785000D02*
X3967500Y4785001D01*
X3967499Y4695001D02*
X3967500Y4785001D01*
X3807500Y4695000D02*
X3967499Y4695001D01*
X3807500Y4695000D02*
Y4785000D01*
X855500Y2350001D02*
X855500Y1090000D01*
X27500Y1090001D02*
X855500Y1090000D01*
X27500Y1090001D02*
X27501Y2350001D01*
X855500Y2350001D01*
X1145000Y1520000D02*
X1145000Y1700000D01*
X1054999Y1520000D02*
X1145000D01*
X1054999D02*
X1055000Y1700000D01*
X1145000D01*
X505000Y2537501D02*
X745000Y2537500D01*
X745000Y2422500D02*
X745000Y2537500D01*
X505000Y2422500D02*
X745000D01*
X505000D02*
Y2537501D01*
X1102190Y2590311D02*
X1102191Y2249691D01*
X1102190Y2590311D02*
X1297810D01*
X1297810Y2249691D01*
X1102191D02*
X1297810D01*
X1055000Y1740001D02*
X1055000Y1920001D01*
X1145002Y1920001D01*
X1145000Y1740001D02*
X1145002Y1920001D01*
X1055000Y1740001D02*
X1145000Y1740001D01*
X610000Y8850001D02*
X610001Y8590000D01*
X350000Y8850000D02*
X610000Y8850001D01*
X350000Y8590001D02*
X350000Y8850000D01*
X350000Y8590001D02*
X610001Y8590000D01*
X1380000Y8097501D02*
X1380000Y7982499D01*
X1620000Y7982500D01*
X1620000Y8097500D02*
X1620000Y7982500D01*
X1380000Y8097501D02*
X1620000Y8097500D01*
X968064Y8196377D02*
X968064Y8283624D01*
X790816D02*
X968064D01*
X790816Y8196377D02*
Y8283624D01*
Y8196377D02*
X968064Y8196377D01*
X2125000Y8052500D02*
X2125001Y7697499D01*
X1734999Y8052500D02*
X2125000Y8052500D01*
X1734999Y8052500D02*
X1735000Y7697500D01*
X2125001Y7697499D01*
X27501Y5930001D02*
X855500Y5930000D01*
X27500Y4670001D02*
X27501Y5930001D01*
X27500Y4670001D02*
X855500Y4669999D01*
X855500Y5930000D02*
X855500Y4669999D01*
X2225000Y8672500D02*
Y9027500D01*
Y8672500D02*
X2615000Y8672500D01*
Y9027500D01*
X2225000D02*
X2615000D01*
X842500Y3335000D02*
X957500Y3335000D01*
X957500Y3575000D02*
X957500Y3335000D01*
X842500Y3575000D02*
X957500D01*
X842500Y3335000D02*
Y3575000D01*
X882500Y7135000D02*
X997500Y7135000D01*
X882499Y6895000D02*
X882500Y7135000D01*
X882499Y6895000D02*
X997500D01*
X997500Y7135000D01*
X2685000Y9490000D02*
X2855000D01*
Y9830000D01*
X2685000D02*
X2855000D01*
X2685000Y9490000D02*
Y9830000D01*
X2225000Y9122500D02*
Y9477500D01*
Y9122500D02*
X2615000D01*
Y9477500D01*
X2225000D02*
X2615000D01*
X1605000Y3742500D02*
Y3857501D01*
Y3742500D02*
X1845000Y3742499D01*
Y3857500D01*
X1605000Y3857501D02*
X1845000Y3857500D01*
X2028064Y3456376D02*
Y3543624D01*
X1850817Y3543624D02*
X2028064Y3543624D01*
X1850816Y3456377D02*
X1850817Y3543624D01*
X1850816Y3456377D02*
X2028064Y3456376D01*
X1654999Y3352500D02*
X1655000Y2997500D01*
X2045001Y2997500D01*
X2045000Y3352500D02*
X2045001Y2997500D01*
X1654999Y3352500D02*
X2045000Y3352500D01*
X1436377Y3031936D02*
X1523624Y3031936D01*
Y3209184D01*
X1436377Y3209184D02*
X1523624Y3209184D01*
X1436377Y3031936D02*
X1436377Y3209184D01*
X2685000Y8660000D02*
X2855000D01*
X2685000Y8320000D02*
Y8660000D01*
Y8320000D02*
X2855000D01*
Y8660000D01*
X8307499Y6360000D02*
X8412501Y6360001D01*
X8307499Y6360000D02*
X8307500Y6140000D01*
X8412500Y6140001D01*
X8412501Y6360001D01*
X8307501Y6550000D02*
X8412500Y6550000D01*
Y6770001D01*
X8307500Y6770000D02*
X8412500Y6770001D01*
X8307500Y6770000D02*
X8307501Y6550000D01*
X9727500Y6150000D02*
X9832499Y6150000D01*
X9727499Y5930001D02*
X9727500Y6150000D01*
X9727499Y5930001D02*
X9832500Y5930001D01*
X9832499Y6150000D02*
X9832500Y5930001D01*
X9727500Y6360000D02*
X9832500Y6360000D01*
X9832500Y6579999D01*
X9727499Y6580000D02*
X9832500Y6579999D01*
X9727499Y6580000D02*
X9727500Y6360000D01*
X8507500Y4437500D02*
X8507500Y5122501D01*
X8507500Y4437500D02*
X9412500D01*
X9412500Y5122500D02*
X9412500Y4437500D01*
X8507500Y5122501D02*
X9412500Y5122500D01*
X9557500Y1652500D02*
X9762500D01*
Y1907500D01*
X9557500D02*
X9762500D01*
X9557500Y1652500D02*
Y1907500D01*
X2870001Y4465000D02*
X3130000Y4465000D01*
X2870000Y4255001D02*
X2870001Y4465000D01*
X2870000Y4255001D02*
X3130001Y4254999D01*
X3130000Y4465000D02*
X3130001Y4254999D01*
X2695000Y7332501D02*
X2695000Y6977500D01*
X3085000Y6977501D01*
X3085001Y7332501D01*
X2695000Y7332501D02*
X3085001Y7332501D01*
X4029738Y7079999D02*
Y7390001D01*
Y7079999D02*
X4380358Y7080000D01*
X4380358Y7390000D01*
X4029738Y7390001D02*
X4380358Y7390000D01*
X3216376Y7188064D02*
X3303623D01*
X3216376Y7010816D02*
X3216376Y7188064D01*
X3216376Y7010816D02*
X3303623D01*
Y7188064D01*
X2466376Y7298064D02*
X2553623D01*
X2466376Y7120816D02*
X2466376Y7298064D01*
X2466376Y7120816D02*
X2553623D01*
Y7298064D01*
X4471936Y7196376D02*
Y7283624D01*
Y7196376D02*
X4649183D01*
Y7283624D01*
X4471936D02*
X4649183D01*
X3816376Y7188064D02*
X3903624D01*
X3816376Y7010816D02*
X3816376Y7188064D01*
X3816376Y7010816D02*
X3903623D01*
X3903624Y7188064D01*
X3715000Y7437500D02*
X3715000Y7322499D01*
X3475000Y7437500D02*
X3715000Y7437500D01*
X3475000Y7437500D02*
X3475000Y7322500D01*
X3715000Y7322499D01*
X2664999Y6175000D02*
X3974999Y6175000D01*
X2664999Y4865000D02*
Y6175000D01*
Y4865000D02*
X3975000D01*
X3974999Y6175000D02*
X3975000Y4865000D01*
X2432500Y5455000D02*
Y5545000D01*
X2272500Y5545001D02*
X2432500Y5545000D01*
X2272500Y5545001D02*
X2272501Y5455001D01*
X2432500Y5455000D01*
X2336376Y5360607D02*
X2423623Y5360607D01*
X2336376Y5179394D02*
X2336376Y5360607D01*
X2336376Y5179394D02*
X2423624D01*
X2423623Y5360607D02*
X2423624Y5179394D01*
X1957499Y4775000D02*
X2257501Y4775001D01*
X2257500Y5155000D02*
X2257501Y4775001D01*
X1957500Y5155000D02*
X2257500Y5155000D01*
X1957499Y4775000D02*
X1957500Y5155000D01*
X1982501Y5224231D02*
X2057500Y5224232D01*
X2057500Y5371479D01*
X1982499D02*
X2057500D01*
X1982499D02*
X1982501Y5224231D01*
X2344232Y4822500D02*
X2344233Y4897500D01*
X2344232Y4822500D02*
X2491480Y4822501D01*
X2491480Y4897500D01*
X2344233D02*
X2491480D01*
X589999Y6190001D02*
Y6409999D01*
X370000Y6410000D02*
X589999Y6409999D01*
X370000Y6410000D02*
X370001Y6190001D01*
X589999D01*
X1162190Y5652256D02*
X1357810Y5652255D01*
Y5992875D01*
X1162190Y5992875D02*
X1357810Y5992875D01*
X1162190Y5652256D02*
Y5992875D01*
X1055000Y5280000D02*
X1145000D01*
Y5460000D01*
X1055000D02*
X1145000D01*
X1055000Y5280000D02*
Y5460000D01*
Y5240000D02*
X1145000D01*
X1054999Y5060000D02*
X1055000Y5240000D01*
X1054999Y5060000D02*
X1145000D01*
X1145000Y5240000D01*
X782190Y9467745D02*
X977809Y9467745D01*
X782190Y9467745D02*
X782190Y9127125D01*
X977810Y9127125D01*
X977809Y9467745D02*
X977810Y9127125D01*
X637227Y9518545D02*
X718545Y9437227D01*
X467521Y9348840D02*
X637227Y9518545D01*
X467521Y9348840D02*
X548839Y9267522D01*
X718545Y9437227D01*
X2222499Y7880000D02*
X2337501Y7880000D01*
X2337500Y8120000D02*
X2337501Y7880000D01*
X2222499Y8120000D02*
X2337500D01*
X2222499Y7880000D02*
Y8120000D01*
D213*
X8107499Y8872000D02*
X8107499Y8963999D01*
X8052500Y8872000D02*
X8107499Y8872000D01*
X8052499Y8963999D02*
X8052500Y8872000D01*
X8052499Y8963999D02*
X8107499D01*
X1127500Y1484000D02*
X1127500Y1392000D01*
X1072500Y1392001D02*
X1127500Y1392000D01*
X1072500Y1392001D02*
Y1483999D01*
X1127500Y1484000D01*
X1072500Y1956000D02*
X1072500Y2048000D01*
X1127501Y2048000D01*
Y1956000D02*
Y2048000D01*
X1072500Y1956000D02*
X1127501D01*
X932500Y2136000D02*
Y2228000D01*
X987500D01*
Y2136000D02*
Y2228000D01*
X932500Y2136000D02*
X987500D01*
X852500Y9535998D02*
X907500Y9536000D01*
Y9628001D01*
X852500Y9628000D02*
X907500Y9628001D01*
X852500Y9628000D02*
X852500Y9535998D01*
X1052001Y4952500D02*
Y5007500D01*
Y4952500D02*
X1144000Y4952500D01*
Y5007500D01*
X1052001Y5007500D02*
X1144000Y5007500D01*
X1054000Y5512500D02*
Y5567500D01*
Y5512500D02*
X1146000Y5512499D01*
X1146001Y5567500D01*
X1054000D02*
X1146001D01*
X972501Y5676001D02*
X1027501Y5676001D01*
X1027501Y5768000D01*
X972500Y5768000D02*
X1027501Y5768000D01*
X972500Y5768000D02*
X972501Y5676001D01*
%TF.MD5,77f4806c2d2fbf913be0de70de50070a*%
M02*
