%TF.GenerationSoftware,Altium Limited,Altium Designer,26.2.0 (7)*%
G04 Layer_Color=32896*
%FSLAX45Y45*%
%MOMM*%
%TF.SameCoordinates,7E3C43A8-A274-4656-BCAB-ED4188872703*%
%TF.FilePolarity,Positive*%
%TF.FileFunction,Other,Bottom_Assembly*%
%TF.Part,Single*%
G01*
G75*
%TA.AperFunction,NonConductor*%
%ADD151C,0.20000*%
G36*
X427401Y9684129D02*
X433546Y9690274D01*
X438646Y9685175D01*
X432500Y9679029D01*
X461789Y9649741D01*
X457278Y9645230D01*
X407265Y9653794D01*
X402166Y9658893D01*
X421844Y9678572D01*
X410992Y9689424D01*
X416549Y9694981D01*
X427401Y9684129D01*
D02*
G37*
G36*
X385626Y9657913D02*
X386998Y9657847D01*
X388175Y9657586D01*
X389025Y9657390D01*
X389613Y9657194D01*
X389744D01*
X389810Y9657128D01*
X391575Y9656278D01*
X393340Y9655298D01*
X395105Y9654056D01*
X396674Y9652748D01*
X398047Y9651637D01*
X398570Y9651114D01*
X399158Y9650656D01*
X399551Y9650264D01*
X399812Y9650002D01*
X400008Y9649806D01*
X400074Y9649741D01*
X430931Y9618883D01*
X424917Y9612869D01*
X393732Y9644053D01*
X392359Y9645426D01*
X391052Y9646472D01*
X390006Y9647387D01*
X389090Y9648041D01*
X388371Y9648499D01*
X387848Y9648891D01*
X387456Y9649022D01*
X387391Y9649087D01*
X386475Y9649479D01*
X385626Y9649675D01*
X384776Y9649741D01*
X383991Y9649871D01*
X383337Y9649741D01*
X382814D01*
X382487Y9649675D01*
X382357D01*
X381376Y9649348D01*
X380461Y9648956D01*
X379676Y9648433D01*
X378957Y9647976D01*
X378303Y9647453D01*
X377846Y9647126D01*
X377453Y9646733D01*
X376473Y9645622D01*
X375754Y9644380D01*
X375231Y9643334D01*
X374904Y9642223D01*
X374708Y9641373D01*
X374642Y9640653D01*
X374577Y9640196D01*
Y9640065D01*
X374642Y9639346D01*
X374838Y9638627D01*
X375492Y9637188D01*
X376277Y9635619D01*
X377257Y9634246D01*
X378173Y9632939D01*
X378630Y9632481D01*
X378957Y9632024D01*
X379284Y9631566D01*
X379546Y9631305D01*
X379676Y9631174D01*
X379742Y9631108D01*
X373531Y9626467D01*
X372289Y9627709D01*
X371243Y9628886D01*
X370327Y9630193D01*
X369478Y9631305D01*
X368824Y9632481D01*
X368301Y9633527D01*
X367778Y9634573D01*
X367386Y9635489D01*
X367124Y9636404D01*
X366863Y9637188D01*
X366667Y9637908D01*
X366601Y9638496D01*
X366536Y9638954D01*
X366405Y9639346D01*
Y9639477D01*
Y9639607D01*
X366470Y9640849D01*
X366601Y9642026D01*
X366863Y9643203D01*
X367255Y9644380D01*
X368170Y9646472D01*
X369216Y9648303D01*
X370327Y9649937D01*
X370785Y9650525D01*
X371243Y9651114D01*
X371570Y9651571D01*
X372158Y9652160D01*
X373662Y9653532D01*
X375165Y9654644D01*
X376604Y9655559D01*
X377977Y9656278D01*
X379088Y9656867D01*
X379938Y9657194D01*
X380526Y9657390D01*
X380722Y9657455D01*
X382422Y9657847D01*
X384122Y9657978D01*
X385626Y9657913D01*
D02*
G37*
G36*
X9640849Y9633530D02*
X9642026Y9633399D01*
X9643203Y9633137D01*
X9644380Y9632745D01*
X9646472Y9631830D01*
X9648303Y9630784D01*
X9649937Y9629673D01*
X9650525Y9629215D01*
X9651114Y9628757D01*
X9651571Y9628430D01*
X9652160Y9627842D01*
X9653532Y9626338D01*
X9654644Y9624835D01*
X9655559Y9623397D01*
X9656278Y9622023D01*
X9656867Y9620912D01*
X9657194Y9620062D01*
X9657390Y9619474D01*
X9657455Y9619278D01*
X9657847Y9617578D01*
X9657978Y9615878D01*
X9657913Y9614374D01*
X9657847Y9613002D01*
X9657586Y9611825D01*
X9657390Y9610975D01*
X9657194Y9610387D01*
Y9610256D01*
X9657128Y9610190D01*
X9656278Y9608425D01*
X9655298Y9606660D01*
X9654056Y9604895D01*
X9652748Y9603326D01*
X9651637Y9601953D01*
X9651114Y9601430D01*
X9650656Y9600842D01*
X9650264Y9600449D01*
X9650002Y9600188D01*
X9649806Y9599992D01*
X9649741Y9599926D01*
X9618883Y9569069D01*
X9612869Y9575083D01*
X9644053Y9606268D01*
X9645426Y9607641D01*
X9646472Y9608948D01*
X9647387Y9609994D01*
X9648041Y9610910D01*
X9648499Y9611629D01*
X9648891Y9612152D01*
X9649022Y9612544D01*
X9649087Y9612609D01*
X9649479Y9613525D01*
X9649675Y9614374D01*
X9649741Y9615224D01*
X9649871Y9616009D01*
X9649741Y9616663D01*
Y9617186D01*
X9649675Y9617513D01*
Y9617643D01*
X9649348Y9618624D01*
X9648956Y9619539D01*
X9648433Y9620324D01*
X9647976Y9621043D01*
X9647453Y9621697D01*
X9647126Y9622154D01*
X9646733Y9622547D01*
X9645622Y9623527D01*
X9644380Y9624246D01*
X9643334Y9624769D01*
X9642223Y9625096D01*
X9641373Y9625292D01*
X9640653Y9625358D01*
X9640196Y9625423D01*
X9640065D01*
X9639346Y9625358D01*
X9638627Y9625162D01*
X9637188Y9624508D01*
X9635619Y9623723D01*
X9634246Y9622743D01*
X9632939Y9621827D01*
X9632481Y9621370D01*
X9632024Y9621043D01*
X9631566Y9620716D01*
X9631305Y9620454D01*
X9631174Y9620324D01*
X9631108Y9620258D01*
X9626467Y9626469D01*
X9627709Y9627711D01*
X9628886Y9628757D01*
X9630193Y9629673D01*
X9631305Y9630523D01*
X9632481Y9631176D01*
X9633527Y9631699D01*
X9634573Y9632222D01*
X9635489Y9632614D01*
X9636404Y9632876D01*
X9637188Y9633137D01*
X9637908Y9633334D01*
X9638496Y9633399D01*
X9638954Y9633464D01*
X9639346Y9633595D01*
X9639607D01*
X9640849Y9633530D01*
D02*
G37*
G36*
X9684063Y9594369D02*
X9681775Y9591689D01*
X9679814Y9589074D01*
X9678049Y9586655D01*
X9677264Y9585478D01*
X9676545Y9584367D01*
X9675891Y9583451D01*
X9675368Y9582536D01*
X9674845Y9581752D01*
X9674453Y9581098D01*
X9674191Y9580575D01*
X9673930Y9580183D01*
X9673799Y9579921D01*
X9673734Y9579856D01*
X9671707Y9575868D01*
X9669942Y9572011D01*
X9669092Y9570115D01*
X9668308Y9568284D01*
X9667719Y9566519D01*
X9667066Y9564819D01*
X9666477Y9563316D01*
X9666019Y9561943D01*
X9665627Y9560766D01*
X9665235Y9559720D01*
X9664973Y9558805D01*
X9664777Y9558216D01*
X9664646Y9557824D01*
Y9557693D01*
X9664058Y9555536D01*
X9663470Y9553378D01*
X9663012Y9551352D01*
X9662620Y9549391D01*
X9662293Y9547625D01*
X9661966Y9545860D01*
X9661770Y9544226D01*
X9661574Y9542853D01*
X9661378Y9541480D01*
X9661247Y9540303D01*
Y9539257D01*
X9661182Y9538407D01*
X9661051Y9537754D01*
Y9537231D01*
Y9536969D01*
Y9536838D01*
X9656671Y9532458D01*
X9627382Y9561747D01*
X9632743Y9567108D01*
X9654906Y9544945D01*
X9655232Y9548410D01*
X9655755Y9551940D01*
X9656409Y9555209D01*
X9657063Y9558347D01*
X9657390Y9559720D01*
X9657717Y9560962D01*
X9657978Y9562139D01*
X9658240Y9563054D01*
X9658501Y9563839D01*
X9658632Y9564362D01*
X9658762Y9564754D01*
Y9564885D01*
X9660070Y9568807D01*
X9661508Y9572599D01*
X9663012Y9576064D01*
X9663731Y9577568D01*
X9664450Y9579071D01*
X9665039Y9580444D01*
X9665692Y9581621D01*
X9666216Y9582667D01*
X9666673Y9583517D01*
X9667066Y9584301D01*
X9667327Y9584824D01*
X9667523Y9585151D01*
X9667588Y9585217D01*
X9669615Y9588551D01*
X9670661Y9590120D01*
X9671642Y9591493D01*
X9672557Y9592800D01*
X9673472Y9594108D01*
X9674257Y9595154D01*
X9675041Y9596200D01*
X9675760Y9597050D01*
X9676414Y9597834D01*
X9677002Y9598554D01*
X9677525Y9599077D01*
X9677852Y9599534D01*
X9678114Y9599796D01*
X9678310Y9599992D01*
X9678376Y9600057D01*
X9684063Y9594369D01*
D02*
G37*
G36*
X367649Y443222D02*
X348755Y415568D01*
X342806Y420079D01*
X343068Y421256D01*
Y422432D01*
X343133Y423544D01*
X343068Y424524D01*
X342872Y425374D01*
X342806Y426093D01*
X342675Y426486D01*
Y426616D01*
X342218Y427859D01*
X341695Y429035D01*
X341107Y430016D01*
X340518Y430997D01*
X339930Y431716D01*
X339472Y432304D01*
X338230Y433546D01*
X337315Y434200D01*
X335615Y435246D01*
X333981Y435965D01*
X332477Y436554D01*
X331169Y436815D01*
X330123Y436946D01*
X329469D01*
X329273Y437011D01*
X329208Y436946D01*
X327181Y436750D01*
X325351Y436227D01*
X323651Y435442D01*
X322082Y434527D01*
X320840Y433677D01*
X320317Y433285D01*
X319924Y432893D01*
X319532Y432631D01*
X319271Y432369D01*
X319140Y432239D01*
X319075Y432173D01*
X318159Y431258D01*
X317440Y430278D01*
X316133Y428316D01*
X315218Y426486D01*
X314564Y424917D01*
X314171Y423478D01*
X313910Y422302D01*
Y421909D01*
X313844Y421583D01*
Y421452D01*
Y421321D01*
Y420275D01*
X313910Y419294D01*
X314302Y417333D01*
X314891Y415699D01*
X315675Y414260D01*
X316329Y413084D01*
X317048Y412234D01*
X317244Y411907D01*
X317636Y411515D01*
X318944Y410338D01*
X320317Y409488D01*
X321624Y408834D01*
X322801Y408442D01*
X323912Y408115D01*
X324762Y407919D01*
X325285D01*
X325481Y407853D01*
X327181Y407984D01*
X328816Y408311D01*
X330450Y408900D01*
X331823Y409488D01*
X333065Y410207D01*
X333981Y410730D01*
X334373Y410992D01*
X334634Y411122D01*
X334765Y411253D01*
X334830Y411318D01*
X340191Y405042D01*
X339014Y404127D01*
X337838Y403343D01*
X335419Y402100D01*
X333131Y401250D01*
X332019Y400924D01*
X331038Y400727D01*
X330123Y400466D01*
X329208Y400335D01*
X328489Y400270D01*
X327835D01*
X327312D01*
X326920Y400139D01*
X326724Y400204D01*
X326593D01*
X325220Y400401D01*
X323912Y400662D01*
X322605Y401054D01*
X321363Y401512D01*
X319140Y402558D01*
X317113Y403800D01*
X316198Y404323D01*
X315414Y404977D01*
X314760Y405500D01*
X314171Y405958D01*
X313648Y406350D01*
X313060Y406938D01*
X311752Y408376D01*
X310641Y409880D01*
X309661Y411384D01*
X308876Y412822D01*
X308288Y414326D01*
X307765Y415764D01*
X307307Y417137D01*
X307045Y418444D01*
X306849Y419686D01*
X306653Y420798D01*
Y421844D01*
X306588Y422694D01*
Y423348D01*
Y423871D01*
X306653Y424198D01*
Y424328D01*
X306849Y425832D01*
X307241Y427270D01*
X307568Y428643D01*
X308091Y429951D01*
X309203Y432369D01*
X310510Y434462D01*
X311099Y435312D01*
X311687Y436161D01*
X312210Y436815D01*
X312668Y437403D01*
X313060Y437926D01*
X313387Y438253D01*
X313583Y438449D01*
X313648Y438515D01*
X314891Y439626D01*
X316133Y440607D01*
X317440Y441522D01*
X318682Y442241D01*
X319924Y442830D01*
X321167Y443418D01*
X322344Y443810D01*
X323389Y444203D01*
X324435Y444464D01*
X325416Y444660D01*
X326201Y444791D01*
X326985Y444922D01*
X327574Y444987D01*
X327966D01*
X328227D01*
X328358D01*
X329862Y444922D01*
X331300Y444791D01*
X332673Y444464D01*
X333981Y444072D01*
X335288Y443680D01*
X336465Y443157D01*
X338491Y442045D01*
X339407Y441522D01*
X340191Y440999D01*
X340845Y440476D01*
X341433Y440019D01*
X341891Y439692D01*
X343329Y438253D01*
X343983Y437338D01*
X345225Y435442D01*
X346206Y433546D01*
X346990Y431716D01*
X347513Y430147D01*
X347709Y429428D01*
X347906Y428839D01*
X348036Y428316D01*
X348102Y427989D01*
X348167Y427793D01*
Y427663D01*
X357974Y442307D01*
X339864Y460416D01*
X345160Y465712D01*
X367649Y443222D01*
D02*
G37*
G36*
X387131Y424917D02*
X355947Y393732D01*
X354574Y392359D01*
X353528Y391052D01*
X352613Y390006D01*
X351959Y389090D01*
X351501Y388371D01*
X351109Y387848D01*
X350978Y387456D01*
X350913Y387391D01*
X350521Y386475D01*
X350324Y385626D01*
X350259Y384776D01*
X350128Y383991D01*
X350259Y383337D01*
Y382814D01*
X350324Y382487D01*
Y382357D01*
X350651Y381376D01*
X351044Y380461D01*
X351567Y379676D01*
X352024Y378957D01*
X352547Y378303D01*
X352874Y377846D01*
X353267Y377453D01*
X354378Y376473D01*
X355620Y375754D01*
X356666Y375231D01*
X357777Y374904D01*
X358627Y374708D01*
X359347Y374642D01*
X359804Y374577D01*
X359935D01*
X360654Y374642D01*
X361373Y374838D01*
X362811Y375492D01*
X364381Y376277D01*
X365753Y377257D01*
X367061Y378173D01*
X367518Y378630D01*
X367976Y378957D01*
X368434Y379284D01*
X368695Y379546D01*
X368826Y379676D01*
X368891Y379742D01*
X373533Y373531D01*
X372291Y372289D01*
X371114Y371243D01*
X369807Y370327D01*
X368695Y369478D01*
X367518Y368824D01*
X366472Y368301D01*
X365426Y367778D01*
X364511Y367386D01*
X363596Y367124D01*
X362811Y366863D01*
X362092Y366667D01*
X361504Y366601D01*
X361046Y366536D01*
X360654Y366405D01*
X360523D01*
X360392D01*
X359150Y366470D01*
X357974Y366601D01*
X356797Y366863D01*
X355620Y367255D01*
X353528Y368170D01*
X351697Y369216D01*
X350063Y370327D01*
X349475Y370785D01*
X348886Y371243D01*
X348429Y371570D01*
X347840Y372158D01*
X346467Y373662D01*
X345356Y375165D01*
X344441Y376604D01*
X343721Y377977D01*
X343133Y379088D01*
X342806Y379938D01*
X342610Y380526D01*
X342545Y380722D01*
X342152Y382422D01*
X342022Y384122D01*
X342087Y385626D01*
X342152Y386998D01*
X342414Y388175D01*
X342610Y389025D01*
X342806Y389613D01*
Y389744D01*
X342872Y389810D01*
X343721Y391575D01*
X344702Y393340D01*
X345944Y395105D01*
X347252Y396674D01*
X348363Y398047D01*
X348886Y398570D01*
X349344Y399158D01*
X349736Y399551D01*
X349998Y399812D01*
X350194Y400008D01*
X350259Y400074D01*
X381117Y430931D01*
X387131Y424917D01*
D02*
G37*
G36*
X9561093Y363988D02*
X9562008D01*
X9564034Y363661D01*
X9566127Y363007D01*
X9568219Y362223D01*
X9570311Y361307D01*
X9572337Y360196D01*
X9574299Y359019D01*
X9576260Y357712D01*
X9578025Y356470D01*
X9579725Y355162D01*
X9581228Y353920D01*
X9582601Y352809D01*
X9583713Y351828D01*
X9584628Y350913D01*
X9585347Y350324D01*
X9585609Y350063D01*
X9585805Y349867D01*
X9585870Y349801D01*
X9585936Y349736D01*
X9587962Y347578D01*
X9589793Y345486D01*
X9591427Y343460D01*
X9592800Y341433D01*
X9593977Y339603D01*
X9595023Y337903D01*
X9595873Y336268D01*
X9596527Y334699D01*
X9597050Y333392D01*
X9597507Y332150D01*
X9597834Y331169D01*
X9598030Y330188D01*
X9598226Y329469D01*
X9598292Y329012D01*
X9598357Y328685D01*
Y328554D01*
X9598423Y326789D01*
X9598292Y325089D01*
X9598030Y323520D01*
X9597703Y322016D01*
X9597246Y320513D01*
X9596723Y319205D01*
X9596134Y317963D01*
X9595480Y316786D01*
X9594892Y315806D01*
X9594304Y314825D01*
X9593781Y314041D01*
X9593258Y313387D01*
X9592735Y312864D01*
X9592473Y312471D01*
X9592146Y312144D01*
X9590577Y310706D01*
X9588943Y309595D01*
X9587439Y308614D01*
X9585936Y307895D01*
X9584759Y307372D01*
X9583778Y307045D01*
X9583451Y306849D01*
X9583124Y306784D01*
X9582994D01*
X9582928Y306718D01*
X9581032Y306391D01*
X9579071Y306261D01*
X9577306Y306326D01*
X9575671Y306522D01*
X9574233Y306784D01*
X9573187Y307045D01*
X9572795Y307176D01*
X9572468Y307241D01*
X9572337D01*
X9572272Y307307D01*
X9570245Y308026D01*
X9568349Y309006D01*
X9566715Y309987D01*
X9565277Y311033D01*
X9564034Y311883D01*
X9563642Y312275D01*
X9563185Y312602D01*
X9562858Y312929D01*
X9562662Y313125D01*
X9562531Y313256D01*
X9562466Y313321D01*
X9561354Y314564D01*
X9560374Y315806D01*
X9559458Y317113D01*
X9558674Y318290D01*
X9558085Y319532D01*
X9557497Y320774D01*
X9557039Y321886D01*
X9556712Y322997D01*
X9556451Y324043D01*
X9556189Y324958D01*
X9556059Y325743D01*
X9555928Y326527D01*
X9555797Y327050D01*
Y327443D01*
Y327704D01*
Y327835D01*
Y329273D01*
X9555928Y330711D01*
X9556255Y332084D01*
X9556582Y333326D01*
X9556908Y334569D01*
X9557366Y335680D01*
X9558412Y337641D01*
X9558870Y338491D01*
X9559393Y339276D01*
X9559851Y339864D01*
X9560308Y340452D01*
X9560635Y340910D01*
X9561158Y341433D01*
X9562400Y342544D01*
X9563708Y343460D01*
X9564950Y344310D01*
X9566127Y344963D01*
X9567238Y345421D01*
X9568023Y345813D01*
X9568611Y346009D01*
X9568742D01*
X9568807Y346075D01*
X9570507Y346467D01*
X9572141Y346663D01*
X9573710Y346794D01*
X9575148Y346663D01*
X9576391Y346598D01*
X9577371Y346532D01*
X9578025Y346402D01*
X9578156D01*
X9576979Y347578D01*
X9575737Y348690D01*
X9574626Y349670D01*
X9573449Y350586D01*
X9572468Y351436D01*
X9571487Y352155D01*
X9570572Y352809D01*
X9569657Y353332D01*
X9568872Y353855D01*
X9568219Y354247D01*
X9567630Y354574D01*
X9567173Y354900D01*
X9566780Y355031D01*
X9566519Y355162D01*
X9566323Y355227D01*
X9566257Y355293D01*
X9564296Y355947D01*
X9562466Y356470D01*
X9560831Y356666D01*
X9559393Y356797D01*
X9558151Y356862D01*
X9557235D01*
X9556647Y356797D01*
X9556451Y356731D01*
X9555143Y356470D01*
X9554032Y356012D01*
X9552986Y355489D01*
X9552005Y354900D01*
X9551286Y354443D01*
X9550698Y353985D01*
X9550240Y353528D01*
X9549194Y352220D01*
X9548344Y350847D01*
X9547821Y349540D01*
X9547364Y348298D01*
X9547168Y347186D01*
X9547102Y346336D01*
Y345813D01*
Y345552D01*
X9547233Y344506D01*
X9547494Y343329D01*
X9547887Y342152D01*
X9548410Y341106D01*
X9548867Y340126D01*
X9549260Y339341D01*
X9549586Y338883D01*
Y338753D01*
X9549652Y338687D01*
X9543637Y333588D01*
X9542199Y335811D01*
X9541153Y338034D01*
X9540368Y340126D01*
X9539911Y342021D01*
X9539714Y343656D01*
X9539584Y344310D01*
Y344963D01*
Y345356D01*
Y345748D01*
Y345879D01*
Y346009D01*
X9539714Y347186D01*
X9539976Y348363D01*
X9540630Y350586D01*
X9541545Y352547D01*
X9542591Y354247D01*
X9543572Y355750D01*
X9544029Y356339D01*
X9544487Y356797D01*
X9544814Y357254D01*
X9545337Y357777D01*
X9546710Y359019D01*
X9548083Y360131D01*
X9549521Y361046D01*
X9550959Y361830D01*
X9552397Y362354D01*
X9553771Y362942D01*
X9555143Y363269D01*
X9556386Y363596D01*
X9557497Y363792D01*
X9558674Y363923D01*
X9559589Y364053D01*
X9560374D01*
X9561093Y363988D01*
D02*
G37*
G36*
X9606268Y355947D02*
X9607640Y354574D01*
X9608948Y353528D01*
X9609994Y352612D01*
X9610909Y351959D01*
X9611628Y351501D01*
X9612151Y351109D01*
X9612544Y350978D01*
X9612609Y350913D01*
X9613524Y350520D01*
X9614374Y350324D01*
X9615224Y350259D01*
X9616009Y350128D01*
X9616663Y350259D01*
X9617185D01*
X9617512Y350324D01*
X9617643D01*
X9618624Y350651D01*
X9619539Y351043D01*
X9620323Y351566D01*
X9621043Y352024D01*
X9621697Y352547D01*
X9622154Y352874D01*
X9622546Y353266D01*
X9623527Y354377D01*
X9624246Y355620D01*
X9624769Y356666D01*
X9625096Y357777D01*
X9625292Y358627D01*
X9625357Y359346D01*
X9625423Y359804D01*
Y359935D01*
X9625357Y360654D01*
X9625161Y361373D01*
X9624508Y362811D01*
X9623723Y364380D01*
X9622743Y365753D01*
X9621827Y367060D01*
X9621370Y367518D01*
X9621043Y367976D01*
X9620716Y368433D01*
X9620454Y368695D01*
X9620323Y368826D01*
X9620258Y368891D01*
X9626469Y373533D01*
X9627711Y372291D01*
X9628757Y371114D01*
X9629672Y369806D01*
X9630522Y368695D01*
X9631176Y367518D01*
X9631699Y366472D01*
X9632222Y365426D01*
X9632614Y364511D01*
X9632876Y363596D01*
X9633137Y362811D01*
X9633333Y362092D01*
X9633399Y361503D01*
X9633464Y361046D01*
X9633595Y360654D01*
Y360523D01*
Y360392D01*
X9633530Y359150D01*
X9633399Y357973D01*
X9633137Y356797D01*
X9632745Y355620D01*
X9631830Y353528D01*
X9630784Y351697D01*
X9629672Y350063D01*
X9629215Y349474D01*
X9628757Y348886D01*
X9628430Y348428D01*
X9627842Y347840D01*
X9626338Y346467D01*
X9624834Y345356D01*
X9623396Y344441D01*
X9622023Y343721D01*
X9620912Y343133D01*
X9620062Y342806D01*
X9619474Y342610D01*
X9619277Y342544D01*
X9617578Y342152D01*
X9615878Y342021D01*
X9614374Y342087D01*
X9613001Y342152D01*
X9611825Y342414D01*
X9610975Y342610D01*
X9610386Y342806D01*
X9610256D01*
X9610190Y342871D01*
X9608425Y343721D01*
X9606660Y344702D01*
X9604895Y345944D01*
X9603326Y347252D01*
X9601953Y348363D01*
X9601430Y348886D01*
X9600841Y349344D01*
X9600449Y349736D01*
X9600188Y349997D01*
X9599991Y350194D01*
X9599926Y350259D01*
X9569068Y381117D01*
X9575083Y387131D01*
X9606268Y355947D01*
D02*
G37*
%LPC*%
G36*
X426943Y9673472D02*
X412691Y9659220D01*
X447210Y9653206D01*
X426943Y9673472D01*
D02*
G37*
G36*
X9576587Y341302D02*
X9576325D01*
X9574364Y341172D01*
X9572664Y340779D01*
X9571030Y340191D01*
X9569722Y339537D01*
X9568611Y338818D01*
X9567892Y338230D01*
X9567565Y338034D01*
X9567173Y337641D01*
X9565931Y336138D01*
X9565015Y334569D01*
X9564361Y333130D01*
X9563969Y331692D01*
X9563773Y330450D01*
X9563642Y329535D01*
Y328881D01*
Y328619D01*
X9563904Y326658D01*
X9564427Y324827D01*
X9565211Y323128D01*
X9566127Y321689D01*
X9566977Y320447D01*
X9567369Y319924D01*
X9567761Y319532D01*
X9568023Y319140D01*
X9568284Y318878D01*
X9568415Y318747D01*
X9568480Y318682D01*
X9570376Y317048D01*
X9572141Y315806D01*
X9573841Y314890D01*
X9575410Y314237D01*
X9576783Y313910D01*
X9577829Y313648D01*
X9578483Y313518D01*
X9578679Y313583D01*
X9578744Y313518D01*
X9579725Y313452D01*
X9580640Y313583D01*
X9582405Y313910D01*
X9583909Y314498D01*
X9585217Y315021D01*
X9586263Y315675D01*
X9586982Y316263D01*
X9587308Y316459D01*
X9587635Y316786D01*
X9588485Y317767D01*
X9589204Y318747D01*
X9589727Y319794D01*
X9590120Y320709D01*
X9590512Y321493D01*
X9590708Y322212D01*
X9590839Y322605D01*
X9590904Y322801D01*
X9591100Y324174D01*
X9591166Y325416D01*
X9591035Y326724D01*
X9590904Y327769D01*
X9590708Y328750D01*
X9590512Y329469D01*
X9590381Y329992D01*
X9590316Y330188D01*
X9589727Y331561D01*
X9589008Y332803D01*
X9588354Y333980D01*
X9587635Y334961D01*
X9586982Y335745D01*
X9586459Y336399D01*
X9586132Y336726D01*
X9586001Y336857D01*
X9584301Y338295D01*
X9582667Y339406D01*
X9580967Y340191D01*
X9579529Y340714D01*
X9578221Y341106D01*
X9577175Y341237D01*
X9576587Y341302D01*
D02*
G37*
%LPD*%
D151*
X357878Y9345136D02*
X654864Y9642122D01*
X362122Y9934864D02*
X654864Y9642122D01*
X65136Y9637878D02*
X362122Y9934864D01*
X65136Y9637878D02*
X357878Y9345136D01*
X9345136Y9642122D02*
X9642122Y9345136D01*
X9934864Y9637878D01*
X9637878Y9934864D02*
X9934864Y9637878D01*
X9345136Y9642122D02*
X9637878Y9934864D01*
X357879Y654864D02*
X654864Y357879D01*
X65136Y362121D02*
X357879Y654864D01*
X65136Y362121D02*
X362121Y65136D01*
X654864Y357879D01*
X9345136Y357878D02*
X9642122Y654864D01*
X9345136Y357878D02*
X9637878Y65136D01*
X9934864Y362122D01*
X9642122Y654864D02*
X9934864Y362122D01*
%TF.MD5,1e6b8eefa8060a67b41d259c3fdd2db9*%
M02*
