%TF.GenerationSoftware,Altium Limited,Altium Designer,26.2.0 (7)*%
G04 Layer_Color=255*
%FSLAX45Y45*%
%MOMM*%
%TF.SameCoordinates,7E3C43A8-A274-4656-BCAB-ED4188872703*%
%TF.FilePolarity,Positive*%
%TF.FileFunction,Pads,Bot*%
%TF.Part,Single*%
G01*
G75*
%TA.AperFunction,ComponentPad*%
%ADD131C,1.20000*%
%ADD132C,1.30000*%
%ADD133C,1.52000*%
%ADD134C,1.57000*%
%ADD135C,1.39000*%
%ADD136P,1.96576X4X360.0*%
%ADD137P,1.96576X4X270.0*%
%ADD138C,0.65000*%
%ADD139R,1.52000X1.52000*%
%ADD140C,1.80000*%
%ADD141C,1.40000*%
%ADD142R,1.45000X3.20000*%
%ADD143C,2.00000*%
%ADD144R,1.57000X1.57000*%
D131*
X1740000Y9380000D02*
D03*
X1410000Y8965000D02*
D03*
X1740000D02*
D03*
X1410000Y9380000D02*
D03*
D132*
X7065000Y4389815D02*
D03*
X9200000Y3729999D02*
D03*
Y3479999D02*
D03*
Y3979999D02*
D03*
X7380000Y3594429D02*
D03*
X7580000Y3635206D02*
D03*
X8005571Y4020000D02*
D03*
X7964794Y4220000D02*
D03*
X7380000Y4604794D02*
D03*
X7580000Y4645571D02*
D03*
X6995206Y4020000D02*
D03*
X6954429Y4220000D02*
D03*
D133*
X4892000Y5900000D02*
D03*
X5146000D02*
D03*
X5400000Y5900000D02*
D03*
X5654000Y5900000D02*
D03*
X5908000Y5900000D02*
D03*
D134*
X3392700Y311999D02*
D03*
X400000Y7000000D02*
D03*
X3392700Y566000D02*
D03*
X220000Y9080000D02*
D03*
X1480000Y3500000D02*
D03*
X1820000Y780000D02*
D03*
X1000000Y3080000D02*
D03*
X240000Y2580000D02*
D03*
X3532700Y1440000D02*
D03*
Y1186000D02*
D03*
X2572701Y566000D02*
D03*
X2572700Y820000D02*
D03*
X990000Y3880000D02*
D03*
X1500000Y6280000D02*
D03*
D135*
X9710710Y9569289D02*
D03*
X9569289Y289289D02*
D03*
X289289Y430711D02*
D03*
X430711Y9710710D02*
D03*
D136*
X9569290Y9710711D02*
D03*
X430711Y289289D02*
D03*
D137*
X9710711Y430711D02*
D03*
X289289Y9569290D02*
D03*
D138*
X8201000Y9289500D02*
D03*
X8778999Y9289500D02*
D03*
X680500Y2009001D02*
D03*
Y1431000D02*
D03*
Y5011000D02*
D03*
Y5589000D02*
D03*
D139*
X6162000Y5900000D02*
D03*
D140*
X1895000Y8765000D02*
D03*
D141*
X7580000Y4420000D02*
D03*
D142*
X8920000Y2030000D02*
D03*
Y1330000D02*
D03*
X7720000Y1680000D02*
D03*
D143*
X8625000Y1380000D02*
D03*
X8015000Y1980000D02*
D03*
X6962519Y1335299D02*
D03*
X5122183Y842182D02*
D03*
X4837482Y1904701D02*
D03*
Y1335299D02*
D03*
X5615299Y557481D02*
D03*
X6677818Y842182D02*
D03*
X6184701Y557481D02*
D03*
X5122183Y2397817D02*
D03*
X6184701Y2682518D02*
D03*
X5615299D02*
D03*
X6677818Y2397817D02*
D03*
X6962519Y1904701D02*
D03*
X5617158Y1902843D02*
D03*
D144*
X3532700Y1694000D02*
D03*
X3392700Y820000D02*
D03*
X2572701Y311999D02*
D03*
%TF.MD5,cd4d6171c628d1a64c051f9814c83d02*%
M02*
