%TF.GenerationSoftware,Altium Limited,Altium Designer,26.2.0 (7)*%
G04 Layer_Color=32896*
%FSLAX45Y45*%
%MOMM*%
%TF.SameCoordinates,7E3C43A8-A274-4656-BCAB-ED4188872703*%
%TF.FilePolarity,Positive*%
%TF.FileFunction,Legend,Bot*%
%TF.Part,Single*%
G01*
G75*
%TA.AperFunction,NonConductor*%
%ADD147C,0.15000*%
%ADD151C,0.20000*%
D147*
X9522300Y9381150D02*
X9503450Y9400000D01*
X9512875Y9390575D01*
X9560000Y9437700D01*
Y9456550D01*
X9550575Y9465975D01*
X9531725D01*
X9541150Y9362300D02*
X9578850Y9324599D01*
X9588275Y9334024D01*
Y9409425D01*
X9597700Y9418850D01*
X9781150Y757700D02*
X9800000Y776550D01*
X9790575Y767125D01*
X9837700Y720000D01*
X9856550D01*
X9865975Y729425D01*
Y748275D01*
X9724599Y701150D02*
X9752874Y710575D01*
X9790575D01*
X9809425Y691725D01*
Y672875D01*
X9790575Y654025D01*
X9771724Y654025D01*
X9762299Y663450D01*
X9762299Y682300D01*
X9790575Y710575D01*
X257700Y738850D02*
X276550Y720000D01*
X267125Y729426D01*
X220000Y682300D01*
Y663450D01*
X229425Y654025D01*
X248275D01*
X201150Y795401D02*
X238850Y757701D01*
X210575Y729426D01*
X201150Y757701D01*
X191725Y767126D01*
X172875D01*
X154025Y748276D01*
X154025Y729426D01*
X172875Y710575D01*
X191725D01*
X578850Y9522300D02*
X560000Y9503450D01*
X569425Y9512875D01*
X522300Y9560000D01*
X503450D01*
X494025Y9550575D01*
Y9531725D01*
X569425Y9625975D02*
X625976Y9569425D01*
X569425Y9569425D01*
X607126Y9607125D01*
D151*
X275438Y9406365D02*
X288165Y9419093D01*
X580907Y9711835D02*
X593635Y9724563D01*
X444562Y9873635D02*
X593635Y9724563D01*
X126365Y9555437D02*
X139093Y9568165D01*
X431835Y9860907D02*
X444562Y9873635D01*
X126365Y9555437D02*
X275438Y9406365D01*
X9406365Y9724562D02*
X9419093Y9711835D01*
X9711835Y9419093D02*
X9724563Y9406365D01*
X9873635Y9555438D01*
X9555437Y9873635D02*
X9568165Y9860907D01*
X9860907Y9568165D02*
X9873635Y9555438D01*
X9406365Y9724562D02*
X9555437Y9873635D01*
X580907Y288165D02*
X593635Y275437D01*
X275437Y593635D02*
X288165Y580907D01*
X126365Y444563D02*
X275437Y593635D01*
X431835Y139093D02*
X444563Y126365D01*
X126365Y444563D02*
X139093Y431835D01*
X444563Y126365D02*
X593635Y275437D01*
X9711835Y580907D02*
X9724562Y593635D01*
X9406365Y275437D02*
X9419093Y288165D01*
X9406365Y275437D02*
X9555438Y126365D01*
X9860907Y431835D02*
X9873635Y444564D01*
X9555438Y126365D02*
X9568165Y139093D01*
X9724562Y593635D02*
X9873635Y444564D01*
%TF.MD5,87ee64284ba961ac9ac8676e078635ef*%
M02*
